<?xml version="1.0" encoding="utf-8" standalone="no"?>
<!DOCTYPE svg PUBLIC "-//W3C//DTD SVG 1.1//EN"
  "http://www.w3.org/Graphics/SVG/1.1/DTD/svg11.dtd">
<svg xmlns:xlink="http://www.w3.org/1999/xlink" width="324pt" height="360pt" viewBox="0 0 324 360" xmlns="http://www.w3.org/2000/svg" version="1.1">
 <metadata>
  <rdf:RDF xmlns:dc="http://purl.org/dc/elements/1.1/" xmlns:cc="http://creativecommons.org/ns#" xmlns:rdf="http://www.w3.org/1999/02/22-rdf-syntax-ns#">
   <cc:Work>
    <dc:type rdf:resource="http://purl.org/dc/dcmitype/StillImage"/>
    <dc:date>2024-07-01T16:31:23.093216</dc:date>
    <dc:format>image/svg+xml</dc:format>
    <dc:creator>
     <cc:Agent>
      <dc:title>Matplotlib v3.7.2, https://matplotlib.org/</dc:title>
     </cc:Agent>
    </dc:creator>
   </cc:Work>
  </rdf:RDF>
 </metadata>
 <defs>
  <style type="text/css">*{stroke-linejoin: round; stroke-linecap: butt}</style>
 </defs>
 <g id="figure_1">
  <g id="patch_1">
   <path d="M 0 360 
L 324 360 
L 324 0 
L 0 0 
z
" style="fill: #ffffff"/>
  </g>
  <g id="axes_1">
   <g id="patch_2">
    <path d="M 40.5 320.4 
L 291.6 320.4 
L 291.6 43.2 
L 40.5 43.2 
z
" style="fill: #ffffff"/>
   </g>
   <g id="PolyCollection_1">
    <path d="M 85.502008 307.8 
L 63.97981 307.8 
L 62.270063 305.254545 
L 60.592524 302.709091 
L 58.998849 300.163636 
L 57.531197 297.618182 
L 56.219556 295.072727 
L 55.081403 292.527273 
L 54.123476 289.981818 
L 53.344894 287.436364 
L 52.740633 284.890909 
L 52.304437 282.345455 
L 52.030485 279.8 
L 51.913636 277.254545 
L 51.94849 274.709091 
L 52.127805 272.163636 
L 52.440959 269.618182 
L 52.873029 267.072727 
L 53.404835 264.527273 
L 54.013999 261.981818 
L 54.676807 259.436364 
L 55.370465 256.890909 
L 56.075281 254.345455 
L 56.776354 251.8 
L 57.464464 249.254545 
L 58.136043 246.709091 
L 58.792271 244.163636 
L 59.437514 241.618182 
L 60.077416 239.072727 
L 60.717022 236.527273 
L 61.35925 233.981818 
L 62.003984 231.436364 
L 62.647868 228.890909 
L 63.284805 226.345455 
L 63.906972 223.8 
L 64.506124 221.254545 
L 65.074923 218.709091 
L 65.608044 216.163636 
L 66.102881 213.618182 
L 66.559766 211.072727 
L 66.981678 208.527273 
L 67.373517 205.981818 
L 67.741076 203.436364 
L 68.089877 200.890909 
L 68.424082 198.345455 
L 68.745657 195.8 
L 69.05394 193.254545 
L 69.345715 190.709091 
L 69.615778 188.163636 
L 69.857908 185.618182 
L 70.066082 183.072727 
L 70.235702 180.527273 
L 70.364617 177.981818 
L 70.453758 175.436364 
L 70.507269 172.890909 
L 70.532122 170.345455 
L 70.537314 167.8 
L 70.53278 165.254545 
L 70.528243 162.709091 
L 70.53218 160.163636 
L 70.551069 157.618182 
L 70.589022 155.072727 
L 70.647784 152.527273 
L 70.72706 149.981818 
L 70.825029 147.436364 
L 70.938894 144.890909 
L 71.06536 142.345455 
L 71.200946 139.8 
L 71.342149 137.254545 
L 71.485498 134.709091 
L 71.627598 132.163636 
L 71.765227 129.618182 
L 71.895535 127.072727 
L 72.01631 124.527273 
L 72.126235 121.981818 
L 72.225071 119.436364 
L 72.313666 116.890909 
L 72.393796 114.345455 
L 72.467848 111.8 
L 72.538424 109.254545 
L 72.60797 106.709091 
L 72.678492 104.163636 
L 72.751428 101.618182 
L 72.827648 99.072727 
L 72.907576 96.527273 
L 72.991349 93.981818 
L 73.078961 91.436364 
L 73.170353 88.890909 
L 73.265422 86.345455 
L 73.363967 83.8 
L 73.465607 81.254545 
L 73.5697 78.709091 
L 73.675305 76.163636 
L 73.781205 73.618182 
L 73.885973 71.072727 
L 73.988083 68.527273 
L 74.086039 65.981818 
L 74.178488 63.436364 
L 74.264307 60.890909 
L 74.342656 58.345455 
L 74.413001 55.8 
L 75.068817 55.8 
L 75.068817 55.8 
L 75.139162 58.345455 
L 75.217511 60.890909 
L 75.30333 63.436364 
L 75.395779 65.981818 
L 75.493735 68.527273 
L 75.595845 71.072727 
L 75.700613 73.618182 
L 75.806513 76.163636 
L 75.912119 78.709091 
L 76.016211 81.254545 
L 76.117851 83.8 
L 76.216396 86.345455 
L 76.311465 88.890909 
L 76.402857 91.436364 
L 76.490469 93.981818 
L 76.574242 96.527273 
L 76.65417 99.072727 
L 76.73039 101.618182 
L 76.803326 104.163636 
L 76.873849 106.709091 
L 76.943394 109.254545 
L 77.01397 111.8 
L 77.088022 114.345455 
L 77.168153 116.890909 
L 77.256748 119.436364 
L 77.355583 121.981818 
L 77.465508 124.527273 
L 77.586283 127.072727 
L 77.716592 129.618182 
L 77.85422 132.163636 
L 77.99632 134.709091 
L 78.139669 137.254545 
L 78.280872 139.8 
L 78.416458 142.345455 
L 78.542924 144.890909 
L 78.656789 147.436364 
L 78.754758 149.981818 
L 78.834034 152.527273 
L 78.892796 155.072727 
L 78.930749 157.618182 
L 78.949639 160.163636 
L 78.953575 162.709091 
L 78.949038 165.254545 
L 78.944504 167.8 
L 78.949696 170.345455 
L 78.974549 172.890909 
L 79.02806 175.436364 
L 79.117201 177.981818 
L 79.246116 180.527273 
L 79.415736 183.072727 
L 79.62391 185.618182 
L 79.86604 188.163636 
L 80.136103 190.709091 
L 80.427879 193.254545 
L 80.736162 195.8 
L 81.057736 198.345455 
L 81.391941 200.890909 
L 81.740742 203.436364 
L 82.108301 205.981818 
L 82.50014 208.527273 
L 82.922052 211.072727 
L 83.378938 213.618182 
L 83.873774 216.163636 
L 84.406895 218.709091 
L 84.975694 221.254545 
L 85.574846 223.8 
L 86.197013 226.345455 
L 86.833951 228.890909 
L 87.477835 231.436364 
L 88.122568 233.981818 
L 88.764796 236.527273 
L 89.404402 239.072727 
L 90.044304 241.618182 
L 90.689547 244.163636 
L 91.345775 246.709091 
L 92.017355 249.254545 
L 92.705465 251.8 
L 93.406537 254.345455 
L 94.111353 256.890909 
L 94.805011 259.436364 
L 95.467819 261.981818 
L 96.076983 264.527273 
L 96.608789 267.072727 
L 97.040859 269.618182 
L 97.354013 272.163636 
L 97.533328 274.709091 
L 97.568182 277.254545 
L 97.451334 279.8 
L 97.177381 282.345455 
L 96.741185 284.890909 
L 96.136925 287.436364 
L 95.358342 289.981818 
L 94.400415 292.527273 
L 93.262263 295.072727 
L 91.950621 297.618182 
L 90.482969 300.163636 
L 88.889294 302.709091 
L 87.211755 305.254545 
L 85.502008 307.8 
z
" clip-path="url(#pd0028c64fa)" style="fill: #1f77b4; fill-opacity: 0.3"/>
   </g>
   <g id="PolyCollection_2">
    <path d="M 175.234276 307.8 
L 156.865724 307.8 
L 154.888823 305.356324 
L 152.880275 302.912649 
L 150.91977 300.468973 
L 149.079606 298.025297 
L 147.420585 295.581622 
L 145.99161 293.137946 
L 144.83146 290.69427 
L 143.970538 288.250595 
L 143.430717 285.806919 
L 143.222727 283.363243 
L 143.341994 280.919568 
L 143.764984 278.475892 
L 144.448241 276.032217 
L 145.331527 273.588541 
L 146.345015 271.144865 
L 147.418941 268.70119 
L 148.493169 266.257514 
L 149.524011 263.813838 
L 150.486612 261.370163 
L 151.372754 258.926487 
L 152.185497 256.482811 
L 152.932978 254.039136 
L 153.623643 251.59546 
L 154.264197 249.151784 
L 154.860142 246.708109 
L 155.41766 244.264433 
L 155.945159 241.820757 
L 156.453304 239.377082 
L 156.953322 236.933406 
L 157.45442 234.48973 
L 157.961584 232.046055 
L 158.474807 229.602379 
L 158.990026 227.158703 
L 159.501191 224.715028 
L 160.002431 222.271352 
L 160.489369 219.827677 
L 160.959187 217.384001 
L 161.409694 214.940325 
L 161.838099 212.49665 
L 162.240229 210.052974 
L 162.610636 207.609298 
L 162.943544 205.165623 
L 163.2342 202.721947 
L 163.480059 200.278271 
L 163.681314 197.834596 
L 163.840645 195.39092 
L 163.962366 192.947244 
L 164.051414 190.503569 
L 164.112624 188.059893 
L 164.150515 185.616217 
L 164.16957 183.172542 
L 164.174686 180.728866 
L 164.171424 178.28519 
L 164.165795 175.841515 
L 164.163572 173.397839 
L 164.169374 170.954163 
L 164.185896 168.510488 
L 164.213595 166.066812 
L 164.250945 163.623137 
L 164.295141 161.179461 
L 164.342978 158.735785 
L 164.391636 156.29211 
L 164.439216 153.848434 
L 164.485007 151.404758 
L 164.529548 148.961083 
L 164.574536 146.517407 
L 164.622592 144.073731 
L 164.676826 141.630056 
L 164.740197 139.18638 
L 164.814762 136.742704 
L 164.900974 134.299029 
L 164.997269 131.855353 
L 165.100096 129.411677 
L 165.204403 126.968002 
L 165.304463 124.524326 
L 165.394801 122.08065 
L 165.470991 119.636975 
L 165.530166 117.193299 
L 165.571202 114.749623 
L 165.594628 112.305948 
L 165.602379 109.862272 
L 165.597491 107.418597 
L 165.583767 104.974921 
L 165.565433 102.531245 
L 165.546761 100.08757 
L 165.531663 97.643894 
L 165.523296 95.200218 
L 165.523755 92.756543 
L 165.533925 90.312867 
L 165.553525 87.869191 
L 165.581337 85.425516 
L 165.615545 82.98184 
L 165.654099 80.538164 
L 165.695017 78.094489 
L 165.736587 75.650813 
L 165.777458 73.207137 
L 165.81664 70.763462 
L 165.853446 68.319786 
L 165.887412 65.87611 
L 166.212588 65.87611 
L 166.212588 65.87611 
L 166.246554 68.319786 
L 166.28336 70.763462 
L 166.322542 73.207137 
L 166.363413 75.650813 
L 166.404983 78.094489 
L 166.445901 80.538164 
L 166.484455 82.98184 
L 166.518663 85.425516 
L 166.546475 87.869191 
L 166.566075 90.312867 
L 166.576245 92.756543 
L 166.576704 95.200218 
L 166.568337 97.643894 
L 166.553239 100.08757 
L 166.534567 102.531245 
L 166.516233 104.974921 
L 166.502509 107.418597 
L 166.497621 109.862272 
L 166.505372 112.305948 
L 166.528798 114.749623 
L 166.569834 117.193299 
L 166.629009 119.636975 
L 166.705199 122.08065 
L 166.795537 124.524326 
L 166.895597 126.968002 
L 166.999904 129.411677 
L 167.102731 131.855353 
L 167.199026 134.299029 
L 167.285238 136.742704 
L 167.359803 139.18638 
L 167.423174 141.630056 
L 167.477408 144.073731 
L 167.525464 146.517407 
L 167.570452 148.961083 
L 167.614993 151.404758 
L 167.660784 153.848434 
L 167.708364 156.29211 
L 167.757022 158.735785 
L 167.804859 161.179461 
L 167.849055 163.623137 
L 167.886405 166.066812 
L 167.914104 168.510488 
L 167.930626 170.954163 
L 167.936428 173.397839 
L 167.934205 175.841515 
L 167.928576 178.28519 
L 167.925314 180.728866 
L 167.93043 183.172542 
L 167.949485 185.616217 
L 167.987376 188.059893 
L 168.048586 190.503569 
L 168.137634 192.947244 
L 168.259355 195.39092 
L 168.418686 197.834596 
L 168.619941 200.278271 
L 168.8658 202.721947 
L 169.156456 205.165623 
L 169.489364 207.609298 
L 169.859771 210.052974 
L 170.261901 212.49665 
L 170.690306 214.940325 
L 171.140813 217.384001 
L 171.610631 219.827677 
L 172.097569 222.271352 
L 172.598809 224.715028 
L 173.109974 227.158703 
L 173.625193 229.602379 
L 174.138416 232.046055 
L 174.64558 234.48973 
L 175.146678 236.933406 
L 175.646696 239.377082 
L 176.154841 241.820757 
L 176.68234 244.264433 
L 177.239858 246.708109 
L 177.835803 249.151784 
L 178.476357 251.59546 
L 179.167022 254.039136 
L 179.914503 256.482811 
L 180.727246 258.926487 
L 181.613388 261.370163 
L 182.575989 263.813838 
L 183.606831 266.257514 
L 184.681059 268.70119 
L 185.754985 271.144865 
L 186.768473 273.588541 
L 187.651759 276.032217 
L 188.335016 278.475892 
L 188.758006 280.919568 
L 188.877273 283.363243 
L 188.669283 285.806919 
L 188.129462 288.250595 
L 187.26854 290.69427 
L 186.10839 293.137946 
L 184.679415 295.581622 
L 183.020394 298.025297 
L 181.18023 300.468973 
L 179.219725 302.912649 
L 177.211177 305.356324 
L 175.234276 307.8 
z
" clip-path="url(#pd0028c64fa)" style="fill: #1f77b4; fill-opacity: 0.3"/>
   </g>
   <g id="PolyCollection_3">
    <path d="M 261.478902 307.8 
L 253.23928 307.8 
L 251.272915 306.538576 
L 248.931442 305.277152 
L 246.330041 304.015729 
L 243.61996 302.754305 
L 240.977681 301.492881 
L 238.593584 300.231457 
L 236.649832 298.970033 
L 235.288515 297.70861 
L 234.584048 296.447186 
L 234.531818 295.185762 
L 235.053539 293.924338 
L 236.014739 292.662914 
L 237.252834 291.401491 
L 238.614035 290.140067 
L 239.990149 288.878643 
L 241.34032 287.617219 
L 242.685036 286.355795 
L 244.071081 285.094372 
L 245.523538 283.832948 
L 247.013803 282.571524 
L 248.465535 281.3101 
L 249.792793 280.048676 
L 250.940311 278.787252 
L 251.898762 277.525829 
L 252.692538 276.264405 
L 253.357246 275.002981 
L 253.92321 273.741557 
L 254.408889 272.480133 
L 254.820568 271.21871 
L 255.155893 269.957286 
L 255.411036 268.695862 
L 255.589133 267.434438 
L 255.704509 266.173014 
L 255.77926 264.911591 
L 255.835005 263.650167 
L 255.886559 262.388743 
L 255.9416 261.127319 
L 256.00457 259.865895 
L 256.079959 258.604472 
L 256.172041 257.343048 
L 256.281967 256.081624 
L 256.405232 254.8202 
L 256.531882 253.558776 
L 256.649766 252.297353 
L 256.749202 251.035929 
L 256.826532 249.774505 
L 256.884618 248.513081 
L 256.930155 247.251657 
L 256.969511 245.990234 
L 257.005421 244.72881 
L 257.036127 243.467386 
L 257.057151 242.205962 
L 257.064552 240.944538 
L 257.057702 239.683115 
L 257.040071 238.421691 
L 257.018155 237.160267 
L 256.999931 235.898843 
L 256.993659 234.637419 
L 257.006301 233.375996 
L 257.040804 232.114572 
L 257.093389 230.853148 
L 257.153384 229.591724 
L 257.206755 228.3303 
L 257.241601 227.068877 
L 257.252458 225.807453 
L 257.241411 224.546029 
L 257.216134 223.284605 
L 257.186367 222.023181 
L 257.160625 220.761757 
L 257.14438 219.500334 
L 257.139871 218.23891 
L 257.146731 216.977486 
L 257.162632 215.716062 
L 257.18389 214.454638 
L 257.206457 213.193215 
L 257.227318 211.931791 
L 257.24555 210.670367 
L 257.262214 209.408943 
L 257.279016 208.147519 
L 257.296693 206.886096 
L 257.314339 205.624672 
L 257.330066 204.363248 
L 257.34226 203.101824 
L 257.350419 201.8404 
L 257.355102 200.578977 
L 257.357327 199.317553 
L 257.357939 198.056129 
L 257.35724 196.794705 
L 257.35488 195.533281 
L 257.349963 194.271858 
L 257.341438 193.010434 
L 257.328758 191.74901 
L 257.312568 190.487586 
L 257.294947 189.226162 
L 257.278881 187.964739 
L 257.267267 186.703315 
L 257.262099 185.441891 
L 257.264201 184.180467 
L 257.273244 182.919043 
L 257.444937 182.919043 
L 257.444937 182.919043 
L 257.45398 184.180467 
L 257.456082 185.441891 
L 257.450915 186.703315 
L 257.439301 187.964739 
L 257.423235 189.226162 
L 257.405614 190.487586 
L 257.389424 191.74901 
L 257.376743 193.010434 
L 257.368219 194.271858 
L 257.363302 195.533281 
L 257.360941 196.794705 
L 257.360243 198.056129 
L 257.360855 199.317553 
L 257.363079 200.578977 
L 257.367762 201.8404 
L 257.375921 203.101824 
L 257.388116 204.363248 
L 257.403843 205.624672 
L 257.421489 206.886096 
L 257.439166 208.147519 
L 257.455968 209.408943 
L 257.472632 210.670367 
L 257.490864 211.931791 
L 257.511725 213.193215 
L 257.534292 214.454638 
L 257.55555 215.716062 
L 257.571451 216.977486 
L 257.578311 218.23891 
L 257.573802 219.500334 
L 257.557557 220.761757 
L 257.531815 222.023181 
L 257.502048 223.284605 
L 257.476771 224.546029 
L 257.465724 225.807453 
L 257.476581 227.068877 
L 257.511427 228.3303 
L 257.564798 229.591724 
L 257.624793 230.853148 
L 257.677377 232.114572 
L 257.711881 233.375996 
L 257.724523 234.637419 
L 257.718251 235.898843 
L 257.700026 237.160267 
L 257.67811 238.421691 
L 257.66048 239.683115 
L 257.65363 240.944538 
L 257.661031 242.205962 
L 257.682054 243.467386 
L 257.71276 244.72881 
L 257.748671 245.990234 
L 257.788027 247.251657 
L 257.833564 248.513081 
L 257.89165 249.774505 
L 257.96898 251.035929 
L 258.068416 252.297353 
L 258.1863 253.558776 
L 258.31295 254.8202 
L 258.436215 256.081624 
L 258.546141 257.343048 
L 258.638223 258.604472 
L 258.713612 259.865895 
L 258.776582 261.127319 
L 258.831623 262.388743 
L 258.883176 263.650167 
L 258.938922 264.911591 
L 259.013673 266.173014 
L 259.129049 267.434438 
L 259.307146 268.695862 
L 259.562289 269.957286 
L 259.897613 271.21871 
L 260.309293 272.480133 
L 260.794972 273.741557 
L 261.360936 275.002981 
L 262.025644 276.264405 
L 262.81942 277.525829 
L 263.777871 278.787252 
L 264.925389 280.048676 
L 266.252647 281.3101 
L 267.704379 282.571524 
L 269.194644 283.832948 
L 270.6471 285.094372 
L 272.033146 286.355795 
L 273.377861 287.617219 
L 274.728033 288.878643 
L 276.104147 290.140067 
L 277.465348 291.401491 
L 278.703443 292.662914 
L 279.664643 293.924338 
L 280.186364 295.185762 
L 280.134134 296.447186 
L 279.429667 297.70861 
L 278.06835 298.970033 
L 276.124598 300.231457 
L 273.740501 301.492881 
L 271.098221 302.754305 
L 268.38814 304.015729 
L 265.78674 305.277152 
L 263.445266 306.538576 
L 261.478902 307.8 
z
" clip-path="url(#pd0028c64fa)" style="fill: #1f77b4; fill-opacity: 0.3"/>
   </g>
   <g id="matplotlib.axis_1">
    <g id="xtick_1">
     <g id="line2d_1">
      <defs>
       <path id="m5e1e312693" d="M 0 0 
L 0 3.5 
" style="stroke: #000000; stroke-width: 0.8"/>
      </defs>
      <g>
       <use xlink:href="#m5e1e312693" x="74.740909" y="320.4" style="stroke: #000000; stroke-width: 0.8"/>
      </g>
     </g>
     <g id="text_1">
      <!-- W0 -->
      <g transform="translate(66.615909 334.998438) scale(0.1 -0.1)">
       <defs>
        <path id="DejaVuSans-57" d="M 213 4666 
L 850 4666 
L 1831 722 
L 2809 4666 
L 3519 4666 
L 4500 722 
L 5478 4666 
L 6119 4666 
L 4947 0 
L 4153 0 
L 3169 4050 
L 2175 0 
L 1381 0 
L 213 4666 
z
" transform="scale(0.015625)"/>
        <path id="DejaVuSans-30" d="M 2034 4250 
Q 1547 4250 1301 3770 
Q 1056 3291 1056 2328 
Q 1056 1369 1301 889 
Q 1547 409 2034 409 
Q 2525 409 2770 889 
Q 3016 1369 3016 2328 
Q 3016 3291 2770 3770 
Q 2525 4250 2034 4250 
z
M 2034 4750 
Q 2819 4750 3233 4129 
Q 3647 3509 3647 2328 
Q 3647 1150 3233 529 
Q 2819 -91 2034 -91 
Q 1250 -91 836 529 
Q 422 1150 422 2328 
Q 422 3509 836 4129 
Q 1250 4750 2034 4750 
z
" transform="scale(0.015625)"/>
       </defs>
       <use xlink:href="#DejaVuSans-57"/>
       <use xlink:href="#DejaVuSans-30" x="98.876953"/>
      </g>
     </g>
    </g>
    <g id="xtick_2">
     <g id="line2d_2">
      <g>
       <use xlink:href="#m5e1e312693" x="166.05" y="320.4" style="stroke: #000000; stroke-width: 0.8"/>
      </g>
     </g>
     <g id="text_2">
      <!-- W100 -->
      <g transform="translate(151.5625 334.998438) scale(0.1 -0.1)">
       <defs>
        <path id="DejaVuSans-31" d="M 794 531 
L 1825 531 
L 1825 4091 
L 703 3866 
L 703 4441 
L 1819 4666 
L 2450 4666 
L 2450 531 
L 3481 531 
L 3481 0 
L 794 0 
L 794 531 
z
" transform="scale(0.015625)"/>
       </defs>
       <use xlink:href="#DejaVuSans-57"/>
       <use xlink:href="#DejaVuSans-31" x="98.876953"/>
       <use xlink:href="#DejaVuSans-30" x="162.5"/>
       <use xlink:href="#DejaVuSans-30" x="226.123047"/>
      </g>
     </g>
    </g>
    <g id="xtick_3">
     <g id="line2d_3">
      <g>
       <use xlink:href="#m5e1e312693" x="257.359091" y="320.4" style="stroke: #000000; stroke-width: 0.8"/>
      </g>
     </g>
     <g id="text_3">
      <!-- Chromosome -->
      <g transform="translate(224.155966 334.998438) scale(0.1 -0.1)">
       <defs>
        <path id="DejaVuSans-43" d="M 4122 4306 
L 4122 3641 
Q 3803 3938 3442 4084 
Q 3081 4231 2675 4231 
Q 1875 4231 1450 3742 
Q 1025 3253 1025 2328 
Q 1025 1406 1450 917 
Q 1875 428 2675 428 
Q 3081 428 3442 575 
Q 3803 722 4122 1019 
L 4122 359 
Q 3791 134 3420 21 
Q 3050 -91 2638 -91 
Q 1578 -91 968 557 
Q 359 1206 359 2328 
Q 359 3453 968 4101 
Q 1578 4750 2638 4750 
Q 3056 4750 3426 4639 
Q 3797 4528 4122 4306 
z
" transform="scale(0.015625)"/>
        <path id="DejaVuSans-68" d="M 3513 2113 
L 3513 0 
L 2938 0 
L 2938 2094 
Q 2938 2591 2744 2837 
Q 2550 3084 2163 3084 
Q 1697 3084 1428 2787 
Q 1159 2491 1159 1978 
L 1159 0 
L 581 0 
L 581 4863 
L 1159 4863 
L 1159 2956 
Q 1366 3272 1645 3428 
Q 1925 3584 2291 3584 
Q 2894 3584 3203 3211 
Q 3513 2838 3513 2113 
z
" transform="scale(0.015625)"/>
        <path id="DejaVuSans-72" d="M 2631 2963 
Q 2534 3019 2420 3045 
Q 2306 3072 2169 3072 
Q 1681 3072 1420 2755 
Q 1159 2438 1159 1844 
L 1159 0 
L 581 0 
L 581 3500 
L 1159 3500 
L 1159 2956 
Q 1341 3275 1631 3429 
Q 1922 3584 2338 3584 
Q 2397 3584 2469 3576 
Q 2541 3569 2628 3553 
L 2631 2963 
z
" transform="scale(0.015625)"/>
        <path id="DejaVuSans-6f" d="M 1959 3097 
Q 1497 3097 1228 2736 
Q 959 2375 959 1747 
Q 959 1119 1226 758 
Q 1494 397 1959 397 
Q 2419 397 2687 759 
Q 2956 1122 2956 1747 
Q 2956 2369 2687 2733 
Q 2419 3097 1959 3097 
z
M 1959 3584 
Q 2709 3584 3137 3096 
Q 3566 2609 3566 1747 
Q 3566 888 3137 398 
Q 2709 -91 1959 -91 
Q 1206 -91 779 398 
Q 353 888 353 1747 
Q 353 2609 779 3096 
Q 1206 3584 1959 3584 
z
" transform="scale(0.015625)"/>
        <path id="DejaVuSans-6d" d="M 3328 2828 
Q 3544 3216 3844 3400 
Q 4144 3584 4550 3584 
Q 5097 3584 5394 3201 
Q 5691 2819 5691 2113 
L 5691 0 
L 5113 0 
L 5113 2094 
Q 5113 2597 4934 2840 
Q 4756 3084 4391 3084 
Q 3944 3084 3684 2787 
Q 3425 2491 3425 1978 
L 3425 0 
L 2847 0 
L 2847 2094 
Q 2847 2600 2669 2842 
Q 2491 3084 2119 3084 
Q 1678 3084 1418 2786 
Q 1159 2488 1159 1978 
L 1159 0 
L 581 0 
L 581 3500 
L 1159 3500 
L 1159 2956 
Q 1356 3278 1631 3431 
Q 1906 3584 2284 3584 
Q 2666 3584 2933 3390 
Q 3200 3197 3328 2828 
z
" transform="scale(0.015625)"/>
        <path id="DejaVuSans-73" d="M 2834 3397 
L 2834 2853 
Q 2591 2978 2328 3040 
Q 2066 3103 1784 3103 
Q 1356 3103 1142 2972 
Q 928 2841 928 2578 
Q 928 2378 1081 2264 
Q 1234 2150 1697 2047 
L 1894 2003 
Q 2506 1872 2764 1633 
Q 3022 1394 3022 966 
Q 3022 478 2636 193 
Q 2250 -91 1575 -91 
Q 1294 -91 989 -36 
Q 684 19 347 128 
L 347 722 
Q 666 556 975 473 
Q 1284 391 1588 391 
Q 1994 391 2212 530 
Q 2431 669 2431 922 
Q 2431 1156 2273 1281 
Q 2116 1406 1581 1522 
L 1381 1569 
Q 847 1681 609 1914 
Q 372 2147 372 2553 
Q 372 3047 722 3315 
Q 1072 3584 1716 3584 
Q 2034 3584 2315 3537 
Q 2597 3491 2834 3397 
z
" transform="scale(0.015625)"/>
        <path id="DejaVuSans-65" d="M 3597 1894 
L 3597 1613 
L 953 1613 
Q 991 1019 1311 708 
Q 1631 397 2203 397 
Q 2534 397 2845 478 
Q 3156 559 3463 722 
L 3463 178 
Q 3153 47 2828 -22 
Q 2503 -91 2169 -91 
Q 1331 -91 842 396 
Q 353 884 353 1716 
Q 353 2575 817 3079 
Q 1281 3584 2069 3584 
Q 2775 3584 3186 3129 
Q 3597 2675 3597 1894 
z
M 3022 2063 
Q 3016 2534 2758 2815 
Q 2500 3097 2075 3097 
Q 1594 3097 1305 2825 
Q 1016 2553 972 2059 
L 3022 2063 
z
" transform="scale(0.015625)"/>
       </defs>
       <use xlink:href="#DejaVuSans-43"/>
       <use xlink:href="#DejaVuSans-68" x="69.824219"/>
       <use xlink:href="#DejaVuSans-72" x="133.203125"/>
       <use xlink:href="#DejaVuSans-6f" x="172.066406"/>
       <use xlink:href="#DejaVuSans-6d" x="233.248047"/>
       <use xlink:href="#DejaVuSans-6f" x="330.660156"/>
       <use xlink:href="#DejaVuSans-73" x="391.841797"/>
       <use xlink:href="#DejaVuSans-6f" x="443.941406"/>
       <use xlink:href="#DejaVuSans-6d" x="505.123047"/>
       <use xlink:href="#DejaVuSans-65" x="602.535156"/>
      </g>
     </g>
    </g>
   </g>
   <g id="matplotlib.axis_2">
    <g id="ytick_1">
     <g id="line2d_4">
      <defs>
       <path id="mef2b0651fb" d="M 0 0 
L -3.5 0 
" style="stroke: #000000; stroke-width: 0.8"/>
      </defs>
      <g>
       <use xlink:href="#mef2b0651fb" x="40.5" y="307.8" style="stroke: #000000; stroke-width: 0.8"/>
      </g>
     </g>
     <g id="text_4">
      <!-- 0 -->
      <g transform="translate(27.1375 311.599219) scale(0.1 -0.1)">
       <use xlink:href="#DejaVuSans-30"/>
      </g>
     </g>
    </g>
    <g id="ytick_2">
     <g id="line2d_5">
      <g>
       <use xlink:href="#mef2b0651fb" x="40.5" y="259.228506" style="stroke: #000000; stroke-width: 0.8"/>
      </g>
     </g>
     <g id="text_5">
      <!-- 200 -->
      <g transform="translate(14.4125 263.027725) scale(0.1 -0.1)">
       <defs>
        <path id="DejaVuSans-32" d="M 1228 531 
L 3431 531 
L 3431 0 
L 469 0 
L 469 531 
Q 828 903 1448 1529 
Q 2069 2156 2228 2338 
Q 2531 2678 2651 2914 
Q 2772 3150 2772 3378 
Q 2772 3750 2511 3984 
Q 2250 4219 1831 4219 
Q 1534 4219 1204 4116 
Q 875 4013 500 3803 
L 500 4441 
Q 881 4594 1212 4672 
Q 1544 4750 1819 4750 
Q 2544 4750 2975 4387 
Q 3406 4025 3406 3419 
Q 3406 3131 3298 2873 
Q 3191 2616 2906 2266 
Q 2828 2175 2409 1742 
Q 1991 1309 1228 531 
z
" transform="scale(0.015625)"/>
       </defs>
       <use xlink:href="#DejaVuSans-32"/>
       <use xlink:href="#DejaVuSans-30" x="63.623047"/>
       <use xlink:href="#DejaVuSans-30" x="127.246094"/>
      </g>
     </g>
    </g>
    <g id="ytick_3">
     <g id="line2d_6">
      <g>
       <use xlink:href="#mef2b0651fb" x="40.5" y="210.657013" style="stroke: #000000; stroke-width: 0.8"/>
      </g>
     </g>
     <g id="text_6">
      <!-- 400 -->
      <g transform="translate(14.4125 214.456232) scale(0.1 -0.1)">
       <defs>
        <path id="DejaVuSans-34" d="M 2419 4116 
L 825 1625 
L 2419 1625 
L 2419 4116 
z
M 2253 4666 
L 3047 4666 
L 3047 1625 
L 3713 1625 
L 3713 1100 
L 3047 1100 
L 3047 0 
L 2419 0 
L 2419 1100 
L 313 1100 
L 313 1709 
L 2253 4666 
z
" transform="scale(0.015625)"/>
       </defs>
       <use xlink:href="#DejaVuSans-34"/>
       <use xlink:href="#DejaVuSans-30" x="63.623047"/>
       <use xlink:href="#DejaVuSans-30" x="127.246094"/>
      </g>
     </g>
    </g>
    <g id="ytick_4">
     <g id="line2d_7">
      <g>
       <use xlink:href="#mef2b0651fb" x="40.5" y="162.085519" style="stroke: #000000; stroke-width: 0.8"/>
      </g>
     </g>
     <g id="text_7">
      <!-- 600 -->
      <g transform="translate(14.4125 165.884738) scale(0.1 -0.1)">
       <defs>
        <path id="DejaVuSans-36" d="M 2113 2584 
Q 1688 2584 1439 2293 
Q 1191 2003 1191 1497 
Q 1191 994 1439 701 
Q 1688 409 2113 409 
Q 2538 409 2786 701 
Q 3034 994 3034 1497 
Q 3034 2003 2786 2293 
Q 2538 2584 2113 2584 
z
M 3366 4563 
L 3366 3988 
Q 3128 4100 2886 4159 
Q 2644 4219 2406 4219 
Q 1781 4219 1451 3797 
Q 1122 3375 1075 2522 
Q 1259 2794 1537 2939 
Q 1816 3084 2150 3084 
Q 2853 3084 3261 2657 
Q 3669 2231 3669 1497 
Q 3669 778 3244 343 
Q 2819 -91 2113 -91 
Q 1303 -91 875 529 
Q 447 1150 447 2328 
Q 447 3434 972 4092 
Q 1497 4750 2381 4750 
Q 2619 4750 2861 4703 
Q 3103 4656 3366 4563 
z
" transform="scale(0.015625)"/>
       </defs>
       <use xlink:href="#DejaVuSans-36"/>
       <use xlink:href="#DejaVuSans-30" x="63.623047"/>
       <use xlink:href="#DejaVuSans-30" x="127.246094"/>
      </g>
     </g>
    </g>
    <g id="ytick_5">
     <g id="line2d_8">
      <g>
       <use xlink:href="#mef2b0651fb" x="40.5" y="113.514026" style="stroke: #000000; stroke-width: 0.8"/>
      </g>
     </g>
     <g id="text_8">
      <!-- 800 -->
      <g transform="translate(14.4125 117.313244) scale(0.1 -0.1)">
       <defs>
        <path id="DejaVuSans-38" d="M 2034 2216 
Q 1584 2216 1326 1975 
Q 1069 1734 1069 1313 
Q 1069 891 1326 650 
Q 1584 409 2034 409 
Q 2484 409 2743 651 
Q 3003 894 3003 1313 
Q 3003 1734 2745 1975 
Q 2488 2216 2034 2216 
z
M 1403 2484 
Q 997 2584 770 2862 
Q 544 3141 544 3541 
Q 544 4100 942 4425 
Q 1341 4750 2034 4750 
Q 2731 4750 3128 4425 
Q 3525 4100 3525 3541 
Q 3525 3141 3298 2862 
Q 3072 2584 2669 2484 
Q 3125 2378 3379 2068 
Q 3634 1759 3634 1313 
Q 3634 634 3220 271 
Q 2806 -91 2034 -91 
Q 1263 -91 848 271 
Q 434 634 434 1313 
Q 434 1759 690 2068 
Q 947 2378 1403 2484 
z
M 1172 3481 
Q 1172 3119 1398 2916 
Q 1625 2713 2034 2713 
Q 2441 2713 2670 2916 
Q 2900 3119 2900 3481 
Q 2900 3844 2670 4047 
Q 2441 4250 2034 4250 
Q 1625 4250 1398 4047 
Q 1172 3844 1172 3481 
z
" transform="scale(0.015625)"/>
       </defs>
       <use xlink:href="#DejaVuSans-38"/>
       <use xlink:href="#DejaVuSans-30" x="63.623047"/>
       <use xlink:href="#DejaVuSans-30" x="127.246094"/>
      </g>
     </g>
    </g>
    <g id="ytick_6">
     <g id="line2d_9">
      <g>
       <use xlink:href="#mef2b0651fb" x="40.5" y="64.942532" style="stroke: #000000; stroke-width: 0.8"/>
      </g>
     </g>
     <g id="text_9">
      <!-- 1000 -->
      <g transform="translate(8.05 68.741751) scale(0.1 -0.1)">
       <use xlink:href="#DejaVuSans-31"/>
       <use xlink:href="#DejaVuSans-30" x="63.623047"/>
       <use xlink:href="#DejaVuSans-30" x="127.246094"/>
       <use xlink:href="#DejaVuSans-30" x="190.869141"/>
      </g>
     </g>
    </g>
    <g id="text_10">
     <!-- Variance In Location Estimate -->
     <g transform="translate(1.970312 256.04375) rotate(-90) scale(0.1 -0.1)">
      <defs>
       <path id="DejaVuSans-56" d="M 1831 0 
L 50 4666 
L 709 4666 
L 2188 738 
L 3669 4666 
L 4325 4666 
L 2547 0 
L 1831 0 
z
" transform="scale(0.015625)"/>
       <path id="DejaVuSans-61" d="M 2194 1759 
Q 1497 1759 1228 1600 
Q 959 1441 959 1056 
Q 959 750 1161 570 
Q 1363 391 1709 391 
Q 2188 391 2477 730 
Q 2766 1069 2766 1631 
L 2766 1759 
L 2194 1759 
z
M 3341 1997 
L 3341 0 
L 2766 0 
L 2766 531 
Q 2569 213 2275 61 
Q 1981 -91 1556 -91 
Q 1019 -91 701 211 
Q 384 513 384 1019 
Q 384 1609 779 1909 
Q 1175 2209 1959 2209 
L 2766 2209 
L 2766 2266 
Q 2766 2663 2505 2880 
Q 2244 3097 1772 3097 
Q 1472 3097 1187 3025 
Q 903 2953 641 2809 
L 641 3341 
Q 956 3463 1253 3523 
Q 1550 3584 1831 3584 
Q 2591 3584 2966 3190 
Q 3341 2797 3341 1997 
z
" transform="scale(0.015625)"/>
       <path id="DejaVuSans-69" d="M 603 3500 
L 1178 3500 
L 1178 0 
L 603 0 
L 603 3500 
z
M 603 4863 
L 1178 4863 
L 1178 4134 
L 603 4134 
L 603 4863 
z
" transform="scale(0.015625)"/>
       <path id="DejaVuSans-6e" d="M 3513 2113 
L 3513 0 
L 2938 0 
L 2938 2094 
Q 2938 2591 2744 2837 
Q 2550 3084 2163 3084 
Q 1697 3084 1428 2787 
Q 1159 2491 1159 1978 
L 1159 0 
L 581 0 
L 581 3500 
L 1159 3500 
L 1159 2956 
Q 1366 3272 1645 3428 
Q 1925 3584 2291 3584 
Q 2894 3584 3203 3211 
Q 3513 2838 3513 2113 
z
" transform="scale(0.015625)"/>
       <path id="DejaVuSans-63" d="M 3122 3366 
L 3122 2828 
Q 2878 2963 2633 3030 
Q 2388 3097 2138 3097 
Q 1578 3097 1268 2742 
Q 959 2388 959 1747 
Q 959 1106 1268 751 
Q 1578 397 2138 397 
Q 2388 397 2633 464 
Q 2878 531 3122 666 
L 3122 134 
Q 2881 22 2623 -34 
Q 2366 -91 2075 -91 
Q 1284 -91 818 406 
Q 353 903 353 1747 
Q 353 2603 823 3093 
Q 1294 3584 2113 3584 
Q 2378 3584 2631 3529 
Q 2884 3475 3122 3366 
z
" transform="scale(0.015625)"/>
       <path id="DejaVuSans-20" transform="scale(0.015625)"/>
       <path id="DejaVuSans-49" d="M 628 4666 
L 1259 4666 
L 1259 0 
L 628 0 
L 628 4666 
z
" transform="scale(0.015625)"/>
       <path id="DejaVuSans-4c" d="M 628 4666 
L 1259 4666 
L 1259 531 
L 3531 531 
L 3531 0 
L 628 0 
L 628 4666 
z
" transform="scale(0.015625)"/>
       <path id="DejaVuSans-74" d="M 1172 4494 
L 1172 3500 
L 2356 3500 
L 2356 3053 
L 1172 3053 
L 1172 1153 
Q 1172 725 1289 603 
Q 1406 481 1766 481 
L 2356 481 
L 2356 0 
L 1766 0 
Q 1100 0 847 248 
Q 594 497 594 1153 
L 594 3053 
L 172 3053 
L 172 3500 
L 594 3500 
L 594 4494 
L 1172 4494 
z
" transform="scale(0.015625)"/>
       <path id="DejaVuSans-45" d="M 628 4666 
L 3578 4666 
L 3578 4134 
L 1259 4134 
L 1259 2753 
L 3481 2753 
L 3481 2222 
L 1259 2222 
L 1259 531 
L 3634 531 
L 3634 0 
L 628 0 
L 628 4666 
z
" transform="scale(0.015625)"/>
      </defs>
      <use xlink:href="#DejaVuSans-56"/>
      <use xlink:href="#DejaVuSans-61" x="60.658203"/>
      <use xlink:href="#DejaVuSans-72" x="121.9375"/>
      <use xlink:href="#DejaVuSans-69" x="163.050781"/>
      <use xlink:href="#DejaVuSans-61" x="190.833984"/>
      <use xlink:href="#DejaVuSans-6e" x="252.113281"/>
      <use xlink:href="#DejaVuSans-63" x="315.492188"/>
      <use xlink:href="#DejaVuSans-65" x="370.472656"/>
      <use xlink:href="#DejaVuSans-20" x="431.996094"/>
      <use xlink:href="#DejaVuSans-49" x="463.783203"/>
      <use xlink:href="#DejaVuSans-6e" x="493.275391"/>
      <use xlink:href="#DejaVuSans-20" x="556.654297"/>
      <use xlink:href="#DejaVuSans-4c" x="588.441406"/>
      <use xlink:href="#DejaVuSans-6f" x="642.404297"/>
      <use xlink:href="#DejaVuSans-63" x="703.585938"/>
      <use xlink:href="#DejaVuSans-61" x="758.566406"/>
      <use xlink:href="#DejaVuSans-74" x="819.845703"/>
      <use xlink:href="#DejaVuSans-69" x="859.054688"/>
      <use xlink:href="#DejaVuSans-6f" x="886.837891"/>
      <use xlink:href="#DejaVuSans-6e" x="948.019531"/>
      <use xlink:href="#DejaVuSans-20" x="1011.398438"/>
      <use xlink:href="#DejaVuSans-45" x="1043.185547"/>
      <use xlink:href="#DejaVuSans-73" x="1106.369141"/>
      <use xlink:href="#DejaVuSans-74" x="1158.46875"/>
      <use xlink:href="#DejaVuSans-69" x="1197.677734"/>
      <use xlink:href="#DejaVuSans-6d" x="1225.460938"/>
      <use xlink:href="#DejaVuSans-61" x="1322.873047"/>
      <use xlink:href="#DejaVuSans-74" x="1384.152344"/>
      <use xlink:href="#DejaVuSans-65" x="1423.361328"/>
     </g>
    </g>
   </g>
   <g id="LineCollection_1">
    <path d="M 63.327273 242.604149 
L 86.154545 242.604149 
" clip-path="url(#pd0028c64fa)" style="fill: none; stroke: #1f77b4; stroke-width: 1.5"/>
    <path d="M 154.636364 258.585281 
L 177.463636 258.585281 
" clip-path="url(#pd0028c64fa)" style="fill: none; stroke: #1f77b4; stroke-width: 1.5"/>
    <path d="M 245.945455 289.632582 
L 268.772727 289.632582 
" clip-path="url(#pd0028c64fa)" style="fill: none; stroke: #1f77b4; stroke-width: 1.5"/>
   </g>
   <g id="LineCollection_2">
    <path d="M 63.327273 55.8 
L 86.154545 55.8 
" clip-path="url(#pd0028c64fa)" style="fill: none; stroke: #1f77b4; stroke-width: 1.5"/>
    <path d="M 154.636364 65.87611 
L 177.463636 65.87611 
" clip-path="url(#pd0028c64fa)" style="fill: none; stroke: #1f77b4; stroke-width: 1.5"/>
    <path d="M 245.945455 182.919043 
L 268.772727 182.919043 
" clip-path="url(#pd0028c64fa)" style="fill: none; stroke: #1f77b4; stroke-width: 1.5"/>
   </g>
   <g id="LineCollection_3">
    <path d="M 63.327273 307.8 
L 86.154545 307.8 
" clip-path="url(#pd0028c64fa)" style="fill: none; stroke: #1f77b4; stroke-width: 1.5"/>
    <path d="M 154.636364 307.8 
L 177.463636 307.8 
" clip-path="url(#pd0028c64fa)" style="fill: none; stroke: #1f77b4; stroke-width: 1.5"/>
    <path d="M 245.945455 307.8 
L 268.772727 307.8 
" clip-path="url(#pd0028c64fa)" style="fill: none; stroke: #1f77b4; stroke-width: 1.5"/>
   </g>
   <g id="LineCollection_4">
    <path d="M 74.740909 307.8 
L 74.740909 55.8 
" clip-path="url(#pd0028c64fa)" style="fill: none; stroke: #1f77b4; stroke-width: 1.5"/>
    <path d="M 166.05 307.8 
L 166.05 65.87611 
" clip-path="url(#pd0028c64fa)" style="fill: none; stroke: #1f77b4; stroke-width: 1.5"/>
    <path d="M 257.359091 307.8 
L 257.359091 182.919043 
" clip-path="url(#pd0028c64fa)" style="fill: none; stroke: #1f77b4; stroke-width: 1.5"/>
   </g>
   <g id="patch_3">
    <path d="M 40.5 320.4 
L 40.5 43.2 
" style="fill: none; stroke: #000000; stroke-width: 0.8; stroke-linejoin: miter; stroke-linecap: square"/>
   </g>
   <g id="patch_4">
    <path d="M 291.6 320.4 
L 291.6 43.2 
" style="fill: none; stroke: #000000; stroke-width: 0.8; stroke-linejoin: miter; stroke-linecap: square"/>
   </g>
   <g id="patch_5">
    <path d="M 40.5 320.4 
L 291.6 320.4 
" style="fill: none; stroke: #000000; stroke-width: 0.8; stroke-linejoin: miter; stroke-linecap: square"/>
   </g>
   <g id="patch_6">
    <path d="M 40.5 43.2 
L 291.6 43.2 
" style="fill: none; stroke: #000000; stroke-width: 0.8; stroke-linejoin: miter; stroke-linecap: square"/>
   </g>
  </g>
 </g>
 <defs>
  <clipPath id="pd0028c64fa">
   <rect x="40.5" y="43.2" width="251.1" height="277.2"/>
  </clipPath>
 </defs>
</svg>
