<?xml version="1.0" encoding="utf-8" standalone="no"?>
<!DOCTYPE svg PUBLIC "-//W3C//DTD SVG 1.1//EN"
  "http://www.w3.org/Graphics/SVG/1.1/DTD/svg11.dtd">
<svg xmlns:xlink="http://www.w3.org/1999/xlink" width="324pt" height="360pt" viewBox="0 0 324 360" xmlns="http://www.w3.org/2000/svg" version="1.1">
 <metadata>
  <rdf:RDF xmlns:dc="http://purl.org/dc/elements/1.1/" xmlns:cc="http://creativecommons.org/ns#" xmlns:rdf="http://www.w3.org/1999/02/22-rdf-syntax-ns#">
   <cc:Work>
    <dc:type rdf:resource="http://purl.org/dc/dcmitype/StillImage"/>
    <dc:date>2024-09-11T07:32:12.938474</dc:date>
    <dc:format>image/svg+xml</dc:format>
    <dc:creator>
     <cc:Agent>
      <dc:title>Matplotlib v3.9.2, https://matplotlib.org/</dc:title>
     </cc:Agent>
    </dc:creator>
   </cc:Work>
  </rdf:RDF>
 </metadata>
 <defs>
  <style type="text/css">*{stroke-linejoin: round; stroke-linecap: butt}</style>
 </defs>
 <g id="figure_1">
  <g id="patch_1">
   <path d="M 0 360 
L 324 360 
L 324 0 
L 0 0 
z
" style="fill: #ffffff"/>
  </g>
  <g id="axes_1">
   <g id="patch_2">
    <path d="M 40.5 320.4 
L 291.6 320.4 
L 291.6 43.2 
L 40.5 43.2 
z
" style="fill: #ffffff"/>
   </g>
   <g id="PolyCollection_1">
    <path d="M 51.913636 281.312465 
L 51.913636 298.287535 
L 54.219421 299.55944 
L 56.525207 300.807754 
L 58.830992 301.996118 
L 61.136777 303.093994 
L 63.442562 304.078986 
L 65.748347 304.937956 
L 68.054132 305.666827 
L 70.359917 306.269215 
L 72.665702 306.754202 
L 74.971488 307.133672 
L 77.277273 307.419675 
L 79.583058 307.622256 
L 81.888843 307.748074 
L 84.194628 307.8 
L 86.500413 307.777681 
L 88.806198 307.678897 
L 91.111983 307.501374 
L 93.417769 307.244633 
L 95.723554 306.911467 
L 98.029339 306.508715 
L 100.335124 306.047175 
L 102.640909 305.540696 
L 104.946694 305.004644 
L 107.252479 304.45409 
L 109.558264 303.902089 
L 111.86405 303.35839 
L 114.169835 302.8288 
L 116.47562 302.315264 
L 118.781405 301.816598 
L 121.08719 301.329668 
L 123.392975 300.850739 
L 125.69876 300.376723 
L 128.004545 299.906098 
L 130.310331 299.439361 
L 132.616116 298.978975 
L 134.921901 298.528889 
L 137.227686 298.093784 
L 139.533471 297.678217 
L 141.839256 297.285875 
L 144.145041 296.919069 
L 146.450826 296.578555 
L 148.756612 296.263695 
L 151.062397 295.97288 
L 153.368182 295.704102 
L 155.673967 295.455519 
L 157.979752 295.225901 
L 160.285537 295.014841 
L 162.591322 294.822707 
L 164.897107 294.650367 
L 167.202893 294.498748 
L 169.508678 294.368352 
L 171.814463 294.25883 
L 174.120248 294.168711 
L 176.426033 294.095329 
L 178.731818 294.034968 
L 181.037603 293.983173 
L 183.343388 293.935173 
L 185.649174 293.886334 
L 187.954959 293.832559 
L 190.260744 293.77059 
L 192.566529 293.698176 
L 194.872314 293.614105 
L 197.178099 293.518141 
L 199.483884 293.410888 
L 201.789669 293.29364 
L 204.095455 293.168234 
L 206.40124 293.036945 
L 208.707025 292.902397 
L 211.01281 292.767478 
L 213.318595 292.635239 
L 215.62438 292.50874 
L 217.930165 292.390844 
L 220.23595 292.283969 
L 222.541736 292.189838 
L 224.847521 292.10928 
L 227.153306 292.042109 
L 229.459091 291.987133 
L 231.764876 291.942285 
L 234.070661 291.904842 
L 236.376446 291.871717 
L 238.682231 291.839749 
L 240.988017 291.805967 
L 243.293802 291.767791 
L 245.599587 291.723175 
L 247.905372 291.670668 
L 250.211157 291.609416 
L 252.516942 291.539121 
L 254.822727 291.45995 
L 257.128512 291.372435 
L 259.434298 291.277374 
L 261.740083 291.175747 
L 264.045868 291.068685 
L 266.351653 290.957466 
L 268.657438 290.843544 
L 270.963223 290.728578 
L 273.269008 290.614435 
L 275.574793 290.50314 
L 277.880579 290.39677 
L 280.186364 290.297305 
L 280.186364 289.302695 
L 280.186364 289.302695 
L 277.880579 289.20323 
L 275.574793 289.09686 
L 273.269008 288.985565 
L 270.963223 288.871422 
L 268.657438 288.756456 
L 266.351653 288.642534 
L 264.045868 288.531315 
L 261.740083 288.424253 
L 259.434298 288.322626 
L 257.128512 288.227565 
L 254.822727 288.14005 
L 252.516942 288.060879 
L 250.211157 287.990584 
L 247.905372 287.929332 
L 245.599587 287.876825 
L 243.293802 287.832209 
L 240.988017 287.794033 
L 238.682231 287.760251 
L 236.376446 287.728283 
L 234.070661 287.695158 
L 231.764876 287.657715 
L 229.459091 287.612867 
L 227.153306 287.557891 
L 224.847521 287.49072 
L 222.541736 287.410162 
L 220.23595 287.316031 
L 217.930165 287.209156 
L 215.62438 287.09126 
L 213.318595 286.964761 
L 211.01281 286.832522 
L 208.707025 286.697603 
L 206.40124 286.563055 
L 204.095455 286.431766 
L 201.789669 286.30636 
L 199.483884 286.189112 
L 197.178099 286.081859 
L 194.872314 285.985895 
L 192.566529 285.901824 
L 190.260744 285.82941 
L 187.954959 285.767441 
L 185.649174 285.713666 
L 183.343388 285.664827 
L 181.037603 285.616827 
L 178.731818 285.565032 
L 176.426033 285.504671 
L 174.120248 285.431289 
L 171.814463 285.34117 
L 169.508678 285.231648 
L 167.202893 285.101252 
L 164.897107 284.949633 
L 162.591322 284.777293 
L 160.285537 284.585159 
L 157.979752 284.374099 
L 155.673967 284.144481 
L 153.368182 283.895898 
L 151.062397 283.62712 
L 148.756612 283.336305 
L 146.450826 283.021445 
L 144.145041 282.680931 
L 141.839256 282.314125 
L 139.533471 281.921783 
L 137.227686 281.506216 
L 134.921901 281.071111 
L 132.616116 280.621025 
L 130.310331 280.160639 
L 128.004545 279.693902 
L 125.69876 279.223277 
L 123.392975 278.749261 
L 121.08719 278.270332 
L 118.781405 277.783402 
L 116.47562 277.284736 
L 114.169835 276.7712 
L 111.86405 276.24161 
L 109.558264 275.697911 
L 107.252479 275.14591 
L 104.946694 274.595356 
L 102.640909 274.059304 
L 100.335124 273.552825 
L 98.029339 273.091285 
L 95.723554 272.688533 
L 93.417769 272.355367 
L 91.111983 272.098626 
L 88.806198 271.921103 
L 86.500413 271.822319 
L 84.194628 271.8 
L 81.888843 271.851926 
L 79.583058 271.977744 
L 77.277273 272.180325 
L 74.971488 272.466328 
L 72.665702 272.845798 
L 70.359917 273.330785 
L 68.054132 273.933173 
L 65.748347 274.662044 
L 63.442562 275.521014 
L 61.136777 276.506006 
L 58.830992 277.603882 
L 56.525207 278.792246 
L 54.219421 280.04056 
L 51.913636 281.312465 
z
" clip-path="url(#p3fca49c523)" style="fill: #1f77b4; fill-opacity: 0.3"/>
   </g>
   <g id="PolyCollection_2">
    <path d="M 51.913636 209.554176 
L 51.913636 226.045824 
L 54.218235 227.362007 
L 56.522833 228.660194 
L 58.827431 229.899854 
L 61.13203 231.046531 
L 63.436628 232.07465 
L 65.741226 232.968913 
L 68.045825 233.724163 
L 70.350423 234.343865 
L 72.655022 234.837531 
L 74.95962 235.217612 
L 77.264218 235.496406 
L 79.568817 235.68353 
L 81.873415 235.784406 
L 84.178013 235.8 
L 86.482612 235.727832 
L 88.78721 235.563988 
L 91.091808 235.305636 
L 93.396407 234.953453 
L 95.701005 234.513356 
L 98.005603 233.997138 
L 100.310202 233.421857 
L 102.6148 232.808131 
L 104.919398 232.177732 
L 107.223997 231.551 
L 109.528595 230.944588 
L 111.833193 230.369907 
L 114.137792 229.832493 
L 116.44239 229.332271 
L 118.746988 228.864569 
L 121.051587 228.421629 
L 123.356185 227.994332 
L 125.660784 227.573876 
L 127.965382 227.153199 
L 130.26998 226.727978 
L 132.574579 226.297123 
L 134.879177 225.86274 
L 137.183775 225.429606 
L 139.488374 225.004269 
L 141.792972 224.593951 
L 144.09757 224.205444 
L 146.402169 223.84419 
L 148.706767 223.513672 
L 151.011365 223.215191 
L 153.315964 222.947992 
L 155.620562 222.709667 
L 157.92516 222.496704 
L 160.229759 222.305084 
L 162.534357 222.130837 
L 164.838955 221.970504 
L 167.143554 221.821497 
L 169.448152 221.682322 
L 171.752751 221.552672 
L 174.057349 221.433344 
L 176.361947 221.325979 
L 178.666546 221.232618 
L 180.971144 221.155127 
L 183.275742 221.09457 
L 185.580341 221.050654 
L 187.884939 221.02137 
L 190.189537 221.002915 
L 192.494136 220.989953 
L 194.798734 220.976173 
L 197.103332 220.955071 
L 199.407931 220.920808 
L 201.712529 220.869005 
L 204.017127 220.797326 
L 206.321726 220.705775 
L 208.626324 220.596654 
L 210.930922 220.474205 
L 213.235521 220.344002 
L 215.540119 220.21219 
L 217.844718 220.084697 
L 220.149316 219.966516 
L 222.453914 219.861179 
L 224.758513 219.770476 
L 227.063111 219.694435 
L 229.367709 219.631562 
L 231.672308 219.579254 
L 233.976906 219.534295 
L 236.281504 219.493353 
L 238.586103 219.45337 
L 240.890701 219.411821 
L 243.195299 219.366817 
L 245.499898 219.317093 
L 247.804496 219.261906 
L 250.109094 219.200907 
L 252.413693 219.134031 
L 254.718291 219.061414 
L 257.022889 218.983364 
L 259.327488 218.900367 
L 261.632086 218.813125 
L 263.936684 218.722587 
L 266.241283 218.629974 
L 268.545881 218.536763 
L 270.85048 218.444627 
L 273.155078 218.355333 
L 275.459676 218.270604 
L 277.764275 218.191979 
L 280.068873 218.120685 
L 280.068873 217.479315 
L 280.068873 217.479315 
L 277.764275 217.408021 
L 275.459676 217.329396 
L 273.155078 217.244667 
L 270.85048 217.155373 
L 268.545881 217.063237 
L 266.241283 216.970026 
L 263.936684 216.877413 
L 261.632086 216.786875 
L 259.327488 216.699633 
L 257.022889 216.616636 
L 254.718291 216.538586 
L 252.413693 216.465969 
L 250.109094 216.399093 
L 247.804496 216.338094 
L 245.499898 216.282907 
L 243.195299 216.233183 
L 240.890701 216.188179 
L 238.586103 216.14663 
L 236.281504 216.106647 
L 233.976906 216.065705 
L 231.672308 216.020746 
L 229.367709 215.968438 
L 227.063111 215.905565 
L 224.758513 215.829524 
L 222.453914 215.738821 
L 220.149316 215.633484 
L 217.844718 215.515303 
L 215.540119 215.38781 
L 213.235521 215.255998 
L 210.930922 215.125795 
L 208.626324 215.003346 
L 206.321726 214.894225 
L 204.017127 214.802674 
L 201.712529 214.730995 
L 199.407931 214.679192 
L 197.103332 214.644929 
L 194.798734 214.623827 
L 192.494136 214.610047 
L 190.189537 214.597085 
L 187.884939 214.57863 
L 185.580341 214.549346 
L 183.275742 214.50543 
L 180.971144 214.444873 
L 178.666546 214.367382 
L 176.361947 214.274021 
L 174.057349 214.166656 
L 171.752751 214.047328 
L 169.448152 213.917678 
L 167.143554 213.778503 
L 164.838955 213.629496 
L 162.534357 213.469163 
L 160.229759 213.294916 
L 157.92516 213.103296 
L 155.620562 212.890333 
L 153.315964 212.652008 
L 151.011365 212.384809 
L 148.706767 212.086328 
L 146.402169 211.75581 
L 144.09757 211.394556 
L 141.792972 211.006049 
L 139.488374 210.595731 
L 137.183775 210.170394 
L 134.879177 209.73726 
L 132.574579 209.302877 
L 130.26998 208.872022 
L 127.965382 208.446801 
L 125.660784 208.026124 
L 123.356185 207.605668 
L 121.051587 207.178371 
L 118.746988 206.735431 
L 116.44239 206.267729 
L 114.137792 205.767507 
L 111.833193 205.230093 
L 109.528595 204.655412 
L 107.223997 204.049 
L 104.919398 203.422268 
L 102.6148 202.791869 
L 100.310202 202.178143 
L 98.005603 201.602862 
L 95.701005 201.086644 
L 93.396407 200.646547 
L 91.091808 200.294364 
L 88.78721 200.036012 
L 86.482612 199.872168 
L 84.178013 199.8 
L 81.873415 199.815594 
L 79.568817 199.91647 
L 77.264218 200.103594 
L 74.95962 200.382388 
L 72.655022 200.762469 
L 70.350423 201.256135 
L 68.045825 201.875837 
L 65.741226 202.631087 
L 63.436628 203.52535 
L 61.13203 204.553469 
L 58.827431 205.700146 
L 56.522833 206.939806 
L 54.218235 208.237993 
L 51.913636 209.554176 
z
" clip-path="url(#p3fca49c523)" style="fill: #1f77b4; fill-opacity: 0.3"/>
   </g>
   <g id="PolyCollection_3">
    <path d="M 51.913636 139.10905 
L 51.913636 152.49095 
L 54.069143 154.034946 
L 56.22465 155.630296 
L 58.380157 157.213282 
L 60.535663 158.722456 
L 62.69117 160.10278 
L 64.846677 161.307849 
L 67.002184 162.300909 
L 69.15769 163.055544 
L 71.313197 163.556441 
L 73.468704 163.8 
L 75.624211 163.794207 
L 77.779718 163.557319 
L 79.935224 163.115481 
L 82.090731 162.499936 
L 84.246238 161.744642 
L 86.401745 160.884807 
L 88.557251 159.956242 
L 90.712758 158.99483 
L 92.868265 158.035337 
L 95.023772 157.109127 
L 97.179278 156.241094 
L 99.334785 155.44673 
L 101.490292 154.730495 
L 103.645799 154.086295 
L 105.801306 153.50016 
L 107.956812 152.954429 
L 110.112319 152.432289 
L 112.267826 151.921493 
L 114.423333 151.416447 
L 116.578839 150.918431 
L 118.734346 150.4342 
L 120.889853 149.973571 
L 123.04536 149.54672 
L 125.200866 149.161862 
L 127.356373 148.823812 
L 129.51188 148.533615 
L 131.667387 148.289109 
L 133.822893 148.086061 
L 135.9784 147.919381 
L 138.133907 147.784046 
L 140.289414 147.675557 
L 142.444921 147.589977 
L 144.600427 147.523747 
L 146.755934 147.473474 
L 148.911441 147.435839 
L 151.066948 147.407644 
L 153.222454 147.385959 
L 155.377961 147.368287 
L 157.533468 147.352645 
L 159.688975 147.337546 
L 161.844481 147.321849 
L 163.999988 147.304568 
L 166.155495 147.284711 
L 168.311002 147.261239 
L 170.466509 147.233164 
L 172.622015 147.199742 
L 174.777522 147.160649 
L 176.933029 147.11606 
L 179.088536 147.066592 
L 181.244042 147.013135 
L 183.399549 146.956691 
L 185.555056 146.898254 
L 187.710563 146.838807 
L 189.866069 146.77935 
L 192.021576 146.720949 
L 194.177083 146.664725 
L 196.33259 146.611777 
L 198.488096 146.56307 
L 200.643603 146.519299 
L 202.79911 146.480796 
L 204.954617 146.447483 
L 207.110124 146.418931 
L 209.26563 146.394478 
L 211.421137 146.373386 
L 213.576644 146.35496 
L 215.732151 146.338576 
L 217.887657 146.323616 
L 220.043164 146.309363 
L 222.198671 146.294956 
L 224.354178 146.279433 
L 226.509684 146.26189 
L 228.665191 146.241666 
L 230.820698 146.218501 
L 232.976205 146.192599 
L 235.131712 146.164596 
L 237.287218 146.135465 
L 239.442725 146.106377 
L 241.598232 146.078535 
L 243.753739 146.053 
L 245.909245 146.03051 
L 248.064752 146.011341 
L 250.220259 145.995247 
L 252.375766 145.981529 
L 254.531272 145.969194 
L 256.686779 145.957197 
L 258.842286 145.944668 
L 260.997793 145.931075 
L 263.153299 145.916295 
L 265.308806 145.900584 
L 265.308806 145.699416 
L 265.308806 145.699416 
L 263.153299 145.683705 
L 260.997793 145.668925 
L 258.842286 145.655332 
L 256.686779 145.642803 
L 254.531272 145.630806 
L 252.375766 145.618471 
L 250.220259 145.604753 
L 248.064752 145.588659 
L 245.909245 145.56949 
L 243.753739 145.547 
L 241.598232 145.521465 
L 239.442725 145.493623 
L 237.287218 145.464535 
L 235.131712 145.435404 
L 232.976205 145.407401 
L 230.820698 145.381499 
L 228.665191 145.358334 
L 226.509684 145.33811 
L 224.354178 145.320567 
L 222.198671 145.305044 
L 220.043164 145.290637 
L 217.887657 145.276384 
L 215.732151 145.261424 
L 213.576644 145.24504 
L 211.421137 145.226614 
L 209.26563 145.205522 
L 207.110124 145.181069 
L 204.954617 145.152517 
L 202.79911 145.119204 
L 200.643603 145.080701 
L 198.488096 145.03693 
L 196.33259 144.988223 
L 194.177083 144.935275 
L 192.021576 144.879051 
L 189.866069 144.82065 
L 187.710563 144.761193 
L 185.555056 144.701746 
L 183.399549 144.643309 
L 181.244042 144.586865 
L 179.088536 144.533408 
L 176.933029 144.48394 
L 174.777522 144.439351 
L 172.622015 144.400258 
L 170.466509 144.366836 
L 168.311002 144.338761 
L 166.155495 144.315289 
L 163.999988 144.295432 
L 161.844481 144.278151 
L 159.688975 144.262454 
L 157.533468 144.247355 
L 155.377961 144.231713 
L 153.222454 144.214041 
L 151.066948 144.192356 
L 148.911441 144.164161 
L 146.755934 144.126526 
L 144.600427 144.076253 
L 142.444921 144.010023 
L 140.289414 143.924443 
L 138.133907 143.815954 
L 135.9784 143.680619 
L 133.822893 143.513939 
L 131.667387 143.310891 
L 129.51188 143.066385 
L 127.356373 142.776188 
L 125.200866 142.438138 
L 123.04536 142.05328 
L 120.889853 141.626429 
L 118.734346 141.1658 
L 116.578839 140.681569 
L 114.423333 140.183553 
L 112.267826 139.678507 
L 110.112319 139.167711 
L 107.956812 138.645571 
L 105.801306 138.09984 
L 103.645799 137.513705 
L 101.490292 136.869505 
L 99.334785 136.15327 
L 97.179278 135.358906 
L 95.023772 134.490873 
L 92.868265 133.564663 
L 90.712758 132.60517 
L 88.557251 131.643758 
L 86.401745 130.715193 
L 84.246238 129.855358 
L 82.090731 129.100064 
L 79.935224 128.484519 
L 77.779718 128.042681 
L 75.624211 127.805793 
L 73.468704 127.8 
L 71.313197 128.043559 
L 69.15769 128.544456 
L 67.002184 129.299091 
L 64.846677 130.292151 
L 62.69117 131.49722 
L 60.535663 132.877544 
L 58.380157 134.386718 
L 56.22465 135.969704 
L 54.069143 137.565054 
L 51.913636 139.10905 
z
" clip-path="url(#p3fca49c523)" style="fill: #1f77b4; fill-opacity: 0.3"/>
   </g>
   <g id="PolyCollection_4">
    <path d="M 51.913636 69.749297 
L 51.913636 77.850703 
L 53.261749 79.36408 
L 54.609861 81.076441 
L 55.957973 82.90802 
L 57.306085 84.769706 
L 58.654198 86.574534 
L 60.00231 88.241089 
L 61.350422 89.68792 
L 62.698534 90.825582 
L 64.046647 91.557834 
L 65.394759 91.8 
L 66.742871 91.510237 
L 68.090983 90.716826 
L 69.439096 89.522649 
L 70.787208 88.080379 
L 72.13532 86.549954 
L 73.483432 85.05987 
L 74.831545 83.688928 
L 76.179657 82.470657 
L 77.527769 81.410372 
L 78.875882 80.501983 
L 80.223994 79.737185 
L 81.572106 79.106997 
L 82.920218 78.599629 
L 84.268331 78.198398 
L 85.616443 77.881143 
L 86.964555 77.620911 
L 88.312667 77.387718 
L 89.66078 77.151904 
L 91.008892 76.889605 
L 92.357004 76.589231 
L 93.705116 76.255906 
L 95.053229 75.910627 
L 96.401341 75.583344 
L 97.749453 75.302719 
L 99.097565 75.087275 
L 100.445678 74.941516 
L 101.79379 74.857574 
L 103.141902 74.820245 
L 104.490014 74.812478 
L 105.838127 74.819241 
L 107.186239 74.829145 
L 108.534351 74.834336 
L 109.882463 74.829692 
L 111.230576 74.812189 
L 112.578688 74.780822 
L 113.9268 74.736751 
L 115.274912 74.683135 
L 116.623025 74.62433 
L 117.971137 74.564735 
L 119.319249 74.507861 
L 120.667361 74.456032 
L 122.015474 74.41062 
L 123.363586 74.372371 
L 124.711698 74.341422 
L 126.059811 74.317034 
L 127.407923 74.297357 
L 128.756035 74.279629 
L 130.104147 74.260939 
L 131.45226 74.239267 
L 132.800372 74.214239 
L 134.148484 74.187038 
L 135.496596 74.159437 
L 136.844709 74.132561 
L 138.192821 74.106236 
L 139.540933 74.079373 
L 140.889045 74.051011 
L 142.237158 74.021176 
L 143.58527 73.990964 
L 144.933382 73.96195 
L 146.281494 73.935481 
L 147.629607 73.912383 
L 148.977719 73.893094 
L 150.325831 73.877916 
L 151.673943 73.867006 
L 153.022056 73.860109 
L 154.370168 73.856332 
L 155.71828 73.8543 
L 157.066392 73.852698 
L 158.414505 73.850876 
L 159.762617 73.849032 
L 161.110729 73.847808 
L 162.458841 73.84757 
L 163.806954 73.84791 
L 165.155066 73.847749 
L 166.503178 73.846011 
L 167.85129 73.842417 
L 169.199403 73.837911 
L 170.547515 73.834461 
L 171.895627 73.834345 
L 173.24374 73.839242 
L 174.591852 73.849489 
L 175.939964 73.863771 
L 177.288076 73.879386 
L 178.636189 73.893044 
L 179.984301 73.901892 
L 181.332413 73.904334 
L 182.680525 73.900282 
L 184.028638 73.890847 
L 185.37675 73.877758 
L 185.37675 73.722242 
L 185.37675 73.722242 
L 184.028638 73.709153 
L 182.680525 73.699718 
L 181.332413 73.695666 
L 179.984301 73.698108 
L 178.636189 73.706956 
L 177.288076 73.720614 
L 175.939964 73.736229 
L 174.591852 73.750511 
L 173.24374 73.760758 
L 171.895627 73.765655 
L 170.547515 73.765539 
L 169.199403 73.762089 
L 167.85129 73.757583 
L 166.503178 73.753989 
L 165.155066 73.752251 
L 163.806954 73.75209 
L 162.458841 73.75243 
L 161.110729 73.752192 
L 159.762617 73.750968 
L 158.414505 73.749124 
L 157.066392 73.747302 
L 155.71828 73.7457 
L 154.370168 73.743668 
L 153.022056 73.739891 
L 151.673943 73.732994 
L 150.325831 73.722084 
L 148.977719 73.706906 
L 147.629607 73.687617 
L 146.281494 73.664519 
L 144.933382 73.63805 
L 143.58527 73.609036 
L 142.237158 73.578824 
L 140.889045 73.548989 
L 139.540933 73.520627 
L 138.192821 73.493764 
L 136.844709 73.467439 
L 135.496596 73.440563 
L 134.148484 73.412962 
L 132.800372 73.385761 
L 131.45226 73.360733 
L 130.104147 73.339061 
L 128.756035 73.320371 
L 127.407923 73.302643 
L 126.059811 73.282966 
L 124.711698 73.258578 
L 123.363586 73.227629 
L 122.015474 73.18938 
L 120.667361 73.143968 
L 119.319249 73.092139 
L 117.971137 73.035265 
L 116.623025 72.97567 
L 115.274912 72.916865 
L 113.9268 72.863249 
L 112.578688 72.819178 
L 111.230576 72.787811 
L 109.882463 72.770308 
L 108.534351 72.765664 
L 107.186239 72.770855 
L 105.838127 72.780759 
L 104.490014 72.787522 
L 103.141902 72.779755 
L 101.79379 72.742426 
L 100.445678 72.658484 
L 99.097565 72.512725 
L 97.749453 72.297281 
L 96.401341 72.016656 
L 95.053229 71.689373 
L 93.705116 71.344094 
L 92.357004 71.010769 
L 91.008892 70.710395 
L 89.66078 70.448096 
L 88.312667 70.212282 
L 86.964555 69.979089 
L 85.616443 69.718857 
L 84.268331 69.401602 
L 82.920218 69.000371 
L 81.572106 68.493003 
L 80.223994 67.862815 
L 78.875882 67.098017 
L 77.527769 66.189628 
L 76.179657 65.129343 
L 74.831545 63.911072 
L 73.483432 62.54013 
L 72.13532 61.050046 
L 70.787208 59.519621 
L 69.439096 58.077351 
L 68.090983 56.883174 
L 66.742871 56.089763 
L 65.394759 55.8 
L 64.046647 56.042166 
L 62.698534 56.774418 
L 61.350422 57.91208 
L 60.00231 59.358911 
L 58.654198 61.025466 
L 57.306085 62.830294 
L 55.957973 64.69198 
L 54.609861 66.523559 
L 53.261749 68.23592 
L 51.913636 69.749297 
z
" clip-path="url(#p3fca49c523)" style="fill: #1f77b4; fill-opacity: 0.3"/>
   </g>
   <g id="matplotlib.axis_1">
    <g id="xtick_1">
     <g id="line2d_1">
      <defs>
       <path id="m47280d1494" d="M 0 0 
L 0 3.5 
" style="stroke: #000000; stroke-width: 0.8"/>
      </defs>
      <g>
       <use xlink:href="#m47280d1494" x="51.913636" y="320.4" style="stroke: #000000; stroke-width: 0.8"/>
      </g>
     </g>
     <g id="text_1">
      <!-- 0 -->
      <g transform="translate(48.732386 334.998438) scale(0.1 -0.1)">
       <defs>
        <path id="DejaVuSans-30" d="M 2034 4250 
Q 1547 4250 1301 3770 
Q 1056 3291 1056 2328 
Q 1056 1369 1301 889 
Q 1547 409 2034 409 
Q 2525 409 2770 889 
Q 3016 1369 3016 2328 
Q 3016 3291 2770 3770 
Q 2525 4250 2034 4250 
z
M 2034 4750 
Q 2819 4750 3233 4129 
Q 3647 3509 3647 2328 
Q 3647 1150 3233 529 
Q 2819 -91 2034 -91 
Q 1250 -91 836 529 
Q 422 1150 422 2328 
Q 422 3509 836 4129 
Q 1250 4750 2034 4750 
z
" transform="scale(0.015625)"/>
       </defs>
       <use xlink:href="#DejaVuSans-30"/>
      </g>
     </g>
    </g>
    <g id="xtick_2">
     <g id="line2d_2">
      <g>
       <use xlink:href="#m47280d1494" x="93.688111" y="320.4" style="stroke: #000000; stroke-width: 0.8"/>
      </g>
     </g>
     <g id="text_2">
      <!-- 200 -->
      <g transform="translate(84.144361 334.998438) scale(0.1 -0.1)">
       <defs>
        <path id="DejaVuSans-32" d="M 1228 531 
L 3431 531 
L 3431 0 
L 469 0 
L 469 531 
Q 828 903 1448 1529 
Q 2069 2156 2228 2338 
Q 2531 2678 2651 2914 
Q 2772 3150 2772 3378 
Q 2772 3750 2511 3984 
Q 2250 4219 1831 4219 
Q 1534 4219 1204 4116 
Q 875 4013 500 3803 
L 500 4441 
Q 881 4594 1212 4672 
Q 1544 4750 1819 4750 
Q 2544 4750 2975 4387 
Q 3406 4025 3406 3419 
Q 3406 3131 3298 2873 
Q 3191 2616 2906 2266 
Q 2828 2175 2409 1742 
Q 1991 1309 1228 531 
z
" transform="scale(0.015625)"/>
       </defs>
       <use xlink:href="#DejaVuSans-32"/>
       <use xlink:href="#DejaVuSans-30" x="63.623047"/>
       <use xlink:href="#DejaVuSans-30" x="127.246094"/>
      </g>
     </g>
    </g>
    <g id="xtick_3">
     <g id="line2d_3">
      <g>
       <use xlink:href="#m47280d1494" x="135.462586" y="320.4" style="stroke: #000000; stroke-width: 0.8"/>
      </g>
     </g>
     <g id="text_3">
      <!-- 400 -->
      <g transform="translate(125.918836 334.998438) scale(0.1 -0.1)">
       <defs>
        <path id="DejaVuSans-34" d="M 2419 4116 
L 825 1625 
L 2419 1625 
L 2419 4116 
z
M 2253 4666 
L 3047 4666 
L 3047 1625 
L 3713 1625 
L 3713 1100 
L 3047 1100 
L 3047 0 
L 2419 0 
L 2419 1100 
L 313 1100 
L 313 1709 
L 2253 4666 
z
" transform="scale(0.015625)"/>
       </defs>
       <use xlink:href="#DejaVuSans-34"/>
       <use xlink:href="#DejaVuSans-30" x="63.623047"/>
       <use xlink:href="#DejaVuSans-30" x="127.246094"/>
      </g>
     </g>
    </g>
    <g id="xtick_4">
     <g id="line2d_4">
      <g>
       <use xlink:href="#m47280d1494" x="177.237061" y="320.4" style="stroke: #000000; stroke-width: 0.8"/>
      </g>
     </g>
     <g id="text_4">
      <!-- 600 -->
      <g transform="translate(167.693311 334.998438) scale(0.1 -0.1)">
       <defs>
        <path id="DejaVuSans-36" d="M 2113 2584 
Q 1688 2584 1439 2293 
Q 1191 2003 1191 1497 
Q 1191 994 1439 701 
Q 1688 409 2113 409 
Q 2538 409 2786 701 
Q 3034 994 3034 1497 
Q 3034 2003 2786 2293 
Q 2538 2584 2113 2584 
z
M 3366 4563 
L 3366 3988 
Q 3128 4100 2886 4159 
Q 2644 4219 2406 4219 
Q 1781 4219 1451 3797 
Q 1122 3375 1075 2522 
Q 1259 2794 1537 2939 
Q 1816 3084 2150 3084 
Q 2853 3084 3261 2657 
Q 3669 2231 3669 1497 
Q 3669 778 3244 343 
Q 2819 -91 2113 -91 
Q 1303 -91 875 529 
Q 447 1150 447 2328 
Q 447 3434 972 4092 
Q 1497 4750 2381 4750 
Q 2619 4750 2861 4703 
Q 3103 4656 3366 4563 
z
" transform="scale(0.015625)"/>
       </defs>
       <use xlink:href="#DejaVuSans-36"/>
       <use xlink:href="#DejaVuSans-30" x="63.623047"/>
       <use xlink:href="#DejaVuSans-30" x="127.246094"/>
      </g>
     </g>
    </g>
    <g id="xtick_5">
     <g id="line2d_5">
      <g>
       <use xlink:href="#m47280d1494" x="219.011535" y="320.4" style="stroke: #000000; stroke-width: 0.8"/>
      </g>
     </g>
     <g id="text_5">
      <!-- 800 -->
      <g transform="translate(209.467785 334.998438) scale(0.1 -0.1)">
       <defs>
        <path id="DejaVuSans-38" d="M 2034 2216 
Q 1584 2216 1326 1975 
Q 1069 1734 1069 1313 
Q 1069 891 1326 650 
Q 1584 409 2034 409 
Q 2484 409 2743 651 
Q 3003 894 3003 1313 
Q 3003 1734 2745 1975 
Q 2488 2216 2034 2216 
z
M 1403 2484 
Q 997 2584 770 2862 
Q 544 3141 544 3541 
Q 544 4100 942 4425 
Q 1341 4750 2034 4750 
Q 2731 4750 3128 4425 
Q 3525 4100 3525 3541 
Q 3525 3141 3298 2862 
Q 3072 2584 2669 2484 
Q 3125 2378 3379 2068 
Q 3634 1759 3634 1313 
Q 3634 634 3220 271 
Q 2806 -91 2034 -91 
Q 1263 -91 848 271 
Q 434 634 434 1313 
Q 434 1759 690 2068 
Q 947 2378 1403 2484 
z
M 1172 3481 
Q 1172 3119 1398 2916 
Q 1625 2713 2034 2713 
Q 2441 2713 2670 2916 
Q 2900 3119 2900 3481 
Q 2900 3844 2670 4047 
Q 2441 4250 2034 4250 
Q 1625 4250 1398 4047 
Q 1172 3844 1172 3481 
z
" transform="scale(0.015625)"/>
       </defs>
       <use xlink:href="#DejaVuSans-38"/>
       <use xlink:href="#DejaVuSans-30" x="63.623047"/>
       <use xlink:href="#DejaVuSans-30" x="127.246094"/>
      </g>
     </g>
    </g>
    <g id="xtick_6">
     <g id="line2d_6">
      <g>
       <use xlink:href="#m47280d1494" x="260.78601" y="320.4" style="stroke: #000000; stroke-width: 0.8"/>
      </g>
     </g>
     <g id="text_6">
      <!-- 1000 -->
      <g transform="translate(248.06101 334.998438) scale(0.1 -0.1)">
       <defs>
        <path id="DejaVuSans-31" d="M 794 531 
L 1825 531 
L 1825 4091 
L 703 3866 
L 703 4441 
L 1819 4666 
L 2450 4666 
L 2450 531 
L 3481 531 
L 3481 0 
L 794 0 
L 794 531 
z
" transform="scale(0.015625)"/>
       </defs>
       <use xlink:href="#DejaVuSans-31"/>
       <use xlink:href="#DejaVuSans-30" x="63.623047"/>
       <use xlink:href="#DejaVuSans-30" x="127.246094"/>
       <use xlink:href="#DejaVuSans-30" x="190.869141"/>
      </g>
     </g>
    </g>
    <g id="text_7">
     <!-- Variance In Location Estimate -->
     <g transform="translate(91.80625 348.676562) scale(0.1 -0.1)">
      <defs>
       <path id="DejaVuSans-56" d="M 1831 0 
L 50 4666 
L 709 4666 
L 2188 738 
L 3669 4666 
L 4325 4666 
L 2547 0 
L 1831 0 
z
" transform="scale(0.015625)"/>
       <path id="DejaVuSans-61" d="M 2194 1759 
Q 1497 1759 1228 1600 
Q 959 1441 959 1056 
Q 959 750 1161 570 
Q 1363 391 1709 391 
Q 2188 391 2477 730 
Q 2766 1069 2766 1631 
L 2766 1759 
L 2194 1759 
z
M 3341 1997 
L 3341 0 
L 2766 0 
L 2766 531 
Q 2569 213 2275 61 
Q 1981 -91 1556 -91 
Q 1019 -91 701 211 
Q 384 513 384 1019 
Q 384 1609 779 1909 
Q 1175 2209 1959 2209 
L 2766 2209 
L 2766 2266 
Q 2766 2663 2505 2880 
Q 2244 3097 1772 3097 
Q 1472 3097 1187 3025 
Q 903 2953 641 2809 
L 641 3341 
Q 956 3463 1253 3523 
Q 1550 3584 1831 3584 
Q 2591 3584 2966 3190 
Q 3341 2797 3341 1997 
z
" transform="scale(0.015625)"/>
       <path id="DejaVuSans-72" d="M 2631 2963 
Q 2534 3019 2420 3045 
Q 2306 3072 2169 3072 
Q 1681 3072 1420 2755 
Q 1159 2438 1159 1844 
L 1159 0 
L 581 0 
L 581 3500 
L 1159 3500 
L 1159 2956 
Q 1341 3275 1631 3429 
Q 1922 3584 2338 3584 
Q 2397 3584 2469 3576 
Q 2541 3569 2628 3553 
L 2631 2963 
z
" transform="scale(0.015625)"/>
       <path id="DejaVuSans-69" d="M 603 3500 
L 1178 3500 
L 1178 0 
L 603 0 
L 603 3500 
z
M 603 4863 
L 1178 4863 
L 1178 4134 
L 603 4134 
L 603 4863 
z
" transform="scale(0.015625)"/>
       <path id="DejaVuSans-6e" d="M 3513 2113 
L 3513 0 
L 2938 0 
L 2938 2094 
Q 2938 2591 2744 2837 
Q 2550 3084 2163 3084 
Q 1697 3084 1428 2787 
Q 1159 2491 1159 1978 
L 1159 0 
L 581 0 
L 581 3500 
L 1159 3500 
L 1159 2956 
Q 1366 3272 1645 3428 
Q 1925 3584 2291 3584 
Q 2894 3584 3203 3211 
Q 3513 2838 3513 2113 
z
" transform="scale(0.015625)"/>
       <path id="DejaVuSans-63" d="M 3122 3366 
L 3122 2828 
Q 2878 2963 2633 3030 
Q 2388 3097 2138 3097 
Q 1578 3097 1268 2742 
Q 959 2388 959 1747 
Q 959 1106 1268 751 
Q 1578 397 2138 397 
Q 2388 397 2633 464 
Q 2878 531 3122 666 
L 3122 134 
Q 2881 22 2623 -34 
Q 2366 -91 2075 -91 
Q 1284 -91 818 406 
Q 353 903 353 1747 
Q 353 2603 823 3093 
Q 1294 3584 2113 3584 
Q 2378 3584 2631 3529 
Q 2884 3475 3122 3366 
z
" transform="scale(0.015625)"/>
       <path id="DejaVuSans-65" d="M 3597 1894 
L 3597 1613 
L 953 1613 
Q 991 1019 1311 708 
Q 1631 397 2203 397 
Q 2534 397 2845 478 
Q 3156 559 3463 722 
L 3463 178 
Q 3153 47 2828 -22 
Q 2503 -91 2169 -91 
Q 1331 -91 842 396 
Q 353 884 353 1716 
Q 353 2575 817 3079 
Q 1281 3584 2069 3584 
Q 2775 3584 3186 3129 
Q 3597 2675 3597 1894 
z
M 3022 2063 
Q 3016 2534 2758 2815 
Q 2500 3097 2075 3097 
Q 1594 3097 1305 2825 
Q 1016 2553 972 2059 
L 3022 2063 
z
" transform="scale(0.015625)"/>
       <path id="DejaVuSans-20" transform="scale(0.015625)"/>
       <path id="DejaVuSans-49" d="M 628 4666 
L 1259 4666 
L 1259 0 
L 628 0 
L 628 4666 
z
" transform="scale(0.015625)"/>
       <path id="DejaVuSans-4c" d="M 628 4666 
L 1259 4666 
L 1259 531 
L 3531 531 
L 3531 0 
L 628 0 
L 628 4666 
z
" transform="scale(0.015625)"/>
       <path id="DejaVuSans-6f" d="M 1959 3097 
Q 1497 3097 1228 2736 
Q 959 2375 959 1747 
Q 959 1119 1226 758 
Q 1494 397 1959 397 
Q 2419 397 2687 759 
Q 2956 1122 2956 1747 
Q 2956 2369 2687 2733 
Q 2419 3097 1959 3097 
z
M 1959 3584 
Q 2709 3584 3137 3096 
Q 3566 2609 3566 1747 
Q 3566 888 3137 398 
Q 2709 -91 1959 -91 
Q 1206 -91 779 398 
Q 353 888 353 1747 
Q 353 2609 779 3096 
Q 1206 3584 1959 3584 
z
" transform="scale(0.015625)"/>
       <path id="DejaVuSans-74" d="M 1172 4494 
L 1172 3500 
L 2356 3500 
L 2356 3053 
L 1172 3053 
L 1172 1153 
Q 1172 725 1289 603 
Q 1406 481 1766 481 
L 2356 481 
L 2356 0 
L 1766 0 
Q 1100 0 847 248 
Q 594 497 594 1153 
L 594 3053 
L 172 3053 
L 172 3500 
L 594 3500 
L 594 4494 
L 1172 4494 
z
" transform="scale(0.015625)"/>
       <path id="DejaVuSans-45" d="M 628 4666 
L 3578 4666 
L 3578 4134 
L 1259 4134 
L 1259 2753 
L 3481 2753 
L 3481 2222 
L 1259 2222 
L 1259 531 
L 3634 531 
L 3634 0 
L 628 0 
L 628 4666 
z
" transform="scale(0.015625)"/>
       <path id="DejaVuSans-73" d="M 2834 3397 
L 2834 2853 
Q 2591 2978 2328 3040 
Q 2066 3103 1784 3103 
Q 1356 3103 1142 2972 
Q 928 2841 928 2578 
Q 928 2378 1081 2264 
Q 1234 2150 1697 2047 
L 1894 2003 
Q 2506 1872 2764 1633 
Q 3022 1394 3022 966 
Q 3022 478 2636 193 
Q 2250 -91 1575 -91 
Q 1294 -91 989 -36 
Q 684 19 347 128 
L 347 722 
Q 666 556 975 473 
Q 1284 391 1588 391 
Q 1994 391 2212 530 
Q 2431 669 2431 922 
Q 2431 1156 2273 1281 
Q 2116 1406 1581 1522 
L 1381 1569 
Q 847 1681 609 1914 
Q 372 2147 372 2553 
Q 372 3047 722 3315 
Q 1072 3584 1716 3584 
Q 2034 3584 2315 3537 
Q 2597 3491 2834 3397 
z
" transform="scale(0.015625)"/>
       <path id="DejaVuSans-6d" d="M 3328 2828 
Q 3544 3216 3844 3400 
Q 4144 3584 4550 3584 
Q 5097 3584 5394 3201 
Q 5691 2819 5691 2113 
L 5691 0 
L 5113 0 
L 5113 2094 
Q 5113 2597 4934 2840 
Q 4756 3084 4391 3084 
Q 3944 3084 3684 2787 
Q 3425 2491 3425 1978 
L 3425 0 
L 2847 0 
L 2847 2094 
Q 2847 2600 2669 2842 
Q 2491 3084 2119 3084 
Q 1678 3084 1418 2786 
Q 1159 2488 1159 1978 
L 1159 0 
L 581 0 
L 581 3500 
L 1159 3500 
L 1159 2956 
Q 1356 3278 1631 3431 
Q 1906 3584 2284 3584 
Q 2666 3584 2933 3390 
Q 3200 3197 3328 2828 
z
" transform="scale(0.015625)"/>
      </defs>
      <use xlink:href="#DejaVuSans-56"/>
      <use xlink:href="#DejaVuSans-61" x="60.658203"/>
      <use xlink:href="#DejaVuSans-72" x="121.9375"/>
      <use xlink:href="#DejaVuSans-69" x="163.050781"/>
      <use xlink:href="#DejaVuSans-61" x="190.833984"/>
      <use xlink:href="#DejaVuSans-6e" x="252.113281"/>
      <use xlink:href="#DejaVuSans-63" x="315.492188"/>
      <use xlink:href="#DejaVuSans-65" x="370.472656"/>
      <use xlink:href="#DejaVuSans-20" x="431.996094"/>
      <use xlink:href="#DejaVuSans-49" x="463.783203"/>
      <use xlink:href="#DejaVuSans-6e" x="493.275391"/>
      <use xlink:href="#DejaVuSans-20" x="556.654297"/>
      <use xlink:href="#DejaVuSans-4c" x="588.441406"/>
      <use xlink:href="#DejaVuSans-6f" x="642.404297"/>
      <use xlink:href="#DejaVuSans-63" x="703.585938"/>
      <use xlink:href="#DejaVuSans-61" x="758.566406"/>
      <use xlink:href="#DejaVuSans-74" x="819.845703"/>
      <use xlink:href="#DejaVuSans-69" x="859.054688"/>
      <use xlink:href="#DejaVuSans-6f" x="886.837891"/>
      <use xlink:href="#DejaVuSans-6e" x="948.019531"/>
      <use xlink:href="#DejaVuSans-20" x="1011.398438"/>
      <use xlink:href="#DejaVuSans-45" x="1043.185547"/>
      <use xlink:href="#DejaVuSans-73" x="1106.369141"/>
      <use xlink:href="#DejaVuSans-74" x="1158.46875"/>
      <use xlink:href="#DejaVuSans-69" x="1197.677734"/>
      <use xlink:href="#DejaVuSans-6d" x="1225.460938"/>
      <use xlink:href="#DejaVuSans-61" x="1322.873047"/>
      <use xlink:href="#DejaVuSans-74" x="1384.152344"/>
      <use xlink:href="#DejaVuSans-65" x="1423.361328"/>
     </g>
    </g>
   </g>
   <g id="matplotlib.axis_2">
    <g id="ytick_1">
     <g id="line2d_7">
      <defs>
       <path id="m5fda4e2eac" d="M 0 0 
L -3.5 0 
" style="stroke: #000000; stroke-width: 0.8"/>
      </defs>
      <g>
       <use xlink:href="#m5fda4e2eac" x="40.5" y="289.8" style="stroke: #000000; stroke-width: 0.8"/>
      </g>
     </g>
     <g id="text_8">
      <!-- W0 -->
      <g transform="translate(17.25 293.599219) scale(0.1 -0.1)">
       <defs>
        <path id="DejaVuSans-57" d="M 213 4666 
L 850 4666 
L 1831 722 
L 2809 4666 
L 3519 4666 
L 4500 722 
L 5478 4666 
L 6119 4666 
L 4947 0 
L 4153 0 
L 3169 4050 
L 2175 0 
L 1381 0 
L 213 4666 
z
" transform="scale(0.015625)"/>
       </defs>
       <use xlink:href="#DejaVuSans-57"/>
       <use xlink:href="#DejaVuSans-30" x="98.876953"/>
      </g>
     </g>
    </g>
    <g id="ytick_2">
     <g id="line2d_8">
      <g>
       <use xlink:href="#m5fda4e2eac" x="40.5" y="217.8" style="stroke: #000000; stroke-width: 0.8"/>
      </g>
     </g>
     <g id="text_9">
      <!-- W10 -->
      <g transform="translate(10.8875 221.599219) scale(0.1 -0.1)">
       <use xlink:href="#DejaVuSans-57"/>
       <use xlink:href="#DejaVuSans-31" x="98.876953"/>
       <use xlink:href="#DejaVuSans-30" x="162.5"/>
      </g>
     </g>
    </g>
    <g id="ytick_3">
     <g id="line2d_9">
      <g>
       <use xlink:href="#m5fda4e2eac" x="40.5" y="145.8" style="stroke: #000000; stroke-width: 0.8"/>
      </g>
     </g>
     <g id="text_10">
      <!-- W100 -->
      <g transform="translate(4.525 149.599219) scale(0.1 -0.1)">
       <use xlink:href="#DejaVuSans-57"/>
       <use xlink:href="#DejaVuSans-31" x="98.876953"/>
       <use xlink:href="#DejaVuSans-30" x="162.5"/>
       <use xlink:href="#DejaVuSans-30" x="226.123047"/>
      </g>
     </g>
    </g>
    <g id="ytick_4">
     <g id="line2d_10">
      <g>
       <use xlink:href="#m5fda4e2eac" x="40.5" y="73.8" style="stroke: #000000; stroke-width: 0.8"/>
      </g>
     </g>
     <g id="text_11">
      <!-- Chromosome -->
      <g transform="translate(-32.90625 77.599219) scale(0.1 -0.1)">
       <defs>
        <path id="DejaVuSans-43" d="M 4122 4306 
L 4122 3641 
Q 3803 3938 3442 4084 
Q 3081 4231 2675 4231 
Q 1875 4231 1450 3742 
Q 1025 3253 1025 2328 
Q 1025 1406 1450 917 
Q 1875 428 2675 428 
Q 3081 428 3442 575 
Q 3803 722 4122 1019 
L 4122 359 
Q 3791 134 3420 21 
Q 3050 -91 2638 -91 
Q 1578 -91 968 557 
Q 359 1206 359 2328 
Q 359 3453 968 4101 
Q 1578 4750 2638 4750 
Q 3056 4750 3426 4639 
Q 3797 4528 4122 4306 
z
" transform="scale(0.015625)"/>
        <path id="DejaVuSans-68" d="M 3513 2113 
L 3513 0 
L 2938 0 
L 2938 2094 
Q 2938 2591 2744 2837 
Q 2550 3084 2163 3084 
Q 1697 3084 1428 2787 
Q 1159 2491 1159 1978 
L 1159 0 
L 581 0 
L 581 4863 
L 1159 4863 
L 1159 2956 
Q 1366 3272 1645 3428 
Q 1925 3584 2291 3584 
Q 2894 3584 3203 3211 
Q 3513 2838 3513 2113 
z
" transform="scale(0.015625)"/>
       </defs>
       <use xlink:href="#DejaVuSans-43"/>
       <use xlink:href="#DejaVuSans-68" x="69.824219"/>
       <use xlink:href="#DejaVuSans-72" x="133.203125"/>
       <use xlink:href="#DejaVuSans-6f" x="172.066406"/>
       <use xlink:href="#DejaVuSans-6d" x="233.248047"/>
       <use xlink:href="#DejaVuSans-6f" x="330.660156"/>
       <use xlink:href="#DejaVuSans-73" x="391.841797"/>
       <use xlink:href="#DejaVuSans-6f" x="443.941406"/>
       <use xlink:href="#DejaVuSans-6d" x="505.123047"/>
       <use xlink:href="#DejaVuSans-65" x="602.535156"/>
      </g>
     </g>
    </g>
   </g>
   <g id="LineCollection_1">
    <path d="M 115.961958 298.8 
L 115.961958 280.8 
" clip-path="url(#p3fca49c523)" style="fill: none; stroke: #1f77b4; stroke-width: 1.5"/>
    <path d="M 112.614695 226.8 
L 112.614695 208.8 
" clip-path="url(#p3fca49c523)" style="fill: none; stroke: #1f77b4; stroke-width: 1.5"/>
    <path d="M 92.986509 154.8 
L 92.986509 136.8 
" clip-path="url(#p3fca49c523)" style="fill: none; stroke: #1f77b4; stroke-width: 1.5"/>
    <path d="M 72.621553 82.8 
L 72.621553 64.8 
" clip-path="url(#p3fca49c523)" style="fill: none; stroke: #1f77b4; stroke-width: 1.5"/>
   </g>
   <g id="LineCollection_2">
    <path d="M 280.186364 298.8 
L 280.186364 280.8 
" clip-path="url(#p3fca49c523)" style="fill: none; stroke: #1f77b4; stroke-width: 1.5"/>
    <path d="M 280.068873 226.8 
L 280.068873 208.8 
" clip-path="url(#p3fca49c523)" style="fill: none; stroke: #1f77b4; stroke-width: 1.5"/>
    <path d="M 265.308806 154.8 
L 265.308806 136.8 
" clip-path="url(#p3fca49c523)" style="fill: none; stroke: #1f77b4; stroke-width: 1.5"/>
    <path d="M 185.37675 82.8 
L 185.37675 64.8 
" clip-path="url(#p3fca49c523)" style="fill: none; stroke: #1f77b4; stroke-width: 1.5"/>
   </g>
   <g id="LineCollection_3">
    <path d="M 51.913636 298.8 
L 51.913636 280.8 
" clip-path="url(#p3fca49c523)" style="fill: none; stroke: #1f77b4; stroke-width: 1.5"/>
    <path d="M 51.913636 226.8 
L 51.913636 208.8 
" clip-path="url(#p3fca49c523)" style="fill: none; stroke: #1f77b4; stroke-width: 1.5"/>
    <path d="M 51.913636 154.8 
L 51.913636 136.8 
" clip-path="url(#p3fca49c523)" style="fill: none; stroke: #1f77b4; stroke-width: 1.5"/>
    <path d="M 51.913636 82.8 
L 51.913636 64.8 
" clip-path="url(#p3fca49c523)" style="fill: none; stroke: #1f77b4; stroke-width: 1.5"/>
   </g>
   <g id="LineCollection_4">
    <path d="M 51.913636 289.8 
L 280.186364 289.8 
" clip-path="url(#p3fca49c523)" style="fill: none; stroke: #1f77b4; stroke-width: 1.5"/>
    <path d="M 51.913636 217.8 
L 280.068873 217.8 
" clip-path="url(#p3fca49c523)" style="fill: none; stroke: #1f77b4; stroke-width: 1.5"/>
    <path d="M 51.913636 145.8 
L 265.308806 145.8 
" clip-path="url(#p3fca49c523)" style="fill: none; stroke: #1f77b4; stroke-width: 1.5"/>
    <path d="M 51.913636 73.8 
L 185.37675 73.8 
" clip-path="url(#p3fca49c523)" style="fill: none; stroke: #1f77b4; stroke-width: 1.5"/>
   </g>
   <g id="patch_3">
    <path d="M 40.5 320.4 
L 40.5 43.2 
" style="fill: none; stroke: #000000; stroke-width: 0.8; stroke-linejoin: miter; stroke-linecap: square"/>
   </g>
   <g id="patch_4">
    <path d="M 291.6 320.4 
L 291.6 43.2 
" style="fill: none; stroke: #000000; stroke-width: 0.8; stroke-linejoin: miter; stroke-linecap: square"/>
   </g>
   <g id="patch_5">
    <path d="M 40.5 320.4 
L 291.6 320.4 
" style="fill: none; stroke: #000000; stroke-width: 0.8; stroke-linejoin: miter; stroke-linecap: square"/>
   </g>
   <g id="patch_6">
    <path d="M 40.5 43.2 
L 291.6 43.2 
" style="fill: none; stroke: #000000; stroke-width: 0.8; stroke-linejoin: miter; stroke-linecap: square"/>
   </g>
  </g>
 </g>
 <defs>
  <clipPath id="p3fca49c523">
   <rect x="40.5" y="43.2" width="251.1" height="277.2"/>
  </clipPath>
 </defs>
</svg>
