<?xml version="1.0" encoding="utf-8" standalone="no"?>
<!DOCTYPE svg PUBLIC "-//W3C//DTD SVG 1.1//EN"
  "http://www.w3.org/Graphics/SVG/1.1/DTD/svg11.dtd">
<svg xmlns:xlink="http://www.w3.org/1999/xlink" width="360pt" height="288pt" viewBox="0 0 360 288" xmlns="http://www.w3.org/2000/svg" version="1.1">
 <metadata>
  <rdf:RDF xmlns:dc="http://purl.org/dc/elements/1.1/" xmlns:cc="http://creativecommons.org/ns#" xmlns:rdf="http://www.w3.org/1999/02/22-rdf-syntax-ns#">
   <cc:Work>
    <dc:type rdf:resource="http://purl.org/dc/dcmitype/StillImage"/>
    <dc:date>2024-11-28T12:56:10.107177</dc:date>
    <dc:format>image/svg+xml</dc:format>
    <dc:creator>
     <cc:Agent>
      <dc:title>Matplotlib v3.9.2, https://matplotlib.org/</dc:title>
     </cc:Agent>
    </dc:creator>
   </cc:Work>
  </rdf:RDF>
 </metadata>
 <defs>
  <style type="text/css">*{stroke-linejoin: round; stroke-linecap: butt}</style>
 </defs>
 <g id="figure_1">
  <g id="patch_1">
   <path d="M 0 288 
L 360 288 
L 360 0 
L 0 0 
z
" style="fill: #ffffff"/>
  </g>
  <g id="axes_1">
   <g id="patch_2">
    <path d="M 45 256.32 
L 324 256.32 
L 324 34.56 
L 45 34.56 
z
" style="fill: #ffffff"/>
   </g>
   <g id="PolyCollection_1">
    <path d="M 57.681818 238.614344 
L 57.681818 246.24 
L 60.110929 246.24 
L 62.54004 246.24 
L 64.969151 246.24 
L 67.398262 246.24 
L 69.827373 246.24 
L 72.256484 246.24 
L 74.685595 246.24 
L 77.114706 246.24 
L 79.543817 246.24 
L 81.972928 246.24 
L 84.402039 246.24 
L 86.83115 246.24 
L 89.260261 246.24 
L 91.689372 246.24 
L 94.118483 246.24 
L 96.547594 246.24 
L 98.976705 246.24 
L 101.405816 246.24 
L 103.834927 246.24 
L 106.264038 246.24 
L 108.693149 246.24 
L 111.12226 246.24 
L 113.55137 246.24 
L 115.980481 246.24 
L 118.409592 246.24 
L 120.838703 246.24 
L 123.267814 246.24 
L 125.696925 246.24 
L 128.126036 246.24 
L 130.555147 246.24 
L 132.984258 246.24 
L 135.413369 246.24 
L 137.84248 246.24 
L 140.271591 246.24 
L 142.700702 246.24 
L 145.129813 246.24 
L 147.558924 246.24 
L 149.988035 246.24 
L 152.417146 246.24 
L 154.846257 246.24 
L 157.275368 246.24 
L 159.704479 246.24 
L 162.13359 246.24 
L 164.562701 246.24 
L 166.991812 246.24 
L 169.420923 246.24 
L 171.850034 246.24 
L 174.279145 246.24 
L 176.708256 246.24 
L 179.137367 246.24 
L 181.566478 246.24 
L 183.995589 246.24 
L 186.4247 246.24 
L 188.853811 246.24 
L 191.282922 246.24 
L 193.712032 246.24 
L 196.141143 246.24 
L 198.570254 246.24 
L 200.999365 246.24 
L 203.428476 246.24 
L 205.857587 246.24 
L 208.286698 246.24 
L 210.715809 246.24 
L 213.14492 246.24 
L 215.574031 246.24 
L 218.003142 246.24 
L 220.432253 246.24 
L 222.861364 246.24 
L 225.290475 246.24 
L 227.719586 246.24 
L 230.148697 246.24 
L 232.577808 246.24 
L 235.006919 246.24 
L 237.43603 246.24 
L 239.865141 246.24 
L 242.294252 246.24 
L 244.723363 246.24 
L 247.152474 246.24 
L 249.581585 246.24 
L 252.010696 246.24 
L 254.439807 246.24 
L 256.868918 246.24 
L 259.298029 246.24 
L 261.72714 246.24 
L 264.156251 246.24 
L 266.585362 246.24 
L 269.014473 246.24 
L 271.443584 246.24 
L 273.872694 246.24 
L 276.301805 246.24 
L 278.730916 246.24 
L 281.160027 246.24 
L 283.589138 246.24 
L 286.018249 246.24 
L 288.44736 246.24 
L 290.876471 246.24 
L 293.305582 246.24 
L 295.734693 246.24 
L 298.163804 246.24 
L 298.163804 245.790289 
L 298.163804 245.790289 
L 295.734693 245.705488 
L 293.305582 245.612042 
L 290.876471 245.510132 
L 288.44736 245.401496 
L 286.018249 245.290058 
L 283.589138 245.182023 
L 281.160027 245.085219 
L 278.730916 245.007719 
L 276.301805 244.956023 
L 273.872694 244.933302 
L 271.443584 244.938234 
L 269.014473 244.964814 
L 266.585362 245.003243 
L 264.156251 245.041696 
L 261.72714 245.068526 
L 259.298029 245.074359 
L 256.868918 245.053619 
L 254.439807 245.005215 
L 252.010696 244.932316 
L 249.581585 244.841385 
L 247.152474 244.740764 
L 244.723363 244.639124 
L 242.294252 244.544102 
L 239.865141 244.461308 
L 237.43603 244.393815 
L 235.006919 244.342103 
L 232.577808 244.304371 
L 230.148697 244.27708 
L 227.719586 244.255607 
L 225.290475 244.234883 
L 222.861364 244.209931 
L 220.432253 244.176227 
L 218.003142 244.129809 
L 215.574031 244.067142 
L 213.14492 243.984775 
L 210.715809 243.878922 
L 208.286698 243.745134 
L 205.857587 243.578229 
L 203.428476 243.372543 
L 200.999365 243.122473 
L 198.570254 242.823152 
L 196.141143 242.471076 
L 193.712032 242.064551 
L 191.282922 241.603939 
L 188.853811 241.091757 
L 186.4247 240.532756 
L 183.995589 239.934016 
L 181.566478 239.305004 
L 179.137367 238.657422 
L 176.708256 238.004654 
L 174.279145 237.360639 
L 171.850034 236.738236 
L 169.420923 236.147296 
L 166.991812 235.592908 
L 164.562701 235.074331 
L 162.13359 234.585064 
L 159.704479 234.114206 
L 157.275368 233.648894 
L 154.846257 233.177192 
L 152.417146 232.690577 
L 149.988035 232.185221 
L 147.558924 231.661605 
L 145.129813 231.122599 
L 142.700702 230.570672 
L 140.271591 230.005295 
L 137.84248 229.42149 
L 135.413369 228.810118 
L 132.984258 228.159818 
L 130.555147 227.460014 
L 128.126036 226.70403 
L 125.696925 225.891499 
L 123.267814 225.029486 
L 120.838703 224.132228 
L 118.409592 223.219671 
L 115.980481 222.315182 
L 113.55137 221.442888 
L 111.12226 220.62506 
L 108.693149 219.879996 
L 106.264038 219.220834 
L 103.834927 218.655668 
L 101.405816 218.189136 
L 98.976705 217.825296 
L 96.547594 217.571173 
L 94.118483 217.44 
L 91.689372 217.453057 
L 89.260261 217.639221 
L 86.83115 218.031956 
L 84.402039 218.6642 
L 81.972928 219.562275 
L 79.543817 220.740235 
L 77.114706 222.195871 
L 74.685595 223.909059 
L 72.256484 225.842409 
L 69.827373 227.943726 
L 67.398262 230.149632 
L 64.969151 232.389875 
L 62.54004 234.592131 
L 60.110929 236.687198 
L 57.681818 238.614344 
z
" clip-path="url(#p3fc8248f1c)" style="fill: #1f77b4; fill-opacity: 0.3"/>
   </g>
   <g id="PolyCollection_2">
    <path d="M 57.681818 180.824621 
L 57.681818 188.64 
L 60.243802 188.64 
L 62.805785 188.64 
L 65.367769 188.64 
L 67.929752 188.64 
L 70.491736 188.64 
L 73.053719 188.64 
L 75.615702 188.64 
L 78.177686 188.64 
L 80.739669 188.64 
L 83.301653 188.64 
L 85.863636 188.64 
L 88.42562 188.64 
L 90.987603 188.64 
L 93.549587 188.64 
L 96.11157 188.64 
L 98.673554 188.64 
L 101.235537 188.64 
L 103.797521 188.64 
L 106.359504 188.64 
L 108.921488 188.64 
L 111.483471 188.64 
L 114.045455 188.64 
L 116.607438 188.64 
L 119.169421 188.64 
L 121.731405 188.64 
L 124.293388 188.64 
L 126.855372 188.64 
L 129.417355 188.64 
L 131.979339 188.64 
L 134.541322 188.64 
L 137.103306 188.64 
L 139.665289 188.64 
L 142.227273 188.64 
L 144.789256 188.64 
L 147.35124 188.64 
L 149.913223 188.64 
L 152.475207 188.64 
L 155.03719 188.64 
L 157.599174 188.64 
L 160.161157 188.64 
L 162.72314 188.64 
L 165.285124 188.64 
L 167.847107 188.64 
L 170.409091 188.64 
L 172.971074 188.64 
L 175.533058 188.64 
L 178.095041 188.64 
L 180.657025 188.64 
L 183.219008 188.64 
L 185.780992 188.64 
L 188.342975 188.64 
L 190.904959 188.64 
L 193.466942 188.64 
L 196.028926 188.64 
L 198.590909 188.64 
L 201.152893 188.64 
L 203.714876 188.64 
L 206.27686 188.64 
L 208.838843 188.64 
L 211.400826 188.64 
L 213.96281 188.64 
L 216.524793 188.64 
L 219.086777 188.64 
L 221.64876 188.64 
L 224.210744 188.64 
L 226.772727 188.64 
L 229.334711 188.64 
L 231.896694 188.64 
L 234.458678 188.64 
L 237.020661 188.64 
L 239.582645 188.64 
L 242.144628 188.64 
L 244.706612 188.64 
L 247.268595 188.64 
L 249.830579 188.64 
L 252.392562 188.64 
L 254.954545 188.64 
L 257.516529 188.64 
L 260.078512 188.64 
L 262.640496 188.64 
L 265.202479 188.64 
L 267.764463 188.64 
L 270.326446 188.64 
L 272.88843 188.64 
L 275.450413 188.64 
L 278.012397 188.64 
L 280.57438 188.64 
L 283.136364 188.64 
L 285.698347 188.64 
L 288.260331 188.64 
L 290.822314 188.64 
L 293.384298 188.64 
L 295.946281 188.64 
L 298.508264 188.64 
L 301.070248 188.64 
L 303.632231 188.64 
L 306.194215 188.64 
L 308.756198 188.64 
L 311.318182 188.64 
L 311.318182 188.504919 
L 311.318182 188.504919 
L 308.756198 188.48683 
L 306.194215 188.465949 
L 303.632231 188.439695 
L 301.070248 188.405219 
L 298.508264 188.359938 
L 295.946281 188.302042 
L 293.384298 188.230927 
L 290.822314 188.147472 
L 288.260331 188.054133 
L 285.698347 187.954831 
L 283.136364 187.854607 
L 280.57438 187.759052 
L 278.012397 187.673551 
L 275.450413 187.602438 
L 272.88843 187.548207 
L 270.326446 187.510923 
L 267.764463 187.488036 
L 265.202479 187.474674 
L 262.640496 187.464481 
L 260.078512 187.45089 
L 257.516529 187.428568 
L 254.954545 187.394697 
L 252.392562 187.349692 
L 249.830579 187.297092 
L 247.268595 187.242574 
L 244.706612 187.192327 
L 242.144628 187.151258 
L 239.582645 187.121569 
L 237.020661 187.102115 
L 234.458678 187.088666 
L 231.896694 187.074833 
L 229.334711 187.053278 
L 226.772727 187.016773 
L 224.210744 186.958867 
L 221.64876 186.874175 
L 219.086777 186.758437 
L 216.524793 186.608546 
L 213.96281 186.4227 
L 211.400826 186.200675 
L 208.838843 185.944169 
L 206.27686 185.657078 
L 203.714876 185.345598 
L 201.152893 185.01801 
L 198.590909 184.684092 
L 196.028926 184.354131 
L 193.466942 184.03761 
L 190.904959 183.741709 
L 188.342975 183.469836 
L 185.780992 183.220432 
L 183.219008 182.986293 
L 180.657025 182.754622 
L 178.095041 182.507925 
L 175.533058 182.225774 
L 172.971074 181.887313 
L 170.409091 181.474201 
L 167.847107 180.9735 
L 165.285124 180.379819 
L 162.72314 179.696054 
L 160.161157 178.932284 
L 157.599174 178.102997 
L 155.03719 177.223464 
L 152.475207 176.306609 
L 149.913223 175.361591 
L 147.35124 174.394626 
L 144.789256 173.411448 
L 142.227273 172.419986 
L 139.665289 171.43168 
L 137.103306 170.460682 
L 134.541322 169.521301 
L 131.979339 168.62502 
L 129.417355 167.778461 
L 126.855372 166.982995 
L 124.293388 166.235705 
L 121.731405 165.53084 
L 119.169421 164.861043 
L 116.607438 164.218274 
L 114.045455 163.594936 
L 111.483471 162.985665 
L 108.921488 162.389703 
L 106.359504 161.813008 
L 103.797521 161.269044 
L 101.235537 160.777716 
L 98.673554 160.362964 
L 96.11157 160.050431 
L 93.549587 159.866611 
L 90.987603 159.84 
L 88.42562 160.003244 
L 85.863636 160.3942 
L 83.301653 161.05381 
L 80.739669 162.019927 
L 78.177686 163.318172 
L 75.615702 164.952458 
L 73.053719 166.898353 
L 70.491736 169.10156 
L 67.929752 171.482126 
L 65.367769 173.943252 
L 62.805785 176.382554 
L 60.243802 178.703417 
L 57.681818 180.824621 
z
" clip-path="url(#p3fc8248f1c)" style="fill: #1f77b4; fill-opacity: 0.3"/>
   </g>
   <g id="PolyCollection_3">
    <path d="M 57.681818 124.278609 
L 57.681818 131.04 
L 60.115581 131.04 
L 62.549344 131.04 
L 64.983107 131.04 
L 67.41687 131.04 
L 69.850633 131.04 
L 72.284396 131.04 
L 74.718159 131.04 
L 77.151922 131.04 
L 79.585686 131.04 
L 82.019449 131.04 
L 84.453212 131.04 
L 86.886975 131.04 
L 89.320738 131.04 
L 91.754501 131.04 
L 94.188264 131.04 
L 96.622027 131.04 
L 99.05579 131.04 
L 101.489553 131.04 
L 103.923316 131.04 
L 106.357079 131.04 
L 108.790842 131.04 
L 111.224605 131.04 
L 113.658368 131.04 
L 116.092131 131.04 
L 118.525894 131.04 
L 120.959657 131.04 
L 123.39342 131.04 
L 125.827183 131.04 
L 128.260946 131.04 
L 130.694709 131.04 
L 133.128472 131.04 
L 135.562235 131.04 
L 137.995998 131.04 
L 140.429761 131.04 
L 142.863524 131.04 
L 145.297288 131.04 
L 147.731051 131.04 
L 150.164814 131.04 
L 152.598577 131.04 
L 155.03234 131.04 
L 157.466103 131.04 
L 159.899866 131.04 
L 162.333629 131.04 
L 164.767392 131.04 
L 167.201155 131.04 
L 169.634918 131.04 
L 172.068681 131.04 
L 174.502444 131.04 
L 176.936207 131.04 
L 179.36997 131.04 
L 181.803733 131.04 
L 184.237496 131.04 
L 186.671259 131.04 
L 189.105022 131.04 
L 191.538785 131.04 
L 193.972548 131.04 
L 196.406311 131.04 
L 198.840074 131.04 
L 201.273837 131.04 
L 203.7076 131.04 
L 206.141363 131.04 
L 208.575126 131.04 
L 211.00889 131.04 
L 213.442653 131.04 
L 215.876416 131.04 
L 218.310179 131.04 
L 220.743942 131.04 
L 223.177705 131.04 
L 225.611468 131.04 
L 228.045231 131.04 
L 230.478994 131.04 
L 232.912757 131.04 
L 235.34652 131.04 
L 237.780283 131.04 
L 240.214046 131.04 
L 242.647809 131.04 
L 245.081572 131.04 
L 247.515335 131.04 
L 249.949098 131.04 
L 252.382861 131.04 
L 254.816624 131.04 
L 257.250387 131.04 
L 259.68415 131.04 
L 262.117913 131.04 
L 264.551676 131.04 
L 266.985439 131.04 
L 269.419202 131.04 
L 271.852965 131.04 
L 274.286728 131.04 
L 276.720492 131.04 
L 279.154255 131.04 
L 281.588018 131.04 
L 284.021781 131.04 
L 286.455544 131.04 
L 288.889307 131.04 
L 291.32307 131.04 
L 293.756833 131.04 
L 296.190596 131.04 
L 298.624359 131.04 
L 298.624359 130.935503 
L 298.624359 130.935503 
L 296.190596 130.934498 
L 293.756833 130.936827 
L 291.32307 130.940178 
L 288.889307 130.941829 
L 286.455544 130.939324 
L 284.021781 130.930908 
L 281.588018 130.915552 
L 279.154255 130.892593 
L 276.720492 130.861236 
L 274.286728 130.820295 
L 271.852965 130.768471 
L 269.419202 130.705199 
L 266.985439 130.631782 
L 264.551676 130.552261 
L 262.117913 130.473469 
L 259.68415 130.403982 
L 257.250387 130.35209 
L 254.816624 130.323375 
L 252.382861 130.318665 
L 249.949098 130.333078 
L 247.515335 130.356518 
L 245.081572 130.375536 
L 242.647809 130.37609 
L 240.214046 130.346518 
L 237.780283 130.280065 
L 235.34652 130.176454 
L 232.912757 130.042217 
L 230.478994 129.889713 
L 228.045231 129.735017 
L 225.611468 129.59503 
L 223.177705 129.484303 
L 220.743942 129.412124 
L 218.310179 129.380361 
L 215.876416 129.382424 
L 213.442653 129.403642 
L 211.00889 129.423133 
L 208.575126 129.4171 
L 206.141363 129.363087 
L 203.7076 129.24435 
L 201.273837 129.053195 
L 198.840074 128.792221 
L 196.406311 128.472892 
L 193.972548 128.111746 
L 191.538785 127.72534 
L 189.105022 127.325511 
L 186.671259 126.916386 
L 184.237496 126.49392 
L 181.803733 126.04795 
L 179.36997 125.566036 
L 176.936207 125.038026 
L 174.502444 124.46023 
L 172.068681 123.838194 
L 169.634918 123.187362 
L 167.201155 122.531242 
L 164.767392 121.897307 
L 162.333629 121.311438 
L 159.899866 120.792215 
L 157.466103 120.346437 
L 155.03234 119.966838 
L 152.598577 119.632296 
L 150.164814 119.31027 
L 147.731051 118.960927 
L 145.297288 118.542536 
L 142.863524 118.017755 
L 140.429761 117.360314 
L 137.995998 116.561045 
L 135.562235 115.631705 
L 133.128472 114.604813 
L 130.694709 113.528371 
L 128.260946 112.4558 
L 125.827183 111.433331 
L 123.39342 110.488655 
L 120.959657 109.624812 
L 118.525894 108.821837 
L 116.092131 108.045937 
L 113.658368 107.263174 
L 111.224605 106.452986 
L 108.790842 105.617144 
L 106.357079 104.781577 
L 103.923316 103.991006 
L 101.489553 103.298615 
L 99.05579 102.75425 
L 96.622027 102.394851 
L 94.188264 102.24 
L 91.754501 102.293769 
L 89.320738 102.551966 
L 86.886975 103.011739 
L 84.453212 103.67941 
L 82.019449 104.572856 
L 79.585686 105.716952 
L 77.151922 107.133546 
L 74.718159 108.829754 
L 72.284396 110.788831 
L 69.850633 112.966506 
L 67.41687 115.293338 
L 64.983107 117.681775 
L 62.549344 120.035873 
L 60.115581 122.261913 
L 57.681818 124.278609 
z
" clip-path="url(#p3fc8248f1c)" style="fill: #1f77b4; fill-opacity: 0.3"/>
   </g>
   <g id="PolyCollection_4">
    <path d="M 57.681818 66.543981 
L 57.681818 73.44 
L 59.81501 73.44 
L 61.948202 73.44 
L 64.081395 73.44 
L 66.214587 73.44 
L 68.347779 73.44 
L 70.480971 73.44 
L 72.614163 73.44 
L 74.747355 73.44 
L 76.880547 73.44 
L 79.01374 73.44 
L 81.146932 73.44 
L 83.280124 73.44 
L 85.413316 73.44 
L 87.546508 73.44 
L 89.6797 73.44 
L 91.812892 73.44 
L 93.946085 73.44 
L 96.079277 73.44 
L 98.212469 73.44 
L 100.345661 73.44 
L 102.478853 73.44 
L 104.612045 73.44 
L 106.745237 73.44 
L 108.87843 73.44 
L 111.011622 73.44 
L 113.144814 73.44 
L 115.278006 73.44 
L 117.411198 73.44 
L 119.54439 73.44 
L 121.677582 73.44 
L 123.810775 73.44 
L 125.943967 73.44 
L 128.077159 73.44 
L 130.210351 73.44 
L 132.343543 73.44 
L 134.476735 73.44 
L 136.609927 73.44 
L 138.74312 73.44 
L 140.876312 73.44 
L 143.009504 73.44 
L 145.142696 73.44 
L 147.275888 73.44 
L 149.40908 73.44 
L 151.542272 73.44 
L 153.675465 73.44 
L 155.808657 73.44 
L 157.941849 73.44 
L 160.075041 73.44 
L 162.208233 73.44 
L 164.341425 73.44 
L 166.474617 73.44 
L 168.60781 73.44 
L 170.741002 73.44 
L 172.874194 73.44 
L 175.007386 73.44 
L 177.140578 73.44 
L 179.27377 73.44 
L 181.406962 73.44 
L 183.540155 73.44 
L 185.673347 73.44 
L 187.806539 73.44 
L 189.939731 73.44 
L 192.072923 73.44 
L 194.206115 73.44 
L 196.339307 73.44 
L 198.4725 73.44 
L 200.605692 73.44 
L 202.738884 73.44 
L 204.872076 73.44 
L 207.005268 73.44 
L 209.13846 73.44 
L 211.271652 73.44 
L 213.404845 73.44 
L 215.538037 73.44 
L 217.671229 73.44 
L 219.804421 73.44 
L 221.937613 73.44 
L 224.070805 73.44 
L 226.203997 73.44 
L 228.33719 73.44 
L 230.470382 73.44 
L 232.603574 73.44 
L 234.736766 73.44 
L 236.869958 73.44 
L 239.00315 73.44 
L 241.136342 73.44 
L 243.269535 73.44 
L 245.402727 73.44 
L 247.535919 73.44 
L 249.669111 73.44 
L 251.802303 73.44 
L 253.935495 73.44 
L 256.068687 73.44 
L 258.20188 73.44 
L 260.335072 73.44 
L 262.468264 73.44 
L 264.601456 73.44 
L 266.734648 73.44 
L 268.86784 73.44 
L 268.86784 73.118669 
L 268.86784 73.118669 
L 266.734648 73.064992 
L 264.601456 73.006409 
L 262.468264 72.942269 
L 260.335072 72.871864 
L 258.20188 72.794511 
L 256.068687 72.709553 
L 253.935495 72.616237 
L 251.802303 72.513429 
L 249.669111 72.399202 
L 247.535919 72.27035 
L 245.402727 72.121921 
L 243.269535 71.946888 
L 241.136342 71.736053 
L 239.00315 71.478287 
L 236.869958 71.161149 
L 234.736766 70.771901 
L 232.603574 70.298899 
L 230.470382 69.733253 
L 228.33719 69.070615 
L 226.203997 68.312849 
L 224.070805 67.4693 
L 221.937613 66.557331 
L 219.804421 65.601865 
L 217.671229 64.633724 
L 215.538037 63.686797 
L 213.404845 62.794265 
L 211.271652 61.984388 
L 209.13846 61.276529 
L 207.005268 60.678189 
L 204.872076 60.183733 
L 202.738884 59.775238 
L 200.605692 59.425461 
L 198.4725 59.102485 
L 196.339307 58.775142 
L 194.206115 58.418056 
L 192.072923 58.015191 
L 189.939731 57.5611 
L 187.806539 57.059648 
L 185.673347 56.520676 
L 183.540155 55.955634 
L 181.406962 55.373504 
L 179.27377 54.778216 
L 177.140578 54.168265 
L 175.007386 53.538557 
L 172.874194 52.883794 
L 170.741002 52.202298 
L 168.60781 51.499066 
L 166.474617 50.787162 
L 164.341425 50.087068 
L 162.208233 49.424186 
L 160.075041 48.82511 
L 157.941849 48.313545 
L 155.808657 47.906661 
L 153.675465 47.612539 
L 151.542272 47.42904 
L 149.40908 47.344149 
L 147.275888 47.337614 
L 145.142696 47.383498 
L 143.009504 47.453197 
L 140.876312 47.518464 
L 138.74312 47.554058 
L 136.609927 47.539807 
L 134.476735 47.46198 
L 132.343543 47.314042 
L 130.210351 47.096856 
L 128.077159 46.818404 
L 125.943967 46.493033 
L 123.810775 46.140175 
L 121.677582 45.782531 
L 119.54439 45.443789 
L 117.411198 45.146111 
L 115.278006 44.907733 
L 113.144814 44.741126 
L 111.011622 44.652087 
L 108.87843 44.64 
L 106.745237 44.699245 
L 104.612045 44.821485 
L 102.478853 44.998331 
L 100.345661 45.223807 
L 98.212469 45.496085 
L 96.079277 45.818155 
L 93.946085 46.19741 
L 91.812892 46.64438 
L 89.6797 47.171075 
L 87.546508 47.789403 
L 85.413316 48.510011 
L 83.280124 49.34166 
L 81.146932 50.290972 
L 79.01374 51.362254 
L 76.880547 52.557059 
L 74.747355 53.873313 
L 72.614163 55.304032 
L 70.480971 56.835934 
L 68.347779 58.44837 
L 66.214587 60.113063 
L 64.081395 61.794992 
L 61.948202 63.454501 
L 59.81501 65.050459 
L 57.681818 66.543981 
z
" clip-path="url(#p3fc8248f1c)" style="fill: #1f77b4; fill-opacity: 0.3"/>
   </g>
   <g id="matplotlib.axis_1">
    <g id="xtick_1">
     <g id="line2d_1">
      <defs>
       <path id="m20b14049a9" d="M 0 0 
L 0 3.5 
" style="stroke: #000000; stroke-width: 0.8"/>
      </defs>
      <g>
       <use xlink:href="#m20b14049a9" x="57.681818" y="256.32" style="stroke: #000000; stroke-width: 0.8"/>
      </g>
     </g>
     <g id="text_1">
      <!-- 0 -->
      <g transform="translate(54.500568 270.918437) scale(0.1 -0.1)">
       <defs>
        <path id="DejaVuSans-30" d="M 2034 4250 
Q 1547 4250 1301 3770 
Q 1056 3291 1056 2328 
Q 1056 1369 1301 889 
Q 1547 409 2034 409 
Q 2525 409 2770 889 
Q 3016 1369 3016 2328 
Q 3016 3291 2770 3770 
Q 2525 4250 2034 4250 
z
M 2034 4750 
Q 2819 4750 3233 4129 
Q 3647 3509 3647 2328 
Q 3647 1150 3233 529 
Q 2819 -91 2034 -91 
Q 1250 -91 836 529 
Q 422 1150 422 2328 
Q 422 3509 836 4129 
Q 1250 4750 2034 4750 
z
" transform="scale(0.015625)"/>
       </defs>
       <use xlink:href="#DejaVuSans-30"/>
      </g>
     </g>
    </g>
    <g id="xtick_2">
     <g id="line2d_2">
      <g>
       <use xlink:href="#m20b14049a9" x="101.064098" y="256.32" style="stroke: #000000; stroke-width: 0.8"/>
      </g>
     </g>
     <g id="text_2">
      <!-- 10 -->
      <g transform="translate(94.701598 270.918437) scale(0.1 -0.1)">
       <defs>
        <path id="DejaVuSans-31" d="M 794 531 
L 1825 531 
L 1825 4091 
L 703 3866 
L 703 4441 
L 1819 4666 
L 2450 4666 
L 2450 531 
L 3481 531 
L 3481 0 
L 794 0 
L 794 531 
z
" transform="scale(0.015625)"/>
       </defs>
       <use xlink:href="#DejaVuSans-31"/>
       <use xlink:href="#DejaVuSans-30" x="63.623047"/>
      </g>
     </g>
    </g>
    <g id="xtick_3">
     <g id="line2d_3">
      <g>
       <use xlink:href="#m20b14049a9" x="144.446378" y="256.32" style="stroke: #000000; stroke-width: 0.8"/>
      </g>
     </g>
     <g id="text_3">
      <!-- 20 -->
      <g transform="translate(138.083878 270.918437) scale(0.1 -0.1)">
       <defs>
        <path id="DejaVuSans-32" d="M 1228 531 
L 3431 531 
L 3431 0 
L 469 0 
L 469 531 
Q 828 903 1448 1529 
Q 2069 2156 2228 2338 
Q 2531 2678 2651 2914 
Q 2772 3150 2772 3378 
Q 2772 3750 2511 3984 
Q 2250 4219 1831 4219 
Q 1534 4219 1204 4116 
Q 875 4013 500 3803 
L 500 4441 
Q 881 4594 1212 4672 
Q 1544 4750 1819 4750 
Q 2544 4750 2975 4387 
Q 3406 4025 3406 3419 
Q 3406 3131 3298 2873 
Q 3191 2616 2906 2266 
Q 2828 2175 2409 1742 
Q 1991 1309 1228 531 
z
" transform="scale(0.015625)"/>
       </defs>
       <use xlink:href="#DejaVuSans-32"/>
       <use xlink:href="#DejaVuSans-30" x="63.623047"/>
      </g>
     </g>
    </g>
    <g id="xtick_4">
     <g id="line2d_4">
      <g>
       <use xlink:href="#m20b14049a9" x="187.828657" y="256.32" style="stroke: #000000; stroke-width: 0.8"/>
      </g>
     </g>
     <g id="text_4">
      <!-- 30 -->
      <g transform="translate(181.466157 270.918437) scale(0.1 -0.1)">
       <defs>
        <path id="DejaVuSans-33" d="M 2597 2516 
Q 3050 2419 3304 2112 
Q 3559 1806 3559 1356 
Q 3559 666 3084 287 
Q 2609 -91 1734 -91 
Q 1441 -91 1130 -33 
Q 819 25 488 141 
L 488 750 
Q 750 597 1062 519 
Q 1375 441 1716 441 
Q 2309 441 2620 675 
Q 2931 909 2931 1356 
Q 2931 1769 2642 2001 
Q 2353 2234 1838 2234 
L 1294 2234 
L 1294 2753 
L 1863 2753 
Q 2328 2753 2575 2939 
Q 2822 3125 2822 3475 
Q 2822 3834 2567 4026 
Q 2313 4219 1838 4219 
Q 1578 4219 1281 4162 
Q 984 4106 628 3988 
L 628 4550 
Q 988 4650 1302 4700 
Q 1616 4750 1894 4750 
Q 2613 4750 3031 4423 
Q 3450 4097 3450 3541 
Q 3450 3153 3228 2886 
Q 3006 2619 2597 2516 
z
" transform="scale(0.015625)"/>
       </defs>
       <use xlink:href="#DejaVuSans-33"/>
       <use xlink:href="#DejaVuSans-30" x="63.623047"/>
      </g>
     </g>
    </g>
    <g id="xtick_5">
     <g id="line2d_5">
      <g>
       <use xlink:href="#m20b14049a9" x="231.210937" y="256.32" style="stroke: #000000; stroke-width: 0.8"/>
      </g>
     </g>
     <g id="text_5">
      <!-- 40 -->
      <g transform="translate(224.848437 270.918437) scale(0.1 -0.1)">
       <defs>
        <path id="DejaVuSans-34" d="M 2419 4116 
L 825 1625 
L 2419 1625 
L 2419 4116 
z
M 2253 4666 
L 3047 4666 
L 3047 1625 
L 3713 1625 
L 3713 1100 
L 3047 1100 
L 3047 0 
L 2419 0 
L 2419 1100 
L 313 1100 
L 313 1709 
L 2253 4666 
z
" transform="scale(0.015625)"/>
       </defs>
       <use xlink:href="#DejaVuSans-34"/>
       <use xlink:href="#DejaVuSans-30" x="63.623047"/>
      </g>
     </g>
    </g>
    <g id="xtick_6">
     <g id="line2d_6">
      <g>
       <use xlink:href="#m20b14049a9" x="274.593217" y="256.32" style="stroke: #000000; stroke-width: 0.8"/>
      </g>
     </g>
     <g id="text_6">
      <!-- 50 -->
      <g transform="translate(268.230717 270.918437) scale(0.1 -0.1)">
       <defs>
        <path id="DejaVuSans-35" d="M 691 4666 
L 3169 4666 
L 3169 4134 
L 1269 4134 
L 1269 2991 
Q 1406 3038 1543 3061 
Q 1681 3084 1819 3084 
Q 2600 3084 3056 2656 
Q 3513 2228 3513 1497 
Q 3513 744 3044 326 
Q 2575 -91 1722 -91 
Q 1428 -91 1123 -41 
Q 819 9 494 109 
L 494 744 
Q 775 591 1075 516 
Q 1375 441 1709 441 
Q 2250 441 2565 725 
Q 2881 1009 2881 1497 
Q 2881 1984 2565 2268 
Q 2250 2553 1709 2553 
Q 1456 2553 1204 2497 
Q 953 2441 691 2322 
L 691 4666 
z
" transform="scale(0.015625)"/>
       </defs>
       <use xlink:href="#DejaVuSans-35"/>
       <use xlink:href="#DejaVuSans-30" x="63.623047"/>
      </g>
     </g>
    </g>
    <g id="xtick_7">
     <g id="line2d_7">
      <g>
       <use xlink:href="#m20b14049a9" x="317.975497" y="256.32" style="stroke: #000000; stroke-width: 0.8"/>
      </g>
     </g>
     <g id="text_7">
      <!-- 60 -->
      <g transform="translate(311.612997 270.918437) scale(0.1 -0.1)">
       <defs>
        <path id="DejaVuSans-36" d="M 2113 2584 
Q 1688 2584 1439 2293 
Q 1191 2003 1191 1497 
Q 1191 994 1439 701 
Q 1688 409 2113 409 
Q 2538 409 2786 701 
Q 3034 994 3034 1497 
Q 3034 2003 2786 2293 
Q 2538 2584 2113 2584 
z
M 3366 4563 
L 3366 3988 
Q 3128 4100 2886 4159 
Q 2644 4219 2406 4219 
Q 1781 4219 1451 3797 
Q 1122 3375 1075 2522 
Q 1259 2794 1537 2939 
Q 1816 3084 2150 3084 
Q 2853 3084 3261 2657 
Q 3669 2231 3669 1497 
Q 3669 778 3244 343 
Q 2819 -91 2113 -91 
Q 1303 -91 875 529 
Q 447 1150 447 2328 
Q 447 3434 972 4092 
Q 1497 4750 2381 4750 
Q 2619 4750 2861 4703 
Q 3103 4656 3366 4563 
z
" transform="scale(0.015625)"/>
       </defs>
       <use xlink:href="#DejaVuSans-36"/>
       <use xlink:href="#DejaVuSans-30" x="63.623047"/>
      </g>
     </g>
    </g>
    <g id="text_8">
     <!-- Absolute Error In Location Estimate -->
     <g transform="translate(96.228906 284.596563) scale(0.1 -0.1)">
      <defs>
       <path id="DejaVuSans-41" d="M 2188 4044 
L 1331 1722 
L 3047 1722 
L 2188 4044 
z
M 1831 4666 
L 2547 4666 
L 4325 0 
L 3669 0 
L 3244 1197 
L 1141 1197 
L 716 0 
L 50 0 
L 1831 4666 
z
" transform="scale(0.015625)"/>
       <path id="DejaVuSans-62" d="M 3116 1747 
Q 3116 2381 2855 2742 
Q 2594 3103 2138 3103 
Q 1681 3103 1420 2742 
Q 1159 2381 1159 1747 
Q 1159 1113 1420 752 
Q 1681 391 2138 391 
Q 2594 391 2855 752 
Q 3116 1113 3116 1747 
z
M 1159 2969 
Q 1341 3281 1617 3432 
Q 1894 3584 2278 3584 
Q 2916 3584 3314 3078 
Q 3713 2572 3713 1747 
Q 3713 922 3314 415 
Q 2916 -91 2278 -91 
Q 1894 -91 1617 61 
Q 1341 213 1159 525 
L 1159 0 
L 581 0 
L 581 4863 
L 1159 4863 
L 1159 2969 
z
" transform="scale(0.015625)"/>
       <path id="DejaVuSans-73" d="M 2834 3397 
L 2834 2853 
Q 2591 2978 2328 3040 
Q 2066 3103 1784 3103 
Q 1356 3103 1142 2972 
Q 928 2841 928 2578 
Q 928 2378 1081 2264 
Q 1234 2150 1697 2047 
L 1894 2003 
Q 2506 1872 2764 1633 
Q 3022 1394 3022 966 
Q 3022 478 2636 193 
Q 2250 -91 1575 -91 
Q 1294 -91 989 -36 
Q 684 19 347 128 
L 347 722 
Q 666 556 975 473 
Q 1284 391 1588 391 
Q 1994 391 2212 530 
Q 2431 669 2431 922 
Q 2431 1156 2273 1281 
Q 2116 1406 1581 1522 
L 1381 1569 
Q 847 1681 609 1914 
Q 372 2147 372 2553 
Q 372 3047 722 3315 
Q 1072 3584 1716 3584 
Q 2034 3584 2315 3537 
Q 2597 3491 2834 3397 
z
" transform="scale(0.015625)"/>
       <path id="DejaVuSans-6f" d="M 1959 3097 
Q 1497 3097 1228 2736 
Q 959 2375 959 1747 
Q 959 1119 1226 758 
Q 1494 397 1959 397 
Q 2419 397 2687 759 
Q 2956 1122 2956 1747 
Q 2956 2369 2687 2733 
Q 2419 3097 1959 3097 
z
M 1959 3584 
Q 2709 3584 3137 3096 
Q 3566 2609 3566 1747 
Q 3566 888 3137 398 
Q 2709 -91 1959 -91 
Q 1206 -91 779 398 
Q 353 888 353 1747 
Q 353 2609 779 3096 
Q 1206 3584 1959 3584 
z
" transform="scale(0.015625)"/>
       <path id="DejaVuSans-6c" d="M 603 4863 
L 1178 4863 
L 1178 0 
L 603 0 
L 603 4863 
z
" transform="scale(0.015625)"/>
       <path id="DejaVuSans-75" d="M 544 1381 
L 544 3500 
L 1119 3500 
L 1119 1403 
Q 1119 906 1312 657 
Q 1506 409 1894 409 
Q 2359 409 2629 706 
Q 2900 1003 2900 1516 
L 2900 3500 
L 3475 3500 
L 3475 0 
L 2900 0 
L 2900 538 
Q 2691 219 2414 64 
Q 2138 -91 1772 -91 
Q 1169 -91 856 284 
Q 544 659 544 1381 
z
M 1991 3584 
L 1991 3584 
z
" transform="scale(0.015625)"/>
       <path id="DejaVuSans-74" d="M 1172 4494 
L 1172 3500 
L 2356 3500 
L 2356 3053 
L 1172 3053 
L 1172 1153 
Q 1172 725 1289 603 
Q 1406 481 1766 481 
L 2356 481 
L 2356 0 
L 1766 0 
Q 1100 0 847 248 
Q 594 497 594 1153 
L 594 3053 
L 172 3053 
L 172 3500 
L 594 3500 
L 594 4494 
L 1172 4494 
z
" transform="scale(0.015625)"/>
       <path id="DejaVuSans-65" d="M 3597 1894 
L 3597 1613 
L 953 1613 
Q 991 1019 1311 708 
Q 1631 397 2203 397 
Q 2534 397 2845 478 
Q 3156 559 3463 722 
L 3463 178 
Q 3153 47 2828 -22 
Q 2503 -91 2169 -91 
Q 1331 -91 842 396 
Q 353 884 353 1716 
Q 353 2575 817 3079 
Q 1281 3584 2069 3584 
Q 2775 3584 3186 3129 
Q 3597 2675 3597 1894 
z
M 3022 2063 
Q 3016 2534 2758 2815 
Q 2500 3097 2075 3097 
Q 1594 3097 1305 2825 
Q 1016 2553 972 2059 
L 3022 2063 
z
" transform="scale(0.015625)"/>
       <path id="DejaVuSans-20" transform="scale(0.015625)"/>
       <path id="DejaVuSans-45" d="M 628 4666 
L 3578 4666 
L 3578 4134 
L 1259 4134 
L 1259 2753 
L 3481 2753 
L 3481 2222 
L 1259 2222 
L 1259 531 
L 3634 531 
L 3634 0 
L 628 0 
L 628 4666 
z
" transform="scale(0.015625)"/>
       <path id="DejaVuSans-72" d="M 2631 2963 
Q 2534 3019 2420 3045 
Q 2306 3072 2169 3072 
Q 1681 3072 1420 2755 
Q 1159 2438 1159 1844 
L 1159 0 
L 581 0 
L 581 3500 
L 1159 3500 
L 1159 2956 
Q 1341 3275 1631 3429 
Q 1922 3584 2338 3584 
Q 2397 3584 2469 3576 
Q 2541 3569 2628 3553 
L 2631 2963 
z
" transform="scale(0.015625)"/>
       <path id="DejaVuSans-49" d="M 628 4666 
L 1259 4666 
L 1259 0 
L 628 0 
L 628 4666 
z
" transform="scale(0.015625)"/>
       <path id="DejaVuSans-6e" d="M 3513 2113 
L 3513 0 
L 2938 0 
L 2938 2094 
Q 2938 2591 2744 2837 
Q 2550 3084 2163 3084 
Q 1697 3084 1428 2787 
Q 1159 2491 1159 1978 
L 1159 0 
L 581 0 
L 581 3500 
L 1159 3500 
L 1159 2956 
Q 1366 3272 1645 3428 
Q 1925 3584 2291 3584 
Q 2894 3584 3203 3211 
Q 3513 2838 3513 2113 
z
" transform="scale(0.015625)"/>
       <path id="DejaVuSans-4c" d="M 628 4666 
L 1259 4666 
L 1259 531 
L 3531 531 
L 3531 0 
L 628 0 
L 628 4666 
z
" transform="scale(0.015625)"/>
       <path id="DejaVuSans-63" d="M 3122 3366 
L 3122 2828 
Q 2878 2963 2633 3030 
Q 2388 3097 2138 3097 
Q 1578 3097 1268 2742 
Q 959 2388 959 1747 
Q 959 1106 1268 751 
Q 1578 397 2138 397 
Q 2388 397 2633 464 
Q 2878 531 3122 666 
L 3122 134 
Q 2881 22 2623 -34 
Q 2366 -91 2075 -91 
Q 1284 -91 818 406 
Q 353 903 353 1747 
Q 353 2603 823 3093 
Q 1294 3584 2113 3584 
Q 2378 3584 2631 3529 
Q 2884 3475 3122 3366 
z
" transform="scale(0.015625)"/>
       <path id="DejaVuSans-61" d="M 2194 1759 
Q 1497 1759 1228 1600 
Q 959 1441 959 1056 
Q 959 750 1161 570 
Q 1363 391 1709 391 
Q 2188 391 2477 730 
Q 2766 1069 2766 1631 
L 2766 1759 
L 2194 1759 
z
M 3341 1997 
L 3341 0 
L 2766 0 
L 2766 531 
Q 2569 213 2275 61 
Q 1981 -91 1556 -91 
Q 1019 -91 701 211 
Q 384 513 384 1019 
Q 384 1609 779 1909 
Q 1175 2209 1959 2209 
L 2766 2209 
L 2766 2266 
Q 2766 2663 2505 2880 
Q 2244 3097 1772 3097 
Q 1472 3097 1187 3025 
Q 903 2953 641 2809 
L 641 3341 
Q 956 3463 1253 3523 
Q 1550 3584 1831 3584 
Q 2591 3584 2966 3190 
Q 3341 2797 3341 1997 
z
" transform="scale(0.015625)"/>
       <path id="DejaVuSans-69" d="M 603 3500 
L 1178 3500 
L 1178 0 
L 603 0 
L 603 3500 
z
M 603 4863 
L 1178 4863 
L 1178 4134 
L 603 4134 
L 603 4863 
z
" transform="scale(0.015625)"/>
       <path id="DejaVuSans-6d" d="M 3328 2828 
Q 3544 3216 3844 3400 
Q 4144 3584 4550 3584 
Q 5097 3584 5394 3201 
Q 5691 2819 5691 2113 
L 5691 0 
L 5113 0 
L 5113 2094 
Q 5113 2597 4934 2840 
Q 4756 3084 4391 3084 
Q 3944 3084 3684 2787 
Q 3425 2491 3425 1978 
L 3425 0 
L 2847 0 
L 2847 2094 
Q 2847 2600 2669 2842 
Q 2491 3084 2119 3084 
Q 1678 3084 1418 2786 
Q 1159 2488 1159 1978 
L 1159 0 
L 581 0 
L 581 3500 
L 1159 3500 
L 1159 2956 
Q 1356 3278 1631 3431 
Q 1906 3584 2284 3584 
Q 2666 3584 2933 3390 
Q 3200 3197 3328 2828 
z
" transform="scale(0.015625)"/>
      </defs>
      <use xlink:href="#DejaVuSans-41"/>
      <use xlink:href="#DejaVuSans-62" x="68.408203"/>
      <use xlink:href="#DejaVuSans-73" x="131.884766"/>
      <use xlink:href="#DejaVuSans-6f" x="183.984375"/>
      <use xlink:href="#DejaVuSans-6c" x="245.166016"/>
      <use xlink:href="#DejaVuSans-75" x="272.949219"/>
      <use xlink:href="#DejaVuSans-74" x="336.328125"/>
      <use xlink:href="#DejaVuSans-65" x="375.537109"/>
      <use xlink:href="#DejaVuSans-20" x="437.060547"/>
      <use xlink:href="#DejaVuSans-45" x="468.847656"/>
      <use xlink:href="#DejaVuSans-72" x="532.03125"/>
      <use xlink:href="#DejaVuSans-72" x="571.394531"/>
      <use xlink:href="#DejaVuSans-6f" x="610.257812"/>
      <use xlink:href="#DejaVuSans-72" x="671.439453"/>
      <use xlink:href="#DejaVuSans-20" x="712.552734"/>
      <use xlink:href="#DejaVuSans-49" x="744.339844"/>
      <use xlink:href="#DejaVuSans-6e" x="773.832031"/>
      <use xlink:href="#DejaVuSans-20" x="837.210938"/>
      <use xlink:href="#DejaVuSans-4c" x="868.998047"/>
      <use xlink:href="#DejaVuSans-6f" x="922.960938"/>
      <use xlink:href="#DejaVuSans-63" x="984.142578"/>
      <use xlink:href="#DejaVuSans-61" x="1039.123047"/>
      <use xlink:href="#DejaVuSans-74" x="1100.402344"/>
      <use xlink:href="#DejaVuSans-69" x="1139.611328"/>
      <use xlink:href="#DejaVuSans-6f" x="1167.394531"/>
      <use xlink:href="#DejaVuSans-6e" x="1228.576172"/>
      <use xlink:href="#DejaVuSans-20" x="1291.955078"/>
      <use xlink:href="#DejaVuSans-45" x="1323.742188"/>
      <use xlink:href="#DejaVuSans-73" x="1386.925781"/>
      <use xlink:href="#DejaVuSans-74" x="1439.025391"/>
      <use xlink:href="#DejaVuSans-69" x="1478.234375"/>
      <use xlink:href="#DejaVuSans-6d" x="1506.017578"/>
      <use xlink:href="#DejaVuSans-61" x="1603.429688"/>
      <use xlink:href="#DejaVuSans-74" x="1664.708984"/>
      <use xlink:href="#DejaVuSans-65" x="1703.917969"/>
     </g>
    </g>
   </g>
   <g id="matplotlib.axis_2">
    <g id="ytick_1">
     <g id="line2d_8">
      <defs>
       <path id="m97d8575814" d="M 0 0 
L -3.5 0 
" style="stroke: #000000; stroke-width: 0.8"/>
      </defs>
      <g>
       <use xlink:href="#m97d8575814" x="45" y="246.24" style="stroke: #000000; stroke-width: 0.8"/>
      </g>
     </g>
     <g id="text_9">
      <!-- Averaging-Up -->
      <g transform="translate(-29.651562 250.039219) scale(0.1 -0.1)">
       <defs>
        <path id="DejaVuSans-76" d="M 191 3500 
L 800 3500 
L 1894 563 
L 2988 3500 
L 3597 3500 
L 2284 0 
L 1503 0 
L 191 3500 
z
" transform="scale(0.015625)"/>
        <path id="DejaVuSans-67" d="M 2906 1791 
Q 2906 2416 2648 2759 
Q 2391 3103 1925 3103 
Q 1463 3103 1205 2759 
Q 947 2416 947 1791 
Q 947 1169 1205 825 
Q 1463 481 1925 481 
Q 2391 481 2648 825 
Q 2906 1169 2906 1791 
z
M 3481 434 
Q 3481 -459 3084 -895 
Q 2688 -1331 1869 -1331 
Q 1566 -1331 1297 -1286 
Q 1028 -1241 775 -1147 
L 775 -588 
Q 1028 -725 1275 -790 
Q 1522 -856 1778 -856 
Q 2344 -856 2625 -561 
Q 2906 -266 2906 331 
L 2906 616 
Q 2728 306 2450 153 
Q 2172 0 1784 0 
Q 1141 0 747 490 
Q 353 981 353 1791 
Q 353 2603 747 3093 
Q 1141 3584 1784 3584 
Q 2172 3584 2450 3431 
Q 2728 3278 2906 2969 
L 2906 3500 
L 3481 3500 
L 3481 434 
z
" transform="scale(0.015625)"/>
        <path id="DejaVuSans-2d" d="M 313 2009 
L 1997 2009 
L 1997 1497 
L 313 1497 
L 313 2009 
z
" transform="scale(0.015625)"/>
        <path id="DejaVuSans-55" d="M 556 4666 
L 1191 4666 
L 1191 1831 
Q 1191 1081 1462 751 
Q 1734 422 2344 422 
Q 2950 422 3222 751 
Q 3494 1081 3494 1831 
L 3494 4666 
L 4128 4666 
L 4128 1753 
Q 4128 841 3676 375 
Q 3225 -91 2344 -91 
Q 1459 -91 1007 375 
Q 556 841 556 1753 
L 556 4666 
z
" transform="scale(0.015625)"/>
        <path id="DejaVuSans-70" d="M 1159 525 
L 1159 -1331 
L 581 -1331 
L 581 3500 
L 1159 3500 
L 1159 2969 
Q 1341 3281 1617 3432 
Q 1894 3584 2278 3584 
Q 2916 3584 3314 3078 
Q 3713 2572 3713 1747 
Q 3713 922 3314 415 
Q 2916 -91 2278 -91 
Q 1894 -91 1617 61 
Q 1341 213 1159 525 
z
M 3116 1747 
Q 3116 2381 2855 2742 
Q 2594 3103 2138 3103 
Q 1681 3103 1420 2742 
Q 1159 2381 1159 1747 
Q 1159 1113 1420 752 
Q 1681 391 2138 391 
Q 2594 391 2855 752 
Q 3116 1113 3116 1747 
z
" transform="scale(0.015625)"/>
       </defs>
       <use xlink:href="#DejaVuSans-41"/>
       <use xlink:href="#DejaVuSans-76" x="62.533203"/>
       <use xlink:href="#DejaVuSans-65" x="121.712891"/>
       <use xlink:href="#DejaVuSans-72" x="183.236328"/>
       <use xlink:href="#DejaVuSans-61" x="224.349609"/>
       <use xlink:href="#DejaVuSans-67" x="285.628906"/>
       <use xlink:href="#DejaVuSans-69" x="349.105469"/>
       <use xlink:href="#DejaVuSans-6e" x="376.888672"/>
       <use xlink:href="#DejaVuSans-67" x="440.267578"/>
       <use xlink:href="#DejaVuSans-2d" x="503.744141"/>
       <use xlink:href="#DejaVuSans-55" x="539.828125"/>
       <use xlink:href="#DejaVuSans-70" x="613.021484"/>
      </g>
     </g>
    </g>
    <g id="ytick_2">
     <g id="line2d_9">
      <g>
       <use xlink:href="#m97d8575814" x="45" y="188.64" style="stroke: #000000; stroke-width: 0.8"/>
      </g>
     </g>
     <g id="text_10">
      <!-- Tree -->
      <g transform="translate(17.175 192.439219) scale(0.1 -0.1)">
       <defs>
        <path id="DejaVuSans-54" d="M -19 4666 
L 3928 4666 
L 3928 4134 
L 2272 4134 
L 2272 0 
L 1638 0 
L 1638 4134 
L -19 4134 
L -19 4666 
z
" transform="scale(0.015625)"/>
       </defs>
       <use xlink:href="#DejaVuSans-54"/>
       <use xlink:href="#DejaVuSans-72" x="46.333984"/>
       <use xlink:href="#DejaVuSans-65" x="85.197266"/>
       <use xlink:href="#DejaVuSans-65" x="146.720703"/>
      </g>
     </g>
    </g>
    <g id="ytick_3">
     <g id="line2d_10">
      <g>
       <use xlink:href="#m97d8575814" x="45" y="131.04" style="stroke: #000000; stroke-width: 0.8"/>
      </g>
     </g>
     <g id="text_11">
      <!-- Window 100 -->
      <g transform="translate(-23.689063 134.839219) scale(0.1 -0.1)">
       <defs>
        <path id="DejaVuSans-57" d="M 213 4666 
L 850 4666 
L 1831 722 
L 2809 4666 
L 3519 4666 
L 4500 722 
L 5478 4666 
L 6119 4666 
L 4947 0 
L 4153 0 
L 3169 4050 
L 2175 0 
L 1381 0 
L 213 4666 
z
" transform="scale(0.015625)"/>
        <path id="DejaVuSans-64" d="M 2906 2969 
L 2906 4863 
L 3481 4863 
L 3481 0 
L 2906 0 
L 2906 525 
Q 2725 213 2448 61 
Q 2172 -91 1784 -91 
Q 1150 -91 751 415 
Q 353 922 353 1747 
Q 353 2572 751 3078 
Q 1150 3584 1784 3584 
Q 2172 3584 2448 3432 
Q 2725 3281 2906 2969 
z
M 947 1747 
Q 947 1113 1208 752 
Q 1469 391 1925 391 
Q 2381 391 2643 752 
Q 2906 1113 2906 1747 
Q 2906 2381 2643 2742 
Q 2381 3103 1925 3103 
Q 1469 3103 1208 2742 
Q 947 2381 947 1747 
z
" transform="scale(0.015625)"/>
        <path id="DejaVuSans-77" d="M 269 3500 
L 844 3500 
L 1563 769 
L 2278 3500 
L 2956 3500 
L 3675 769 
L 4391 3500 
L 4966 3500 
L 4050 0 
L 3372 0 
L 2619 2869 
L 1863 0 
L 1184 0 
L 269 3500 
z
" transform="scale(0.015625)"/>
       </defs>
       <use xlink:href="#DejaVuSans-57"/>
       <use xlink:href="#DejaVuSans-69" x="96.626953"/>
       <use xlink:href="#DejaVuSans-6e" x="124.410156"/>
       <use xlink:href="#DejaVuSans-64" x="187.789062"/>
       <use xlink:href="#DejaVuSans-6f" x="251.265625"/>
       <use xlink:href="#DejaVuSans-77" x="312.447266"/>
       <use xlink:href="#DejaVuSans-20" x="394.234375"/>
       <use xlink:href="#DejaVuSans-31" x="426.021484"/>
       <use xlink:href="#DejaVuSans-30" x="489.644531"/>
       <use xlink:href="#DejaVuSans-30" x="553.267578"/>
      </g>
     </g>
    </g>
    <g id="ytick_4">
     <g id="line2d_11">
      <g>
       <use xlink:href="#m97d8575814" x="45" y="73.44" style="stroke: #000000; stroke-width: 0.8"/>
      </g>
     </g>
     <g id="text_12">
      <!-- Chromosome -->
      <g transform="translate(-28.40625 77.239219) scale(0.1 -0.1)">
       <defs>
        <path id="DejaVuSans-43" d="M 4122 4306 
L 4122 3641 
Q 3803 3938 3442 4084 
Q 3081 4231 2675 4231 
Q 1875 4231 1450 3742 
Q 1025 3253 1025 2328 
Q 1025 1406 1450 917 
Q 1875 428 2675 428 
Q 3081 428 3442 575 
Q 3803 722 4122 1019 
L 4122 359 
Q 3791 134 3420 21 
Q 3050 -91 2638 -91 
Q 1578 -91 968 557 
Q 359 1206 359 2328 
Q 359 3453 968 4101 
Q 1578 4750 2638 4750 
Q 3056 4750 3426 4639 
Q 3797 4528 4122 4306 
z
" transform="scale(0.015625)"/>
        <path id="DejaVuSans-68" d="M 3513 2113 
L 3513 0 
L 2938 0 
L 2938 2094 
Q 2938 2591 2744 2837 
Q 2550 3084 2163 3084 
Q 1697 3084 1428 2787 
Q 1159 2491 1159 1978 
L 1159 0 
L 581 0 
L 581 4863 
L 1159 4863 
L 1159 2956 
Q 1366 3272 1645 3428 
Q 1925 3584 2291 3584 
Q 2894 3584 3203 3211 
Q 3513 2838 3513 2113 
z
" transform="scale(0.015625)"/>
       </defs>
       <use xlink:href="#DejaVuSans-43"/>
       <use xlink:href="#DejaVuSans-68" x="69.824219"/>
       <use xlink:href="#DejaVuSans-72" x="133.203125"/>
       <use xlink:href="#DejaVuSans-6f" x="172.066406"/>
       <use xlink:href="#DejaVuSans-6d" x="233.248047"/>
       <use xlink:href="#DejaVuSans-6f" x="330.660156"/>
       <use xlink:href="#DejaVuSans-73" x="391.841797"/>
       <use xlink:href="#DejaVuSans-6f" x="443.941406"/>
       <use xlink:href="#DejaVuSans-6d" x="505.123047"/>
       <use xlink:href="#DejaVuSans-65" x="602.535156"/>
      </g>
     </g>
    </g>
   </g>
   <g id="LineCollection_1">
    <path d="M 121.157395 246.24 
L 121.157395 231.84 
" clip-path="url(#p3fc8248f1c)" style="fill: none; stroke: #1f77b4; stroke-width: 1.5; stroke-linecap: square"/>
    <path d="M 119.129461 188.64 
L 119.129461 174.24 
" clip-path="url(#p3fc8248f1c)" style="fill: none; stroke: #1f77b4; stroke-width: 1.5; stroke-linecap: square"/>
    <path d="M 115.198681 131.04 
L 115.198681 116.64 
" clip-path="url(#p3fc8248f1c)" style="fill: none; stroke: #1f77b4; stroke-width: 1.5; stroke-linecap: square"/>
    <path d="M 135.545062 73.44 
L 135.545062 59.04 
" clip-path="url(#p3fc8248f1c)" style="fill: none; stroke: #1f77b4; stroke-width: 1.5; stroke-linecap: square"/>
   </g>
   <g id="LineCollection_2">
    <path d="M 298.163804 246.24 
L 298.163804 231.84 
" clip-path="url(#p3fc8248f1c)" style="fill: none; stroke: #1f77b4; stroke-width: 1.5; stroke-linecap: square"/>
    <path d="M 311.318182 188.64 
L 311.318182 174.24 
" clip-path="url(#p3fc8248f1c)" style="fill: none; stroke: #1f77b4; stroke-width: 1.5; stroke-linecap: square"/>
    <path d="M 298.624359 131.04 
L 298.624359 116.64 
" clip-path="url(#p3fc8248f1c)" style="fill: none; stroke: #1f77b4; stroke-width: 1.5; stroke-linecap: square"/>
    <path d="M 268.86784 73.44 
L 268.86784 59.04 
" clip-path="url(#p3fc8248f1c)" style="fill: none; stroke: #1f77b4; stroke-width: 1.5; stroke-linecap: square"/>
   </g>
   <g id="LineCollection_3">
    <path d="M 57.681818 246.24 
L 57.681818 231.84 
" clip-path="url(#p3fc8248f1c)" style="fill: none; stroke: #1f77b4; stroke-width: 1.5; stroke-linecap: square"/>
    <path d="M 57.681818 188.64 
L 57.681818 174.24 
" clip-path="url(#p3fc8248f1c)" style="fill: none; stroke: #1f77b4; stroke-width: 1.5; stroke-linecap: square"/>
    <path d="M 57.681818 131.04 
L 57.681818 116.64 
" clip-path="url(#p3fc8248f1c)" style="fill: none; stroke: #1f77b4; stroke-width: 1.5; stroke-linecap: square"/>
    <path d="M 57.681818 73.44 
L 57.681818 59.04 
" clip-path="url(#p3fc8248f1c)" style="fill: none; stroke: #1f77b4; stroke-width: 1.5; stroke-linecap: square"/>
   </g>
   <g id="LineCollection_4">
    <path d="M 57.681818 246.24 
L 298.163804 246.24 
" clip-path="url(#p3fc8248f1c)" style="fill: none; stroke: #1f77b4; stroke-width: 1.5; stroke-linecap: square"/>
    <path d="M 57.681818 188.64 
L 311.318182 188.64 
" clip-path="url(#p3fc8248f1c)" style="fill: none; stroke: #1f77b4; stroke-width: 1.5; stroke-linecap: square"/>
    <path d="M 57.681818 131.04 
L 298.624359 131.04 
" clip-path="url(#p3fc8248f1c)" style="fill: none; stroke: #1f77b4; stroke-width: 1.5; stroke-linecap: square"/>
    <path d="M 57.681818 73.44 
L 268.86784 73.44 
" clip-path="url(#p3fc8248f1c)" style="fill: none; stroke: #1f77b4; stroke-width: 1.5; stroke-linecap: square"/>
   </g>
   <g id="patch_3">
    <path d="M 45 256.32 
L 45 34.56 
" style="fill: none; stroke: #000000; stroke-width: 0.8; stroke-linejoin: miter; stroke-linecap: square"/>
   </g>
   <g id="patch_4">
    <path d="M 324 256.32 
L 324 34.56 
" style="fill: none; stroke: #000000; stroke-width: 0.8; stroke-linejoin: miter; stroke-linecap: square"/>
   </g>
   <g id="patch_5">
    <path d="M 45 256.32 
L 324 256.32 
" style="fill: none; stroke: #000000; stroke-width: 0.8; stroke-linejoin: miter; stroke-linecap: square"/>
   </g>
   <g id="patch_6">
    <path d="M 45 34.56 
L 324 34.56 
" style="fill: none; stroke: #000000; stroke-width: 0.8; stroke-linejoin: miter; stroke-linecap: square"/>
   </g>
  </g>
 </g>
 <defs>
  <clipPath id="p3fc8248f1c">
   <rect x="45" y="34.56" width="279" height="221.76"/>
  </clipPath>
 </defs>
</svg>
