<?xml version="1.0" encoding="utf-8" standalone="no"?>
<!DOCTYPE svg PUBLIC "-//W3C//DTD SVG 1.1//EN"
  "http://www.w3.org/Graphics/SVG/1.1/DTD/svg11.dtd">
<svg xmlns:xlink="http://www.w3.org/1999/xlink" width="360pt" height="288pt" viewBox="0 0 360 288" xmlns="http://www.w3.org/2000/svg" version="1.1">
 <metadata>
  <rdf:RDF xmlns:dc="http://purl.org/dc/elements/1.1/" xmlns:cc="http://creativecommons.org/ns#" xmlns:rdf="http://www.w3.org/1999/02/22-rdf-syntax-ns#">
   <cc:Work>
    <dc:type rdf:resource="http://purl.org/dc/dcmitype/StillImage"/>
    <dc:date>2024-11-27T13:03:42.459222</dc:date>
    <dc:format>image/svg+xml</dc:format>
    <dc:creator>
     <cc:Agent>
      <dc:title>Matplotlib v3.9.2, https://matplotlib.org/</dc:title>
     </cc:Agent>
    </dc:creator>
   </cc:Work>
  </rdf:RDF>
 </metadata>
 <defs>
  <style type="text/css">*{stroke-linejoin: round; stroke-linecap: butt}</style>
 </defs>
 <g id="figure_1">
  <g id="patch_1">
   <path d="M 0 288 
L 360 288 
L 360 0 
L 0 0 
z
" style="fill: #ffffff"/>
  </g>
  <g id="axes_1">
   <g id="patch_2">
    <path d="M 45 256.32 
L 324 256.32 
L 324 34.56 
L 45 34.56 
z
" style="fill: #ffffff"/>
   </g>
   <g id="PolyCollection_1">
    <path d="M 57.681818 201.730909 
L 57.681818 221.367273 
L 57.681818 221.367273 
L 57.681818 221.367273 
L 57.681818 221.367273 
L 57.681818 221.367273 
L 57.681818 221.367273 
L 57.681818 221.367273 
L 57.681818 221.367273 
L 57.681818 221.367273 
L 57.681818 221.367273 
L 57.681818 221.367273 
L 57.681818 221.367273 
L 57.681818 221.367273 
L 57.681818 221.367273 
L 57.681818 221.367273 
L 57.681818 221.367273 
L 57.681818 221.367273 
L 57.681818 221.367273 
L 57.681818 221.367273 
L 57.681818 221.367273 
L 57.681818 221.367273 
L 57.681818 221.367273 
L 57.681818 221.367273 
L 57.681818 221.367273 
L 57.681818 221.367273 
L 57.681818 221.367273 
L 57.681818 221.367273 
L 57.681818 221.367273 
L 57.681818 221.367273 
L 57.681818 221.367273 
L 57.681818 221.367273 
L 57.681818 221.367273 
L 57.681818 221.367273 
L 57.681818 221.367273 
L 57.681818 221.367273 
L 57.681818 221.367273 
L 57.681818 221.367273 
L 57.681818 221.367273 
L 57.681818 221.367273 
L 57.681818 221.367273 
L 57.681818 221.367273 
L 57.681818 221.367273 
L 57.681818 221.367273 
L 57.681818 221.367273 
L 57.681818 221.367273 
L 57.681818 221.367273 
L 57.681818 221.367273 
L 57.681818 221.367273 
L 57.681818 221.367273 
L 57.681818 221.367273 
L 57.681818 221.367273 
L 57.681818 221.367273 
L 57.681818 221.367273 
L 57.681818 221.367273 
L 57.681818 221.367273 
L 57.681818 221.367273 
L 57.681818 221.367273 
L 57.681818 221.367273 
L 57.681818 221.367273 
L 57.681818 221.367273 
L 57.681818 221.367273 
L 57.681818 221.367273 
L 57.681818 221.367273 
L 57.681818 221.367273 
L 57.681818 221.367273 
L 57.681818 221.367273 
L 57.681818 221.367273 
L 57.681818 221.367273 
L 57.681818 221.367273 
L 57.681818 221.367273 
L 57.681818 221.367273 
L 57.681818 221.367273 
L 57.681818 221.367273 
L 57.681818 221.367273 
L 57.681818 221.367273 
L 57.681818 221.367273 
L 57.681818 221.367273 
L 57.681818 221.367273 
L 57.681818 221.367273 
L 57.681818 221.367273 
L 57.681818 221.367273 
L 57.681818 221.367273 
L 57.681818 221.367273 
L 57.681818 221.367273 
L 57.681818 221.367273 
L 57.681818 221.367273 
L 57.681818 221.367273 
L 57.681818 221.367273 
L 57.681818 221.367273 
L 57.681818 221.367273 
L 57.681818 221.367273 
L 57.681818 221.367273 
L 57.681818 221.367273 
L 57.681818 221.367273 
L 57.681818 221.367273 
L 57.681818 221.367273 
L 57.681818 221.367273 
L 57.681818 221.367273 
L 57.681818 221.367273 
L 57.681818 221.367273 
L 57.681818 201.730909 
L 57.681818 201.730909 
L 57.681818 201.730909 
L 57.681818 201.730909 
L 57.681818 201.730909 
L 57.681818 201.730909 
L 57.681818 201.730909 
L 57.681818 201.730909 
L 57.681818 201.730909 
L 57.681818 201.730909 
L 57.681818 201.730909 
L 57.681818 201.730909 
L 57.681818 201.730909 
L 57.681818 201.730909 
L 57.681818 201.730909 
L 57.681818 201.730909 
L 57.681818 201.730909 
L 57.681818 201.730909 
L 57.681818 201.730909 
L 57.681818 201.730909 
L 57.681818 201.730909 
L 57.681818 201.730909 
L 57.681818 201.730909 
L 57.681818 201.730909 
L 57.681818 201.730909 
L 57.681818 201.730909 
L 57.681818 201.730909 
L 57.681818 201.730909 
L 57.681818 201.730909 
L 57.681818 201.730909 
L 57.681818 201.730909 
L 57.681818 201.730909 
L 57.681818 201.730909 
L 57.681818 201.730909 
L 57.681818 201.730909 
L 57.681818 201.730909 
L 57.681818 201.730909 
L 57.681818 201.730909 
L 57.681818 201.730909 
L 57.681818 201.730909 
L 57.681818 201.730909 
L 57.681818 201.730909 
L 57.681818 201.730909 
L 57.681818 201.730909 
L 57.681818 201.730909 
L 57.681818 201.730909 
L 57.681818 201.730909 
L 57.681818 201.730909 
L 57.681818 201.730909 
L 57.681818 201.730909 
L 57.681818 201.730909 
L 57.681818 201.730909 
L 57.681818 201.730909 
L 57.681818 201.730909 
L 57.681818 201.730909 
L 57.681818 201.730909 
L 57.681818 201.730909 
L 57.681818 201.730909 
L 57.681818 201.730909 
L 57.681818 201.730909 
L 57.681818 201.730909 
L 57.681818 201.730909 
L 57.681818 201.730909 
L 57.681818 201.730909 
L 57.681818 201.730909 
L 57.681818 201.730909 
L 57.681818 201.730909 
L 57.681818 201.730909 
L 57.681818 201.730909 
L 57.681818 201.730909 
L 57.681818 201.730909 
L 57.681818 201.730909 
L 57.681818 201.730909 
L 57.681818 201.730909 
L 57.681818 201.730909 
L 57.681818 201.730909 
L 57.681818 201.730909 
L 57.681818 201.730909 
L 57.681818 201.730909 
L 57.681818 201.730909 
L 57.681818 201.730909 
L 57.681818 201.730909 
L 57.681818 201.730909 
L 57.681818 201.730909 
L 57.681818 201.730909 
L 57.681818 201.730909 
L 57.681818 201.730909 
L 57.681818 201.730909 
L 57.681818 201.730909 
L 57.681818 201.730909 
L 57.681818 201.730909 
L 57.681818 201.730909 
L 57.681818 201.730909 
L 57.681818 201.730909 
L 57.681818 201.730909 
L 57.681818 201.730909 
L 57.681818 201.730909 
L 57.681818 201.730909 
L 57.681818 201.730909 
L 57.681818 201.730909 
L 57.681818 201.730909 
z
" clip-path="url(#p3262d01549)" style="fill: #1f77b4; fill-opacity: 0.3"/>
   </g>
   <g id="PolyCollection_2">
    <path d="M 57.681818 159.405912 
L 57.681818 169.003636 
L 60.243802 169.003636 
L 62.805785 169.003636 
L 65.367769 169.003636 
L 67.929752 169.003636 
L 70.491736 169.003636 
L 73.053719 169.003636 
L 75.615702 169.003636 
L 78.177686 169.003636 
L 80.739669 169.003636 
L 83.301653 169.003636 
L 85.863636 169.003636 
L 88.42562 169.003636 
L 90.987603 169.003636 
L 93.549587 169.003636 
L 96.11157 169.003636 
L 98.673554 169.003636 
L 101.235537 169.003636 
L 103.797521 169.003636 
L 106.359504 169.003636 
L 108.921488 169.003636 
L 111.483471 169.003636 
L 114.045455 169.003636 
L 116.607438 169.003636 
L 119.169421 169.003636 
L 121.731405 169.003636 
L 124.293388 169.003636 
L 126.855372 169.003636 
L 129.417355 169.003636 
L 131.979339 169.003636 
L 134.541322 169.003636 
L 137.103306 169.003636 
L 139.665289 169.003636 
L 142.227273 169.003636 
L 144.789256 169.003636 
L 147.35124 169.003636 
L 149.913223 169.003636 
L 152.475207 169.003636 
L 155.03719 169.003636 
L 157.599174 169.003636 
L 160.161157 169.003636 
L 162.72314 169.003636 
L 165.285124 169.003636 
L 167.847107 169.003636 
L 170.409091 169.003636 
L 172.971074 169.003636 
L 175.533058 169.003636 
L 178.095041 169.003636 
L 180.657025 169.003636 
L 183.219008 169.003636 
L 185.780992 169.003636 
L 188.342975 169.003636 
L 190.904959 169.003636 
L 193.466942 169.003636 
L 196.028926 169.003636 
L 198.590909 169.003636 
L 201.152893 169.003636 
L 203.714876 169.003636 
L 206.27686 169.003636 
L 208.838843 169.003636 
L 211.400826 169.003636 
L 213.96281 169.003636 
L 216.524793 169.003636 
L 219.086777 169.003636 
L 221.64876 169.003636 
L 224.210744 169.003636 
L 226.772727 169.003636 
L 229.334711 169.003636 
L 231.896694 169.003636 
L 234.458678 169.003636 
L 237.020661 169.003636 
L 239.582645 169.003636 
L 242.144628 169.003636 
L 244.706612 169.003636 
L 247.268595 169.003636 
L 249.830579 169.003636 
L 252.392562 169.003636 
L 254.954545 169.003636 
L 257.516529 169.003636 
L 260.078512 169.003636 
L 262.640496 169.003636 
L 265.202479 169.003636 
L 267.764463 169.003636 
L 270.326446 169.003636 
L 272.88843 169.003636 
L 275.450413 169.003636 
L 278.012397 169.003636 
L 280.57438 169.003636 
L 283.136364 169.003636 
L 285.698347 169.003636 
L 288.260331 169.003636 
L 290.822314 169.003636 
L 293.384298 169.003636 
L 295.946281 169.003636 
L 298.508264 169.003636 
L 301.070248 169.003636 
L 303.632231 169.003636 
L 306.194215 169.003636 
L 308.756198 169.003636 
L 311.318182 169.003636 
L 311.318182 168.831881 
L 311.318182 168.831881 
L 308.756198 168.797805 
L 306.194215 168.765255 
L 303.632231 168.736631 
L 301.070248 168.714189 
L 298.508264 168.699723 
L 295.946281 168.694328 
L 293.384298 168.698286 
L 290.822314 168.71105 
L 288.260331 168.731292 
L 285.698347 168.756961 
L 283.136364 168.785373 
L 280.57438 168.813406 
L 278.012397 168.837853 
L 275.450413 168.855924 
L 272.88843 168.865813 
L 270.326446 168.86715 
L 267.764463 168.861171 
L 265.202479 168.850503 
L 262.640496 168.838541 
L 260.078512 168.828553 
L 257.516529 168.822706 
L 254.954545 168.821284 
L 252.392562 168.822324 
L 249.830579 168.821796 
L 247.268595 168.814354 
L 244.706612 168.794482 
L 242.144628 168.757775 
L 239.582645 168.702023 
L 237.020661 168.627786 
L 234.458678 168.538278 
L 231.896694 168.438566 
L 229.334711 168.334305 
L 226.772727 168.230384 
L 224.210744 168.129883 
L 221.64876 168.033623 
L 219.086777 167.940374 
L 216.524793 167.847567 
L 213.96281 167.752232 
L 211.400826 167.651846 
L 208.838843 167.544879 
L 206.27686 167.430958 
L 203.714876 167.310686 
L 201.152893 167.185272 
L 198.590909 167.056153 
L 196.028926 166.924717 
L 193.466942 166.792198 
L 190.904959 166.659687 
L 188.342975 166.528159 
L 185.780992 166.398429 
L 183.219008 166.27094 
L 180.657025 166.145442 
L 178.095041 166.020621 
L 175.533058 165.89387 
L 172.971074 165.761322 
L 170.409091 165.61826 
L 167.847107 165.459838 
L 165.285124 165.281978 
L 162.72314 165.082165 
L 160.161157 164.859865 
L 157.599174 164.616311 
L 155.03719 164.353627 
L 152.475207 164.073471 
L 149.913223 163.775624 
L 147.35124 163.457052 
L 144.789256 163.111808 
L 142.227273 162.73184 
L 139.665289 162.308443 
L 137.103306 161.833931 
L 134.541322 161.303147 
L 131.979339 160.714628 
L 129.417355 160.071384 
L 126.855372 159.381309 
L 124.293388 158.657124 
L 121.731405 157.915735 
L 119.169421 157.176831 
L 116.607438 156.460704 
L 114.045455 155.785417 
L 111.483471 155.163682 
L 108.921488 154.600027 
L 106.359504 154.089082 
L 103.797521 153.615854 
L 101.235537 153.158573 
L 98.673554 152.694 
L 96.11157 152.204128 
L 93.549587 151.682503 
L 90.987603 151.138304 
L 88.42562 150.597065 
L 85.863636 150.098206 
L 83.301653 149.690708 
L 80.739669 149.428605 
L 78.177686 149.367273 
L 75.615702 149.5602 
L 73.053719 150.054813 
L 70.491736 150.885965 
L 67.929752 152.067029 
L 65.367769 153.580619 
L 62.805785 155.37259 
L 60.243802 157.35301 
L 57.681818 159.405912 
z
" clip-path="url(#p3262d01549)" style="fill: #1f77b4; fill-opacity: 0.3"/>
   </g>
   <g id="PolyCollection_3">
    <path d="M 57.681818 109.227286 
L 57.681818 116.64 
L 60.114083 116.64 
L 62.546348 116.64 
L 64.978613 116.64 
L 67.410877 116.64 
L 69.843142 116.64 
L 72.275407 116.64 
L 74.707672 116.64 
L 77.139937 116.64 
L 79.572201 116.64 
L 82.004466 116.64 
L 84.436731 116.64 
L 86.868996 116.64 
L 89.301261 116.64 
L 91.733525 116.64 
L 94.16579 116.64 
L 96.598055 116.64 
L 99.03032 116.64 
L 101.462585 116.64 
L 103.894849 116.64 
L 106.327114 116.64 
L 108.759379 116.64 
L 111.191644 116.64 
L 113.623909 116.64 
L 116.056173 116.64 
L 118.488438 116.64 
L 120.920703 116.64 
L 123.352968 116.64 
L 125.785233 116.64 
L 128.217497 116.64 
L 130.649762 116.64 
L 133.082027 116.64 
L 135.514292 116.64 
L 137.946557 116.64 
L 140.378821 116.64 
L 142.811086 116.64 
L 145.243351 116.64 
L 147.675616 116.64 
L 150.107881 116.64 
L 152.540145 116.64 
L 154.97241 116.64 
L 157.404675 116.64 
L 159.83694 116.64 
L 162.269205 116.64 
L 164.701469 116.64 
L 167.133734 116.64 
L 169.565999 116.64 
L 171.998264 116.64 
L 174.430529 116.64 
L 176.862793 116.64 
L 179.295058 116.64 
L 181.727323 116.64 
L 184.159588 116.64 
L 186.591853 116.64 
L 189.024117 116.64 
L 191.456382 116.64 
L 193.888647 116.64 
L 196.320912 116.64 
L 198.753177 116.64 
L 201.185441 116.64 
L 203.617706 116.64 
L 206.049971 116.64 
L 208.482236 116.64 
L 210.914501 116.64 
L 213.346765 116.64 
L 215.77903 116.64 
L 218.211295 116.64 
L 220.64356 116.64 
L 223.075825 116.64 
L 225.508089 116.64 
L 227.940354 116.64 
L 230.372619 116.64 
L 232.804884 116.64 
L 235.237149 116.64 
L 237.669413 116.64 
L 240.101678 116.64 
L 242.533943 116.64 
L 244.966208 116.64 
L 247.398473 116.64 
L 249.830737 116.64 
L 252.263002 116.64 
L 254.695267 116.64 
L 257.127532 116.64 
L 259.559797 116.64 
L 261.992061 116.64 
L 264.424326 116.64 
L 266.856591 116.64 
L 269.288856 116.64 
L 271.721121 116.64 
L 274.153385 116.64 
L 276.58565 116.64 
L 279.017915 116.64 
L 281.45018 116.64 
L 283.882445 116.64 
L 286.314709 116.64 
L 288.746974 116.64 
L 291.179239 116.64 
L 293.611504 116.64 
L 296.043769 116.64 
L 298.476033 116.64 
L 298.476033 116.527831 
L 298.476033 116.527831 
L 296.043769 116.530835 
L 293.611504 116.543328 
L 291.179239 116.562101 
L 288.746974 116.58288 
L 286.314709 116.601883 
L 283.882445 116.616836 
L 281.45018 116.627131 
L 279.017915 116.633321 
L 276.58565 116.636393 
L 274.153385 116.637183 
L 271.721121 116.636078 
L 269.288856 116.633014 
L 266.856591 116.627696 
L 264.424326 116.619976 
L 261.992061 116.610276 
L 259.559797 116.599843 
L 257.127532 116.590634 
L 254.695267 116.584751 
L 252.263002 116.58362 
L 249.830737 116.587316 
L 247.398473 116.594404 
L 244.966208 116.602395 
L 242.533943 116.608578 
L 240.101678 116.610857 
L 237.669413 116.608296 
L 235.237149 116.601217 
L 232.804884 116.590815 
L 230.372619 116.578329 
L 227.940354 116.563936 
L 225.508089 116.54584 
L 223.075825 116.520151 
L 220.64356 116.481978 
L 218.211295 116.427557 
L 215.77903 116.356601 
L 213.346765 116.273643 
L 210.914501 116.187473 
L 208.482236 116.108625 
L 206.049971 116.045886 
L 203.617706 116.00345 
L 201.185441 115.980064 
L 198.753177 115.970467 
L 196.320912 115.968127 
L 193.888647 115.967616 
L 191.456382 115.965343 
L 189.024117 115.95863 
L 186.591853 115.944212 
L 184.159588 115.917523 
L 181.727323 115.873404 
L 179.295058 115.807727 
L 176.862793 115.71878 
L 174.430529 115.607501 
L 171.998264 115.476506 
L 169.565999 115.328773 
L 167.133734 115.166982 
L 164.701469 114.993882 
L 162.269205 114.813145 
L 159.83694 114.629813 
L 157.404675 114.449723 
L 154.97241 114.27808 
L 152.540145 114.117798 
L 150.107881 113.968209 
L 147.675616 113.824358 
L 145.243351 113.676704 
L 142.811086 113.511068 
L 140.378821 113.309169 
L 137.946557 113.050755 
L 135.514292 112.718345 
L 133.082027 112.304206 
L 130.649762 111.816769 
L 128.217497 111.282108 
L 125.785233 110.737472 
L 123.352968 110.218202 
L 120.920703 109.743789 
L 118.488438 109.309765 
L 116.056173 108.888917 
L 113.623909 108.440396 
L 111.191644 107.922351 
L 108.759379 107.303582 
L 106.327114 106.571086 
L 103.894849 105.731606 
L 101.462585 104.806636 
L 99.03032 103.822747 
L 96.598055 102.802134 
L 94.16579 101.759612 
L 91.733525 100.709448 
L 89.301261 99.678776 
L 86.868996 98.718313 
L 84.436731 97.901011 
L 82.004466 97.30701 
L 79.572201 97.003636 
L 77.139937 97.033493 
L 74.707672 97.417323 
L 72.275407 98.166054 
L 69.843142 99.288569 
L 67.410877 100.785118 
L 64.978613 102.627889 
L 62.546348 104.741187 
L 60.114083 106.996085 
L 57.681818 109.227286 
z
" clip-path="url(#p3262d01549)" style="fill: #1f77b4; fill-opacity: 0.3"/>
   </g>
   <g id="PolyCollection_4">
    <path d="M 57.681818 61.217669 
L 57.681818 64.276364 
L 59.028384 64.276364 
L 60.374951 64.276364 
L 61.721517 64.276364 
L 63.068083 64.276364 
L 64.41465 64.276364 
L 65.761216 64.276364 
L 67.107782 64.276364 
L 68.454349 64.276364 
L 69.800915 64.276364 
L 71.147481 64.276364 
L 72.494048 64.276364 
L 73.840614 64.276364 
L 75.18718 64.276364 
L 76.533747 64.276364 
L 77.880313 64.276364 
L 79.226879 64.276364 
L 80.573445 64.276364 
L 81.920012 64.276364 
L 83.266578 64.276364 
L 84.613144 64.276364 
L 85.959711 64.276364 
L 87.306277 64.276364 
L 88.652843 64.276364 
L 89.99941 64.276364 
L 91.345976 64.276364 
L 92.692542 64.276364 
L 94.039109 64.276364 
L 95.385675 64.276364 
L 96.732241 64.276364 
L 98.078808 64.276364 
L 99.425374 64.276364 
L 100.77194 64.276364 
L 102.118506 64.276364 
L 103.465073 64.276364 
L 104.811639 64.276364 
L 106.158205 64.276364 
L 107.504772 64.276364 
L 108.851338 64.276364 
L 110.197904 64.276364 
L 111.544471 64.276364 
L 112.891037 64.276364 
L 114.237603 64.276364 
L 115.58417 64.276364 
L 116.930736 64.276364 
L 118.277302 64.276364 
L 119.623869 64.276364 
L 120.970435 64.276364 
L 122.317001 64.276364 
L 123.663567 64.276364 
L 125.010134 64.276364 
L 126.3567 64.276364 
L 127.703266 64.276364 
L 129.049833 64.276364 
L 130.396399 64.276364 
L 131.742965 64.276364 
L 133.089532 64.276364 
L 134.436098 64.276364 
L 135.782664 64.276364 
L 137.129231 64.276364 
L 138.475797 64.276364 
L 139.822363 64.276364 
L 141.16893 64.276364 
L 142.515496 64.276364 
L 143.862062 64.276364 
L 145.208628 64.276364 
L 146.555195 64.276364 
L 147.901761 64.276364 
L 149.248327 64.276364 
L 150.594894 64.276364 
L 151.94146 64.276364 
L 153.288026 64.276364 
L 154.634593 64.276364 
L 155.981159 64.276364 
L 157.327725 64.276364 
L 158.674292 64.276364 
L 160.020858 64.276364 
L 161.367424 64.276364 
L 162.71399 64.276364 
L 164.060557 64.276364 
L 165.407123 64.276364 
L 166.753689 64.276364 
L 168.100256 64.276364 
L 169.446822 64.276364 
L 170.793388 64.276364 
L 172.139955 64.276364 
L 173.486521 64.276364 
L 174.833087 64.276364 
L 176.179654 64.276364 
L 177.52622 64.276364 
L 178.872786 64.276364 
L 180.219353 64.276364 
L 181.565919 64.276364 
L 182.912485 64.276364 
L 184.259051 64.276364 
L 185.605618 64.276364 
L 186.952184 64.276364 
L 188.29875 64.276364 
L 189.645317 64.276364 
L 190.991883 64.276364 
L 190.991883 64.166426 
L 190.991883 64.166426 
L 189.645317 64.167272 
L 188.29875 64.177309 
L 186.952184 64.192286 
L 185.605618 64.206784 
L 184.259051 64.216611 
L 182.912485 64.220426 
L 181.565919 64.219874 
L 180.219353 64.218367 
L 178.872786 64.219237 
L 177.52622 64.224241 
L 176.179654 64.23305 
L 174.833087 64.243815 
L 173.486521 64.254275 
L 172.139955 64.262706 
L 170.793388 64.268262 
L 169.446822 64.270667 
L 168.100256 64.269618 
L 166.753689 64.264259 
L 165.407123 64.253116 
L 164.060557 64.234655 
L 162.71399 64.208433 
L 161.367424 64.176291 
L 160.020858 64.142663 
L 158.674292 64.113244 
L 157.327725 64.092221 
L 155.981159 64.079586 
L 154.634593 64.070503 
L 153.288026 64.057646 
L 151.94146 64.035345 
L 150.594894 64.003003 
L 149.248327 63.965647 
L 147.901761 63.931464 
L 146.555195 63.908013 
L 145.208628 63.899202 
L 143.862062 63.904105 
L 142.515496 63.91757 
L 141.16893 63.932101 
L 139.822363 63.940463 
L 138.475797 63.938165 
L 137.129231 63.924558 
L 135.782664 63.901804 
L 134.436098 63.87239 
L 133.089532 63.837176 
L 131.742965 63.795587 
L 130.396399 63.74766 
L 129.049833 63.695865 
L 127.703266 63.64471 
L 126.3567 63.598045 
L 125.010134 63.556136 
L 123.663567 63.514901 
L 122.317001 63.467917 
L 120.970435 63.409408 
L 119.623869 63.335786 
L 118.277302 63.245122 
L 116.930736 63.136181 
L 115.58417 63.008916 
L 114.237603 62.866114 
L 112.891037 62.713838 
L 111.544471 62.55894 
L 110.197904 62.404776 
L 108.851338 62.248183 
L 107.504772 62.079572 
L 106.158205 61.885311 
L 104.811639 61.650279 
L 103.465073 61.359923 
L 102.118506 61.002816 
L 100.77194 60.574269 
L 99.425374 60.079286 
L 98.078808 59.531965 
L 96.732241 58.950136 
L 95.385675 58.34724 
L 94.039109 57.725517 
L 92.692542 57.074067 
L 91.345976 56.372758 
L 89.99941 55.599834 
L 88.652843 54.739145 
L 87.306277 53.78358 
L 85.959711 52.734655 
L 84.613144 51.601834 
L 83.266578 50.405283 
L 81.920012 49.18126 
L 80.573445 47.984449 
L 79.226879 46.882198 
L 77.880313 45.942465 
L 76.533747 45.223859 
L 75.18718 44.774822 
L 73.840614 44.64 
L 72.494048 44.863499 
L 71.147481 45.47995 
L 69.800915 46.495212 
L 68.454349 47.869798 
L 67.107782 49.519162 
L 65.761216 51.33386 
L 64.41465 53.208122 
L 63.068083 55.059591 
L 61.721517 56.830706 
L 60.374951 58.476583 
L 59.028384 59.953337 
L 57.681818 61.217669 
z
" clip-path="url(#p3262d01549)" style="fill: #1f77b4; fill-opacity: 0.3"/>
   </g>
   <g id="PolyCollection_5">
    <path d="M 57.681818 226.603636 
L 57.681818 246.24 
L 57.681818 246.24 
L 57.681818 246.24 
L 57.681818 246.24 
L 57.681818 246.24 
L 57.681818 246.24 
L 57.681818 246.24 
L 57.681818 246.24 
L 57.681818 246.24 
L 57.681818 246.24 
L 57.681818 246.24 
L 57.681818 246.24 
L 57.681818 246.24 
L 57.681818 246.24 
L 57.681818 246.24 
L 57.681818 246.24 
L 57.681818 246.24 
L 57.681818 246.24 
L 57.681818 246.24 
L 57.681818 246.24 
L 57.681818 246.24 
L 57.681818 246.24 
L 57.681818 246.24 
L 57.681818 246.24 
L 57.681818 246.24 
L 57.681818 246.24 
L 57.681818 246.24 
L 57.681818 246.24 
L 57.681818 246.24 
L 57.681818 246.24 
L 57.681818 246.24 
L 57.681818 246.24 
L 57.681818 246.24 
L 57.681818 246.24 
L 57.681818 246.24 
L 57.681818 246.24 
L 57.681818 246.24 
L 57.681818 246.24 
L 57.681818 246.24 
L 57.681818 246.24 
L 57.681818 246.24 
L 57.681818 246.24 
L 57.681818 246.24 
L 57.681818 246.24 
L 57.681818 246.24 
L 57.681818 246.24 
L 57.681818 246.24 
L 57.681818 246.24 
L 57.681818 246.24 
L 57.681818 246.24 
L 57.681818 246.24 
L 57.681818 246.24 
L 57.681818 246.24 
L 57.681818 246.24 
L 57.681818 246.24 
L 57.681818 246.24 
L 57.681818 246.24 
L 57.681818 246.24 
L 57.681818 246.24 
L 57.681818 246.24 
L 57.681818 246.24 
L 57.681818 246.24 
L 57.681818 246.24 
L 57.681818 246.24 
L 57.681818 246.24 
L 57.681818 246.24 
L 57.681818 246.24 
L 57.681818 246.24 
L 57.681818 246.24 
L 57.681818 246.24 
L 57.681818 246.24 
L 57.681818 246.24 
L 57.681818 246.24 
L 57.681818 246.24 
L 57.681818 246.24 
L 57.681818 246.24 
L 57.681818 246.24 
L 57.681818 246.24 
L 57.681818 246.24 
L 57.681818 246.24 
L 57.681818 246.24 
L 57.681818 246.24 
L 57.681818 246.24 
L 57.681818 246.24 
L 57.681818 246.24 
L 57.681818 246.24 
L 57.681818 246.24 
L 57.681818 246.24 
L 57.681818 246.24 
L 57.681818 246.24 
L 57.681818 246.24 
L 57.681818 246.24 
L 57.681818 246.24 
L 57.681818 246.24 
L 57.681818 246.24 
L 57.681818 246.24 
L 57.681818 246.24 
L 57.681818 246.24 
L 57.681818 246.24 
L 57.681818 246.24 
L 57.681818 226.603636 
L 57.681818 226.603636 
L 57.681818 226.603636 
L 57.681818 226.603636 
L 57.681818 226.603636 
L 57.681818 226.603636 
L 57.681818 226.603636 
L 57.681818 226.603636 
L 57.681818 226.603636 
L 57.681818 226.603636 
L 57.681818 226.603636 
L 57.681818 226.603636 
L 57.681818 226.603636 
L 57.681818 226.603636 
L 57.681818 226.603636 
L 57.681818 226.603636 
L 57.681818 226.603636 
L 57.681818 226.603636 
L 57.681818 226.603636 
L 57.681818 226.603636 
L 57.681818 226.603636 
L 57.681818 226.603636 
L 57.681818 226.603636 
L 57.681818 226.603636 
L 57.681818 226.603636 
L 57.681818 226.603636 
L 57.681818 226.603636 
L 57.681818 226.603636 
L 57.681818 226.603636 
L 57.681818 226.603636 
L 57.681818 226.603636 
L 57.681818 226.603636 
L 57.681818 226.603636 
L 57.681818 226.603636 
L 57.681818 226.603636 
L 57.681818 226.603636 
L 57.681818 226.603636 
L 57.681818 226.603636 
L 57.681818 226.603636 
L 57.681818 226.603636 
L 57.681818 226.603636 
L 57.681818 226.603636 
L 57.681818 226.603636 
L 57.681818 226.603636 
L 57.681818 226.603636 
L 57.681818 226.603636 
L 57.681818 226.603636 
L 57.681818 226.603636 
L 57.681818 226.603636 
L 57.681818 226.603636 
L 57.681818 226.603636 
L 57.681818 226.603636 
L 57.681818 226.603636 
L 57.681818 226.603636 
L 57.681818 226.603636 
L 57.681818 226.603636 
L 57.681818 226.603636 
L 57.681818 226.603636 
L 57.681818 226.603636 
L 57.681818 226.603636 
L 57.681818 226.603636 
L 57.681818 226.603636 
L 57.681818 226.603636 
L 57.681818 226.603636 
L 57.681818 226.603636 
L 57.681818 226.603636 
L 57.681818 226.603636 
L 57.681818 226.603636 
L 57.681818 226.603636 
L 57.681818 226.603636 
L 57.681818 226.603636 
L 57.681818 226.603636 
L 57.681818 226.603636 
L 57.681818 226.603636 
L 57.681818 226.603636 
L 57.681818 226.603636 
L 57.681818 226.603636 
L 57.681818 226.603636 
L 57.681818 226.603636 
L 57.681818 226.603636 
L 57.681818 226.603636 
L 57.681818 226.603636 
L 57.681818 226.603636 
L 57.681818 226.603636 
L 57.681818 226.603636 
L 57.681818 226.603636 
L 57.681818 226.603636 
L 57.681818 226.603636 
L 57.681818 226.603636 
L 57.681818 226.603636 
L 57.681818 226.603636 
L 57.681818 226.603636 
L 57.681818 226.603636 
L 57.681818 226.603636 
L 57.681818 226.603636 
L 57.681818 226.603636 
L 57.681818 226.603636 
L 57.681818 226.603636 
L 57.681818 226.603636 
L 57.681818 226.603636 
L 57.681818 226.603636 
z
" clip-path="url(#p3262d01549)" style="fill: #ff7f0e; fill-opacity: 0.3"/>
   </g>
   <g id="PolyCollection_6">
    <path d="M 57.681818 174.24 
L 57.681818 184.057995 
L 60.243802 186.213375 
L 62.805785 188.279046 
L 65.367769 190.123001 
L 67.929752 191.643493 
L 70.491736 192.780178 
L 73.053719 193.515054 
L 75.615702 193.865847 
L 78.177686 193.876364 
L 80.739669 193.607518 
L 83.301653 193.130258 
L 85.863636 192.519333 
L 88.42562 191.846231 
L 90.987603 191.170819 
L 93.549587 190.533253 
L 96.11157 189.948954 
L 98.673554 189.409038 
L 101.235537 188.886762 
L 103.797521 188.348199 
L 106.359504 187.763843 
L 108.921488 187.117633 
L 111.483471 186.411021 
L 114.045455 185.661549 
L 116.607438 184.897114 
L 119.169421 184.1482 
L 121.731405 183.440514 
L 124.293388 182.789893 
L 126.855372 182.200438 
L 129.417355 181.665923 
L 131.979339 181.173754 
L 134.541322 180.710241 
L 137.103306 180.265565 
L 139.665289 179.836888 
L 142.227273 179.42859 
L 144.789256 179.049667 
L 147.35124 178.709442 
L 149.913223 178.413381 
L 152.475207 178.160661 
L 155.03719 177.944196 
L 157.599174 177.752736 
L 160.161157 177.573915 
L 162.72314 177.397089 
L 165.285124 177.215209 
L 167.847107 177.025575 
L 170.409091 176.829638 
L 172.971074 176.632137 
L 175.533058 176.439775 
L 178.095041 176.259663 
L 180.657025 176.097815 
L 183.219008 175.958009 
L 185.780992 175.841301 
L 188.342975 175.746244 
L 190.904959 175.669649 
L 193.466942 175.607545 
L 196.028926 175.556006 
L 198.590909 175.511628 
L 201.152893 175.471676 
L 203.714876 175.43399 
L 206.27686 175.396818 
L 208.838843 175.358645 
L 211.400826 175.318044 
L 213.96281 175.273541 
L 216.524793 175.223529 
L 219.086777 175.166296 
L 221.64876 175.100276 
L 224.210744 175.024543 
L 226.772727 174.939447 
L 229.334711 174.847172 
L 231.896694 174.751895 
L 234.458678 174.659354 
L 237.020661 174.575836 
L 239.582645 174.506834 
L 242.144628 174.455799 
L 244.706612 174.423362 
L 247.268595 174.407266 
L 249.830579 174.403003 
L 252.392562 174.404954 
L 254.954545 174.407715 
L 257.516529 174.407277 
L 260.078512 174.401766 
L 262.640496 174.39162 
L 265.202479 174.379182 
L 267.764463 174.367881 
L 270.326446 174.361226 
L 272.88843 174.361891 
L 275.450413 174.371098 
L 278.012397 174.38842 
L 280.57438 174.411989 
L 283.136364 174.438998 
L 285.698347 174.46629 
L 288.260331 174.49087 
L 290.822314 174.510218 
L 293.384298 174.522434 
L 295.946281 174.526283 
L 298.508264 174.521243 
L 301.070248 174.507566 
L 303.632231 174.486297 
L 306.194215 174.459179 
L 308.756198 174.428417 
L 311.318182 174.396348 
L 311.318182 174.24 
L 311.318182 174.24 
L 308.756198 174.24 
L 306.194215 174.24 
L 303.632231 174.24 
L 301.070248 174.24 
L 298.508264 174.24 
L 295.946281 174.24 
L 293.384298 174.24 
L 290.822314 174.24 
L 288.260331 174.24 
L 285.698347 174.24 
L 283.136364 174.24 
L 280.57438 174.24 
L 278.012397 174.24 
L 275.450413 174.24 
L 272.88843 174.24 
L 270.326446 174.24 
L 267.764463 174.24 
L 265.202479 174.24 
L 262.640496 174.24 
L 260.078512 174.24 
L 257.516529 174.24 
L 254.954545 174.24 
L 252.392562 174.24 
L 249.830579 174.24 
L 247.268595 174.24 
L 244.706612 174.24 
L 242.144628 174.24 
L 239.582645 174.24 
L 237.020661 174.24 
L 234.458678 174.24 
L 231.896694 174.24 
L 229.334711 174.24 
L 226.772727 174.24 
L 224.210744 174.24 
L 221.64876 174.24 
L 219.086777 174.24 
L 216.524793 174.24 
L 213.96281 174.24 
L 211.400826 174.24 
L 208.838843 174.24 
L 206.27686 174.24 
L 203.714876 174.24 
L 201.152893 174.24 
L 198.590909 174.24 
L 196.028926 174.24 
L 193.466942 174.24 
L 190.904959 174.24 
L 188.342975 174.24 
L 185.780992 174.24 
L 183.219008 174.24 
L 180.657025 174.24 
L 178.095041 174.24 
L 175.533058 174.24 
L 172.971074 174.24 
L 170.409091 174.24 
L 167.847107 174.24 
L 165.285124 174.24 
L 162.72314 174.24 
L 160.161157 174.24 
L 157.599174 174.24 
L 155.03719 174.24 
L 152.475207 174.24 
L 149.913223 174.24 
L 147.35124 174.24 
L 144.789256 174.24 
L 142.227273 174.24 
L 139.665289 174.24 
L 137.103306 174.24 
L 134.541322 174.24 
L 131.979339 174.24 
L 129.417355 174.24 
L 126.855372 174.24 
L 124.293388 174.24 
L 121.731405 174.24 
L 119.169421 174.24 
L 116.607438 174.24 
L 114.045455 174.24 
L 111.483471 174.24 
L 108.921488 174.24 
L 106.359504 174.24 
L 103.797521 174.24 
L 101.235537 174.24 
L 98.673554 174.24 
L 96.11157 174.24 
L 93.549587 174.24 
L 90.987603 174.24 
L 88.42562 174.24 
L 85.863636 174.24 
L 83.301653 174.24 
L 80.739669 174.24 
L 78.177686 174.24 
L 75.615702 174.24 
L 73.053719 174.24 
L 70.491736 174.24 
L 67.929752 174.24 
L 65.367769 174.24 
L 62.805785 174.24 
L 60.243802 174.24 
L 57.681818 174.24 
z
" clip-path="url(#p3262d01549)" style="fill: #ff7f0e; fill-opacity: 0.3"/>
   </g>
   <g id="PolyCollection_7">
    <path d="M 57.681818 121.876364 
L 57.681818 129.501192 
L 60.114083 131.908537 
L 62.546348 134.316816 
L 64.978613 136.526133 
L 67.410877 138.389361 
L 69.843142 139.829265 
L 72.275407 140.824336 
L 74.707672 141.38061 
L 77.139937 141.512727 
L 79.572201 141.24538 
L 82.004466 140.626495 
L 84.436731 139.733261 
L 86.868996 138.659925 
L 89.301261 137.493985 
L 91.733525 136.298055 
L 94.16579 135.109457 
L 96.598055 133.954728 
L 99.03032 132.865319 
L 101.462585 131.881719 
L 103.894849 131.042987 
L 106.327114 130.368913 
L 108.759379 129.846542 
L 111.191644 129.430162 
L 113.623909 129.056274 
L 116.056173 128.666497 
L 118.488438 128.226849 
L 120.920703 127.7345 
L 123.352968 127.210994 
L 125.785233 126.68833 
L 128.217497 126.196126 
L 130.649762 125.75458 
L 133.082027 125.373144 
L 135.514292 125.052303 
L 137.946557 124.786119 
L 140.378821 124.564608 
L 142.811086 124.375927 
L 145.243351 124.208486 
L 147.675616 124.052876 
L 150.107881 123.903399 
L 152.540145 123.758799 
L 154.97241 123.621647 
L 157.404675 123.496107 
L 159.83694 123.384776 
L 162.269205 123.286223 
L 164.701469 123.194815 
L 167.133734 123.103099 
L 169.565999 123.005371 
L 171.998264 122.900259 
L 174.430529 122.790801 
L 176.862793 122.682125 
L 179.295058 122.578515 
L 181.727323 122.481963 
L 184.159588 122.393055 
L 186.591853 122.313161 
L 189.024117 122.245925 
L 191.456382 122.196686 
L 193.888647 122.169965 
L 196.320912 122.166435 
L 198.753177 122.181095 
L 201.185441 122.203792 
L 203.617706 122.222078 
L 206.049971 122.225271 
L 208.482236 122.207979 
L 210.914501 122.171582 
L 213.346765 122.123127 
L 215.77903 122.072232 
L 218.211295 122.027403 
L 220.64356 121.993329 
L 223.075825 121.970147 
L 225.508089 121.954694 
L 227.940354 121.942854 
L 230.372619 121.931697 
L 232.804884 121.920476 
L 235.237149 121.910321 
L 237.669413 121.903167 
L 240.101678 121.900618 
L 242.533943 121.903181 
L 244.966208 121.909953 
L 247.398473 121.918737 
L 249.830737 121.926591 
L 252.263002 121.930757 
L 254.695267 121.929652 
L 257.127532 121.923436 
L 259.559797 121.913818 
L 261.992061 121.903197 
L 264.424326 121.893676 
L 266.856591 121.886434 
L 269.288856 121.881693 
L 271.721121 121.879083 
L 274.153385 121.878137 
L 276.58565 121.878681 
L 279.017915 121.881063 
L 281.45018 121.886183 
L 283.882445 121.895246 
L 286.314709 121.909171 
L 288.746974 121.927731 
L 291.179239 121.948807 
L 293.611504 121.968388 
L 296.043769 121.981654 
L 298.476033 121.984869 
L 298.476033 121.876364 
L 298.476033 121.876364 
L 296.043769 121.876364 
L 293.611504 121.876364 
L 291.179239 121.876364 
L 288.746974 121.876364 
L 286.314709 121.876364 
L 283.882445 121.876364 
L 281.45018 121.876364 
L 279.017915 121.876364 
L 276.58565 121.876364 
L 274.153385 121.876364 
L 271.721121 121.876364 
L 269.288856 121.876364 
L 266.856591 121.876364 
L 264.424326 121.876364 
L 261.992061 121.876364 
L 259.559797 121.876364 
L 257.127532 121.876364 
L 254.695267 121.876364 
L 252.263002 121.876364 
L 249.830737 121.876364 
L 247.398473 121.876364 
L 244.966208 121.876364 
L 242.533943 121.876364 
L 240.101678 121.876364 
L 237.669413 121.876364 
L 235.237149 121.876364 
L 232.804884 121.876364 
L 230.372619 121.876364 
L 227.940354 121.876364 
L 225.508089 121.876364 
L 223.075825 121.876364 
L 220.64356 121.876364 
L 218.211295 121.876364 
L 215.77903 121.876364 
L 213.346765 121.876364 
L 210.914501 121.876364 
L 208.482236 121.876364 
L 206.049971 121.876364 
L 203.617706 121.876364 
L 201.185441 121.876364 
L 198.753177 121.876364 
L 196.320912 121.876364 
L 193.888647 121.876364 
L 191.456382 121.876364 
L 189.024117 121.876364 
L 186.591853 121.876364 
L 184.159588 121.876364 
L 181.727323 121.876364 
L 179.295058 121.876364 
L 176.862793 121.876364 
L 174.430529 121.876364 
L 171.998264 121.876364 
L 169.565999 121.876364 
L 167.133734 121.876364 
L 164.701469 121.876364 
L 162.269205 121.876364 
L 159.83694 121.876364 
L 157.404675 121.876364 
L 154.97241 121.876364 
L 152.540145 121.876364 
L 150.107881 121.876364 
L 147.675616 121.876364 
L 145.243351 121.876364 
L 142.811086 121.876364 
L 140.378821 121.876364 
L 137.946557 121.876364 
L 135.514292 121.876364 
L 133.082027 121.876364 
L 130.649762 121.876364 
L 128.217497 121.876364 
L 125.785233 121.876364 
L 123.352968 121.876364 
L 120.920703 121.876364 
L 118.488438 121.876364 
L 116.056173 121.876364 
L 113.623909 121.876364 
L 111.191644 121.876364 
L 108.759379 121.876364 
L 106.327114 121.876364 
L 103.894849 121.876364 
L 101.462585 121.876364 
L 99.03032 121.876364 
L 96.598055 121.876364 
L 94.16579 121.876364 
L 91.733525 121.876364 
L 89.301261 121.876364 
L 86.868996 121.876364 
L 84.436731 121.876364 
L 82.004466 121.876364 
L 79.572201 121.876364 
L 77.139937 121.876364 
L 74.707672 121.876364 
L 72.275407 121.876364 
L 69.843142 121.876364 
L 67.410877 121.876364 
L 64.978613 121.876364 
L 62.546348 121.876364 
L 60.114083 121.876364 
L 57.681818 121.876364 
z
" clip-path="url(#p3262d01549)" style="fill: #ff7f0e; fill-opacity: 0.3"/>
   </g>
   <g id="PolyCollection_8">
    <path d="M 57.681818 69.512727 
L 57.681818 72.571421 
L 58.898382 73.835754 
L 60.114946 75.312508 
L 61.33151 76.958385 
L 62.548073 78.7295 
L 63.764637 80.580969 
L 64.981201 82.455231 
L 66.197765 84.269929 
L 67.414329 85.919293 
L 68.630892 87.293879 
L 69.847456 88.309141 
L 71.06402 88.925592 
L 72.280584 89.149091 
L 73.497148 89.014269 
L 74.713712 88.565232 
L 75.930275 87.846626 
L 77.146839 86.906893 
L 78.363403 85.804641 
L 79.579967 84.607831 
L 80.796531 83.383807 
L 82.013094 82.187257 
L 83.229658 81.054436 
L 84.446222 80.005511 
L 85.662786 79.049946 
L 86.87935 78.189256 
L 88.095914 77.416333 
L 89.312477 76.715024 
L 90.529041 76.063574 
L 91.745605 75.441851 
L 92.962169 74.838955 
L 94.178733 74.257126 
L 95.395296 73.709805 
L 96.61186 73.214822 
L 97.828424 72.786275 
L 99.044988 72.429168 
L 100.261552 72.138812 
L 101.478115 71.90378 
L 102.694679 71.709519 
L 103.911243 71.540908 
L 105.127807 71.384315 
L 106.344371 71.230151 
L 107.560935 71.075252 
L 108.777498 70.922977 
L 109.994062 70.780175 
L 111.210626 70.65291 
L 112.42719 70.543969 
L 113.643754 70.453305 
L 114.860317 70.379683 
L 116.076881 70.321173 
L 117.293445 70.27419 
L 118.510009 70.232955 
L 119.726573 70.191046 
L 120.943136 70.144381 
L 122.1597 70.093226 
L 123.376264 70.041431 
L 124.592828 69.993504 
L 125.809392 69.951915 
L 127.025956 69.916701 
L 128.242519 69.887287 
L 129.459083 69.864533 
L 130.675647 69.850926 
L 131.892211 69.848627 
L 133.108775 69.85699 
L 134.325338 69.871521 
L 135.541902 69.884986 
L 136.758466 69.889889 
L 137.97503 69.881078 
L 139.191594 69.857627 
L 140.408157 69.823444 
L 141.624721 69.786088 
L 142.841285 69.753746 
L 144.057849 69.731445 
L 145.274413 69.718588 
L 146.490977 69.709505 
L 147.70754 69.69687 
L 148.924104 69.675847 
L 150.140668 69.646428 
L 151.357232 69.6128 
L 152.573796 69.580658 
L 153.790359 69.554436 
L 155.006923 69.535975 
L 156.223487 69.524832 
L 157.440051 69.519473 
L 158.656615 69.518424 
L 159.873178 69.520829 
L 161.089742 69.526384 
L 162.306306 69.534816 
L 163.52287 69.545276 
L 164.739434 69.556041 
L 165.955998 69.56485 
L 167.172561 69.569854 
L 168.389125 69.570724 
L 169.605689 69.569217 
L 170.822253 69.568665 
L 172.038817 69.57248 
L 173.25538 69.582307 
L 174.471944 69.596805 
L 175.688508 69.611782 
L 176.905072 69.621819 
L 178.121636 69.622665 
L 178.121636 69.512727 
L 178.121636 69.512727 
L 176.905072 69.512727 
L 175.688508 69.512727 
L 174.471944 69.512727 
L 173.25538 69.512727 
L 172.038817 69.512727 
L 170.822253 69.512727 
L 169.605689 69.512727 
L 168.389125 69.512727 
L 167.172561 69.512727 
L 165.955998 69.512727 
L 164.739434 69.512727 
L 163.52287 69.512727 
L 162.306306 69.512727 
L 161.089742 69.512727 
L 159.873178 69.512727 
L 158.656615 69.512727 
L 157.440051 69.512727 
L 156.223487 69.512727 
L 155.006923 69.512727 
L 153.790359 69.512727 
L 152.573796 69.512727 
L 151.357232 69.512727 
L 150.140668 69.512727 
L 148.924104 69.512727 
L 147.70754 69.512727 
L 146.490977 69.512727 
L 145.274413 69.512727 
L 144.057849 69.512727 
L 142.841285 69.512727 
L 141.624721 69.512727 
L 140.408157 69.512727 
L 139.191594 69.512727 
L 137.97503 69.512727 
L 136.758466 69.512727 
L 135.541902 69.512727 
L 134.325338 69.512727 
L 133.108775 69.512727 
L 131.892211 69.512727 
L 130.675647 69.512727 
L 129.459083 69.512727 
L 128.242519 69.512727 
L 127.025956 69.512727 
L 125.809392 69.512727 
L 124.592828 69.512727 
L 123.376264 69.512727 
L 122.1597 69.512727 
L 120.943136 69.512727 
L 119.726573 69.512727 
L 118.510009 69.512727 
L 117.293445 69.512727 
L 116.076881 69.512727 
L 114.860317 69.512727 
L 113.643754 69.512727 
L 112.42719 69.512727 
L 111.210626 69.512727 
L 109.994062 69.512727 
L 108.777498 69.512727 
L 107.560935 69.512727 
L 106.344371 69.512727 
L 105.127807 69.512727 
L 103.911243 69.512727 
L 102.694679 69.512727 
L 101.478115 69.512727 
L 100.261552 69.512727 
L 99.044988 69.512727 
L 97.828424 69.512727 
L 96.61186 69.512727 
L 95.395296 69.512727 
L 94.178733 69.512727 
L 92.962169 69.512727 
L 91.745605 69.512727 
L 90.529041 69.512727 
L 89.312477 69.512727 
L 88.095914 69.512727 
L 86.87935 69.512727 
L 85.662786 69.512727 
L 84.446222 69.512727 
L 83.229658 69.512727 
L 82.013094 69.512727 
L 80.796531 69.512727 
L 79.579967 69.512727 
L 78.363403 69.512727 
L 77.146839 69.512727 
L 75.930275 69.512727 
L 74.713712 69.512727 
L 73.497148 69.512727 
L 72.280584 69.512727 
L 71.06402 69.512727 
L 69.847456 69.512727 
L 68.630892 69.512727 
L 67.414329 69.512727 
L 66.197765 69.512727 
L 64.981201 69.512727 
L 63.764637 69.512727 
L 62.548073 69.512727 
L 61.33151 69.512727 
L 60.114946 69.512727 
L 58.898382 69.512727 
L 57.681818 69.512727 
z
" clip-path="url(#p3262d01549)" style="fill: #ff7f0e; fill-opacity: 0.3"/>
   </g>
   <g id="matplotlib.axis_1">
    <g id="xtick_1">
     <g id="line2d_1">
      <defs>
       <path id="m86e22b8fc3" d="M 0 0 
L 0 3.5 
" style="stroke: #000000; stroke-width: 0.8"/>
      </defs>
      <g>
       <use xlink:href="#m86e22b8fc3" x="57.681818" y="256.32" style="stroke: #000000; stroke-width: 0.8"/>
      </g>
     </g>
     <g id="text_1">
      <!-- 0 -->
      <g transform="translate(54.500568 270.918437) scale(0.1 -0.1)">
       <defs>
        <path id="DejaVuSans-30" d="M 2034 4250 
Q 1547 4250 1301 3770 
Q 1056 3291 1056 2328 
Q 1056 1369 1301 889 
Q 1547 409 2034 409 
Q 2525 409 2770 889 
Q 3016 1369 3016 2328 
Q 3016 3291 2770 3770 
Q 2525 4250 2034 4250 
z
M 2034 4750 
Q 2819 4750 3233 4129 
Q 3647 3509 3647 2328 
Q 3647 1150 3233 529 
Q 2819 -91 2034 -91 
Q 1250 -91 836 529 
Q 422 1150 422 2328 
Q 422 3509 836 4129 
Q 1250 4750 2034 4750 
z
" transform="scale(0.015625)"/>
       </defs>
       <use xlink:href="#DejaVuSans-30"/>
      </g>
     </g>
    </g>
    <g id="xtick_2">
     <g id="line2d_2">
      <g>
       <use xlink:href="#m86e22b8fc3" x="109.510449" y="256.32" style="stroke: #000000; stroke-width: 0.8"/>
      </g>
     </g>
     <g id="text_2">
      <!-- 200 -->
      <g transform="translate(99.966699 270.918437) scale(0.1 -0.1)">
       <defs>
        <path id="DejaVuSans-32" d="M 1228 531 
L 3431 531 
L 3431 0 
L 469 0 
L 469 531 
Q 828 903 1448 1529 
Q 2069 2156 2228 2338 
Q 2531 2678 2651 2914 
Q 2772 3150 2772 3378 
Q 2772 3750 2511 3984 
Q 2250 4219 1831 4219 
Q 1534 4219 1204 4116 
Q 875 4013 500 3803 
L 500 4441 
Q 881 4594 1212 4672 
Q 1544 4750 1819 4750 
Q 2544 4750 2975 4387 
Q 3406 4025 3406 3419 
Q 3406 3131 3298 2873 
Q 3191 2616 2906 2266 
Q 2828 2175 2409 1742 
Q 1991 1309 1228 531 
z
" transform="scale(0.015625)"/>
       </defs>
       <use xlink:href="#DejaVuSans-32"/>
       <use xlink:href="#DejaVuSans-30" x="63.623047"/>
       <use xlink:href="#DejaVuSans-30" x="127.246094"/>
      </g>
     </g>
    </g>
    <g id="xtick_3">
     <g id="line2d_3">
      <g>
       <use xlink:href="#m86e22b8fc3" x="161.33908" y="256.32" style="stroke: #000000; stroke-width: 0.8"/>
      </g>
     </g>
     <g id="text_3">
      <!-- 400 -->
      <g transform="translate(151.79533 270.918437) scale(0.1 -0.1)">
       <defs>
        <path id="DejaVuSans-34" d="M 2419 4116 
L 825 1625 
L 2419 1625 
L 2419 4116 
z
M 2253 4666 
L 3047 4666 
L 3047 1625 
L 3713 1625 
L 3713 1100 
L 3047 1100 
L 3047 0 
L 2419 0 
L 2419 1100 
L 313 1100 
L 313 1709 
L 2253 4666 
z
" transform="scale(0.015625)"/>
       </defs>
       <use xlink:href="#DejaVuSans-34"/>
       <use xlink:href="#DejaVuSans-30" x="63.623047"/>
       <use xlink:href="#DejaVuSans-30" x="127.246094"/>
      </g>
     </g>
    </g>
    <g id="xtick_4">
     <g id="line2d_4">
      <g>
       <use xlink:href="#m86e22b8fc3" x="213.167712" y="256.32" style="stroke: #000000; stroke-width: 0.8"/>
      </g>
     </g>
     <g id="text_4">
      <!-- 600 -->
      <g transform="translate(203.623962 270.918437) scale(0.1 -0.1)">
       <defs>
        <path id="DejaVuSans-36" d="M 2113 2584 
Q 1688 2584 1439 2293 
Q 1191 2003 1191 1497 
Q 1191 994 1439 701 
Q 1688 409 2113 409 
Q 2538 409 2786 701 
Q 3034 994 3034 1497 
Q 3034 2003 2786 2293 
Q 2538 2584 2113 2584 
z
M 3366 4563 
L 3366 3988 
Q 3128 4100 2886 4159 
Q 2644 4219 2406 4219 
Q 1781 4219 1451 3797 
Q 1122 3375 1075 2522 
Q 1259 2794 1537 2939 
Q 1816 3084 2150 3084 
Q 2853 3084 3261 2657 
Q 3669 2231 3669 1497 
Q 3669 778 3244 343 
Q 2819 -91 2113 -91 
Q 1303 -91 875 529 
Q 447 1150 447 2328 
Q 447 3434 972 4092 
Q 1497 4750 2381 4750 
Q 2619 4750 2861 4703 
Q 3103 4656 3366 4563 
z
" transform="scale(0.015625)"/>
       </defs>
       <use xlink:href="#DejaVuSans-36"/>
       <use xlink:href="#DejaVuSans-30" x="63.623047"/>
       <use xlink:href="#DejaVuSans-30" x="127.246094"/>
      </g>
     </g>
    </g>
    <g id="xtick_5">
     <g id="line2d_5">
      <g>
       <use xlink:href="#m86e22b8fc3" x="264.996343" y="256.32" style="stroke: #000000; stroke-width: 0.8"/>
      </g>
     </g>
     <g id="text_5">
      <!-- 800 -->
      <g transform="translate(255.452593 270.918437) scale(0.1 -0.1)">
       <defs>
        <path id="DejaVuSans-38" d="M 2034 2216 
Q 1584 2216 1326 1975 
Q 1069 1734 1069 1313 
Q 1069 891 1326 650 
Q 1584 409 2034 409 
Q 2484 409 2743 651 
Q 3003 894 3003 1313 
Q 3003 1734 2745 1975 
Q 2488 2216 2034 2216 
z
M 1403 2484 
Q 997 2584 770 2862 
Q 544 3141 544 3541 
Q 544 4100 942 4425 
Q 1341 4750 2034 4750 
Q 2731 4750 3128 4425 
Q 3525 4100 3525 3541 
Q 3525 3141 3298 2862 
Q 3072 2584 2669 2484 
Q 3125 2378 3379 2068 
Q 3634 1759 3634 1313 
Q 3634 634 3220 271 
Q 2806 -91 2034 -91 
Q 1263 -91 848 271 
Q 434 634 434 1313 
Q 434 1759 690 2068 
Q 947 2378 1403 2484 
z
M 1172 3481 
Q 1172 3119 1398 2916 
Q 1625 2713 2034 2713 
Q 2441 2713 2670 2916 
Q 2900 3119 2900 3481 
Q 2900 3844 2670 4047 
Q 2441 4250 2034 4250 
Q 1625 4250 1398 4047 
Q 1172 3844 1172 3481 
z
" transform="scale(0.015625)"/>
       </defs>
       <use xlink:href="#DejaVuSans-38"/>
       <use xlink:href="#DejaVuSans-30" x="63.623047"/>
       <use xlink:href="#DejaVuSans-30" x="127.246094"/>
      </g>
     </g>
    </g>
    <g id="xtick_6">
     <g id="line2d_6">
      <g>
       <use xlink:href="#m86e22b8fc3" x="316.824974" y="256.32" style="stroke: #000000; stroke-width: 0.8"/>
      </g>
     </g>
     <g id="text_6">
      <!-- 1000 -->
      <g transform="translate(304.099974 270.918437) scale(0.1 -0.1)">
       <defs>
        <path id="DejaVuSans-31" d="M 794 531 
L 1825 531 
L 1825 4091 
L 703 3866 
L 703 4441 
L 1819 4666 
L 2450 4666 
L 2450 531 
L 3481 531 
L 3481 0 
L 794 0 
L 794 531 
z
" transform="scale(0.015625)"/>
       </defs>
       <use xlink:href="#DejaVuSans-31"/>
       <use xlink:href="#DejaVuSans-30" x="63.623047"/>
       <use xlink:href="#DejaVuSans-30" x="127.246094"/>
       <use xlink:href="#DejaVuSans-30" x="190.869141"/>
      </g>
     </g>
    </g>
    <g id="text_7">
     <!-- Variance In Location Estimate -->
     <g transform="translate(110.25625 284.596563) scale(0.1 -0.1)">
      <defs>
       <path id="DejaVuSans-56" d="M 1831 0 
L 50 4666 
L 709 4666 
L 2188 738 
L 3669 4666 
L 4325 4666 
L 2547 0 
L 1831 0 
z
" transform="scale(0.015625)"/>
       <path id="DejaVuSans-61" d="M 2194 1759 
Q 1497 1759 1228 1600 
Q 959 1441 959 1056 
Q 959 750 1161 570 
Q 1363 391 1709 391 
Q 2188 391 2477 730 
Q 2766 1069 2766 1631 
L 2766 1759 
L 2194 1759 
z
M 3341 1997 
L 3341 0 
L 2766 0 
L 2766 531 
Q 2569 213 2275 61 
Q 1981 -91 1556 -91 
Q 1019 -91 701 211 
Q 384 513 384 1019 
Q 384 1609 779 1909 
Q 1175 2209 1959 2209 
L 2766 2209 
L 2766 2266 
Q 2766 2663 2505 2880 
Q 2244 3097 1772 3097 
Q 1472 3097 1187 3025 
Q 903 2953 641 2809 
L 641 3341 
Q 956 3463 1253 3523 
Q 1550 3584 1831 3584 
Q 2591 3584 2966 3190 
Q 3341 2797 3341 1997 
z
" transform="scale(0.015625)"/>
       <path id="DejaVuSans-72" d="M 2631 2963 
Q 2534 3019 2420 3045 
Q 2306 3072 2169 3072 
Q 1681 3072 1420 2755 
Q 1159 2438 1159 1844 
L 1159 0 
L 581 0 
L 581 3500 
L 1159 3500 
L 1159 2956 
Q 1341 3275 1631 3429 
Q 1922 3584 2338 3584 
Q 2397 3584 2469 3576 
Q 2541 3569 2628 3553 
L 2631 2963 
z
" transform="scale(0.015625)"/>
       <path id="DejaVuSans-69" d="M 603 3500 
L 1178 3500 
L 1178 0 
L 603 0 
L 603 3500 
z
M 603 4863 
L 1178 4863 
L 1178 4134 
L 603 4134 
L 603 4863 
z
" transform="scale(0.015625)"/>
       <path id="DejaVuSans-6e" d="M 3513 2113 
L 3513 0 
L 2938 0 
L 2938 2094 
Q 2938 2591 2744 2837 
Q 2550 3084 2163 3084 
Q 1697 3084 1428 2787 
Q 1159 2491 1159 1978 
L 1159 0 
L 581 0 
L 581 3500 
L 1159 3500 
L 1159 2956 
Q 1366 3272 1645 3428 
Q 1925 3584 2291 3584 
Q 2894 3584 3203 3211 
Q 3513 2838 3513 2113 
z
" transform="scale(0.015625)"/>
       <path id="DejaVuSans-63" d="M 3122 3366 
L 3122 2828 
Q 2878 2963 2633 3030 
Q 2388 3097 2138 3097 
Q 1578 3097 1268 2742 
Q 959 2388 959 1747 
Q 959 1106 1268 751 
Q 1578 397 2138 397 
Q 2388 397 2633 464 
Q 2878 531 3122 666 
L 3122 134 
Q 2881 22 2623 -34 
Q 2366 -91 2075 -91 
Q 1284 -91 818 406 
Q 353 903 353 1747 
Q 353 2603 823 3093 
Q 1294 3584 2113 3584 
Q 2378 3584 2631 3529 
Q 2884 3475 3122 3366 
z
" transform="scale(0.015625)"/>
       <path id="DejaVuSans-65" d="M 3597 1894 
L 3597 1613 
L 953 1613 
Q 991 1019 1311 708 
Q 1631 397 2203 397 
Q 2534 397 2845 478 
Q 3156 559 3463 722 
L 3463 178 
Q 3153 47 2828 -22 
Q 2503 -91 2169 -91 
Q 1331 -91 842 396 
Q 353 884 353 1716 
Q 353 2575 817 3079 
Q 1281 3584 2069 3584 
Q 2775 3584 3186 3129 
Q 3597 2675 3597 1894 
z
M 3022 2063 
Q 3016 2534 2758 2815 
Q 2500 3097 2075 3097 
Q 1594 3097 1305 2825 
Q 1016 2553 972 2059 
L 3022 2063 
z
" transform="scale(0.015625)"/>
       <path id="DejaVuSans-20" transform="scale(0.015625)"/>
       <path id="DejaVuSans-49" d="M 628 4666 
L 1259 4666 
L 1259 0 
L 628 0 
L 628 4666 
z
" transform="scale(0.015625)"/>
       <path id="DejaVuSans-4c" d="M 628 4666 
L 1259 4666 
L 1259 531 
L 3531 531 
L 3531 0 
L 628 0 
L 628 4666 
z
" transform="scale(0.015625)"/>
       <path id="DejaVuSans-6f" d="M 1959 3097 
Q 1497 3097 1228 2736 
Q 959 2375 959 1747 
Q 959 1119 1226 758 
Q 1494 397 1959 397 
Q 2419 397 2687 759 
Q 2956 1122 2956 1747 
Q 2956 2369 2687 2733 
Q 2419 3097 1959 3097 
z
M 1959 3584 
Q 2709 3584 3137 3096 
Q 3566 2609 3566 1747 
Q 3566 888 3137 398 
Q 2709 -91 1959 -91 
Q 1206 -91 779 398 
Q 353 888 353 1747 
Q 353 2609 779 3096 
Q 1206 3584 1959 3584 
z
" transform="scale(0.015625)"/>
       <path id="DejaVuSans-74" d="M 1172 4494 
L 1172 3500 
L 2356 3500 
L 2356 3053 
L 1172 3053 
L 1172 1153 
Q 1172 725 1289 603 
Q 1406 481 1766 481 
L 2356 481 
L 2356 0 
L 1766 0 
Q 1100 0 847 248 
Q 594 497 594 1153 
L 594 3053 
L 172 3053 
L 172 3500 
L 594 3500 
L 594 4494 
L 1172 4494 
z
" transform="scale(0.015625)"/>
       <path id="DejaVuSans-45" d="M 628 4666 
L 3578 4666 
L 3578 4134 
L 1259 4134 
L 1259 2753 
L 3481 2753 
L 3481 2222 
L 1259 2222 
L 1259 531 
L 3634 531 
L 3634 0 
L 628 0 
L 628 4666 
z
" transform="scale(0.015625)"/>
       <path id="DejaVuSans-73" d="M 2834 3397 
L 2834 2853 
Q 2591 2978 2328 3040 
Q 2066 3103 1784 3103 
Q 1356 3103 1142 2972 
Q 928 2841 928 2578 
Q 928 2378 1081 2264 
Q 1234 2150 1697 2047 
L 1894 2003 
Q 2506 1872 2764 1633 
Q 3022 1394 3022 966 
Q 3022 478 2636 193 
Q 2250 -91 1575 -91 
Q 1294 -91 989 -36 
Q 684 19 347 128 
L 347 722 
Q 666 556 975 473 
Q 1284 391 1588 391 
Q 1994 391 2212 530 
Q 2431 669 2431 922 
Q 2431 1156 2273 1281 
Q 2116 1406 1581 1522 
L 1381 1569 
Q 847 1681 609 1914 
Q 372 2147 372 2553 
Q 372 3047 722 3315 
Q 1072 3584 1716 3584 
Q 2034 3584 2315 3537 
Q 2597 3491 2834 3397 
z
" transform="scale(0.015625)"/>
       <path id="DejaVuSans-6d" d="M 3328 2828 
Q 3544 3216 3844 3400 
Q 4144 3584 4550 3584 
Q 5097 3584 5394 3201 
Q 5691 2819 5691 2113 
L 5691 0 
L 5113 0 
L 5113 2094 
Q 5113 2597 4934 2840 
Q 4756 3084 4391 3084 
Q 3944 3084 3684 2787 
Q 3425 2491 3425 1978 
L 3425 0 
L 2847 0 
L 2847 2094 
Q 2847 2600 2669 2842 
Q 2491 3084 2119 3084 
Q 1678 3084 1418 2786 
Q 1159 2488 1159 1978 
L 1159 0 
L 581 0 
L 581 3500 
L 1159 3500 
L 1159 2956 
Q 1356 3278 1631 3431 
Q 1906 3584 2284 3584 
Q 2666 3584 2933 3390 
Q 3200 3197 3328 2828 
z
" transform="scale(0.015625)"/>
      </defs>
      <use xlink:href="#DejaVuSans-56"/>
      <use xlink:href="#DejaVuSans-61" x="60.658203"/>
      <use xlink:href="#DejaVuSans-72" x="121.9375"/>
      <use xlink:href="#DejaVuSans-69" x="163.050781"/>
      <use xlink:href="#DejaVuSans-61" x="190.833984"/>
      <use xlink:href="#DejaVuSans-6e" x="252.113281"/>
      <use xlink:href="#DejaVuSans-63" x="315.492188"/>
      <use xlink:href="#DejaVuSans-65" x="370.472656"/>
      <use xlink:href="#DejaVuSans-20" x="431.996094"/>
      <use xlink:href="#DejaVuSans-49" x="463.783203"/>
      <use xlink:href="#DejaVuSans-6e" x="493.275391"/>
      <use xlink:href="#DejaVuSans-20" x="556.654297"/>
      <use xlink:href="#DejaVuSans-4c" x="588.441406"/>
      <use xlink:href="#DejaVuSans-6f" x="642.404297"/>
      <use xlink:href="#DejaVuSans-63" x="703.585938"/>
      <use xlink:href="#DejaVuSans-61" x="758.566406"/>
      <use xlink:href="#DejaVuSans-74" x="819.845703"/>
      <use xlink:href="#DejaVuSans-69" x="859.054688"/>
      <use xlink:href="#DejaVuSans-6f" x="886.837891"/>
      <use xlink:href="#DejaVuSans-6e" x="948.019531"/>
      <use xlink:href="#DejaVuSans-20" x="1011.398438"/>
      <use xlink:href="#DejaVuSans-45" x="1043.185547"/>
      <use xlink:href="#DejaVuSans-73" x="1106.369141"/>
      <use xlink:href="#DejaVuSans-74" x="1158.46875"/>
      <use xlink:href="#DejaVuSans-69" x="1197.677734"/>
      <use xlink:href="#DejaVuSans-6d" x="1225.460938"/>
      <use xlink:href="#DejaVuSans-61" x="1322.873047"/>
      <use xlink:href="#DejaVuSans-74" x="1384.152344"/>
      <use xlink:href="#DejaVuSans-65" x="1423.361328"/>
     </g>
    </g>
   </g>
   <g id="matplotlib.axis_2">
    <g id="ytick_1">
     <g id="line2d_7">
      <defs>
       <path id="mf7a43f4026" d="M 0 0 
L -3.5 0 
" style="stroke: #000000; stroke-width: 0.8"/>
      </defs>
      <g>
       <use xlink:href="#mf7a43f4026" x="45" y="66.894545" style="stroke: #000000; stroke-width: 0.8"/>
      </g>
     </g>
    </g>
    <g id="ytick_2">
     <g id="line2d_8">
      <g>
       <use xlink:href="#mf7a43f4026" x="45" y="119.258182" style="stroke: #000000; stroke-width: 0.8"/>
      </g>
     </g>
    </g>
    <g id="ytick_3">
     <g id="line2d_9">
      <g>
       <use xlink:href="#mf7a43f4026" x="45" y="171.621818" style="stroke: #000000; stroke-width: 0.8"/>
      </g>
     </g>
    </g>
    <g id="ytick_4">
     <g id="line2d_10">
      <g>
       <use xlink:href="#mf7a43f4026" x="45" y="223.985455" style="stroke: #000000; stroke-width: 0.8"/>
      </g>
     </g>
    </g>
   </g>
   <g id="LineCollection_1">
    <path d="M 57.681818 221.367273 
L 57.681818 211.549091 
" clip-path="url(#p3262d01549)" style="fill: none; stroke: #1f77b4; stroke-width: 1.5; stroke-linecap: square"/>
    <path d="M 107.433023 169.003636 
L 107.433023 159.185455 
" clip-path="url(#p3262d01549)" style="fill: none; stroke: #1f77b4; stroke-width: 1.5; stroke-linecap: square"/>
    <path d="M 96.5672 116.64 
L 96.5672 106.821818 
" clip-path="url(#p3262d01549)" style="fill: none; stroke: #1f77b4; stroke-width: 1.5; stroke-linecap: square"/>
    <path d="M 81.201242 64.276364 
L 81.201242 54.458182 
" clip-path="url(#p3262d01549)" style="fill: none; stroke: #1f77b4; stroke-width: 1.5; stroke-linecap: square"/>
   </g>
   <g id="LineCollection_2">
    <path d="M 57.681818 221.367273 
L 57.681818 211.549091 
" clip-path="url(#p3262d01549)" style="fill: none; stroke: #1f77b4; stroke-width: 1.5; stroke-linecap: square"/>
    <path d="M 311.318182 169.003636 
L 311.318182 159.185455 
" clip-path="url(#p3262d01549)" style="fill: none; stroke: #1f77b4; stroke-width: 1.5; stroke-linecap: square"/>
    <path d="M 298.476033 116.64 
L 298.476033 106.821818 
" clip-path="url(#p3262d01549)" style="fill: none; stroke: #1f77b4; stroke-width: 1.5; stroke-linecap: square"/>
    <path d="M 190.991883 64.276364 
L 190.991883 54.458182 
" clip-path="url(#p3262d01549)" style="fill: none; stroke: #1f77b4; stroke-width: 1.5; stroke-linecap: square"/>
   </g>
   <g id="LineCollection_3">
    <path d="M 57.681818 221.367273 
L 57.681818 211.549091 
" clip-path="url(#p3262d01549)" style="fill: none; stroke: #1f77b4; stroke-width: 1.5; stroke-linecap: square"/>
    <path d="M 57.681818 169.003636 
L 57.681818 159.185455 
" clip-path="url(#p3262d01549)" style="fill: none; stroke: #1f77b4; stroke-width: 1.5; stroke-linecap: square"/>
    <path d="M 57.681818 116.64 
L 57.681818 106.821818 
" clip-path="url(#p3262d01549)" style="fill: none; stroke: #1f77b4; stroke-width: 1.5; stroke-linecap: square"/>
    <path d="M 57.681818 64.276364 
L 57.681818 54.458182 
" clip-path="url(#p3262d01549)" style="fill: none; stroke: #1f77b4; stroke-width: 1.5; stroke-linecap: square"/>
   </g>
   <g id="LineCollection_4">
    <path d="M 57.681818 221.367273 
L 57.681818 221.367273 
" clip-path="url(#p3262d01549)" style="fill: none; stroke: #1f77b4; stroke-width: 1.5; stroke-linecap: square"/>
    <path d="M 57.681818 169.003636 
L 311.318182 169.003636 
" clip-path="url(#p3262d01549)" style="fill: none; stroke: #1f77b4; stroke-width: 1.5; stroke-linecap: square"/>
    <path d="M 57.681818 116.64 
L 298.476033 116.64 
" clip-path="url(#p3262d01549)" style="fill: none; stroke: #1f77b4; stroke-width: 1.5; stroke-linecap: square"/>
    <path d="M 57.681818 64.276364 
L 190.991883 64.276364 
" clip-path="url(#p3262d01549)" style="fill: none; stroke: #1f77b4; stroke-width: 1.5; stroke-linecap: square"/>
   </g>
   <g id="LineCollection_5">
    <path d="M 57.681818 236.421818 
L 57.681818 226.603636 
" clip-path="url(#p3262d01549)" style="fill: none; stroke: #ff7f0e; stroke-width: 1.5; stroke-linecap: square"/>
    <path d="M 103.74233 184.058182 
L 103.74233 174.24 
" clip-path="url(#p3262d01549)" style="fill: none; stroke: #ff7f0e; stroke-width: 1.5; stroke-linecap: square"/>
    <path d="M 93.603558 131.694545 
L 93.603558 121.876364 
" clip-path="url(#p3262d01549)" style="fill: none; stroke: #ff7f0e; stroke-width: 1.5; stroke-linecap: square"/>
    <path d="M 78.93059 79.330909 
L 78.93059 69.512727 
" clip-path="url(#p3262d01549)" style="fill: none; stroke: #ff7f0e; stroke-width: 1.5; stroke-linecap: square"/>
   </g>
   <g id="LineCollection_6">
    <path d="M 57.681818 236.421818 
L 57.681818 226.603636 
" clip-path="url(#p3262d01549)" style="fill: none; stroke: #ff7f0e; stroke-width: 1.5; stroke-linecap: square"/>
    <path d="M 311.318182 184.058182 
L 311.318182 174.24 
" clip-path="url(#p3262d01549)" style="fill: none; stroke: #ff7f0e; stroke-width: 1.5; stroke-linecap: square"/>
    <path d="M 298.476033 131.694545 
L 298.476033 121.876364 
" clip-path="url(#p3262d01549)" style="fill: none; stroke: #ff7f0e; stroke-width: 1.5; stroke-linecap: square"/>
    <path d="M 178.121636 79.330909 
L 178.121636 69.512727 
" clip-path="url(#p3262d01549)" style="fill: none; stroke: #ff7f0e; stroke-width: 1.5; stroke-linecap: square"/>
   </g>
   <g id="LineCollection_7">
    <path d="M 57.681818 236.421818 
L 57.681818 226.603636 
" clip-path="url(#p3262d01549)" style="fill: none; stroke: #ff7f0e; stroke-width: 1.5; stroke-linecap: square"/>
    <path d="M 57.681818 184.058182 
L 57.681818 174.24 
" clip-path="url(#p3262d01549)" style="fill: none; stroke: #ff7f0e; stroke-width: 1.5; stroke-linecap: square"/>
    <path d="M 57.681818 131.694545 
L 57.681818 121.876364 
" clip-path="url(#p3262d01549)" style="fill: none; stroke: #ff7f0e; stroke-width: 1.5; stroke-linecap: square"/>
    <path d="M 57.681818 79.330909 
L 57.681818 69.512727 
" clip-path="url(#p3262d01549)" style="fill: none; stroke: #ff7f0e; stroke-width: 1.5; stroke-linecap: square"/>
   </g>
   <g id="LineCollection_8">
    <path d="M 57.681818 226.603636 
L 57.681818 226.603636 
" clip-path="url(#p3262d01549)" style="fill: none; stroke: #ff7f0e; stroke-width: 1.5; stroke-linecap: square"/>
    <path d="M 57.681818 174.24 
L 311.318182 174.24 
" clip-path="url(#p3262d01549)" style="fill: none; stroke: #ff7f0e; stroke-width: 1.5; stroke-linecap: square"/>
    <path d="M 57.681818 121.876364 
L 298.476033 121.876364 
" clip-path="url(#p3262d01549)" style="fill: none; stroke: #ff7f0e; stroke-width: 1.5; stroke-linecap: square"/>
    <path d="M 57.681818 69.512727 
L 178.121636 69.512727 
" clip-path="url(#p3262d01549)" style="fill: none; stroke: #ff7f0e; stroke-width: 1.5; stroke-linecap: square"/>
   </g>
   <g id="patch_3">
    <path d="M 45 256.32 
L 45 34.56 
" style="fill: none; stroke: #000000; stroke-width: 0.8; stroke-linejoin: miter; stroke-linecap: square"/>
   </g>
   <g id="patch_4">
    <path d="M 324 256.32 
L 324 34.56 
" style="fill: none; stroke: #000000; stroke-width: 0.8; stroke-linejoin: miter; stroke-linecap: square"/>
   </g>
   <g id="patch_5">
    <path d="M 45 256.32 
L 324 256.32 
" style="fill: none; stroke: #000000; stroke-width: 0.8; stroke-linejoin: miter; stroke-linecap: square"/>
   </g>
   <g id="patch_6">
    <path d="M 45 34.56 
L 324 34.56 
" style="fill: none; stroke: #000000; stroke-width: 0.8; stroke-linejoin: miter; stroke-linecap: square"/>
   </g>
   <g id="legend_1">
    <g id="patch_7">
     <path d="M 259.846875 251.32 
L 317 251.32 
Q 319 251.32 319 249.32 
L 319 206.285625 
Q 319 204.285625 317 204.285625 
L 259.846875 204.285625 
Q 257.846875 204.285625 257.846875 206.285625 
L 257.846875 249.32 
Q 257.846875 251.32 259.846875 251.32 
z
" style="fill: #ffffff; opacity: 0.8; stroke: #cccccc; stroke-linejoin: miter"/>
    </g>
    <g id="text_8">
     <!-- Dimension -->
     <g transform="translate(261.846875 215.884062) scale(0.1 -0.1)">
      <defs>
       <path id="DejaVuSans-44" d="M 1259 4147 
L 1259 519 
L 2022 519 
Q 2988 519 3436 956 
Q 3884 1394 3884 2338 
Q 3884 3275 3436 3711 
Q 2988 4147 2022 4147 
L 1259 4147 
z
M 628 4666 
L 1925 4666 
Q 3281 4666 3915 4102 
Q 4550 3538 4550 2338 
Q 4550 1131 3912 565 
Q 3275 0 1925 0 
L 628 0 
L 628 4666 
z
" transform="scale(0.015625)"/>
      </defs>
      <use xlink:href="#DejaVuSans-44"/>
      <use xlink:href="#DejaVuSans-69" x="77.001953"/>
      <use xlink:href="#DejaVuSans-6d" x="104.785156"/>
      <use xlink:href="#DejaVuSans-65" x="202.197266"/>
      <use xlink:href="#DejaVuSans-6e" x="263.720703"/>
      <use xlink:href="#DejaVuSans-73" x="327.099609"/>
      <use xlink:href="#DejaVuSans-69" x="379.199219"/>
      <use xlink:href="#DejaVuSans-6f" x="406.982422"/>
      <use xlink:href="#DejaVuSans-6e" x="468.164062"/>
     </g>
    </g>
    <g id="patch_8">
     <path d="M 270.998438 230.562187 
L 290.998438 230.562187 
L 290.998438 223.562187 
L 270.998438 223.562187 
z
" style="fill: #1f77b4; stroke: #1f77b4; stroke-linejoin: miter"/>
    </g>
    <g id="text_9">
     <!-- X -->
     <g transform="translate(298.998438 230.562187) scale(0.1 -0.1)">
      <defs>
       <path id="DejaVuSans-58" d="M 403 4666 
L 1081 4666 
L 2241 2931 
L 3406 4666 
L 4084 4666 
L 2584 2425 
L 4184 0 
L 3506 0 
L 2194 1984 
L 872 0 
L 191 0 
L 1856 2491 
L 403 4666 
z
" transform="scale(0.015625)"/>
      </defs>
      <use xlink:href="#DejaVuSans-58"/>
     </g>
    </g>
    <g id="patch_9">
     <path d="M 270.998438 245.240313 
L 290.998438 245.240313 
L 290.998438 238.240313 
L 270.998438 238.240313 
z
" style="fill: #ff7f0e; stroke: #ff7f0e; stroke-linejoin: miter"/>
    </g>
    <g id="text_10">
     <!-- Y -->
     <g transform="translate(298.998438 245.240313) scale(0.1 -0.1)">
      <defs>
       <path id="DejaVuSans-59" d="M -13 4666 
L 666 4666 
L 1959 2747 
L 3244 4666 
L 3922 4666 
L 2272 2222 
L 2272 0 
L 1638 0 
L 1638 2222 
L -13 4666 
z
" transform="scale(0.015625)"/>
      </defs>
      <use xlink:href="#DejaVuSans-59"/>
     </g>
    </g>
   </g>
  </g>
 </g>
 <defs>
  <clipPath id="p3262d01549">
   <rect x="45" y="34.56" width="279" height="221.76"/>
  </clipPath>
 </defs>
</svg>
