<?xml version="1.0" encoding="utf-8" standalone="no"?>
<!DOCTYPE svg PUBLIC "-//W3C//DTD SVG 1.1//EN"
  "http://www.w3.org/Graphics/SVG/1.1/DTD/svg11.dtd">
<svg xmlns:xlink="http://www.w3.org/1999/xlink" width="432pt" height="360pt" viewBox="0 0 432 360" xmlns="http://www.w3.org/2000/svg" version="1.1">
 <metadata>
  <rdf:RDF xmlns:dc="http://purl.org/dc/elements/1.1/" xmlns:cc="http://creativecommons.org/ns#" xmlns:rdf="http://www.w3.org/1999/02/22-rdf-syntax-ns#">
   <cc:Work>
    <dc:type rdf:resource="http://purl.org/dc/dcmitype/StillImage"/>
    <dc:date>2024-09-11T07:32:12.159668</dc:date>
    <dc:format>image/svg+xml</dc:format>
    <dc:creator>
     <cc:Agent>
      <dc:title>Matplotlib v3.9.2, https://matplotlib.org/</dc:title>
     </cc:Agent>
    </dc:creator>
   </cc:Work>
  </rdf:RDF>
 </metadata>
 <defs>
  <style type="text/css">*{stroke-linejoin: round; stroke-linecap: butt}</style>
 </defs>
 <g id="figure_1">
  <g id="patch_1">
   <path d="M 0 360 
L 432 360 
L 432 0 
L 0 0 
z
" style="fill: #ffffff"/>
  </g>
  <g id="axes_1">
   <g id="patch_2">
    <path d="M 54 320.4 
L 388.8 320.4 
L 388.8 43.2 
L 54 43.2 
z
" style="fill: #ffffff"/>
   </g>
   <g id="PolyCollection_1">
    <path d="M 69.218182 285.311485 
L 69.218182 302.288515 
L 71.787118 303.736678 
L 74.356054 305.036291 
L 76.92499 306.114805 
L 79.493926 306.928555 
L 82.062862 307.465787 
L 84.631798 307.743477 
L 87.200735 307.8 
L 89.769671 307.686184 
L 92.338607 307.456765 
L 94.907543 307.163383 
L 97.476479 306.849509 
L 100.045415 306.547373 
L 102.614351 306.276893 
L 105.183287 306.046532 
L 107.752223 305.855753 
L 110.32116 305.698453 
L 112.890096 305.566508 
L 115.459032 305.452618 
L 118.027968 305.351907 
L 120.596904 305.262164 
L 123.16584 305.182898 
L 125.734776 305.113635 
L 128.303712 305.051953 
L 130.872648 304.99184 
L 133.441585 304.922901 
L 136.010521 304.830807 
L 138.579457 304.699056 
L 141.148393 304.511684 
L 143.717329 304.256233 
L 146.286265 303.926168 
L 148.855201 303.522154 
L 151.424137 303.052006 
L 153.993074 302.529515 
L 156.56201 301.972559 
L 159.130946 301.400916 
L 161.699882 300.834029 
L 164.268818 300.288905 
L 166.837754 299.778342 
L 169.40669 299.309797 
L 171.975626 298.885246 
L 174.544562 298.502269 
L 177.113499 298.156206 
L 179.682435 297.842783 
L 182.251371 297.560311 
L 184.820307 297.310621 
L 187.389243 297.098301 
L 189.958179 296.928482 
L 192.527115 296.803991 
L 195.096051 296.72292 
L 197.664987 296.677514 
L 200.233924 296.654797 
L 202.80286 296.638723 
L 205.371796 296.613195 
L 207.940732 296.565024 
L 210.509668 296.48599 
L 213.078604 296.373514 
L 215.64754 296.22989 
L 218.216476 296.060588 
L 220.785412 295.872353 
L 223.354349 295.671832 
L 225.923285 295.465095 
L 228.492221 295.257894 
L 231.061157 295.05614 
L 233.630093 294.866028 
L 236.199029 294.693525 
L 238.767965 294.543402 
L 241.336901 294.418266 
L 243.905837 294.318116 
L 246.474774 294.24061 
L 249.04371 294.181929 
L 251.612646 294.137814 
L 254.181582 294.104386 
L 256.750518 294.078526 
L 259.319454 294.057834 
L 261.88839 294.040395 
L 264.457326 294.024555 
L 267.026262 294.008883 
L 269.595199 293.992285 
L 272.164135 293.974208 
L 274.733071 293.95479 
L 277.302007 293.934877 
L 279.870943 293.915876 
L 282.439879 293.899488 
L 285.008815 293.887364 
L 287.577751 293.880779 
L 290.146687 293.88036 
L 292.715624 293.885938 
L 295.28456 293.896529 
L 297.853496 293.910479 
L 300.422432 293.925719 
L 302.991368 293.940103 
L 305.560304 293.951733 
L 308.12924 293.959219 
L 310.698176 293.9618 
L 313.267112 293.959335 
L 315.836049 293.952195 
L 318.404985 293.941096 
L 320.973921 293.926957 
L 323.542857 293.910786 
L 323.542857 293.689214 
L 323.542857 293.689214 
L 320.973921 293.673043 
L 318.404985 293.658904 
L 315.836049 293.647805 
L 313.267112 293.640665 
L 310.698176 293.6382 
L 308.12924 293.640781 
L 305.560304 293.648267 
L 302.991368 293.659897 
L 300.422432 293.674281 
L 297.853496 293.689521 
L 295.28456 293.703471 
L 292.715624 293.714062 
L 290.146687 293.71964 
L 287.577751 293.719221 
L 285.008815 293.712636 
L 282.439879 293.700512 
L 279.870943 293.684124 
L 277.302007 293.665123 
L 274.733071 293.64521 
L 272.164135 293.625792 
L 269.595199 293.607715 
L 267.026262 293.591117 
L 264.457326 293.575445 
L 261.88839 293.559605 
L 259.319454 293.542166 
L 256.750518 293.521474 
L 254.181582 293.495614 
L 251.612646 293.462186 
L 249.04371 293.418071 
L 246.474774 293.35939 
L 243.905837 293.281884 
L 241.336901 293.181734 
L 238.767965 293.056598 
L 236.199029 292.906475 
L 233.630093 292.733972 
L 231.061157 292.54386 
L 228.492221 292.342106 
L 225.923285 292.134905 
L 223.354349 291.928168 
L 220.785412 291.727647 
L 218.216476 291.539412 
L 215.64754 291.37011 
L 213.078604 291.226486 
L 210.509668 291.11401 
L 207.940732 291.034976 
L 205.371796 290.986805 
L 202.80286 290.961277 
L 200.233924 290.945203 
L 197.664987 290.922486 
L 195.096051 290.87708 
L 192.527115 290.796009 
L 189.958179 290.671518 
L 187.389243 290.501699 
L 184.820307 290.289379 
L 182.251371 290.039689 
L 179.682435 289.757217 
L 177.113499 289.443794 
L 174.544562 289.097731 
L 171.975626 288.714754 
L 169.40669 288.290203 
L 166.837754 287.821658 
L 164.268818 287.311095 
L 161.699882 286.765971 
L 159.130946 286.199084 
L 156.56201 285.627441 
L 153.993074 285.070485 
L 151.424137 284.547994 
L 148.855201 284.077846 
L 146.286265 283.673832 
L 143.717329 283.343767 
L 141.148393 283.088316 
L 138.579457 282.900944 
L 136.010521 282.769193 
L 133.441585 282.677099 
L 130.872648 282.60816 
L 128.303712 282.548047 
L 125.734776 282.486365 
L 123.16584 282.417102 
L 120.596904 282.337836 
L 118.027968 282.248093 
L 115.459032 282.147382 
L 112.890096 282.033492 
L 110.32116 281.901547 
L 107.752223 281.744247 
L 105.183287 281.553468 
L 102.614351 281.323107 
L 100.045415 281.052627 
L 97.476479 280.750491 
L 94.907543 280.436617 
L 92.338607 280.143235 
L 89.769671 279.913816 
L 87.200735 279.8 
L 84.631798 279.856523 
L 82.062862 280.134213 
L 79.493926 280.671445 
L 76.92499 281.485195 
L 74.356054 282.563709 
L 71.787118 283.863322 
L 69.218182 285.311485 
z
" clip-path="url(#p04568137fe)" style="fill: #1f77b4; fill-opacity: 0.3"/>
   </g>
   <g id="PolyCollection_2">
    <path d="M 69.218182 229.006942 
L 69.218182 246.593058 
L 71.787118 248.046295 
L 74.356054 249.327955 
L 76.92499 250.365771 
L 79.493926 251.120648 
L 82.062862 251.589254 
L 84.631798 251.79933 
L 87.200735 251.8 
L 89.769671 251.650165 
L 92.338607 251.407772 
L 94.907543 251.121849 
L 97.476479 250.828192 
L 100.045415 250.548701 
L 102.614351 250.293713 
L 105.183287 250.06618 
L 107.752223 249.866201 
L 110.32116 249.694474 
L 112.890096 249.553665 
L 115.459032 249.447505 
L 118.027968 249.378289 
L 120.596904 249.344016 
L 123.16584 249.336449 
L 125.734776 249.340919 
L 128.303712 249.337977 
L 130.872648 249.306384 
L 133.441585 249.226588 
L 136.010521 249.083796 
L 138.579457 248.869982 
L 141.148393 248.584485 
L 143.717329 248.233178 
L 146.286265 247.826537 
L 148.855201 247.377181 
L 151.424137 246.897565 
L 153.993074 246.39843 
L 156.56201 245.888337 
L 159.130946 245.374176 
L 161.699882 244.862215 
L 164.268818 244.359025 
L 166.837754 243.871775 
L 169.40669 243.407736 
L 171.975626 242.973271 
L 174.544562 242.572914 
L 177.113499 242.209107 
L 179.682435 241.882825 
L 182.251371 241.594804 
L 184.820307 241.346666 
L 187.389243 241.141229 
L 189.958179 240.981578 
L 192.527115 240.869126 
L 195.096051 240.801377 
L 197.664987 240.770353 
L 200.233924 240.762448 
L 202.80286 240.75998 
L 205.371796 240.744118 
L 207.940732 240.698368 
L 210.509668 240.611616 
L 213.078604 240.479844 
L 215.64754 240.306108 
L 218.216476 240.09893 
L 220.785412 239.869821 
L 223.354349 239.630832 
L 225.923285 239.392847 
L 228.492221 239.164857 
L 231.061157 238.953944 
L 233.630093 238.765477 
L 236.199029 238.60311 
L 238.767965 238.468526 
L 241.336901 238.361189 
L 243.905837 238.278419 
L 246.474774 238.215971 
L 249.04371 238.168976 
L 251.612646 238.132904 
L 254.181582 238.10421 
L 256.750518 238.080486 
L 259.319454 238.060199 
L 261.88839 238.042251 
L 264.457326 238.025629 
L 267.026262 238.009296 
L 269.595199 237.992317 
L 272.164135 237.974125 
L 274.733071 237.954746 
L 277.302007 237.934888 
L 279.870943 237.915846 
L 282.439879 237.899252 
L 285.008815 237.886742 
L 287.577751 237.879621 
L 290.146687 237.878595 
L 292.715624 237.883611 
L 295.28456 237.893833 
L 297.853496 237.90775 
L 300.422432 237.923403 
L 302.991368 237.938671 
L 305.560304 237.951578 
L 308.12924 237.960555 
L 310.698176 237.9646 
L 313.267112 237.963334 
L 315.836049 237.956953 
L 318.404985 237.946102 
L 320.973921 237.931741 
L 323.542857 237.914997 
L 323.542857 237.685003 
L 323.542857 237.685003 
L 320.973921 237.668259 
L 318.404985 237.653898 
L 315.836049 237.643047 
L 313.267112 237.636666 
L 310.698176 237.6354 
L 308.12924 237.639445 
L 305.560304 237.648422 
L 302.991368 237.661329 
L 300.422432 237.676597 
L 297.853496 237.69225 
L 295.28456 237.706167 
L 292.715624 237.716389 
L 290.146687 237.721405 
L 287.577751 237.720379 
L 285.008815 237.713258 
L 282.439879 237.700748 
L 279.870943 237.684154 
L 277.302007 237.665112 
L 274.733071 237.645254 
L 272.164135 237.625875 
L 269.595199 237.607683 
L 267.026262 237.590704 
L 264.457326 237.574371 
L 261.88839 237.557749 
L 259.319454 237.539801 
L 256.750518 237.519514 
L 254.181582 237.49579 
L 251.612646 237.467096 
L 249.04371 237.431024 
L 246.474774 237.384029 
L 243.905837 237.321581 
L 241.336901 237.238811 
L 238.767965 237.131474 
L 236.199029 236.99689 
L 233.630093 236.834523 
L 231.061157 236.646056 
L 228.492221 236.435143 
L 225.923285 236.207153 
L 223.354349 235.969168 
L 220.785412 235.730179 
L 218.216476 235.50107 
L 215.64754 235.293892 
L 213.078604 235.120156 
L 210.509668 234.988384 
L 207.940732 234.901632 
L 205.371796 234.855882 
L 202.80286 234.84002 
L 200.233924 234.837552 
L 197.664987 234.829647 
L 195.096051 234.798623 
L 192.527115 234.730874 
L 189.958179 234.618422 
L 187.389243 234.458771 
L 184.820307 234.253334 
L 182.251371 234.005196 
L 179.682435 233.717175 
L 177.113499 233.390893 
L 174.544562 233.027086 
L 171.975626 232.626729 
L 169.40669 232.192264 
L 166.837754 231.728225 
L 164.268818 231.240975 
L 161.699882 230.737785 
L 159.130946 230.225824 
L 156.56201 229.711663 
L 153.993074 229.20157 
L 151.424137 228.702435 
L 148.855201 228.222819 
L 146.286265 227.773463 
L 143.717329 227.366822 
L 141.148393 227.015515 
L 138.579457 226.730018 
L 136.010521 226.516204 
L 133.441585 226.373412 
L 130.872648 226.293616 
L 128.303712 226.262023 
L 125.734776 226.259081 
L 123.16584 226.263551 
L 120.596904 226.255984 
L 118.027968 226.221711 
L 115.459032 226.152495 
L 112.890096 226.046335 
L 110.32116 225.905526 
L 107.752223 225.733799 
L 105.183287 225.53382 
L 102.614351 225.306287 
L 100.045415 225.051299 
L 97.476479 224.771808 
L 94.907543 224.478151 
L 92.338607 224.192228 
L 89.769671 223.949835 
L 87.200735 223.8 
L 84.631798 223.80067 
L 82.062862 224.010746 
L 79.493926 224.479352 
L 76.92499 225.234229 
L 74.356054 226.272045 
L 71.787118 227.553705 
L 69.218182 229.006942 
z
" clip-path="url(#p04568137fe)" style="fill: #1f77b4; fill-opacity: 0.3"/>
   </g>
   <g id="PolyCollection_3">
    <path d="M 69.218182 172.658704 
L 69.218182 190.941296 
L 71.877539 192.365005 
L 74.536897 193.588097 
L 77.196254 194.54676 
L 79.855612 195.217012 
L 82.51497 195.614852 
L 85.174327 195.787626 
L 87.833685 195.8 
L 90.493042 195.718972 
L 93.1524 195.601815 
L 95.811757 195.489193 
L 98.471115 195.403774 
L 101.130472 195.353072 
L 103.78983 195.334472 
L 106.449188 195.340282 
L 109.108545 195.361261 
L 111.767903 195.387977 
L 114.42726 195.410357 
L 117.086618 195.416484 
L 119.745975 195.391902 
L 122.405333 195.32026 
L 125.06469 195.18541 
L 127.724048 194.974325 
L 130.383406 194.67989 
L 133.042763 194.302718 
L 135.702121 193.851595 
L 138.361478 193.342544 
L 141.020836 192.796812 
L 143.680193 192.238098 
L 146.339551 191.689385 
L 148.998908 191.169751 
L 151.658266 190.691692 
L 154.317624 190.259493 
L 156.976981 189.869169 
L 159.636339 189.510147 
L 162.295696 189.168425 
L 164.955054 188.830478 
L 167.614411 188.48688 
L 170.273769 188.134609 
L 172.933126 187.777437 
L 175.592484 187.424378 
L 178.251842 187.08684 
L 180.911199 186.775489 
L 183.570557 186.497786 
L 186.229914 186.256767 
L 188.889272 186.051075 
L 191.548629 185.875824 
L 194.207987 185.723779 
L 196.867344 185.586448 
L 199.526702 185.454993 
L 202.18606 185.321003 
L 204.845417 185.17723 
L 207.504775 185.018282 
L 210.164132 184.841152 
L 212.82349 184.645489 
L 215.482847 184.433527 
L 218.142205 184.209721 
L 220.801562 183.980202 
L 223.46092 183.752119 
L 226.120278 183.532956 
L 228.779635 183.329806 
L 231.438993 183.148588 
L 234.09835 182.993251 
L 236.757708 182.865086 
L 239.417065 182.762381 
L 242.076423 182.680639 
L 244.73578 182.613459 
L 247.395138 182.553929 
L 250.054496 182.496167 
L 252.713853 182.436535 
L 255.373211 182.374146 
L 258.032568 182.310564 
L 260.691926 182.24886 
L 263.351283 182.192398 
L 266.010641 182.143756 
L 268.669998 182.104063 
L 271.329356 182.072856 
L 273.988714 182.048389 
L 276.648071 182.028223 
L 279.307429 182.009891 
L 281.966786 181.991467 
L 284.626144 181.971931 
L 287.285501 181.951295 
L 289.944859 181.930497 
L 292.604216 181.911129 
L 295.263574 181.895066 
L 297.922932 181.884074 
L 300.582289 181.879451 
L 303.241647 181.881755 
L 305.901004 181.890657 
L 308.560362 181.904948 
L 311.219719 181.922696 
L 313.879077 181.941535 
L 316.538434 181.959012 
L 319.197792 181.972928 
L 321.85715 181.981591 
L 324.516507 181.983969 
L 327.175865 181.979731 
L 329.835222 181.969226 
L 332.49458 181.9534 
L 332.49458 181.6466 
L 332.49458 181.6466 
L 329.835222 181.630774 
L 327.175865 181.620269 
L 324.516507 181.616031 
L 321.85715 181.618409 
L 319.197792 181.627072 
L 316.538434 181.640988 
L 313.879077 181.658465 
L 311.219719 181.677304 
L 308.560362 181.695052 
L 305.901004 181.709343 
L 303.241647 181.718245 
L 300.582289 181.720549 
L 297.922932 181.715926 
L 295.263574 181.704934 
L 292.604216 181.688871 
L 289.944859 181.669503 
L 287.285501 181.648705 
L 284.626144 181.628069 
L 281.966786 181.608533 
L 279.307429 181.590109 
L 276.648071 181.571777 
L 273.988714 181.551611 
L 271.329356 181.527144 
L 268.669998 181.495937 
L 266.010641 181.456244 
L 263.351283 181.407602 
L 260.691926 181.35114 
L 258.032568 181.289436 
L 255.373211 181.225854 
L 252.713853 181.163465 
L 250.054496 181.103833 
L 247.395138 181.046071 
L 244.73578 180.986541 
L 242.076423 180.919361 
L 239.417065 180.837619 
L 236.757708 180.734914 
L 234.09835 180.606749 
L 231.438993 180.451412 
L 228.779635 180.270194 
L 226.120278 180.067044 
L 223.46092 179.847881 
L 220.801562 179.619798 
L 218.142205 179.390279 
L 215.482847 179.166473 
L 212.82349 178.954511 
L 210.164132 178.758848 
L 207.504775 178.581718 
L 204.845417 178.42277 
L 202.18606 178.278997 
L 199.526702 178.145007 
L 196.867344 178.013552 
L 194.207987 177.876221 
L 191.548629 177.724176 
L 188.889272 177.548925 
L 186.229914 177.343233 
L 183.570557 177.102214 
L 180.911199 176.824511 
L 178.251842 176.51316 
L 175.592484 176.175622 
L 172.933126 175.822563 
L 170.273769 175.465391 
L 167.614411 175.11312 
L 164.955054 174.769522 
L 162.295696 174.431575 
L 159.636339 174.089853 
L 156.976981 173.730831 
L 154.317624 173.340507 
L 151.658266 172.908308 
L 148.998908 172.430249 
L 146.339551 171.910615 
L 143.680193 171.361902 
L 141.020836 170.803188 
L 138.361478 170.257456 
L 135.702121 169.748405 
L 133.042763 169.297282 
L 130.383406 168.92011 
L 127.724048 168.625675 
L 125.06469 168.41459 
L 122.405333 168.27974 
L 119.745975 168.208098 
L 117.086618 168.183516 
L 114.42726 168.189643 
L 111.767903 168.212023 
L 109.108545 168.238739 
L 106.449188 168.259718 
L 103.78983 168.265528 
L 101.130472 168.246928 
L 98.471115 168.196226 
L 95.811757 168.110807 
L 93.1524 167.998185 
L 90.493042 167.881028 
L 87.833685 167.8 
L 85.174327 167.812374 
L 82.51497 167.985148 
L 79.855612 168.382988 
L 77.196254 169.05324 
L 74.536897 170.011903 
L 71.877539 171.234995 
L 69.218182 172.658704 
z
" clip-path="url(#p04568137fe)" style="fill: #1f77b4; fill-opacity: 0.3"/>
   </g>
   <g id="PolyCollection_4">
    <path d="M 69.218182 116.398185 
L 69.218182 135.201815 
L 72.292562 136.6953 
L 75.366942 137.935468 
L 78.441322 138.849638 
L 81.515702 139.420616 
L 84.590083 139.686162 
L 87.664463 139.725082 
L 90.738843 139.635006 
L 93.813223 139.508867 
L 96.887603 139.416461 
L 99.961983 139.394819 
L 103.036364 139.44791 
L 106.110744 139.55358 
L 109.185124 139.674345 
L 112.259504 139.768634 
L 115.333884 139.8 
L 118.408264 139.742943 
L 121.482645 139.585144 
L 124.557025 139.326685 
L 127.631405 138.977308 
L 130.705785 138.552894 
L 133.780165 138.072135 
L 136.854545 137.554012 
L 139.928926 137.01626 
L 143.003306 136.474646 
L 146.077686 135.942645 
L 149.152066 135.431081 
L 152.226446 134.947492 
L 155.300826 134.495325 
L 158.375207 134.073511 
L 161.449587 133.677055 
L 164.523967 133.29901 
L 167.598347 132.93341 
L 170.672727 132.578004 
L 173.747107 132.235321 
L 176.821488 131.911179 
L 179.895868 131.611044 
L 182.970248 131.335857 
L 186.044628 131.079542 
L 189.119008 130.829714 
L 192.193388 130.571626 
L 195.267769 130.29376 
L 198.342149 129.992612 
L 201.416529 129.674551 
L 204.490909 129.353952 
L 207.565289 129.048451 
L 210.639669 128.773278 
L 213.71405 128.536855 
L 216.78843 128.339102 
L 219.86281 128.172725 
L 222.93719 128.026661 
L 226.01157 127.890174 
L 229.08595 127.756153 
L 232.160331 127.622572 
L 235.234711 127.491891 
L 238.309091 127.368881 
L 241.383471 127.257858 
L 244.457851 127.160453 
L 247.532231 127.074696 
L 250.606612 126.995678 
L 253.680992 126.917392 
L 256.755372 126.834949 
L 259.829752 126.746284 
L 262.904132 126.652727 
L 265.978512 126.558338 
L 269.052893 126.468361 
L 272.127273 126.387459 
L 275.201653 126.318368 
L 278.276033 126.261382 
L 281.350413 126.214672 
L 284.424793 126.175191 
L 287.499174 126.139728 
L 290.573554 126.105761 
L 293.647934 126.071918 
L 296.722314 126.038037 
L 299.796694 126.004957 
L 302.871074 125.974168 
L 305.945455 125.947412 
L 309.019835 125.926273 
L 312.094215 125.911783 
L 315.168595 125.904103 
L 318.242975 125.902367 
L 321.317355 125.90478 
L 324.391736 125.909004 
L 327.466116 125.912733 
L 330.540496 125.914305 
L 333.614876 125.913122 
L 336.689256 125.909732 
L 339.763636 125.905543 
L 342.838017 125.902287 
L 345.912397 125.901423 
L 348.986777 125.903692 
L 352.061157 125.908929 
L 355.135537 125.91614 
L 358.209917 125.923765 
L 361.284298 125.930018 
L 364.358678 125.933234 
L 367.433058 125.932169 
L 370.507438 125.926225 
L 373.581818 125.915565 
L 373.581818 125.684435 
L 373.581818 125.684435 
L 370.507438 125.673775 
L 367.433058 125.667831 
L 364.358678 125.666766 
L 361.284298 125.669982 
L 358.209917 125.676235 
L 355.135537 125.68386 
L 352.061157 125.691071 
L 348.986777 125.696308 
L 345.912397 125.698577 
L 342.838017 125.697713 
L 339.763636 125.694457 
L 336.689256 125.690268 
L 333.614876 125.686878 
L 330.540496 125.685695 
L 327.466116 125.687267 
L 324.391736 125.690996 
L 321.317355 125.69522 
L 318.242975 125.697633 
L 315.168595 125.695897 
L 312.094215 125.688217 
L 309.019835 125.673727 
L 305.945455 125.652588 
L 302.871074 125.625832 
L 299.796694 125.595043 
L 296.722314 125.561963 
L 293.647934 125.528082 
L 290.573554 125.494239 
L 287.499174 125.460272 
L 284.424793 125.424809 
L 281.350413 125.385328 
L 278.276033 125.338618 
L 275.201653 125.281632 
L 272.127273 125.212541 
L 269.052893 125.131639 
L 265.978512 125.041662 
L 262.904132 124.947273 
L 259.829752 124.853716 
L 256.755372 124.765051 
L 253.680992 124.682608 
L 250.606612 124.604322 
L 247.532231 124.525304 
L 244.457851 124.439547 
L 241.383471 124.342142 
L 238.309091 124.231119 
L 235.234711 124.108109 
L 232.160331 123.977428 
L 229.08595 123.843847 
L 226.01157 123.709826 
L 222.93719 123.573339 
L 219.86281 123.427275 
L 216.78843 123.260898 
L 213.71405 123.063145 
L 210.639669 122.826722 
L 207.565289 122.551549 
L 204.490909 122.246048 
L 201.416529 121.925449 
L 198.342149 121.607388 
L 195.267769 121.30624 
L 192.193388 121.028374 
L 189.119008 120.770286 
L 186.044628 120.520458 
L 182.970248 120.264143 
L 179.895868 119.988956 
L 176.821488 119.688821 
L 173.747107 119.364679 
L 170.672727 119.021996 
L 167.598347 118.66659 
L 164.523967 118.30099 
L 161.449587 117.922945 
L 158.375207 117.526489 
L 155.300826 117.104675 
L 152.226446 116.652508 
L 149.152066 116.168919 
L 146.077686 115.657355 
L 143.003306 115.125354 
L 139.928926 114.58374 
L 136.854545 114.045988 
L 133.780165 113.527865 
L 130.705785 113.047106 
L 127.631405 112.622692 
L 124.557025 112.273315 
L 121.482645 112.014856 
L 118.408264 111.857057 
L 115.333884 111.8 
L 112.259504 111.831366 
L 109.185124 111.925655 
L 106.110744 112.04642 
L 103.036364 112.15209 
L 99.961983 112.205181 
L 96.887603 112.183539 
L 93.813223 112.091133 
L 90.738843 111.964994 
L 87.664463 111.874918 
L 84.590083 111.913838 
L 81.515702 112.179384 
L 78.441322 112.750362 
L 75.366942 113.664532 
L 72.292562 114.9047 
L 69.218182 116.398185 
z
" clip-path="url(#p04568137fe)" style="fill: #1f77b4; fill-opacity: 0.3"/>
   </g>
   <g id="PolyCollection_5">
    <path d="M 69.218182 60.873623 
L 69.218182 78.726377 
L 71.850461 80.187371 
L 74.482739 81.460844 
L 77.115018 82.475589 
L 79.747297 83.196885 
L 82.379576 83.627354 
L 85.011855 83.8 
L 87.644134 83.7668 
L 90.276413 83.586758 
L 92.908691 83.316317 
L 95.54097 83.003328 
L 98.173249 82.684303 
L 100.805528 82.383966 
L 103.437807 82.116143 
L 106.070086 81.885322 
L 108.702364 81.688596 
L 111.334643 81.517806 
L 113.966922 81.361822 
L 116.599201 81.208844 
L 119.23148 81.048618 
L 121.863759 80.874298 
L 124.496037 80.683588 
L 127.128316 80.478785 
L 129.760595 80.265575 
L 132.392874 80.050868 
L 135.025153 79.840281 
L 137.657432 79.636001 
L 140.28971 79.435532 
L 142.921989 79.231486 
L 145.554268 79.012364 
L 148.186547 78.764144 
L 150.818826 78.472586 
L 153.451105 78.12603 
L 156.083383 77.718272 
L 158.715662 77.250863 
L 161.347941 76.734128 
L 163.98022 76.186442 
L 166.612499 75.631822 
L 169.244778 75.096389 
L 171.877056 74.60451 
L 174.509335 74.175437 
L 177.141614 73.820941 
L 179.773893 73.544168 
L 182.406172 73.339715 
L 185.038451 73.194893 
L 187.670729 73.092079 
L 190.303008 73.0119 
L 192.935287 72.936719 
L 195.567566 72.853582 
L 198.199845 72.755818 
L 200.832124 72.642817 
L 203.464402 72.518154 
L 206.096681 72.386871 
L 208.72896 72.252979 
L 211.361239 72.118054 
L 213.993518 71.981238 
L 216.625797 71.840286 
L 219.258076 71.692999 
L 221.890354 71.538389 
L 224.522633 71.377218 
L 227.154912 71.211972 
L 229.787191 71.04647 
L 232.41947 70.885343 
L 235.051749 70.733461 
L 237.684027 70.595308 
L 240.316306 70.474337 
L 242.948585 70.372427 
L 245.580864 70.289641 
L 248.213143 70.224391 
L 250.845422 70.173979 
L 253.4777 70.135298 
L 256.109979 70.105419 
L 258.742258 70.081878 
L 261.374537 70.062656 
L 264.006816 70.045995 
L 266.639095 70.030252 
L 269.271373 70.013939 
L 271.903652 69.995951 
L 274.535931 69.975854 
L 277.16821 69.954087 
L 279.800489 69.931953 
L 282.432768 69.911366 
L 285.065046 69.894431 
L 287.697325 69.88298 
L 290.329604 69.878161 
L 292.961883 69.880191 
L 295.594162 69.888276 
L 298.226441 69.900725 
L 300.858719 69.915228 
L 303.490998 69.929245 
L 306.123277 69.94046 
L 308.755556 69.947194 
L 311.387835 69.948671 
L 314.020114 69.945074 
L 316.652392 69.937354 
L 319.284671 69.926868 
L 321.91695 69.914962 
L 324.549229 69.902653 
L 327.181508 69.890491 
L 329.813787 69.878638 
L 329.813787 69.721362 
L 329.813787 69.721362 
L 327.181508 69.709509 
L 324.549229 69.697347 
L 321.91695 69.685038 
L 319.284671 69.673132 
L 316.652392 69.662646 
L 314.020114 69.654926 
L 311.387835 69.651329 
L 308.755556 69.652806 
L 306.123277 69.65954 
L 303.490998 69.670755 
L 300.858719 69.684772 
L 298.226441 69.699275 
L 295.594162 69.711724 
L 292.961883 69.719809 
L 290.329604 69.721839 
L 287.697325 69.71702 
L 285.065046 69.705569 
L 282.432768 69.688634 
L 279.800489 69.668047 
L 277.16821 69.645913 
L 274.535931 69.624146 
L 271.903652 69.604049 
L 269.271373 69.586061 
L 266.639095 69.569748 
L 264.006816 69.554005 
L 261.374537 69.537344 
L 258.742258 69.518122 
L 256.109979 69.494581 
L 253.4777 69.464702 
L 250.845422 69.426021 
L 248.213143 69.375609 
L 245.580864 69.310359 
L 242.948585 69.227573 
L 240.316306 69.125663 
L 237.684027 69.004692 
L 235.051749 68.866539 
L 232.41947 68.714657 
L 229.787191 68.55353 
L 227.154912 68.388028 
L 224.522633 68.222782 
L 221.890354 68.061611 
L 219.258076 67.907001 
L 216.625797 67.759714 
L 213.993518 67.618762 
L 211.361239 67.481946 
L 208.72896 67.347021 
L 206.096681 67.213129 
L 203.464402 67.081846 
L 200.832124 66.957183 
L 198.199845 66.844182 
L 195.567566 66.746418 
L 192.935287 66.663281 
L 190.303008 66.5881 
L 187.670729 66.507921 
L 185.038451 66.405107 
L 182.406172 66.260285 
L 179.773893 66.055832 
L 177.141614 65.779059 
L 174.509335 65.424563 
L 171.877056 64.99549 
L 169.244778 64.503611 
L 166.612499 63.968178 
L 163.98022 63.413558 
L 161.347941 62.865872 
L 158.715662 62.349137 
L 156.083383 61.881728 
L 153.451105 61.47397 
L 150.818826 61.127414 
L 148.186547 60.835856 
L 145.554268 60.587636 
L 142.921989 60.368514 
L 140.28971 60.164468 
L 137.657432 59.963999 
L 135.025153 59.759719 
L 132.392874 59.549132 
L 129.760595 59.334425 
L 127.128316 59.121215 
L 124.496037 58.916412 
L 121.863759 58.725702 
L 119.23148 58.551382 
L 116.599201 58.391156 
L 113.966922 58.238178 
L 111.334643 58.082194 
L 108.702364 57.911404 
L 106.070086 57.714678 
L 103.437807 57.483857 
L 100.805528 57.216034 
L 98.173249 56.915697 
L 95.54097 56.596672 
L 92.908691 56.283683 
L 90.276413 56.013242 
L 87.644134 55.8332 
L 85.011855 55.8 
L 82.379576 55.972646 
L 79.747297 56.403115 
L 77.115018 57.124411 
L 74.482739 58.139156 
L 71.850461 59.412629 
L 69.218182 60.873623 
z
" clip-path="url(#p04568137fe)" style="fill: #1f77b4; fill-opacity: 0.3"/>
   </g>
   <g id="matplotlib.axis_1">
    <g id="xtick_1">
     <g id="line2d_1">
      <defs>
       <path id="md70429d122" d="M 0 0 
L 0 3.5 
" style="stroke: #000000; stroke-width: 0.8"/>
      </defs>
      <g>
       <use xlink:href="#md70429d122" x="69.218182" y="320.4" style="stroke: #000000; stroke-width: 0.8"/>
      </g>
     </g>
     <g id="text_1">
      <!-- 0 -->
      <g transform="translate(66.036932 334.998438) scale(0.1 -0.1)">
       <defs>
        <path id="DejaVuSans-30" d="M 2034 4250 
Q 1547 4250 1301 3770 
Q 1056 3291 1056 2328 
Q 1056 1369 1301 889 
Q 1547 409 2034 409 
Q 2525 409 2770 889 
Q 3016 1369 3016 2328 
Q 3016 3291 2770 3770 
Q 2525 4250 2034 4250 
z
M 2034 4750 
Q 2819 4750 3233 4129 
Q 3647 3509 3647 2328 
Q 3647 1150 3233 529 
Q 2819 -91 2034 -91 
Q 1250 -91 836 529 
Q 422 1150 422 2328 
Q 422 3509 836 4129 
Q 1250 4750 2034 4750 
z
" transform="scale(0.015625)"/>
       </defs>
       <use xlink:href="#DejaVuSans-30"/>
      </g>
     </g>
    </g>
    <g id="xtick_2">
     <g id="line2d_2">
      <g>
       <use xlink:href="#md70429d122" x="111.915547" y="320.4" style="stroke: #000000; stroke-width: 0.8"/>
      </g>
     </g>
     <g id="text_2">
      <!-- 10 -->
      <g transform="translate(105.553047 334.998438) scale(0.1 -0.1)">
       <defs>
        <path id="DejaVuSans-31" d="M 794 531 
L 1825 531 
L 1825 4091 
L 703 3866 
L 703 4441 
L 1819 4666 
L 2450 4666 
L 2450 531 
L 3481 531 
L 3481 0 
L 794 0 
L 794 531 
z
" transform="scale(0.015625)"/>
       </defs>
       <use xlink:href="#DejaVuSans-31"/>
       <use xlink:href="#DejaVuSans-30" x="63.623047"/>
      </g>
     </g>
    </g>
    <g id="xtick_3">
     <g id="line2d_3">
      <g>
       <use xlink:href="#md70429d122" x="154.612912" y="320.4" style="stroke: #000000; stroke-width: 0.8"/>
      </g>
     </g>
     <g id="text_3">
      <!-- 20 -->
      <g transform="translate(148.250412 334.998438) scale(0.1 -0.1)">
       <defs>
        <path id="DejaVuSans-32" d="M 1228 531 
L 3431 531 
L 3431 0 
L 469 0 
L 469 531 
Q 828 903 1448 1529 
Q 2069 2156 2228 2338 
Q 2531 2678 2651 2914 
Q 2772 3150 2772 3378 
Q 2772 3750 2511 3984 
Q 2250 4219 1831 4219 
Q 1534 4219 1204 4116 
Q 875 4013 500 3803 
L 500 4441 
Q 881 4594 1212 4672 
Q 1544 4750 1819 4750 
Q 2544 4750 2975 4387 
Q 3406 4025 3406 3419 
Q 3406 3131 3298 2873 
Q 3191 2616 2906 2266 
Q 2828 2175 2409 1742 
Q 1991 1309 1228 531 
z
" transform="scale(0.015625)"/>
       </defs>
       <use xlink:href="#DejaVuSans-32"/>
       <use xlink:href="#DejaVuSans-30" x="63.623047"/>
      </g>
     </g>
    </g>
    <g id="xtick_4">
     <g id="line2d_4">
      <g>
       <use xlink:href="#md70429d122" x="197.310278" y="320.4" style="stroke: #000000; stroke-width: 0.8"/>
      </g>
     </g>
     <g id="text_4">
      <!-- 30 -->
      <g transform="translate(190.947778 334.998438) scale(0.1 -0.1)">
       <defs>
        <path id="DejaVuSans-33" d="M 2597 2516 
Q 3050 2419 3304 2112 
Q 3559 1806 3559 1356 
Q 3559 666 3084 287 
Q 2609 -91 1734 -91 
Q 1441 -91 1130 -33 
Q 819 25 488 141 
L 488 750 
Q 750 597 1062 519 
Q 1375 441 1716 441 
Q 2309 441 2620 675 
Q 2931 909 2931 1356 
Q 2931 1769 2642 2001 
Q 2353 2234 1838 2234 
L 1294 2234 
L 1294 2753 
L 1863 2753 
Q 2328 2753 2575 2939 
Q 2822 3125 2822 3475 
Q 2822 3834 2567 4026 
Q 2313 4219 1838 4219 
Q 1578 4219 1281 4162 
Q 984 4106 628 3988 
L 628 4550 
Q 988 4650 1302 4700 
Q 1616 4750 1894 4750 
Q 2613 4750 3031 4423 
Q 3450 4097 3450 3541 
Q 3450 3153 3228 2886 
Q 3006 2619 2597 2516 
z
" transform="scale(0.015625)"/>
       </defs>
       <use xlink:href="#DejaVuSans-33"/>
       <use xlink:href="#DejaVuSans-30" x="63.623047"/>
      </g>
     </g>
    </g>
    <g id="xtick_5">
     <g id="line2d_5">
      <g>
       <use xlink:href="#md70429d122" x="240.007643" y="320.4" style="stroke: #000000; stroke-width: 0.8"/>
      </g>
     </g>
     <g id="text_5">
      <!-- 40 -->
      <g transform="translate(233.645143 334.998438) scale(0.1 -0.1)">
       <defs>
        <path id="DejaVuSans-34" d="M 2419 4116 
L 825 1625 
L 2419 1625 
L 2419 4116 
z
M 2253 4666 
L 3047 4666 
L 3047 1625 
L 3713 1625 
L 3713 1100 
L 3047 1100 
L 3047 0 
L 2419 0 
L 2419 1100 
L 313 1100 
L 313 1709 
L 2253 4666 
z
" transform="scale(0.015625)"/>
       </defs>
       <use xlink:href="#DejaVuSans-34"/>
       <use xlink:href="#DejaVuSans-30" x="63.623047"/>
      </g>
     </g>
    </g>
    <g id="xtick_6">
     <g id="line2d_6">
      <g>
       <use xlink:href="#md70429d122" x="282.705008" y="320.4" style="stroke: #000000; stroke-width: 0.8"/>
      </g>
     </g>
     <g id="text_6">
      <!-- 50 -->
      <g transform="translate(276.342508 334.998438) scale(0.1 -0.1)">
       <defs>
        <path id="DejaVuSans-35" d="M 691 4666 
L 3169 4666 
L 3169 4134 
L 1269 4134 
L 1269 2991 
Q 1406 3038 1543 3061 
Q 1681 3084 1819 3084 
Q 2600 3084 3056 2656 
Q 3513 2228 3513 1497 
Q 3513 744 3044 326 
Q 2575 -91 1722 -91 
Q 1428 -91 1123 -41 
Q 819 9 494 109 
L 494 744 
Q 775 591 1075 516 
Q 1375 441 1709 441 
Q 2250 441 2565 725 
Q 2881 1009 2881 1497 
Q 2881 1984 2565 2268 
Q 2250 2553 1709 2553 
Q 1456 2553 1204 2497 
Q 953 2441 691 2322 
L 691 4666 
z
" transform="scale(0.015625)"/>
       </defs>
       <use xlink:href="#DejaVuSans-35"/>
       <use xlink:href="#DejaVuSans-30" x="63.623047"/>
      </g>
     </g>
    </g>
    <g id="xtick_7">
     <g id="line2d_7">
      <g>
       <use xlink:href="#md70429d122" x="325.402373" y="320.4" style="stroke: #000000; stroke-width: 0.8"/>
      </g>
     </g>
     <g id="text_7">
      <!-- 60 -->
      <g transform="translate(319.039873 334.998438) scale(0.1 -0.1)">
       <defs>
        <path id="DejaVuSans-36" d="M 2113 2584 
Q 1688 2584 1439 2293 
Q 1191 2003 1191 1497 
Q 1191 994 1439 701 
Q 1688 409 2113 409 
Q 2538 409 2786 701 
Q 3034 994 3034 1497 
Q 3034 2003 2786 2293 
Q 2538 2584 2113 2584 
z
M 3366 4563 
L 3366 3988 
Q 3128 4100 2886 4159 
Q 2644 4219 2406 4219 
Q 1781 4219 1451 3797 
Q 1122 3375 1075 2522 
Q 1259 2794 1537 2939 
Q 1816 3084 2150 3084 
Q 2853 3084 3261 2657 
Q 3669 2231 3669 1497 
Q 3669 778 3244 343 
Q 2819 -91 2113 -91 
Q 1303 -91 875 529 
Q 447 1150 447 2328 
Q 447 3434 972 4092 
Q 1497 4750 2381 4750 
Q 2619 4750 2861 4703 
Q 3103 4656 3366 4563 
z
" transform="scale(0.015625)"/>
       </defs>
       <use xlink:href="#DejaVuSans-36"/>
       <use xlink:href="#DejaVuSans-30" x="63.623047"/>
      </g>
     </g>
    </g>
    <g id="xtick_8">
     <g id="line2d_8">
      <g>
       <use xlink:href="#md70429d122" x="368.099739" y="320.4" style="stroke: #000000; stroke-width: 0.8"/>
      </g>
     </g>
     <g id="text_8">
      <!-- 70 -->
      <g transform="translate(361.737239 334.998438) scale(0.1 -0.1)">
       <defs>
        <path id="DejaVuSans-37" d="M 525 4666 
L 3525 4666 
L 3525 4397 
L 1831 0 
L 1172 0 
L 2766 4134 
L 525 4134 
L 525 4666 
z
" transform="scale(0.015625)"/>
       </defs>
       <use xlink:href="#DejaVuSans-37"/>
       <use xlink:href="#DejaVuSans-30" x="63.623047"/>
      </g>
     </g>
    </g>
    <g id="text_9">
     <!-- Absolute Error In Location Estimate -->
     <g transform="translate(133.128906 348.676562) scale(0.1 -0.1)">
      <defs>
       <path id="DejaVuSans-41" d="M 2188 4044 
L 1331 1722 
L 3047 1722 
L 2188 4044 
z
M 1831 4666 
L 2547 4666 
L 4325 0 
L 3669 0 
L 3244 1197 
L 1141 1197 
L 716 0 
L 50 0 
L 1831 4666 
z
" transform="scale(0.015625)"/>
       <path id="DejaVuSans-62" d="M 3116 1747 
Q 3116 2381 2855 2742 
Q 2594 3103 2138 3103 
Q 1681 3103 1420 2742 
Q 1159 2381 1159 1747 
Q 1159 1113 1420 752 
Q 1681 391 2138 391 
Q 2594 391 2855 752 
Q 3116 1113 3116 1747 
z
M 1159 2969 
Q 1341 3281 1617 3432 
Q 1894 3584 2278 3584 
Q 2916 3584 3314 3078 
Q 3713 2572 3713 1747 
Q 3713 922 3314 415 
Q 2916 -91 2278 -91 
Q 1894 -91 1617 61 
Q 1341 213 1159 525 
L 1159 0 
L 581 0 
L 581 4863 
L 1159 4863 
L 1159 2969 
z
" transform="scale(0.015625)"/>
       <path id="DejaVuSans-73" d="M 2834 3397 
L 2834 2853 
Q 2591 2978 2328 3040 
Q 2066 3103 1784 3103 
Q 1356 3103 1142 2972 
Q 928 2841 928 2578 
Q 928 2378 1081 2264 
Q 1234 2150 1697 2047 
L 1894 2003 
Q 2506 1872 2764 1633 
Q 3022 1394 3022 966 
Q 3022 478 2636 193 
Q 2250 -91 1575 -91 
Q 1294 -91 989 -36 
Q 684 19 347 128 
L 347 722 
Q 666 556 975 473 
Q 1284 391 1588 391 
Q 1994 391 2212 530 
Q 2431 669 2431 922 
Q 2431 1156 2273 1281 
Q 2116 1406 1581 1522 
L 1381 1569 
Q 847 1681 609 1914 
Q 372 2147 372 2553 
Q 372 3047 722 3315 
Q 1072 3584 1716 3584 
Q 2034 3584 2315 3537 
Q 2597 3491 2834 3397 
z
" transform="scale(0.015625)"/>
       <path id="DejaVuSans-6f" d="M 1959 3097 
Q 1497 3097 1228 2736 
Q 959 2375 959 1747 
Q 959 1119 1226 758 
Q 1494 397 1959 397 
Q 2419 397 2687 759 
Q 2956 1122 2956 1747 
Q 2956 2369 2687 2733 
Q 2419 3097 1959 3097 
z
M 1959 3584 
Q 2709 3584 3137 3096 
Q 3566 2609 3566 1747 
Q 3566 888 3137 398 
Q 2709 -91 1959 -91 
Q 1206 -91 779 398 
Q 353 888 353 1747 
Q 353 2609 779 3096 
Q 1206 3584 1959 3584 
z
" transform="scale(0.015625)"/>
       <path id="DejaVuSans-6c" d="M 603 4863 
L 1178 4863 
L 1178 0 
L 603 0 
L 603 4863 
z
" transform="scale(0.015625)"/>
       <path id="DejaVuSans-75" d="M 544 1381 
L 544 3500 
L 1119 3500 
L 1119 1403 
Q 1119 906 1312 657 
Q 1506 409 1894 409 
Q 2359 409 2629 706 
Q 2900 1003 2900 1516 
L 2900 3500 
L 3475 3500 
L 3475 0 
L 2900 0 
L 2900 538 
Q 2691 219 2414 64 
Q 2138 -91 1772 -91 
Q 1169 -91 856 284 
Q 544 659 544 1381 
z
M 1991 3584 
L 1991 3584 
z
" transform="scale(0.015625)"/>
       <path id="DejaVuSans-74" d="M 1172 4494 
L 1172 3500 
L 2356 3500 
L 2356 3053 
L 1172 3053 
L 1172 1153 
Q 1172 725 1289 603 
Q 1406 481 1766 481 
L 2356 481 
L 2356 0 
L 1766 0 
Q 1100 0 847 248 
Q 594 497 594 1153 
L 594 3053 
L 172 3053 
L 172 3500 
L 594 3500 
L 594 4494 
L 1172 4494 
z
" transform="scale(0.015625)"/>
       <path id="DejaVuSans-65" d="M 3597 1894 
L 3597 1613 
L 953 1613 
Q 991 1019 1311 708 
Q 1631 397 2203 397 
Q 2534 397 2845 478 
Q 3156 559 3463 722 
L 3463 178 
Q 3153 47 2828 -22 
Q 2503 -91 2169 -91 
Q 1331 -91 842 396 
Q 353 884 353 1716 
Q 353 2575 817 3079 
Q 1281 3584 2069 3584 
Q 2775 3584 3186 3129 
Q 3597 2675 3597 1894 
z
M 3022 2063 
Q 3016 2534 2758 2815 
Q 2500 3097 2075 3097 
Q 1594 3097 1305 2825 
Q 1016 2553 972 2059 
L 3022 2063 
z
" transform="scale(0.015625)"/>
       <path id="DejaVuSans-20" transform="scale(0.015625)"/>
       <path id="DejaVuSans-45" d="M 628 4666 
L 3578 4666 
L 3578 4134 
L 1259 4134 
L 1259 2753 
L 3481 2753 
L 3481 2222 
L 1259 2222 
L 1259 531 
L 3634 531 
L 3634 0 
L 628 0 
L 628 4666 
z
" transform="scale(0.015625)"/>
       <path id="DejaVuSans-72" d="M 2631 2963 
Q 2534 3019 2420 3045 
Q 2306 3072 2169 3072 
Q 1681 3072 1420 2755 
Q 1159 2438 1159 1844 
L 1159 0 
L 581 0 
L 581 3500 
L 1159 3500 
L 1159 2956 
Q 1341 3275 1631 3429 
Q 1922 3584 2338 3584 
Q 2397 3584 2469 3576 
Q 2541 3569 2628 3553 
L 2631 2963 
z
" transform="scale(0.015625)"/>
       <path id="DejaVuSans-49" d="M 628 4666 
L 1259 4666 
L 1259 0 
L 628 0 
L 628 4666 
z
" transform="scale(0.015625)"/>
       <path id="DejaVuSans-6e" d="M 3513 2113 
L 3513 0 
L 2938 0 
L 2938 2094 
Q 2938 2591 2744 2837 
Q 2550 3084 2163 3084 
Q 1697 3084 1428 2787 
Q 1159 2491 1159 1978 
L 1159 0 
L 581 0 
L 581 3500 
L 1159 3500 
L 1159 2956 
Q 1366 3272 1645 3428 
Q 1925 3584 2291 3584 
Q 2894 3584 3203 3211 
Q 3513 2838 3513 2113 
z
" transform="scale(0.015625)"/>
       <path id="DejaVuSans-4c" d="M 628 4666 
L 1259 4666 
L 1259 531 
L 3531 531 
L 3531 0 
L 628 0 
L 628 4666 
z
" transform="scale(0.015625)"/>
       <path id="DejaVuSans-63" d="M 3122 3366 
L 3122 2828 
Q 2878 2963 2633 3030 
Q 2388 3097 2138 3097 
Q 1578 3097 1268 2742 
Q 959 2388 959 1747 
Q 959 1106 1268 751 
Q 1578 397 2138 397 
Q 2388 397 2633 464 
Q 2878 531 3122 666 
L 3122 134 
Q 2881 22 2623 -34 
Q 2366 -91 2075 -91 
Q 1284 -91 818 406 
Q 353 903 353 1747 
Q 353 2603 823 3093 
Q 1294 3584 2113 3584 
Q 2378 3584 2631 3529 
Q 2884 3475 3122 3366 
z
" transform="scale(0.015625)"/>
       <path id="DejaVuSans-61" d="M 2194 1759 
Q 1497 1759 1228 1600 
Q 959 1441 959 1056 
Q 959 750 1161 570 
Q 1363 391 1709 391 
Q 2188 391 2477 730 
Q 2766 1069 2766 1631 
L 2766 1759 
L 2194 1759 
z
M 3341 1997 
L 3341 0 
L 2766 0 
L 2766 531 
Q 2569 213 2275 61 
Q 1981 -91 1556 -91 
Q 1019 -91 701 211 
Q 384 513 384 1019 
Q 384 1609 779 1909 
Q 1175 2209 1959 2209 
L 2766 2209 
L 2766 2266 
Q 2766 2663 2505 2880 
Q 2244 3097 1772 3097 
Q 1472 3097 1187 3025 
Q 903 2953 641 2809 
L 641 3341 
Q 956 3463 1253 3523 
Q 1550 3584 1831 3584 
Q 2591 3584 2966 3190 
Q 3341 2797 3341 1997 
z
" transform="scale(0.015625)"/>
       <path id="DejaVuSans-69" d="M 603 3500 
L 1178 3500 
L 1178 0 
L 603 0 
L 603 3500 
z
M 603 4863 
L 1178 4863 
L 1178 4134 
L 603 4134 
L 603 4863 
z
" transform="scale(0.015625)"/>
       <path id="DejaVuSans-6d" d="M 3328 2828 
Q 3544 3216 3844 3400 
Q 4144 3584 4550 3584 
Q 5097 3584 5394 3201 
Q 5691 2819 5691 2113 
L 5691 0 
L 5113 0 
L 5113 2094 
Q 5113 2597 4934 2840 
Q 4756 3084 4391 3084 
Q 3944 3084 3684 2787 
Q 3425 2491 3425 1978 
L 3425 0 
L 2847 0 
L 2847 2094 
Q 2847 2600 2669 2842 
Q 2491 3084 2119 3084 
Q 1678 3084 1418 2786 
Q 1159 2488 1159 1978 
L 1159 0 
L 581 0 
L 581 3500 
L 1159 3500 
L 1159 2956 
Q 1356 3278 1631 3431 
Q 1906 3584 2284 3584 
Q 2666 3584 2933 3390 
Q 3200 3197 3328 2828 
z
" transform="scale(0.015625)"/>
      </defs>
      <use xlink:href="#DejaVuSans-41"/>
      <use xlink:href="#DejaVuSans-62" x="68.408203"/>
      <use xlink:href="#DejaVuSans-73" x="131.884766"/>
      <use xlink:href="#DejaVuSans-6f" x="183.984375"/>
      <use xlink:href="#DejaVuSans-6c" x="245.166016"/>
      <use xlink:href="#DejaVuSans-75" x="272.949219"/>
      <use xlink:href="#DejaVuSans-74" x="336.328125"/>
      <use xlink:href="#DejaVuSans-65" x="375.537109"/>
      <use xlink:href="#DejaVuSans-20" x="437.060547"/>
      <use xlink:href="#DejaVuSans-45" x="468.847656"/>
      <use xlink:href="#DejaVuSans-72" x="532.03125"/>
      <use xlink:href="#DejaVuSans-72" x="571.394531"/>
      <use xlink:href="#DejaVuSans-6f" x="610.257812"/>
      <use xlink:href="#DejaVuSans-72" x="671.439453"/>
      <use xlink:href="#DejaVuSans-20" x="712.552734"/>
      <use xlink:href="#DejaVuSans-49" x="744.339844"/>
      <use xlink:href="#DejaVuSans-6e" x="773.832031"/>
      <use xlink:href="#DejaVuSans-20" x="837.210938"/>
      <use xlink:href="#DejaVuSans-4c" x="868.998047"/>
      <use xlink:href="#DejaVuSans-6f" x="922.960938"/>
      <use xlink:href="#DejaVuSans-63" x="984.142578"/>
      <use xlink:href="#DejaVuSans-61" x="1039.123047"/>
      <use xlink:href="#DejaVuSans-74" x="1100.402344"/>
      <use xlink:href="#DejaVuSans-69" x="1139.611328"/>
      <use xlink:href="#DejaVuSans-6f" x="1167.394531"/>
      <use xlink:href="#DejaVuSans-6e" x="1228.576172"/>
      <use xlink:href="#DejaVuSans-20" x="1291.955078"/>
      <use xlink:href="#DejaVuSans-45" x="1323.742188"/>
      <use xlink:href="#DejaVuSans-73" x="1386.925781"/>
      <use xlink:href="#DejaVuSans-74" x="1439.025391"/>
      <use xlink:href="#DejaVuSans-69" x="1478.234375"/>
      <use xlink:href="#DejaVuSans-6d" x="1506.017578"/>
      <use xlink:href="#DejaVuSans-61" x="1603.429688"/>
      <use xlink:href="#DejaVuSans-74" x="1664.708984"/>
      <use xlink:href="#DejaVuSans-65" x="1703.917969"/>
     </g>
    </g>
   </g>
   <g id="matplotlib.axis_2">
    <g id="ytick_1">
     <g id="line2d_9">
      <defs>
       <path id="m8180c0b624" d="M 0 0 
L -3.5 0 
" style="stroke: #000000; stroke-width: 0.8"/>
      </defs>
      <g>
       <use xlink:href="#m8180c0b624" x="54" y="293.8" style="stroke: #000000; stroke-width: 0.8"/>
      </g>
     </g>
     <g id="text_10">
      <!-- W0 -->
      <g transform="translate(30.75 297.599219) scale(0.1 -0.1)">
       <defs>
        <path id="DejaVuSans-57" d="M 213 4666 
L 850 4666 
L 1831 722 
L 2809 4666 
L 3519 4666 
L 4500 722 
L 5478 4666 
L 6119 4666 
L 4947 0 
L 4153 0 
L 3169 4050 
L 2175 0 
L 1381 0 
L 213 4666 
z
" transform="scale(0.015625)"/>
       </defs>
       <use xlink:href="#DejaVuSans-57"/>
       <use xlink:href="#DejaVuSans-30" x="98.876953"/>
      </g>
     </g>
    </g>
    <g id="ytick_2">
     <g id="line2d_10">
      <g>
       <use xlink:href="#m8180c0b624" x="54" y="237.8" style="stroke: #000000; stroke-width: 0.8"/>
      </g>
     </g>
     <g id="text_11">
      <!-- W10 -->
      <g transform="translate(24.3875 241.599219) scale(0.1 -0.1)">
       <use xlink:href="#DejaVuSans-57"/>
       <use xlink:href="#DejaVuSans-31" x="98.876953"/>
       <use xlink:href="#DejaVuSans-30" x="162.5"/>
      </g>
     </g>
    </g>
    <g id="ytick_3">
     <g id="line2d_11">
      <g>
       <use xlink:href="#m8180c0b624" x="54" y="181.8" style="stroke: #000000; stroke-width: 0.8"/>
      </g>
     </g>
     <g id="text_12">
      <!-- W100 -->
      <g transform="translate(18.025 185.599219) scale(0.1 -0.1)">
       <use xlink:href="#DejaVuSans-57"/>
       <use xlink:href="#DejaVuSans-31" x="98.876953"/>
       <use xlink:href="#DejaVuSans-30" x="162.5"/>
       <use xlink:href="#DejaVuSans-30" x="226.123047"/>
      </g>
     </g>
    </g>
    <g id="ytick_4">
     <g id="line2d_12">
      <g>
       <use xlink:href="#m8180c0b624" x="54" y="125.8" style="stroke: #000000; stroke-width: 0.8"/>
      </g>
     </g>
     <g id="text_13">
      <!-- Chromosome -->
      <g transform="translate(-19.40625 129.599219) scale(0.1 -0.1)">
       <defs>
        <path id="DejaVuSans-43" d="M 4122 4306 
L 4122 3641 
Q 3803 3938 3442 4084 
Q 3081 4231 2675 4231 
Q 1875 4231 1450 3742 
Q 1025 3253 1025 2328 
Q 1025 1406 1450 917 
Q 1875 428 2675 428 
Q 3081 428 3442 575 
Q 3803 722 4122 1019 
L 4122 359 
Q 3791 134 3420 21 
Q 3050 -91 2638 -91 
Q 1578 -91 968 557 
Q 359 1206 359 2328 
Q 359 3453 968 4101 
Q 1578 4750 2638 4750 
Q 3056 4750 3426 4639 
Q 3797 4528 4122 4306 
z
" transform="scale(0.015625)"/>
        <path id="DejaVuSans-68" d="M 3513 2113 
L 3513 0 
L 2938 0 
L 2938 2094 
Q 2938 2591 2744 2837 
Q 2550 3084 2163 3084 
Q 1697 3084 1428 2787 
Q 1159 2491 1159 1978 
L 1159 0 
L 581 0 
L 581 4863 
L 1159 4863 
L 1159 2956 
Q 1366 3272 1645 3428 
Q 1925 3584 2291 3584 
Q 2894 3584 3203 3211 
Q 3513 2838 3513 2113 
z
" transform="scale(0.015625)"/>
       </defs>
       <use xlink:href="#DejaVuSans-43"/>
       <use xlink:href="#DejaVuSans-68" x="69.824219"/>
       <use xlink:href="#DejaVuSans-72" x="133.203125"/>
       <use xlink:href="#DejaVuSans-6f" x="172.066406"/>
       <use xlink:href="#DejaVuSans-6d" x="233.248047"/>
       <use xlink:href="#DejaVuSans-6f" x="330.660156"/>
       <use xlink:href="#DejaVuSans-73" x="391.841797"/>
       <use xlink:href="#DejaVuSans-6f" x="443.941406"/>
       <use xlink:href="#DejaVuSans-6d" x="505.123047"/>
       <use xlink:href="#DejaVuSans-65" x="602.535156"/>
      </g>
     </g>
    </g>
    <g id="ytick_5">
     <g id="line2d_13">
      <g>
       <use xlink:href="#m8180c0b624" x="54" y="69.8" style="stroke: #000000; stroke-width: 0.8"/>
      </g>
     </g>
     <g id="text_14">
      <!-- Averaging-Up -->
      <g transform="translate(-20.651562 73.599219) scale(0.1 -0.1)">
       <defs>
        <path id="DejaVuSans-76" d="M 191 3500 
L 800 3500 
L 1894 563 
L 2988 3500 
L 3597 3500 
L 2284 0 
L 1503 0 
L 191 3500 
z
" transform="scale(0.015625)"/>
        <path id="DejaVuSans-67" d="M 2906 1791 
Q 2906 2416 2648 2759 
Q 2391 3103 1925 3103 
Q 1463 3103 1205 2759 
Q 947 2416 947 1791 
Q 947 1169 1205 825 
Q 1463 481 1925 481 
Q 2391 481 2648 825 
Q 2906 1169 2906 1791 
z
M 3481 434 
Q 3481 -459 3084 -895 
Q 2688 -1331 1869 -1331 
Q 1566 -1331 1297 -1286 
Q 1028 -1241 775 -1147 
L 775 -588 
Q 1028 -725 1275 -790 
Q 1522 -856 1778 -856 
Q 2344 -856 2625 -561 
Q 2906 -266 2906 331 
L 2906 616 
Q 2728 306 2450 153 
Q 2172 0 1784 0 
Q 1141 0 747 490 
Q 353 981 353 1791 
Q 353 2603 747 3093 
Q 1141 3584 1784 3584 
Q 2172 3584 2450 3431 
Q 2728 3278 2906 2969 
L 2906 3500 
L 3481 3500 
L 3481 434 
z
" transform="scale(0.015625)"/>
        <path id="DejaVuSans-2d" d="M 313 2009 
L 1997 2009 
L 1997 1497 
L 313 1497 
L 313 2009 
z
" transform="scale(0.015625)"/>
        <path id="DejaVuSans-55" d="M 556 4666 
L 1191 4666 
L 1191 1831 
Q 1191 1081 1462 751 
Q 1734 422 2344 422 
Q 2950 422 3222 751 
Q 3494 1081 3494 1831 
L 3494 4666 
L 4128 4666 
L 4128 1753 
Q 4128 841 3676 375 
Q 3225 -91 2344 -91 
Q 1459 -91 1007 375 
Q 556 841 556 1753 
L 556 4666 
z
" transform="scale(0.015625)"/>
        <path id="DejaVuSans-70" d="M 1159 525 
L 1159 -1331 
L 581 -1331 
L 581 3500 
L 1159 3500 
L 1159 2969 
Q 1341 3281 1617 3432 
Q 1894 3584 2278 3584 
Q 2916 3584 3314 3078 
Q 3713 2572 3713 1747 
Q 3713 922 3314 415 
Q 2916 -91 2278 -91 
Q 1894 -91 1617 61 
Q 1341 213 1159 525 
z
M 3116 1747 
Q 3116 2381 2855 2742 
Q 2594 3103 2138 3103 
Q 1681 3103 1420 2742 
Q 1159 2381 1159 1747 
Q 1159 1113 1420 752 
Q 1681 391 2138 391 
Q 2594 391 2855 752 
Q 3116 1113 3116 1747 
z
" transform="scale(0.015625)"/>
       </defs>
       <use xlink:href="#DejaVuSans-41"/>
       <use xlink:href="#DejaVuSans-76" x="62.533203"/>
       <use xlink:href="#DejaVuSans-65" x="121.712891"/>
       <use xlink:href="#DejaVuSans-72" x="183.236328"/>
       <use xlink:href="#DejaVuSans-61" x="224.349609"/>
       <use xlink:href="#DejaVuSans-67" x="285.628906"/>
       <use xlink:href="#DejaVuSans-69" x="349.105469"/>
       <use xlink:href="#DejaVuSans-6e" x="376.888672"/>
       <use xlink:href="#DejaVuSans-67" x="440.267578"/>
       <use xlink:href="#DejaVuSans-2d" x="503.744141"/>
       <use xlink:href="#DejaVuSans-55" x="539.828125"/>
       <use xlink:href="#DejaVuSans-70" x="613.021484"/>
      </g>
     </g>
    </g>
   </g>
   <g id="LineCollection_1">
    <path d="M 125.510725 300.8 
L 125.510725 286.8 
" clip-path="url(#p04568137fe)" style="fill: none; stroke: #1f77b4; stroke-width: 1.5"/>
    <path d="M 125.313904 244.8 
L 125.313904 230.8 
" clip-path="url(#p04568137fe)" style="fill: none; stroke: #1f77b4; stroke-width: 1.5"/>
    <path d="M 127.489227 188.8 
L 127.489227 174.8 
" clip-path="url(#p04568137fe)" style="fill: none; stroke: #1f77b4; stroke-width: 1.5"/>
    <path d="M 130.787709 132.8 
L 130.787709 118.8 
" clip-path="url(#p04568137fe)" style="fill: none; stroke: #1f77b4; stroke-width: 1.5"/>
    <path d="M 124.252861 76.8 
L 124.252861 62.8 
" clip-path="url(#p04568137fe)" style="fill: none; stroke: #1f77b4; stroke-width: 1.5"/>
   </g>
   <g id="LineCollection_2">
    <path d="M 323.542857 300.8 
L 323.542857 286.8 
" clip-path="url(#p04568137fe)" style="fill: none; stroke: #1f77b4; stroke-width: 1.5"/>
    <path d="M 323.542857 244.8 
L 323.542857 230.8 
" clip-path="url(#p04568137fe)" style="fill: none; stroke: #1f77b4; stroke-width: 1.5"/>
    <path d="M 332.49458 188.8 
L 332.49458 174.8 
" clip-path="url(#p04568137fe)" style="fill: none; stroke: #1f77b4; stroke-width: 1.5"/>
    <path d="M 373.581818 132.8 
L 373.581818 118.8 
" clip-path="url(#p04568137fe)" style="fill: none; stroke: #1f77b4; stroke-width: 1.5"/>
    <path d="M 329.813787 76.8 
L 329.813787 62.8 
" clip-path="url(#p04568137fe)" style="fill: none; stroke: #1f77b4; stroke-width: 1.5"/>
   </g>
   <g id="LineCollection_3">
    <path d="M 69.218182 300.8 
L 69.218182 286.8 
" clip-path="url(#p04568137fe)" style="fill: none; stroke: #1f77b4; stroke-width: 1.5"/>
    <path d="M 69.218182 244.8 
L 69.218182 230.8 
" clip-path="url(#p04568137fe)" style="fill: none; stroke: #1f77b4; stroke-width: 1.5"/>
    <path d="M 69.218182 188.8 
L 69.218182 174.8 
" clip-path="url(#p04568137fe)" style="fill: none; stroke: #1f77b4; stroke-width: 1.5"/>
    <path d="M 69.218182 132.8 
L 69.218182 118.8 
" clip-path="url(#p04568137fe)" style="fill: none; stroke: #1f77b4; stroke-width: 1.5"/>
    <path d="M 69.218182 76.8 
L 69.218182 62.8 
" clip-path="url(#p04568137fe)" style="fill: none; stroke: #1f77b4; stroke-width: 1.5"/>
   </g>
   <g id="LineCollection_4">
    <path d="M 69.218182 293.8 
L 323.542857 293.8 
" clip-path="url(#p04568137fe)" style="fill: none; stroke: #1f77b4; stroke-width: 1.5"/>
    <path d="M 69.218182 237.8 
L 323.542857 237.8 
" clip-path="url(#p04568137fe)" style="fill: none; stroke: #1f77b4; stroke-width: 1.5"/>
    <path d="M 69.218182 181.8 
L 332.49458 181.8 
" clip-path="url(#p04568137fe)" style="fill: none; stroke: #1f77b4; stroke-width: 1.5"/>
    <path d="M 69.218182 125.8 
L 373.581818 125.8 
" clip-path="url(#p04568137fe)" style="fill: none; stroke: #1f77b4; stroke-width: 1.5"/>
    <path d="M 69.218182 69.8 
L 329.813787 69.8 
" clip-path="url(#p04568137fe)" style="fill: none; stroke: #1f77b4; stroke-width: 1.5"/>
   </g>
   <g id="patch_3">
    <path d="M 54 320.4 
L 54 43.2 
" style="fill: none; stroke: #000000; stroke-width: 0.8; stroke-linejoin: miter; stroke-linecap: square"/>
   </g>
   <g id="patch_4">
    <path d="M 388.8 320.4 
L 388.8 43.2 
" style="fill: none; stroke: #000000; stroke-width: 0.8; stroke-linejoin: miter; stroke-linecap: square"/>
   </g>
   <g id="patch_5">
    <path d="M 54 320.4 
L 388.8 320.4 
" style="fill: none; stroke: #000000; stroke-width: 0.8; stroke-linejoin: miter; stroke-linecap: square"/>
   </g>
   <g id="patch_6">
    <path d="M 54 43.2 
L 388.8 43.2 
" style="fill: none; stroke: #000000; stroke-width: 0.8; stroke-linejoin: miter; stroke-linecap: square"/>
   </g>
  </g>
 </g>
 <defs>
  <clipPath id="p04568137fe">
   <rect x="54" y="43.2" width="334.8" height="277.2"/>
  </clipPath>
 </defs>
</svg>
