<?xml version="1.0" encoding="utf-8" standalone="no"?>
<!DOCTYPE svg PUBLIC "-//W3C//DTD SVG 1.1//EN"
  "http://www.w3.org/Graphics/SVG/1.1/DTD/svg11.dtd">
<svg xmlns:xlink="http://www.w3.org/1999/xlink" width="460.8pt" height="345.6pt" viewBox="0 0 460.8 345.6" xmlns="http://www.w3.org/2000/svg" version="1.1">
 <metadata>
  <rdf:RDF xmlns:dc="http://purl.org/dc/elements/1.1/" xmlns:cc="http://creativecommons.org/ns#" xmlns:rdf="http://www.w3.org/1999/02/22-rdf-syntax-ns#">
   <cc:Work>
    <dc:type rdf:resource="http://purl.org/dc/dcmitype/StillImage"/>
    <dc:date>2024-09-11T07:32:05.293995</dc:date>
    <dc:format>image/svg+xml</dc:format>
    <dc:creator>
     <cc:Agent>
      <dc:title>Matplotlib v3.9.2, https://matplotlib.org/</dc:title>
     </cc:Agent>
    </dc:creator>
   </cc:Work>
  </rdf:RDF>
 </metadata>
 <defs>
  <style type="text/css">*{stroke-linejoin: round; stroke-linecap: butt}</style>
 </defs>
 <g id="figure_1">
  <g id="patch_1">
   <path d="M 0 345.6 
L 460.8 345.6 
L 460.8 0 
L 0 0 
z
" style="fill: #ffffff"/>
  </g>
  <g id="axes_1">
   <g id="patch_2">
    <path d="M 57.6 307.584 
L 414.72 307.584 
L 414.72 41.472 
L 57.6 41.472 
z
" style="fill: #ffffff"/>
   </g>
   <g id="matplotlib.axis_1">
    <g id="xtick_1">
     <g id="line2d_1">
      <defs>
       <path id="mb753676045" d="M 0 0 
L 0 3.5 
" style="stroke: #000000; stroke-width: 0.8"/>
      </defs>
      <g>
       <use xlink:href="#mb753676045" x="73.832727" y="307.584" style="stroke: #000000; stroke-width: 0.8"/>
      </g>
     </g>
     <g id="text_1">
      <!-- 0.0 -->
      <g transform="translate(65.881165 322.182437) scale(0.1 -0.1)">
       <defs>
        <path id="DejaVuSans-30" d="M 2034 4250 
Q 1547 4250 1301 3770 
Q 1056 3291 1056 2328 
Q 1056 1369 1301 889 
Q 1547 409 2034 409 
Q 2525 409 2770 889 
Q 3016 1369 3016 2328 
Q 3016 3291 2770 3770 
Q 2525 4250 2034 4250 
z
M 2034 4750 
Q 2819 4750 3233 4129 
Q 3647 3509 3647 2328 
Q 3647 1150 3233 529 
Q 2819 -91 2034 -91 
Q 1250 -91 836 529 
Q 422 1150 422 2328 
Q 422 3509 836 4129 
Q 1250 4750 2034 4750 
z
" transform="scale(0.015625)"/>
        <path id="DejaVuSans-2e" d="M 684 794 
L 1344 794 
L 1344 0 
L 684 0 
L 684 794 
z
" transform="scale(0.015625)"/>
       </defs>
       <use xlink:href="#DejaVuSans-30"/>
       <use xlink:href="#DejaVuSans-2e" x="63.623047"/>
       <use xlink:href="#DejaVuSans-30" x="95.410156"/>
      </g>
     </g>
    </g>
    <g id="xtick_2">
     <g id="line2d_2">
      <g>
       <use xlink:href="#mb753676045" x="138.945286" y="307.584" style="stroke: #000000; stroke-width: 0.8"/>
      </g>
     </g>
     <g id="text_2">
      <!-- 0.2 -->
      <g transform="translate(130.993723 322.182437) scale(0.1 -0.1)">
       <defs>
        <path id="DejaVuSans-32" d="M 1228 531 
L 3431 531 
L 3431 0 
L 469 0 
L 469 531 
Q 828 903 1448 1529 
Q 2069 2156 2228 2338 
Q 2531 2678 2651 2914 
Q 2772 3150 2772 3378 
Q 2772 3750 2511 3984 
Q 2250 4219 1831 4219 
Q 1534 4219 1204 4116 
Q 875 4013 500 3803 
L 500 4441 
Q 881 4594 1212 4672 
Q 1544 4750 1819 4750 
Q 2544 4750 2975 4387 
Q 3406 4025 3406 3419 
Q 3406 3131 3298 2873 
Q 3191 2616 2906 2266 
Q 2828 2175 2409 1742 
Q 1991 1309 1228 531 
z
" transform="scale(0.015625)"/>
       </defs>
       <use xlink:href="#DejaVuSans-30"/>
       <use xlink:href="#DejaVuSans-2e" x="63.623047"/>
       <use xlink:href="#DejaVuSans-32" x="95.410156"/>
      </g>
     </g>
    </g>
    <g id="xtick_3">
     <g id="line2d_3">
      <g>
       <use xlink:href="#mb753676045" x="204.057844" y="307.584" style="stroke: #000000; stroke-width: 0.8"/>
      </g>
     </g>
     <g id="text_3">
      <!-- 0.4 -->
      <g transform="translate(196.106282 322.182437) scale(0.1 -0.1)">
       <defs>
        <path id="DejaVuSans-34" d="M 2419 4116 
L 825 1625 
L 2419 1625 
L 2419 4116 
z
M 2253 4666 
L 3047 4666 
L 3047 1625 
L 3713 1625 
L 3713 1100 
L 3047 1100 
L 3047 0 
L 2419 0 
L 2419 1100 
L 313 1100 
L 313 1709 
L 2253 4666 
z
" transform="scale(0.015625)"/>
       </defs>
       <use xlink:href="#DejaVuSans-30"/>
       <use xlink:href="#DejaVuSans-2e" x="63.623047"/>
       <use xlink:href="#DejaVuSans-34" x="95.410156"/>
      </g>
     </g>
    </g>
    <g id="xtick_4">
     <g id="line2d_4">
      <g>
       <use xlink:href="#mb753676045" x="269.170403" y="307.584" style="stroke: #000000; stroke-width: 0.8"/>
      </g>
     </g>
     <g id="text_4">
      <!-- 0.6 -->
      <g transform="translate(261.21884 322.182437) scale(0.1 -0.1)">
       <defs>
        <path id="DejaVuSans-36" d="M 2113 2584 
Q 1688 2584 1439 2293 
Q 1191 2003 1191 1497 
Q 1191 994 1439 701 
Q 1688 409 2113 409 
Q 2538 409 2786 701 
Q 3034 994 3034 1497 
Q 3034 2003 2786 2293 
Q 2538 2584 2113 2584 
z
M 3366 4563 
L 3366 3988 
Q 3128 4100 2886 4159 
Q 2644 4219 2406 4219 
Q 1781 4219 1451 3797 
Q 1122 3375 1075 2522 
Q 1259 2794 1537 2939 
Q 1816 3084 2150 3084 
Q 2853 3084 3261 2657 
Q 3669 2231 3669 1497 
Q 3669 778 3244 343 
Q 2819 -91 2113 -91 
Q 1303 -91 875 529 
Q 447 1150 447 2328 
Q 447 3434 972 4092 
Q 1497 4750 2381 4750 
Q 2619 4750 2861 4703 
Q 3103 4656 3366 4563 
z
" transform="scale(0.015625)"/>
       </defs>
       <use xlink:href="#DejaVuSans-30"/>
       <use xlink:href="#DejaVuSans-2e" x="63.623047"/>
       <use xlink:href="#DejaVuSans-36" x="95.410156"/>
      </g>
     </g>
    </g>
    <g id="xtick_5">
     <g id="line2d_5">
      <g>
       <use xlink:href="#mb753676045" x="334.282961" y="307.584" style="stroke: #000000; stroke-width: 0.8"/>
      </g>
     </g>
     <g id="text_5">
      <!-- 0.8 -->
      <g transform="translate(326.331399 322.182437) scale(0.1 -0.1)">
       <defs>
        <path id="DejaVuSans-38" d="M 2034 2216 
Q 1584 2216 1326 1975 
Q 1069 1734 1069 1313 
Q 1069 891 1326 650 
Q 1584 409 2034 409 
Q 2484 409 2743 651 
Q 3003 894 3003 1313 
Q 3003 1734 2745 1975 
Q 2488 2216 2034 2216 
z
M 1403 2484 
Q 997 2584 770 2862 
Q 544 3141 544 3541 
Q 544 4100 942 4425 
Q 1341 4750 2034 4750 
Q 2731 4750 3128 4425 
Q 3525 4100 3525 3541 
Q 3525 3141 3298 2862 
Q 3072 2584 2669 2484 
Q 3125 2378 3379 2068 
Q 3634 1759 3634 1313 
Q 3634 634 3220 271 
Q 2806 -91 2034 -91 
Q 1263 -91 848 271 
Q 434 634 434 1313 
Q 434 1759 690 2068 
Q 947 2378 1403 2484 
z
M 1172 3481 
Q 1172 3119 1398 2916 
Q 1625 2713 2034 2713 
Q 2441 2713 2670 2916 
Q 2900 3119 2900 3481 
Q 2900 3844 2670 4047 
Q 2441 4250 2034 4250 
Q 1625 4250 1398 4047 
Q 1172 3844 1172 3481 
z
" transform="scale(0.015625)"/>
       </defs>
       <use xlink:href="#DejaVuSans-30"/>
       <use xlink:href="#DejaVuSans-2e" x="63.623047"/>
       <use xlink:href="#DejaVuSans-38" x="95.410156"/>
      </g>
     </g>
    </g>
    <g id="xtick_6">
     <g id="line2d_6">
      <g>
       <use xlink:href="#mb753676045" x="399.395519" y="307.584" style="stroke: #000000; stroke-width: 0.8"/>
      </g>
     </g>
     <g id="text_6">
      <!-- 1.0 -->
      <g transform="translate(391.443957 322.182437) scale(0.1 -0.1)">
       <defs>
        <path id="DejaVuSans-31" d="M 794 531 
L 1825 531 
L 1825 4091 
L 703 3866 
L 703 4441 
L 1819 4666 
L 2450 4666 
L 2450 531 
L 3481 531 
L 3481 0 
L 794 0 
L 794 531 
z
" transform="scale(0.015625)"/>
       </defs>
       <use xlink:href="#DejaVuSans-31"/>
       <use xlink:href="#DejaVuSans-2e" x="63.623047"/>
       <use xlink:href="#DejaVuSans-30" x="95.410156"/>
      </g>
     </g>
    </g>
    <g id="text_7">
     <!-- Expected -->
     <g transform="translate(212.830312 335.860562) scale(0.1 -0.1)">
      <defs>
       <path id="DejaVuSans-45" d="M 628 4666 
L 3578 4666 
L 3578 4134 
L 1259 4134 
L 1259 2753 
L 3481 2753 
L 3481 2222 
L 1259 2222 
L 1259 531 
L 3634 531 
L 3634 0 
L 628 0 
L 628 4666 
z
" transform="scale(0.015625)"/>
       <path id="DejaVuSans-78" d="M 3513 3500 
L 2247 1797 
L 3578 0 
L 2900 0 
L 1881 1375 
L 863 0 
L 184 0 
L 1544 1831 
L 300 3500 
L 978 3500 
L 1906 2253 
L 2834 3500 
L 3513 3500 
z
" transform="scale(0.015625)"/>
       <path id="DejaVuSans-70" d="M 1159 525 
L 1159 -1331 
L 581 -1331 
L 581 3500 
L 1159 3500 
L 1159 2969 
Q 1341 3281 1617 3432 
Q 1894 3584 2278 3584 
Q 2916 3584 3314 3078 
Q 3713 2572 3713 1747 
Q 3713 922 3314 415 
Q 2916 -91 2278 -91 
Q 1894 -91 1617 61 
Q 1341 213 1159 525 
z
M 3116 1747 
Q 3116 2381 2855 2742 
Q 2594 3103 2138 3103 
Q 1681 3103 1420 2742 
Q 1159 2381 1159 1747 
Q 1159 1113 1420 752 
Q 1681 391 2138 391 
Q 2594 391 2855 752 
Q 3116 1113 3116 1747 
z
" transform="scale(0.015625)"/>
       <path id="DejaVuSans-65" d="M 3597 1894 
L 3597 1613 
L 953 1613 
Q 991 1019 1311 708 
Q 1631 397 2203 397 
Q 2534 397 2845 478 
Q 3156 559 3463 722 
L 3463 178 
Q 3153 47 2828 -22 
Q 2503 -91 2169 -91 
Q 1331 -91 842 396 
Q 353 884 353 1716 
Q 353 2575 817 3079 
Q 1281 3584 2069 3584 
Q 2775 3584 3186 3129 
Q 3597 2675 3597 1894 
z
M 3022 2063 
Q 3016 2534 2758 2815 
Q 2500 3097 2075 3097 
Q 1594 3097 1305 2825 
Q 1016 2553 972 2059 
L 3022 2063 
z
" transform="scale(0.015625)"/>
       <path id="DejaVuSans-63" d="M 3122 3366 
L 3122 2828 
Q 2878 2963 2633 3030 
Q 2388 3097 2138 3097 
Q 1578 3097 1268 2742 
Q 959 2388 959 1747 
Q 959 1106 1268 751 
Q 1578 397 2138 397 
Q 2388 397 2633 464 
Q 2878 531 3122 666 
L 3122 134 
Q 2881 22 2623 -34 
Q 2366 -91 2075 -91 
Q 1284 -91 818 406 
Q 353 903 353 1747 
Q 353 2603 823 3093 
Q 1294 3584 2113 3584 
Q 2378 3584 2631 3529 
Q 2884 3475 3122 3366 
z
" transform="scale(0.015625)"/>
       <path id="DejaVuSans-74" d="M 1172 4494 
L 1172 3500 
L 2356 3500 
L 2356 3053 
L 1172 3053 
L 1172 1153 
Q 1172 725 1289 603 
Q 1406 481 1766 481 
L 2356 481 
L 2356 0 
L 1766 0 
Q 1100 0 847 248 
Q 594 497 594 1153 
L 594 3053 
L 172 3053 
L 172 3500 
L 594 3500 
L 594 4494 
L 1172 4494 
z
" transform="scale(0.015625)"/>
       <path id="DejaVuSans-64" d="M 2906 2969 
L 2906 4863 
L 3481 4863 
L 3481 0 
L 2906 0 
L 2906 525 
Q 2725 213 2448 61 
Q 2172 -91 1784 -91 
Q 1150 -91 751 415 
Q 353 922 353 1747 
Q 353 2572 751 3078 
Q 1150 3584 1784 3584 
Q 2172 3584 2448 3432 
Q 2725 3281 2906 2969 
z
M 947 1747 
Q 947 1113 1208 752 
Q 1469 391 1925 391 
Q 2381 391 2643 752 
Q 2906 1113 2906 1747 
Q 2906 2381 2643 2742 
Q 2381 3103 1925 3103 
Q 1469 3103 1208 2742 
Q 947 2381 947 1747 
z
" transform="scale(0.015625)"/>
      </defs>
      <use xlink:href="#DejaVuSans-45"/>
      <use xlink:href="#DejaVuSans-78" x="63.183594"/>
      <use xlink:href="#DejaVuSans-70" x="122.363281"/>
      <use xlink:href="#DejaVuSans-65" x="185.839844"/>
      <use xlink:href="#DejaVuSans-63" x="247.363281"/>
      <use xlink:href="#DejaVuSans-74" x="302.34375"/>
      <use xlink:href="#DejaVuSans-65" x="341.552734"/>
      <use xlink:href="#DejaVuSans-64" x="403.076172"/>
     </g>
    </g>
   </g>
   <g id="matplotlib.axis_2">
    <g id="ytick_1">
     <g id="line2d_7">
      <defs>
       <path id="me9ace27a5b" d="M 0 0 
L -3.5 0 
" style="stroke: #000000; stroke-width: 0.8"/>
      </defs>
      <g>
       <use xlink:href="#me9ace27a5b" x="57.6" y="295.488" style="stroke: #000000; stroke-width: 0.8"/>
      </g>
     </g>
     <g id="text_8">
      <!-- 0.0 -->
      <g transform="translate(34.696875 299.287219) scale(0.1 -0.1)">
       <use xlink:href="#DejaVuSans-30"/>
       <use xlink:href="#DejaVuSans-2e" x="63.623047"/>
       <use xlink:href="#DejaVuSans-30" x="95.410156"/>
      </g>
     </g>
    </g>
    <g id="ytick_2">
     <g id="line2d_8">
      <g>
       <use xlink:href="#me9ace27a5b" x="57.6" y="247.055568" style="stroke: #000000; stroke-width: 0.8"/>
      </g>
     </g>
     <g id="text_9">
      <!-- 0.2 -->
      <g transform="translate(34.696875 250.854786) scale(0.1 -0.1)">
       <use xlink:href="#DejaVuSans-30"/>
       <use xlink:href="#DejaVuSans-2e" x="63.623047"/>
       <use xlink:href="#DejaVuSans-32" x="95.410156"/>
      </g>
     </g>
    </g>
    <g id="ytick_3">
     <g id="line2d_9">
      <g>
       <use xlink:href="#me9ace27a5b" x="57.6" y="198.623135" style="stroke: #000000; stroke-width: 0.8"/>
      </g>
     </g>
     <g id="text_10">
      <!-- 0.4 -->
      <g transform="translate(34.696875 202.422354) scale(0.1 -0.1)">
       <use xlink:href="#DejaVuSans-30"/>
       <use xlink:href="#DejaVuSans-2e" x="63.623047"/>
       <use xlink:href="#DejaVuSans-34" x="95.410156"/>
      </g>
     </g>
    </g>
    <g id="ytick_4">
     <g id="line2d_10">
      <g>
       <use xlink:href="#me9ace27a5b" x="57.6" y="150.190703" style="stroke: #000000; stroke-width: 0.8"/>
      </g>
     </g>
     <g id="text_11">
      <!-- 0.6 -->
      <g transform="translate(34.696875 153.989921) scale(0.1 -0.1)">
       <use xlink:href="#DejaVuSans-30"/>
       <use xlink:href="#DejaVuSans-2e" x="63.623047"/>
       <use xlink:href="#DejaVuSans-36" x="95.410156"/>
      </g>
     </g>
    </g>
    <g id="ytick_5">
     <g id="line2d_11">
      <g>
       <use xlink:href="#me9ace27a5b" x="57.6" y="101.75827" style="stroke: #000000; stroke-width: 0.8"/>
      </g>
     </g>
     <g id="text_12">
      <!-- 0.8 -->
      <g transform="translate(34.696875 105.557489) scale(0.1 -0.1)">
       <use xlink:href="#DejaVuSans-30"/>
       <use xlink:href="#DejaVuSans-2e" x="63.623047"/>
       <use xlink:href="#DejaVuSans-38" x="95.410156"/>
      </g>
     </g>
    </g>
    <g id="ytick_6">
     <g id="line2d_12">
      <g>
       <use xlink:href="#me9ace27a5b" x="57.6" y="53.325838" style="stroke: #000000; stroke-width: 0.8"/>
      </g>
     </g>
     <g id="text_13">
      <!-- 1.0 -->
      <g transform="translate(34.696875 57.125057) scale(0.1 -0.1)">
       <use xlink:href="#DejaVuSans-31"/>
       <use xlink:href="#DejaVuSans-2e" x="63.623047"/>
       <use xlink:href="#DejaVuSans-30" x="95.410156"/>
      </g>
     </g>
    </g>
    <g id="text_14">
     <!-- Observed -->
     <g transform="translate(28.617187 198.585031) rotate(-90) scale(0.1 -0.1)">
      <defs>
       <path id="DejaVuSans-4f" d="M 2522 4238 
Q 1834 4238 1429 3725 
Q 1025 3213 1025 2328 
Q 1025 1447 1429 934 
Q 1834 422 2522 422 
Q 3209 422 3611 934 
Q 4013 1447 4013 2328 
Q 4013 3213 3611 3725 
Q 3209 4238 2522 4238 
z
M 2522 4750 
Q 3503 4750 4090 4092 
Q 4678 3434 4678 2328 
Q 4678 1225 4090 567 
Q 3503 -91 2522 -91 
Q 1538 -91 948 565 
Q 359 1222 359 2328 
Q 359 3434 948 4092 
Q 1538 4750 2522 4750 
z
" transform="scale(0.015625)"/>
       <path id="DejaVuSans-62" d="M 3116 1747 
Q 3116 2381 2855 2742 
Q 2594 3103 2138 3103 
Q 1681 3103 1420 2742 
Q 1159 2381 1159 1747 
Q 1159 1113 1420 752 
Q 1681 391 2138 391 
Q 2594 391 2855 752 
Q 3116 1113 3116 1747 
z
M 1159 2969 
Q 1341 3281 1617 3432 
Q 1894 3584 2278 3584 
Q 2916 3584 3314 3078 
Q 3713 2572 3713 1747 
Q 3713 922 3314 415 
Q 2916 -91 2278 -91 
Q 1894 -91 1617 61 
Q 1341 213 1159 525 
L 1159 0 
L 581 0 
L 581 4863 
L 1159 4863 
L 1159 2969 
z
" transform="scale(0.015625)"/>
       <path id="DejaVuSans-73" d="M 2834 3397 
L 2834 2853 
Q 2591 2978 2328 3040 
Q 2066 3103 1784 3103 
Q 1356 3103 1142 2972 
Q 928 2841 928 2578 
Q 928 2378 1081 2264 
Q 1234 2150 1697 2047 
L 1894 2003 
Q 2506 1872 2764 1633 
Q 3022 1394 3022 966 
Q 3022 478 2636 193 
Q 2250 -91 1575 -91 
Q 1294 -91 989 -36 
Q 684 19 347 128 
L 347 722 
Q 666 556 975 473 
Q 1284 391 1588 391 
Q 1994 391 2212 530 
Q 2431 669 2431 922 
Q 2431 1156 2273 1281 
Q 2116 1406 1581 1522 
L 1381 1569 
Q 847 1681 609 1914 
Q 372 2147 372 2553 
Q 372 3047 722 3315 
Q 1072 3584 1716 3584 
Q 2034 3584 2315 3537 
Q 2597 3491 2834 3397 
z
" transform="scale(0.015625)"/>
       <path id="DejaVuSans-72" d="M 2631 2963 
Q 2534 3019 2420 3045 
Q 2306 3072 2169 3072 
Q 1681 3072 1420 2755 
Q 1159 2438 1159 1844 
L 1159 0 
L 581 0 
L 581 3500 
L 1159 3500 
L 1159 2956 
Q 1341 3275 1631 3429 
Q 1922 3584 2338 3584 
Q 2397 3584 2469 3576 
Q 2541 3569 2628 3553 
L 2631 2963 
z
" transform="scale(0.015625)"/>
       <path id="DejaVuSans-76" d="M 191 3500 
L 800 3500 
L 1894 563 
L 2988 3500 
L 3597 3500 
L 2284 0 
L 1503 0 
L 191 3500 
z
" transform="scale(0.015625)"/>
      </defs>
      <use xlink:href="#DejaVuSans-4f"/>
      <use xlink:href="#DejaVuSans-62" x="78.710938"/>
      <use xlink:href="#DejaVuSans-73" x="142.1875"/>
      <use xlink:href="#DejaVuSans-65" x="194.287109"/>
      <use xlink:href="#DejaVuSans-72" x="255.810547"/>
      <use xlink:href="#DejaVuSans-76" x="296.923828"/>
      <use xlink:href="#DejaVuSans-65" x="356.103516"/>
      <use xlink:href="#DejaVuSans-64" x="417.626953"/>
     </g>
    </g>
   </g>
   <g id="line2d_13">
    <path d="M 73.832727 295.488 
L 398.487273 54.001416 
L 398.487273 54.001416 
" clip-path="url(#pf8775084ee)" style="fill: none; stroke-dasharray: 5.55,2.4; stroke-dashoffset: 0; stroke: #808080; stroke-width: 1.5"/>
   </g>
   <g id="line2d_14">
    <path d="M 73.832727 295.488 
L 76.430299 294.035027 
L 79.027611 292.824216 
L 81.624404 292.09773 
L 84.220418 291.129081 
L 86.815394 290.644757 
L 89.409072 289.191784 
L 94.591504 286.770162 
L 102.348976 283.864216 
L 104.92946 283.622054 
L 107.50685 282.411243 
L 110.080892 282.411243 
L 112.651332 281.200432 
L 115.21792 280.95827 
L 117.780404 279.989622 
L 120.338536 278.052324 
L 133.055279 273.209081 
L 135.582139 273.209081 
L 138.102941 272.724757 
L 145.626647 269.092324 
L 148.12087 268.850162 
L 150.607871 267.639351 
L 153.087422 266.186378 
L 158.023278 264.249081 
L 162.926665 263.280432 
L 165.36564 262.069622 
L 167.79585 261.585297 
L 170.217085 260.132324 
L 172.629136 259.648 
L 175.0318 258.437189 
L 177.424871 257.710703 
L 179.808152 257.226378 
L 182.181444 256.984216 
L 184.544552 255.773405 
L 186.897286 254.804757 
L 189.239456 254.320432 
L 191.570878 253.351784 
L 193.891367 252.625297 
L 196.200745 251.172324 
L 198.498834 250.203676 
L 203.060458 249.719351 
L 205.323655 248.750703 
L 207.574888 247.29773 
L 209.813998 246.813405 
L 212.040827 246.086919 
L 214.25522 245.11827 
L 216.457028 243.907459 
L 218.646101 243.423135 
L 220.822298 242.454486 
L 227.272234 241.001514 
L 229.39555 239.306378 
L 233.601421 238.822054 
L 235.683733 237.369081 
L 239.806531 236.400432 
L 241.846795 234.947459 
L 243.872827 233.978811 
L 245.884525 233.252324 
L 247.881792 232.768 
L 249.864531 231.557189 
L 253.786068 231.072865 
L 255.724694 230.104216 
L 257.64845 228.893405 
L 259.55726 227.924757 
L 261.451049 226.713946 
L 263.329749 225.745297 
L 265.193293 225.745297 
L 267.041618 224.292324 
L 268.874666 223.808 
L 270.692381 222.597189 
L 274.281607 220.659892 
L 276.053025 219.206919 
L 277.808923 218.480432 
L 279.549263 217.996108 
L 282.983134 216.543135 
L 284.676605 215.574486 
L 286.354401 214.848 
L 288.016499 214.605838 
L 289.662883 213.637189 
L 291.293536 212.184216 
L 294.507614 210.731243 
L 296.091025 210.246919 
L 297.65868 209.520432 
L 299.210583 209.036108 
L 300.746736 208.067459 
L 302.267148 206.856649 
L 303.771831 205.888 
L 305.260796 204.435027 
L 309.633578 200.802595 
L 312.470571 199.833946 
L 315.245278 197.896649 
L 316.609361 197.412324 
L 317.957982 195.717189 
L 319.291183 194.264216 
L 321.911505 192.326919 
L 323.198723 190.873946 
L 324.470713 190.147459 
L 325.727531 189.663135 
L 326.969234 189.420973 
L 328.195879 189.420973 
L 329.40753 188.936649 
L 330.604249 188.210162 
L 331.786102 186.999351 
L 332.953157 186.757189 
L 334.105485 185.546378 
L 335.243157 184.57773 
L 336.366247 184.093405 
L 337.474832 182.39827 
L 338.568989 181.671784 
L 339.648799 180.460973 
L 340.714342 180.218811 
L 341.765702 179.250162 
L 342.802964 178.523676 
L 344.835543 177.555027 
L 345.831039 176.102054 
L 346.812793 175.133405 
L 347.780898 174.406919 
L 348.735448 172.953946 
L 349.67654 172.953946 
L 350.604271 172.711784 
L 351.518737 171.985297 
L 352.42004 170.774486 
L 353.30828 170.532324 
L 354.183558 169.805838 
L 355.895642 167.384216 
L 356.732656 165.689081 
L 359.168866 162.298811 
L 359.956349 161.330162 
L 360.731721 161.088 
L 362.246569 159.635027 
L 362.986268 158.424216 
L 363.714299 158.182054 
L 364.430774 156.971243 
L 365.135806 156.486919 
L 365.829508 155.033946 
L 366.511995 154.307459 
L 367.183381 152.612324 
L 368.493306 152.128 
L 369.760204 149.464216 
L 370.377807 149.222054 
L 370.984998 148.253405 
L 371.581895 146.55827 
L 372.168614 146.073946 
L 373.311978 145.589622 
L 373.868855 144.863135 
L 374.416017 144.378811 
L 374.95358 144.378811 
L 375.481659 143.894486 
L 376.000369 142.441514 
L 377.010146 140.746378 
L 377.501442 140.262054 
L 377.983829 140.019892 
L 378.457421 139.535568 
L 378.922332 139.293405 
L 379.378676 138.082595 
L 379.826566 136.145297 
L 380.266114 135.418811 
L 380.697433 135.418811 
L 381.120634 135.176649 
L 381.943128 132.997189 
L 382.342641 131.302054 
L 383.11875 129.606919 
L 383.865025 128.63827 
L 384.930378 126.700973 
L 385.271503 125.490162 
L 385.933392 124.037189 
L 386.568821 121.85773 
L 387.474126 121.131243 
L 387.763538 120.162595 
L 388.046936 119.67827 
L 388.324416 119.436108 
L 388.596076 117.983135 
L 388.862011 117.740973 
L 389.626407 116.288 
L 390.109089 113.382054 
L 390.342629 113.382054 
L 390.571087 113.139892 
L 391.01311 111.929081 
L 391.435853 109.507459 
L 391.640207 109.023135 
L 392.226198 106.359351 
L 392.412777 106.117189 
L 392.947374 104.179892 
L 393.283595 104.179892 
L 393.445881 103.695568 
L 394.34262 98.610162 
L 394.613893 98.125838 
L 394.744653 97.399351 
L 394.872247 97.399351 
L 394.996741 97.157189 
L 395.786576 93.040432 
L 396.084594 91.345297 
L 396.447802 88.197189 
L 396.615706 87.712865 
L 397.33359 80.448 
L 397.926791 72.698811 
L 397.972184 72.698811 
L 398.180641 71.003676 
L 398.487273 66.644757 
L 398.487273 66.644757 
" clip-path="url(#pf8775084ee)" style="fill: none; stroke: #1f77b4; stroke-width: 1.5; stroke-linecap: square"/>
   </g>
   <g id="line2d_15">
    <path d="M 73.832727 295.488 
L 76.430299 293.550703 
L 79.027611 292.582054 
L 81.624404 291.855568 
L 84.220418 290.160432 
L 86.815394 287.738811 
L 89.409072 286.528 
L 92.001195 283.864216 
L 94.591504 282.411243 
L 97.179742 281.200432 
L 99.765651 279.505297 
L 102.348976 278.778811 
L 104.92946 277.325838 
L 107.50685 276.357189 
L 110.080892 275.146378 
L 112.651332 273.451243 
L 115.21792 271.99827 
L 120.338536 268.608 
L 122.892067 265.21773 
L 125.440752 263.522595 
L 127.984344 262.311784 
L 130.5226 260.374486 
L 138.102941 255.289081 
L 140.61745 254.07827 
L 143.125429 251.172324 
L 145.626647 249.477189 
L 148.12087 248.266378 
L 150.607871 247.539892 
L 155.559299 244.633946 
L 158.023278 243.907459 
L 160.479139 242.454486 
L 162.926665 240.517189 
L 165.36564 238.095568 
L 167.79585 237.369081 
L 170.217085 236.400432 
L 172.629136 235.189622 
L 175.0318 232.525838 
L 177.424871 231.072865 
L 179.808152 228.893405 
L 182.181444 226.956108 
L 184.544552 225.987459 
L 186.897286 224.292324 
L 189.239456 223.081514 
L 191.570878 222.112865 
L 193.891367 220.659892 
L 196.200745 219.933405 
L 198.498834 217.753946 
L 200.785462 217.269622 
L 203.060458 216.300973 
L 205.323655 215.574486 
L 207.574888 215.090162 
L 209.813998 213.395027 
L 212.040827 212.426378 
L 216.457028 209.520432 
L 220.822298 205.161514 
L 222.985476 203.224216 
L 225.1355 202.255568 
L 227.272234 200.560432 
L 231.50532 197.654486 
L 233.601421 195.717189 
L 235.683733 194.264216 
L 237.752141 192.326919 
L 239.806531 190.147459 
L 243.872827 188.694486 
L 245.884525 186.999351 
L 247.881792 186.272865 
L 249.864531 185.304216 
L 251.832652 183.366919 
L 253.786068 181.671784 
L 255.724694 180.703135 
L 257.64845 178.765838 
L 259.55726 177.070703 
L 263.329749 172.711784 
L 265.193293 171.985297 
L 267.041618 169.563676 
L 268.874666 168.110703 
L 270.692381 166.415568 
L 272.49471 165.204757 
L 274.281607 162.540973 
L 276.053025 160.845838 
L 279.549263 157.939892 
L 282.983134 154.549622 
L 284.676605 153.580973 
L 286.354401 152.370162 
L 289.662883 148.495568 
L 291.293536 147.526919 
L 292.908449 146.316108 
L 294.507614 144.863135 
L 297.65868 140.988541 
L 299.210583 138.809081 
L 300.746736 136.871784 
L 302.267148 134.692324 
L 303.771831 133.481514 
L 305.260796 131.786378 
L 306.734063 130.81773 
L 308.191649 129.606919 
L 309.633578 127.911784 
L 311.059876 127.185297 
L 313.865694 124.279351 
L 316.609361 120.889081 
L 319.291183 118.467459 
L 320.609008 117.740973 
L 321.911505 116.530162 
L 323.198723 115.077189 
L 324.470713 113.139892 
L 325.727531 112.413405 
L 326.969234 110.71827 
L 328.195879 109.991784 
L 329.40753 109.023135 
L 330.604249 108.538811 
L 331.786102 107.085838 
L 332.953157 106.117189 
L 335.243157 103.695568 
L 336.366247 102.726919 
L 337.474832 102.000432 
L 338.568989 100.063135 
L 339.648799 99.094486 
L 340.714342 97.883676 
L 343.826215 94.97773 
L 346.812793 92.79827 
L 347.780898 92.556108 
L 348.735448 91.587459 
L 349.67654 90.134486 
L 350.604271 88.439351 
L 351.518737 87.228541 
L 352.42004 86.259892 
L 353.30828 83.83827 
L 354.183558 83.353946 
L 355.045977 82.627459 
L 355.895642 80.690162 
L 356.732656 79.721514 
L 357.557127 79.237189 
L 358.369161 78.995027 
L 359.168866 78.510703 
L 359.956349 77.299892 
L 361.495091 74.636108 
L 362.246569 73.667459 
L 362.986268 73.183135 
L 363.714299 71.730162 
L 364.430774 71.003676 
L 365.135806 70.035027 
L 365.829508 68.824216 
L 366.511995 68.09773 
L 367.183381 67.129081 
L 367.84378 66.886919 
L 368.493306 66.402595 
L 369.132076 66.160432 
L 369.760204 65.191784 
L 370.377807 64.465297 
L 370.984998 64.465297 
L 372.168614 63.980973 
L 372.745269 63.980973 
L 373.311978 63.012324 
L 373.868855 62.770162 
L 374.416017 62.285838 
L 374.95358 61.559351 
L 376.000369 61.559351 
L 376.509827 61.075027 
L 378.457421 60.106378 
L 380.266114 60.106378 
L 381.120634 59.622054 
L 381.535829 59.622054 
L 382.342641 59.13773 
L 382.734479 59.13773 
L 383.11875 58.653405 
L 383.865025 58.653405 
L 384.227244 58.169081 
L 384.582327 58.169081 
L 384.930378 57.684757 
L 385.271503 57.442595 
L 385.605806 56.95827 
L 386.568821 56.95827 
L 386.876867 56.473946 
L 387.474126 56.473946 
L 387.763538 56.231784 
L 389.122316 56.231784 
L 389.377083 55.989622 
L 390.109089 55.989622 
L 390.794552 55.263135 
L 391.640207 55.263135 
L 392.035297 54.778811 
L 392.412777 54.778811 
L 392.595114 54.536649 
L 392.773287 54.536649 
L 392.947374 54.294486 
L 394.479905 54.294486 
L 394.613893 54.052324 
L 397.205029 54.052324 
L 397.33359 53.810162 
L 398.100837 53.810162 
L 398.218842 53.568 
L 398.487273 53.568 
L 398.487273 53.568 
" clip-path="url(#pf8775084ee)" style="fill: none; stroke: #ff7f0e; stroke-width: 1.5; stroke-linecap: square"/>
   </g>
   <g id="line2d_16">
    <path d="M 73.832727 295.488 
L 76.430299 294.519351 
L 79.027611 292.339892 
L 81.624404 291.371243 
L 84.220418 288.949622 
L 86.815394 287.496649 
L 89.409072 286.285838 
L 92.001195 284.106378 
L 94.591504 282.411243 
L 97.179742 280.95827 
L 99.765651 279.263135 
L 102.348976 277.083676 
L 104.92946 275.146378 
L 110.080892 273.693405 
L 112.651332 272.724757 
L 115.21792 271.271784 
L 117.780404 268.123676 
L 120.338536 266.912865 
L 122.892067 264.975568 
L 125.440752 263.522595 
L 127.984344 262.553946 
L 130.5226 259.648 
L 138.102941 256.742054 
L 140.61745 255.531243 
L 143.125429 252.383135 
L 145.626647 251.656649 
L 148.12087 249.235027 
L 150.607871 248.508541 
L 153.087422 247.539892 
L 155.559299 246.329081 
L 158.023278 244.876108 
L 160.479139 243.180973 
L 162.926665 241.243676 
L 165.36564 239.790703 
L 167.79585 237.611243 
L 170.217085 236.400432 
L 172.629136 235.673946 
L 175.0318 233.736649 
L 179.808152 230.346378 
L 182.181444 228.166919 
L 184.544552 227.682595 
L 186.897286 226.471784 
L 189.239456 225.018811 
L 191.570878 224.050162 
L 193.891367 222.355027 
L 196.200745 221.386378 
L 198.498834 219.206919 
L 205.323655 217.027459 
L 207.574888 215.332324 
L 212.040827 212.910703 
L 214.25522 211.45773 
L 216.457028 209.762595 
L 218.646101 208.309622 
L 220.822298 206.130162 
L 222.985476 204.677189 
L 225.1355 204.192865 
L 227.272234 201.771243 
L 229.39555 201.044757 
L 231.50532 200.076108 
L 233.601421 198.623135 
L 235.683733 195.959351 
L 237.752141 194.506378 
L 239.806531 192.326919 
L 241.846795 191.842595 
L 243.872827 191.116108 
L 245.884525 188.936649 
L 247.881792 188.452324 
L 249.864531 186.999351 
L 251.832652 185.304216 
L 257.64845 182.39827 
L 259.55726 181.187459 
L 263.329749 175.375568 
L 265.193293 174.406919 
L 267.041618 173.196108 
L 268.874666 171.500973 
L 270.692381 170.532324 
L 272.49471 169.079351 
L 274.281607 167.384216 
L 276.053025 165.204757 
L 277.808923 163.751784 
L 279.549263 162.540973 
L 281.27401 160.119351 
L 282.983134 159.150703 
L 286.354401 156.729081 
L 288.016499 154.065297 
L 289.662883 152.128 
L 291.293536 150.432865 
L 292.908449 149.464216 
L 294.507614 148.011243 
L 296.091025 146.800432 
L 297.65868 145.831784 
L 299.210583 142.925838 
L 300.746736 141.715027 
L 302.267148 138.809081 
L 303.771831 137.356108 
L 305.260796 136.629622 
L 306.734063 135.176649 
L 308.191649 134.208 
L 309.633578 132.270703 
L 311.059876 130.091243 
L 312.470571 129.122595 
L 315.245278 126.216649 
L 316.609361 124.521514 
L 317.957982 123.552865 
L 319.291183 122.826378 
L 320.609008 121.85773 
L 321.911505 120.646919 
L 323.198723 117.983135 
L 324.470713 116.530162 
L 325.727531 115.803676 
L 326.969234 115.319351 
L 328.195879 115.319351 
L 329.40753 114.108541 
L 332.953157 109.265297 
L 335.243157 108.296649 
L 336.366247 107.328 
L 338.568989 103.695568 
L 339.648799 102.969081 
L 340.714342 102.000432 
L 342.802964 99.578811 
L 343.826215 98.852324 
L 344.835543 96.672865 
L 345.831039 96.430703 
L 346.812793 95.946378 
L 347.780898 94.735568 
L 348.735448 93.766919 
L 349.67654 91.829622 
L 350.604271 90.618811 
L 352.42004 89.650162 
L 354.183558 87.228541 
L 355.045977 86.502054 
L 355.895642 84.322595 
L 356.732656 82.627459 
L 357.557127 81.900973 
L 358.369161 80.932324 
L 359.168866 80.932324 
L 359.956349 80.205838 
L 360.731721 77.784216 
L 361.495091 77.299892 
L 362.246569 76.089081 
L 363.714299 74.151784 
L 364.430774 72.940973 
L 365.829508 71.003676 
L 366.511995 69.550703 
L 367.84378 69.066378 
L 368.493306 68.582054 
L 369.132076 68.582054 
L 369.760204 67.613405 
L 370.377807 67.371243 
L 371.581895 66.402595 
L 372.168614 65.676108 
L 372.745269 65.676108 
L 373.311978 64.465297 
L 373.868855 63.738811 
L 375.481659 63.012324 
L 376.000369 63.012324 
L 376.509827 62.285838 
L 377.501442 61.801514 
L 377.983829 61.317189 
L 378.922332 60.832865 
L 380.266114 60.832865 
L 380.697433 60.348541 
L 381.120634 60.106378 
L 381.535829 60.106378 
L 381.943128 59.622054 
L 383.11875 58.895568 
L 383.495563 58.895568 
L 383.865025 58.411243 
L 384.227244 58.169081 
L 384.582327 58.169081 
L 385.271503 57.684757 
L 385.605806 57.200432 
L 386.568821 57.200432 
L 386.876867 56.473946 
L 387.178602 56.231784 
L 387.474126 56.231784 
L 387.763538 55.989622 
L 390.109089 55.989622 
L 390.342629 55.747459 
L 391.01311 55.747459 
L 391.226849 55.505297 
L 391.640207 55.505297 
L 392.035297 55.020973 
L 392.595114 55.020973 
L 392.773287 54.778811 
L 393.604381 54.778811 
L 393.759169 54.536649 
L 394.479905 54.536649 
L 394.613893 54.294486 
L 395.888462 54.294486 
L 396.084594 54.052324 
L 397.205029 54.052324 
L 397.33359 53.810162 
L 398.100837 53.810162 
L 398.218842 53.568 
L 398.487273 53.568 
L 398.487273 53.568 
" clip-path="url(#pf8775084ee)" style="fill: none; stroke: #2ca02c; stroke-width: 1.5; stroke-linecap: square"/>
   </g>
   <g id="line2d_17">
    <path d="M 73.832727 295.488 
L 76.430299 294.519351 
L 79.027611 293.308541 
L 84.220418 291.371243 
L 86.815394 289.191784 
L 89.409072 287.738811 
L 92.001195 285.801514 
L 94.591504 285.317189 
L 97.179742 284.348541 
L 99.765651 283.13773 
L 102.348976 281.442595 
L 104.92946 280.231784 
L 107.50685 278.778811 
L 110.080892 276.357189 
L 112.651332 274.662054 
L 115.21792 273.693405 
L 117.780404 273.209081 
L 120.338536 271.271784 
L 122.892067 270.787459 
L 125.440752 269.334486 
L 127.984344 268.123676 
L 130.5226 267.397189 
L 133.055279 266.428541 
L 135.582139 266.186378 
L 138.102941 264.491243 
L 143.125429 262.553946 
L 145.626647 260.374486 
L 148.12087 258.679351 
L 153.087422 256.25773 
L 155.559299 255.773405 
L 158.023278 254.804757 
L 160.479139 254.07827 
L 162.926665 252.867459 
L 165.36564 251.172324 
L 167.79585 250.445838 
L 170.217085 248.992865 
L 175.0318 246.571243 
L 179.808152 244.633946 
L 182.181444 243.423135 
L 184.544552 243.180973 
L 186.897286 241.243676 
L 189.239456 240.275027 
L 193.891367 239.306378 
L 196.200745 238.095568 
L 198.498834 237.369081 
L 200.785462 236.15827 
L 203.060458 235.916108 
L 205.323655 235.431784 
L 207.574888 234.463135 
L 212.040827 233.010162 
L 214.25522 231.557189 
L 216.457028 231.315027 
L 218.646101 230.104216 
L 220.822298 228.166919 
L 222.985476 226.713946 
L 225.1355 225.018811 
L 227.272234 223.565838 
L 229.39555 222.355027 
L 231.50532 220.902054 
L 235.683733 217.511784 
L 237.752141 216.058811 
L 239.806531 214.121514 
L 241.846795 212.910703 
L 243.872827 212.426378 
L 245.884525 210.973405 
L 249.864531 207.583135 
L 253.786068 205.645838 
L 255.724694 204.435027 
L 259.55726 200.560432 
L 261.451049 200.076108 
L 265.193293 196.685838 
L 267.041618 194.022054 
L 268.874666 193.295568 
L 270.692381 192.084757 
L 272.49471 191.600432 
L 276.053025 188.694486 
L 277.808923 188.210162 
L 279.549263 186.999351 
L 281.27401 186.757189 
L 282.983134 185.546378 
L 284.676605 184.093405 
L 286.354401 182.156108 
L 288.016499 179.250162 
L 289.662883 178.039351 
L 291.293536 176.344216 
L 292.908449 175.133405 
L 294.507614 174.164757 
L 296.091025 173.43827 
L 297.65868 171.743135 
L 299.210583 170.290162 
L 300.746736 168.352865 
L 302.267148 168.110703 
L 303.771831 166.899892 
L 305.260796 164.962595 
L 308.191649 163.025297 
L 311.059876 160.603676 
L 312.470571 159.635027 
L 313.865694 158.908541 
L 315.245278 156.971243 
L 316.609361 156.002595 
L 317.957982 155.276108 
L 319.291183 154.307459 
L 320.609008 153.823135 
L 321.911505 152.370162 
L 323.198723 151.159351 
L 324.470713 149.706378 
L 325.727531 147.042595 
L 326.969234 146.316108 
L 328.195879 144.863135 
L 329.40753 143.894486 
L 330.604249 143.652324 
L 331.786102 143.168 
L 336.366247 136.387459 
L 337.474832 135.176649 
L 338.568989 134.692324 
L 339.648799 133.965838 
L 340.714342 132.028541 
L 341.765702 131.059892 
L 342.802964 130.81773 
L 343.826215 129.849081 
L 344.835543 128.63827 
L 345.831039 128.396108 
L 346.812793 127.185297 
L 347.780898 126.458811 
L 348.735448 124.521514 
L 349.67654 123.552865 
L 350.604271 122.099892 
L 351.518737 121.131243 
L 352.42004 119.920432 
L 353.30828 118.951784 
L 354.183558 118.225297 
L 355.045977 117.014486 
L 355.895642 115.561514 
L 356.732656 114.350703 
L 357.557127 113.382054 
L 358.369161 111.929081 
L 359.168866 110.960432 
L 359.956349 109.749622 
L 360.731721 108.780973 
L 361.495091 108.538811 
L 362.246569 107.328 
L 364.430774 105.148541 
L 365.135806 103.453405 
L 365.829508 102.726919 
L 366.511995 102.242595 
L 367.183381 101.273946 
L 367.84378 100.547459 
L 368.493306 99.578811 
L 369.132076 99.094486 
L 370.377807 96.672865 
L 370.984998 94.97773 
L 371.581895 93.766919 
L 372.168614 93.766919 
L 372.745269 93.040432 
L 373.311978 91.345297 
L 373.868855 90.376649 
L 374.416017 89.650162 
L 374.95358 88.439351 
L 376.000369 87.470703 
L 376.509827 86.744216 
L 377.010146 85.533405 
L 377.983829 84.080432 
L 378.457421 83.111784 
L 378.922332 81.900973 
L 379.378676 81.416649 
L 379.826566 81.416649 
L 380.697433 80.448 
L 381.120634 79.721514 
L 381.535829 79.237189 
L 381.943128 78.268541 
L 382.342641 77.784216 
L 382.734479 77.05773 
L 383.11875 75.846919 
L 383.495563 75.362595 
L 384.227244 72.940973 
L 384.930378 71.488 
L 385.605806 71.003676 
L 385.933392 69.550703 
L 386.568821 69.550703 
L 386.876867 68.582054 
L 387.178602 68.582054 
L 387.763538 67.129081 
L 388.046936 66.886919 
L 388.862011 64.707459 
L 389.122316 64.465297 
L 389.870379 63.254486 
L 390.109089 63.012324 
L 390.342629 62.528 
L 390.571087 62.528 
L 391.01311 61.801514 
L 391.226849 61.559351 
L 392.035297 59.864216 
L 392.226198 59.622054 
L 392.412777 59.622054 
L 392.595114 59.379892 
L 392.773287 59.379892 
L 393.445881 57.684757 
L 393.604381 57.684757 
L 393.759169 57.200432 
L 394.201972 57.200432 
L 394.872247 55.263135 
L 395.118198 55.020973 
L 395.888462 55.020973 
L 396.084594 54.778811 
L 396.2709 54.778811 
L 396.447802 54.294486 
L 397.513722 54.294486 
L 397.731809 53.810162 
L 398.100837 53.810162 
L 398.218842 53.568 
L 398.487273 53.568 
L 398.487273 53.568 
" clip-path="url(#pf8775084ee)" style="fill: none; stroke: #d62728; stroke-width: 1.5; stroke-linecap: square"/>
   </g>
   <g id="patch_3">
    <path d="M 57.6 307.584 
L 57.6 41.472 
" style="fill: none; stroke: #000000; stroke-width: 0.8; stroke-linejoin: miter; stroke-linecap: square"/>
   </g>
   <g id="patch_4">
    <path d="M 414.72 307.584 
L 414.72 41.472 
" style="fill: none; stroke: #000000; stroke-width: 0.8; stroke-linejoin: miter; stroke-linecap: square"/>
   </g>
   <g id="patch_5">
    <path d="M 57.6 307.584 
L 414.72 307.584 
" style="fill: none; stroke: #000000; stroke-width: 0.8; stroke-linejoin: miter; stroke-linecap: square"/>
   </g>
   <g id="patch_6">
    <path d="M 57.6 41.472 
L 414.72 41.472 
" style="fill: none; stroke: #000000; stroke-width: 0.8; stroke-linejoin: miter; stroke-linecap: square"/>
   </g>
   <g id="legend_1">
    <g id="patch_7">
     <path d="M 64.6 109.018875 
L 130.575 109.018875 
Q 132.575 109.018875 132.575 107.018875 
L 132.575 48.472 
Q 132.575 46.472 130.575 46.472 
L 64.6 46.472 
Q 62.6 46.472 62.6 48.472 
L 62.6 107.018875 
Q 62.6 109.018875 64.6 109.018875 
z
" style="fill: #ffffff; opacity: 0.8; stroke: #cccccc; stroke-linejoin: miter"/>
    </g>
    <g id="line2d_18">
     <path d="M 66.6 54.570438 
L 76.6 54.570438 
L 86.6 54.570438 
" style="fill: none; stroke: #1f77b4; stroke-width: 1.5; stroke-linecap: square"/>
    </g>
    <g id="text_15">
     <!-- ARG -->
     <g transform="translate(94.6 58.070438) scale(0.1 -0.1)">
      <defs>
       <path id="DejaVuSans-41" d="M 2188 4044 
L 1331 1722 
L 3047 1722 
L 2188 4044 
z
M 1831 4666 
L 2547 4666 
L 4325 0 
L 3669 0 
L 3244 1197 
L 1141 1197 
L 716 0 
L 50 0 
L 1831 4666 
z
" transform="scale(0.015625)"/>
       <path id="DejaVuSans-52" d="M 2841 2188 
Q 3044 2119 3236 1894 
Q 3428 1669 3622 1275 
L 4263 0 
L 3584 0 
L 2988 1197 
Q 2756 1666 2539 1819 
Q 2322 1972 1947 1972 
L 1259 1972 
L 1259 0 
L 628 0 
L 628 4666 
L 2053 4666 
Q 2853 4666 3247 4331 
Q 3641 3997 3641 3322 
Q 3641 2881 3436 2590 
Q 3231 2300 2841 2188 
z
M 1259 4147 
L 1259 2491 
L 2053 2491 
Q 2509 2491 2742 2702 
Q 2975 2913 2975 3322 
Q 2975 3731 2742 3939 
Q 2509 4147 2053 4147 
L 1259 4147 
z
" transform="scale(0.015625)"/>
       <path id="DejaVuSans-47" d="M 3809 666 
L 3809 1919 
L 2778 1919 
L 2778 2438 
L 4434 2438 
L 4434 434 
Q 4069 175 3628 42 
Q 3188 -91 2688 -91 
Q 1594 -91 976 548 
Q 359 1188 359 2328 
Q 359 3472 976 4111 
Q 1594 4750 2688 4750 
Q 3144 4750 3555 4637 
Q 3966 4525 4313 4306 
L 4313 3634 
Q 3963 3931 3569 4081 
Q 3175 4231 2741 4231 
Q 1884 4231 1454 3753 
Q 1025 3275 1025 2328 
Q 1025 1384 1454 906 
Q 1884 428 2741 428 
Q 3075 428 3337 486 
Q 3600 544 3809 666 
z
" transform="scale(0.015625)"/>
      </defs>
      <use xlink:href="#DejaVuSans-41"/>
      <use xlink:href="#DejaVuSans-52" x="68.408203"/>
      <use xlink:href="#DejaVuSans-47" x="137.890625"/>
     </g>
    </g>
    <g id="line2d_19">
     <path d="M 66.6 69.248563 
L 76.6 69.248563 
L 86.6 69.248563 
" style="fill: none; stroke: #ff7f0e; stroke-width: 1.5; stroke-linecap: square"/>
    </g>
    <g id="text_16">
     <!-- W_0 -->
     <g transform="translate(94.6 72.748563) scale(0.1 -0.1)">
      <defs>
       <path id="DejaVuSans-57" d="M 213 4666 
L 850 4666 
L 1831 722 
L 2809 4666 
L 3519 4666 
L 4500 722 
L 5478 4666 
L 6119 4666 
L 4947 0 
L 4153 0 
L 3169 4050 
L 2175 0 
L 1381 0 
L 213 4666 
z
" transform="scale(0.015625)"/>
       <path id="DejaVuSans-5f" d="M 3263 -1063 
L 3263 -1509 
L -63 -1509 
L -63 -1063 
L 3263 -1063 
z
" transform="scale(0.015625)"/>
      </defs>
      <use xlink:href="#DejaVuSans-57"/>
      <use xlink:href="#DejaVuSans-5f" x="98.876953"/>
      <use xlink:href="#DejaVuSans-30" x="148.876953"/>
     </g>
    </g>
    <g id="line2d_20">
     <path d="M 66.6 84.204813 
L 76.6 84.204813 
L 86.6 84.204813 
" style="fill: none; stroke: #2ca02c; stroke-width: 1.5; stroke-linecap: square"/>
    </g>
    <g id="text_17">
     <!-- W_10 -->
     <g transform="translate(94.6 87.704813) scale(0.1 -0.1)">
      <use xlink:href="#DejaVuSans-57"/>
      <use xlink:href="#DejaVuSans-5f" x="98.876953"/>
      <use xlink:href="#DejaVuSans-31" x="148.876953"/>
      <use xlink:href="#DejaVuSans-30" x="212.5"/>
     </g>
    </g>
    <g id="line2d_21">
     <path d="M 66.6 99.161063 
L 76.6 99.161063 
L 86.6 99.161063 
" style="fill: none; stroke: #d62728; stroke-width: 1.5; stroke-linecap: square"/>
    </g>
    <g id="text_18">
     <!-- W_100 -->
     <g transform="translate(94.6 102.661063) scale(0.1 -0.1)">
      <use xlink:href="#DejaVuSans-57"/>
      <use xlink:href="#DejaVuSans-5f" x="98.876953"/>
      <use xlink:href="#DejaVuSans-31" x="148.876953"/>
      <use xlink:href="#DejaVuSans-30" x="212.5"/>
      <use xlink:href="#DejaVuSans-30" x="276.123047"/>
     </g>
    </g>
   </g>
  </g>
 </g>
 <defs>
  <clipPath id="pf8775084ee">
   <rect x="57.6" y="41.472" width="357.12" height="266.112"/>
  </clipPath>
 </defs>
</svg>
