<?xml version="1.0" encoding="utf-8" standalone="no"?>
<!DOCTYPE svg PUBLIC "-//W3C//DTD SVG 1.1//EN"
  "http://www.w3.org/Graphics/SVG/1.1/DTD/svg11.dtd">
<svg xmlns:xlink="http://www.w3.org/1999/xlink" width="288pt" height="216pt" viewBox="0 0 288 216" xmlns="http://www.w3.org/2000/svg" version="1.1">
 <metadata>
  <rdf:RDF xmlns:dc="http://purl.org/dc/elements/1.1/" xmlns:cc="http://creativecommons.org/ns#" xmlns:rdf="http://www.w3.org/1999/02/22-rdf-syntax-ns#">
   <cc:Work>
    <dc:type rdf:resource="http://purl.org/dc/dcmitype/StillImage"/>
    <dc:date>2024-12-09T08:40:04.350069</dc:date>
    <dc:format>image/svg+xml</dc:format>
    <dc:creator>
     <cc:Agent>
      <dc:title>Matplotlib v3.9.2, https://matplotlib.org/</dc:title>
     </cc:Agent>
    </dc:creator>
   </cc:Work>
  </rdf:RDF>
 </metadata>
 <defs>
  <style type="text/css">*{stroke-linejoin: round; stroke-linecap: butt}</style>
 </defs>
 <g id="figure_1">
  <g id="patch_1">
   <path d="M 0 216 
L 288 216 
L 288 0 
L 0 0 
z
" style="fill: #ffffff"/>
  </g>
  <g id="axes_1">
   <g id="patch_2">
    <path d="M 50.779303 171.445697 
L 279.325231 171.445697 
L 279.325231 3.00024 
L 50.779303 3.00024 
z
" style="fill: #ffffff"/>
   </g>
   <g id="PathCollection_1">
    <defs>
     <path id="mc11bd0da0c" d="M 0 3 
C 0.795609 3 1.55874 2.683901 2.12132 2.12132 
C 2.683901 1.55874 3 0.795609 3 0 
C 3 -0.795609 2.683901 -1.55874 2.12132 -2.12132 
C 1.55874 -2.683901 0.795609 -3 0 -3 
C -0.795609 -3 -1.55874 -2.683901 -2.12132 -2.12132 
C -2.683901 -1.55874 -3 -0.795609 -3 0 
C -3 0.795609 -2.683901 1.55874 -2.12132 2.12132 
C -1.55874 2.683901 -0.795609 3 0 3 
z
" style="stroke: #000000"/>
    </defs>
    <g clip-path="url(#p71bef7c893)">
     <use xlink:href="#mc11bd0da0c" x="235.707298" y="10.656852" style="stroke: #000000"/>
     <use xlink:href="#mc11bd0da0c" x="119.583882" y="163.789086" style="stroke: #000000"/>
     <use xlink:href="#mc11bd0da0c" x="80.794348" y="163.789086" style="stroke: #000000"/>
     <use xlink:href="#mc11bd0da0c" x="186.365627" y="54.471353" style="stroke: #000000"/>
     <use xlink:href="#mc11bd0da0c" x="142.016421" y="163.789086" style="stroke: #000000"/>
     <use xlink:href="#mc11bd0da0c" x="125.291453" y="142.934926" style="stroke: #000000"/>
     <use xlink:href="#mc11bd0da0c" x="263.278675" y="10.656852" style="stroke: #000000"/>
     <use xlink:href="#mc11bd0da0c" x="229.319363" y="10.656852" style="stroke: #000000"/>
     <use xlink:href="#mc11bd0da0c" x="220.869615" y="139.320546" style="stroke: #000000"/>
     <use xlink:href="#mc11bd0da0c" x="142.759776" y="149.99524" style="stroke: #000000"/>
     <use xlink:href="#mc11bd0da0c" x="261.609935" y="10.656852" style="stroke: #000000"/>
     <use xlink:href="#mc11bd0da0c" x="201.56851" y="26.168228" style="stroke: #000000"/>
     <use xlink:href="#mc11bd0da0c" x="193.297906" y="85.945846" style="stroke: #000000"/>
     <use xlink:href="#mc11bd0da0c" x="224.669615" y="10.656852" style="stroke: #000000"/>
     <use xlink:href="#mc11bd0da0c" x="268.601956" y="10.656852" style="stroke: #000000"/>
     <use xlink:href="#mc11bd0da0c" x="91.961097" y="163.789086" style="stroke: #000000"/>
     <use xlink:href="#mc11bd0da0c" x="61.989842" y="163.789086" style="stroke: #000000"/>
     <use xlink:href="#mc11bd0da0c" x="221.020919" y="139.320546" style="stroke: #000000"/>
     <use xlink:href="#mc11bd0da0c" x="268.93678" y="10.656852" style="stroke: #000000"/>
     <use xlink:href="#mc11bd0da0c" x="134.966968" y="163.789086" style="stroke: #000000"/>
     <use xlink:href="#mc11bd0da0c" x="197.63075" y="113.083787" style="stroke: #000000"/>
     <use xlink:href="#mc11bd0da0c" x="151.504476" y="13.616438" style="stroke: #000000"/>
     <use xlink:href="#mc11bd0da0c" x="137.98142" y="126.348255" style="stroke: #000000"/>
     <use xlink:href="#mc11bd0da0c" x="208.549128" y="10.656852" style="stroke: #000000"/>
     <use xlink:href="#mc11bd0da0c" x="89.613924" y="163.789086" style="stroke: #000000"/>
     <use xlink:href="#mc11bd0da0c" x="61.167754" y="163.789086" style="stroke: #000000"/>
     <use xlink:href="#mc11bd0da0c" x="254.362429" y="10.656852" style="stroke: #000000"/>
     <use xlink:href="#mc11bd0da0c" x="85.976488" y="163.789086" style="stroke: #000000"/>
     <use xlink:href="#mc11bd0da0c" x="260.567014" y="10.656852" style="stroke: #000000"/>
     <use xlink:href="#mc11bd0da0c" x="241.244659" y="10.656852" style="stroke: #000000"/>
     <use xlink:href="#mc11bd0da0c" x="226.119088" y="20.607537" style="stroke: #000000"/>
     <use xlink:href="#mc11bd0da0c" x="185.764648" y="79.591624" style="stroke: #000000"/>
     <use xlink:href="#mc11bd0da0c" x="99.39915" y="163.789086" style="stroke: #000000"/>
     <use xlink:href="#mc11bd0da0c" x="241.707989" y="10.656852" style="stroke: #000000"/>
     <use xlink:href="#mc11bd0da0c" x="237.334528" y="10.656852" style="stroke: #000000"/>
     <use xlink:href="#mc11bd0da0c" x="199.366627" y="32.729485" style="stroke: #000000"/>
     <use xlink:href="#mc11bd0da0c" x="188.165167" y="10.656852" style="stroke: #000000"/>
     <use xlink:href="#mc11bd0da0c" x="140.896168" y="163.789086" style="stroke: #000000"/>
     <use xlink:href="#mc11bd0da0c" x="227.210898" y="10.656852" style="stroke: #000000"/>
     <use xlink:href="#mc11bd0da0c" x="101.526974" y="163.789086" style="stroke: #000000"/>
     <use xlink:href="#mc11bd0da0c" x="238.80815" y="10.656852" style="stroke: #000000"/>
     <use xlink:href="#mc11bd0da0c" x="68.550189" y="163.789086" style="stroke: #000000"/>
     <use xlink:href="#mc11bd0da0c" x="114.913043" y="163.789086" style="stroke: #000000"/>
     <use xlink:href="#mc11bd0da0c" x="262.622018" y="10.656852" style="stroke: #000000"/>
     <use xlink:href="#mc11bd0da0c" x="183.226502" y="35.509601" style="stroke: #000000"/>
     <use xlink:href="#mc11bd0da0c" x="83.199142" y="163.789086" style="stroke: #000000"/>
     <use xlink:href="#mc11bd0da0c" x="262.601466" y="10.656852" style="stroke: #000000"/>
     <use xlink:href="#mc11bd0da0c" x="217.527988" y="139.320546" style="stroke: #000000"/>
     <use xlink:href="#mc11bd0da0c" x="65.156974" y="163.789086" style="stroke: #000000"/>
     <use xlink:href="#mc11bd0da0c" x="253.965658" y="10.656852" style="stroke: #000000"/>
     <use xlink:href="#mc11bd0da0c" x="252.698902" y="10.656852" style="stroke: #000000"/>
     <use xlink:href="#mc11bd0da0c" x="118.167554" y="163.789086" style="stroke: #000000"/>
     <use xlink:href="#mc11bd0da0c" x="198.339375" y="10.656852" style="stroke: #000000"/>
     <use xlink:href="#mc11bd0da0c" x="258.615142" y="10.656852" style="stroke: #000000"/>
     <use xlink:href="#mc11bd0da0c" x="112.265683" y="163.789086" style="stroke: #000000"/>
     <use xlink:href="#mc11bd0da0c" x="164.216318" y="141.141288" style="stroke: #000000"/>
     <use xlink:href="#mc11bd0da0c" x="116.749289" y="163.789086" style="stroke: #000000"/>
     <use xlink:href="#mc11bd0da0c" x="215.454728" y="10.656852" style="stroke: #000000"/>
     <use xlink:href="#mc11bd0da0c" x="219.85559" y="10.656852" style="stroke: #000000"/>
     <use xlink:href="#mc11bd0da0c" x="189.970481" y="10.656852" style="stroke: #000000"/>
     <use xlink:href="#mc11bd0da0c" x="255.854904" y="10.656852" style="stroke: #000000"/>
     <use xlink:href="#mc11bd0da0c" x="106.274635" y="163.789086" style="stroke: #000000"/>
     <use xlink:href="#mc11bd0da0c" x="192.806807" y="20.269421" style="stroke: #000000"/>
     <use xlink:href="#mc11bd0da0c" x="182.214935" y="101.330123" style="stroke: #000000"/>
     <use xlink:href="#mc11bd0da0c" x="154.86314" y="163.789086" style="stroke: #000000"/>
     <use xlink:href="#mc11bd0da0c" x="260.746815" y="10.656852" style="stroke: #000000"/>
     <use xlink:href="#mc11bd0da0c" x="161.15615" y="94.72507" style="stroke: #000000"/>
     <use xlink:href="#mc11bd0da0c" x="208.165815" y="40.577053" style="stroke: #000000"/>
     <use xlink:href="#mc11bd0da0c" x="211.270875" y="139.320546" style="stroke: #000000"/>
     <use xlink:href="#mc11bd0da0c" x="77.237806" y="163.789086" style="stroke: #000000"/>
     <use xlink:href="#mc11bd0da0c" x="210.717003" y="10.656852" style="stroke: #000000"/>
     <use xlink:href="#mc11bd0da0c" x="62.649456" y="163.789086" style="stroke: #000000"/>
     <use xlink:href="#mc11bd0da0c" x="128.74728" y="163.789086" style="stroke: #000000"/>
     <use xlink:href="#mc11bd0da0c" x="201.521252" y="26.168228" style="stroke: #000000"/>
     <use xlink:href="#mc11bd0da0c" x="217.553254" y="10.656852" style="stroke: #000000"/>
     <use xlink:href="#mc11bd0da0c" x="189.593466" y="10.656852" style="stroke: #000000"/>
     <use xlink:href="#mc11bd0da0c" x="195.182731" y="10.656852" style="stroke: #000000"/>
     <use xlink:href="#mc11bd0da0c" x="213.114856" y="10.656852" style="stroke: #000000"/>
     <use xlink:href="#mc11bd0da0c" x="66.387453" y="163.789086" style="stroke: #000000"/>
     <use xlink:href="#mc11bd0da0c" x="154.1287" y="35.509601" style="stroke: #000000"/>
     <use xlink:href="#mc11bd0da0c" x="199.092137" y="10.656852" style="stroke: #000000"/>
     <use xlink:href="#mc11bd0da0c" x="92.547685" y="163.789086" style="stroke: #000000"/>
     <use xlink:href="#mc11bd0da0c" x="107.300178" y="163.789086" style="stroke: #000000"/>
     <use xlink:href="#mc11bd0da0c" x="186.225146" y="32.729485" style="stroke: #000000"/>
     <use xlink:href="#mc11bd0da0c" x="142.977144" y="149.99524" style="stroke: #000000"/>
     <use xlink:href="#mc11bd0da0c" x="114.254203" y="163.789086" style="stroke: #000000"/>
     <use xlink:href="#mc11bd0da0c" x="170.837943" y="163.789086" style="stroke: #000000"/>
     <use xlink:href="#mc11bd0da0c" x="156.633209" y="163.789086" style="stroke: #000000"/>
     <use xlink:href="#mc11bd0da0c" x="104.239645" y="163.789086" style="stroke: #000000"/>
     <use xlink:href="#mc11bd0da0c" x="99.084924" y="163.789086" style="stroke: #000000"/>
     <use xlink:href="#mc11bd0da0c" x="252.331078" y="10.656852" style="stroke: #000000"/>
     <use xlink:href="#mc11bd0da0c" x="203.213511" y="10.656852" style="stroke: #000000"/>
     <use xlink:href="#mc11bd0da0c" x="210.929397" y="82.858547" style="stroke: #000000"/>
     <use xlink:href="#mc11bd0da0c" x="74.377982" y="163.789086" style="stroke: #000000"/>
     <use xlink:href="#mc11bd0da0c" x="67.005814" y="163.789086" style="stroke: #000000"/>
     <use xlink:href="#mc11bd0da0c" x="217.709181" y="10.656852" style="stroke: #000000"/>
     <use xlink:href="#mc11bd0da0c" x="163.180208" y="94.72507" style="stroke: #000000"/>
     <use xlink:href="#mc11bd0da0c" x="166.881877" y="163.789086" style="stroke: #000000"/>
     <use xlink:href="#mc11bd0da0c" x="65.317526" y="163.789086" style="stroke: #000000"/>
     <use xlink:href="#mc11bd0da0c" x="166.466287" y="60.990192" style="stroke: #000000"/>
    </g>
   </g>
   <g id="PathCollection_2">
    <defs>
     <path id="m3ab17362f8" d="M 0 -7.071068 
L -1.587554 -2.18508 
L -6.724985 -2.18508 
L -2.568716 0.834626 
L -4.156269 5.720614 
L -0 2.700907 
L 4.156269 5.720614 
L 2.568716 0.834626 
L 6.724985 -2.18508 
L 1.587554 -2.18508 
z
" style="stroke: #ff0000"/>
    </defs>
    <g clip-path="url(#p71bef7c893)">
     <use xlink:href="#m3ab17362f8" x="182.214935" y="101.330123" style="fill: #ff0000; stroke: #ff0000"/>
    </g>
   </g>
   <g id="matplotlib.axis_1">
    <g id="xtick_1">
     <g id="line2d_1">
      <defs>
       <path id="m2f2cdb7d6a" d="M 0 0 
L 0 3.5 
" style="stroke: #000000; stroke-width: 0.8"/>
      </defs>
      <g>
       <use xlink:href="#m2f2cdb7d6a" x="60.540951" y="171.445697" style="stroke: #000000; stroke-width: 0.8"/>
      </g>
     </g>
     <g id="text_1">
      <!-- 0 -->
      <g transform="translate(57.359701 186.044135) scale(0.1 -0.1)">
       <defs>
        <path id="DejaVuSans-30" d="M 2034 4250 
Q 1547 4250 1301 3770 
Q 1056 3291 1056 2328 
Q 1056 1369 1301 889 
Q 1547 409 2034 409 
Q 2525 409 2770 889 
Q 3016 1369 3016 2328 
Q 3016 3291 2770 3770 
Q 2525 4250 2034 4250 
z
M 2034 4750 
Q 2819 4750 3233 4129 
Q 3647 3509 3647 2328 
Q 3647 1150 3233 529 
Q 2819 -91 2034 -91 
Q 1250 -91 836 529 
Q 422 1150 422 2328 
Q 422 3509 836 4129 
Q 1250 4750 2034 4750 
z
" transform="scale(0.015625)"/>
       </defs>
       <use xlink:href="#DejaVuSans-30"/>
      </g>
     </g>
    </g>
    <g id="xtick_2">
     <g id="line2d_2">
      <g>
       <use xlink:href="#m2f2cdb7d6a" x="103.523661" y="171.445697" style="stroke: #000000; stroke-width: 0.8"/>
      </g>
     </g>
     <g id="text_2">
      <!-- 20 -->
      <g transform="translate(97.161161 186.044135) scale(0.1 -0.1)">
       <defs>
        <path id="DejaVuSans-32" d="M 1228 531 
L 3431 531 
L 3431 0 
L 469 0 
L 469 531 
Q 828 903 1448 1529 
Q 2069 2156 2228 2338 
Q 2531 2678 2651 2914 
Q 2772 3150 2772 3378 
Q 2772 3750 2511 3984 
Q 2250 4219 1831 4219 
Q 1534 4219 1204 4116 
Q 875 4013 500 3803 
L 500 4441 
Q 881 4594 1212 4672 
Q 1544 4750 1819 4750 
Q 2544 4750 2975 4387 
Q 3406 4025 3406 3419 
Q 3406 3131 3298 2873 
Q 3191 2616 2906 2266 
Q 2828 2175 2409 1742 
Q 1991 1309 1228 531 
z
" transform="scale(0.015625)"/>
       </defs>
       <use xlink:href="#DejaVuSans-32"/>
       <use xlink:href="#DejaVuSans-30" x="63.623047"/>
      </g>
     </g>
    </g>
    <g id="xtick_3">
     <g id="line2d_3">
      <g>
       <use xlink:href="#m2f2cdb7d6a" x="146.506372" y="171.445697" style="stroke: #000000; stroke-width: 0.8"/>
      </g>
     </g>
     <g id="text_3">
      <!-- 40 -->
      <g transform="translate(140.143872 186.044135) scale(0.1 -0.1)">
       <defs>
        <path id="DejaVuSans-34" d="M 2419 4116 
L 825 1625 
L 2419 1625 
L 2419 4116 
z
M 2253 4666 
L 3047 4666 
L 3047 1625 
L 3713 1625 
L 3713 1100 
L 3047 1100 
L 3047 0 
L 2419 0 
L 2419 1100 
L 313 1100 
L 313 1709 
L 2253 4666 
z
" transform="scale(0.015625)"/>
       </defs>
       <use xlink:href="#DejaVuSans-34"/>
       <use xlink:href="#DejaVuSans-30" x="63.623047"/>
      </g>
     </g>
    </g>
    <g id="xtick_4">
     <g id="line2d_4">
      <g>
       <use xlink:href="#m2f2cdb7d6a" x="189.489082" y="171.445697" style="stroke: #000000; stroke-width: 0.8"/>
      </g>
     </g>
     <g id="text_4">
      <!-- 60 -->
      <g transform="translate(183.126582 186.044135) scale(0.1 -0.1)">
       <defs>
        <path id="DejaVuSans-36" d="M 2113 2584 
Q 1688 2584 1439 2293 
Q 1191 2003 1191 1497 
Q 1191 994 1439 701 
Q 1688 409 2113 409 
Q 2538 409 2786 701 
Q 3034 994 3034 1497 
Q 3034 2003 2786 2293 
Q 2538 2584 2113 2584 
z
M 3366 4563 
L 3366 3988 
Q 3128 4100 2886 4159 
Q 2644 4219 2406 4219 
Q 1781 4219 1451 3797 
Q 1122 3375 1075 2522 
Q 1259 2794 1537 2939 
Q 1816 3084 2150 3084 
Q 2853 3084 3261 2657 
Q 3669 2231 3669 1497 
Q 3669 778 3244 343 
Q 2819 -91 2113 -91 
Q 1303 -91 875 529 
Q 447 1150 447 2328 
Q 447 3434 972 4092 
Q 1497 4750 2381 4750 
Q 2619 4750 2861 4703 
Q 3103 4656 3366 4563 
z
" transform="scale(0.015625)"/>
       </defs>
       <use xlink:href="#DejaVuSans-36"/>
       <use xlink:href="#DejaVuSans-30" x="63.623047"/>
      </g>
     </g>
    </g>
    <g id="xtick_5">
     <g id="line2d_5">
      <g>
       <use xlink:href="#m2f2cdb7d6a" x="232.471792" y="171.445697" style="stroke: #000000; stroke-width: 0.8"/>
      </g>
     </g>
     <g id="text_5">
      <!-- 80 -->
      <g transform="translate(226.109292 186.044135) scale(0.1 -0.1)">
       <defs>
        <path id="DejaVuSans-38" d="M 2034 2216 
Q 1584 2216 1326 1975 
Q 1069 1734 1069 1313 
Q 1069 891 1326 650 
Q 1584 409 2034 409 
Q 2484 409 2743 651 
Q 3003 894 3003 1313 
Q 3003 1734 2745 1975 
Q 2488 2216 2034 2216 
z
M 1403 2484 
Q 997 2584 770 2862 
Q 544 3141 544 3541 
Q 544 4100 942 4425 
Q 1341 4750 2034 4750 
Q 2731 4750 3128 4425 
Q 3525 4100 3525 3541 
Q 3525 3141 3298 2862 
Q 3072 2584 2669 2484 
Q 3125 2378 3379 2068 
Q 3634 1759 3634 1313 
Q 3634 634 3220 271 
Q 2806 -91 2034 -91 
Q 1263 -91 848 271 
Q 434 634 434 1313 
Q 434 1759 690 2068 
Q 947 2378 1403 2484 
z
M 1172 3481 
Q 1172 3119 1398 2916 
Q 1625 2713 2034 2713 
Q 2441 2713 2670 2916 
Q 2900 3119 2900 3481 
Q 2900 3844 2670 4047 
Q 2441 4250 2034 4250 
Q 1625 4250 1398 4047 
Q 1172 3844 1172 3481 
z
" transform="scale(0.015625)"/>
       </defs>
       <use xlink:href="#DejaVuSans-38"/>
       <use xlink:href="#DejaVuSans-30" x="63.623047"/>
      </g>
     </g>
    </g>
    <g id="xtick_6">
     <g id="line2d_6">
      <g>
       <use xlink:href="#m2f2cdb7d6a" x="275.454502" y="171.445697" style="stroke: #000000; stroke-width: 0.8"/>
      </g>
     </g>
     <g id="text_6">
      <!-- 100 -->
      <g transform="translate(265.910752 186.044135) scale(0.1 -0.1)">
       <defs>
        <path id="DejaVuSans-31" d="M 794 531 
L 1825 531 
L 1825 4091 
L 703 3866 
L 703 4441 
L 1819 4666 
L 2450 4666 
L 2450 531 
L 3481 531 
L 3481 0 
L 794 0 
L 794 531 
z
" transform="scale(0.015625)"/>
       </defs>
       <use xlink:href="#DejaVuSans-31"/>
       <use xlink:href="#DejaVuSans-30" x="63.623047"/>
       <use xlink:href="#DejaVuSans-30" x="127.246094"/>
      </g>
     </g>
    </g>
    <g id="text_7">
     <!-- Sample's Location Along -->
     <g transform="translate(103.786642 199.72226) scale(0.1 -0.1)">
      <defs>
       <path id="DejaVuSans-53" d="M 3425 4513 
L 3425 3897 
Q 3066 4069 2747 4153 
Q 2428 4238 2131 4238 
Q 1616 4238 1336 4038 
Q 1056 3838 1056 3469 
Q 1056 3159 1242 3001 
Q 1428 2844 1947 2747 
L 2328 2669 
Q 3034 2534 3370 2195 
Q 3706 1856 3706 1288 
Q 3706 609 3251 259 
Q 2797 -91 1919 -91 
Q 1588 -91 1214 -16 
Q 841 59 441 206 
L 441 856 
Q 825 641 1194 531 
Q 1563 422 1919 422 
Q 2459 422 2753 634 
Q 3047 847 3047 1241 
Q 3047 1584 2836 1778 
Q 2625 1972 2144 2069 
L 1759 2144 
Q 1053 2284 737 2584 
Q 422 2884 422 3419 
Q 422 4038 858 4394 
Q 1294 4750 2059 4750 
Q 2388 4750 2728 4690 
Q 3069 4631 3425 4513 
z
" transform="scale(0.015625)"/>
       <path id="DejaVuSans-61" d="M 2194 1759 
Q 1497 1759 1228 1600 
Q 959 1441 959 1056 
Q 959 750 1161 570 
Q 1363 391 1709 391 
Q 2188 391 2477 730 
Q 2766 1069 2766 1631 
L 2766 1759 
L 2194 1759 
z
M 3341 1997 
L 3341 0 
L 2766 0 
L 2766 531 
Q 2569 213 2275 61 
Q 1981 -91 1556 -91 
Q 1019 -91 701 211 
Q 384 513 384 1019 
Q 384 1609 779 1909 
Q 1175 2209 1959 2209 
L 2766 2209 
L 2766 2266 
Q 2766 2663 2505 2880 
Q 2244 3097 1772 3097 
Q 1472 3097 1187 3025 
Q 903 2953 641 2809 
L 641 3341 
Q 956 3463 1253 3523 
Q 1550 3584 1831 3584 
Q 2591 3584 2966 3190 
Q 3341 2797 3341 1997 
z
" transform="scale(0.015625)"/>
       <path id="DejaVuSans-6d" d="M 3328 2828 
Q 3544 3216 3844 3400 
Q 4144 3584 4550 3584 
Q 5097 3584 5394 3201 
Q 5691 2819 5691 2113 
L 5691 0 
L 5113 0 
L 5113 2094 
Q 5113 2597 4934 2840 
Q 4756 3084 4391 3084 
Q 3944 3084 3684 2787 
Q 3425 2491 3425 1978 
L 3425 0 
L 2847 0 
L 2847 2094 
Q 2847 2600 2669 2842 
Q 2491 3084 2119 3084 
Q 1678 3084 1418 2786 
Q 1159 2488 1159 1978 
L 1159 0 
L 581 0 
L 581 3500 
L 1159 3500 
L 1159 2956 
Q 1356 3278 1631 3431 
Q 1906 3584 2284 3584 
Q 2666 3584 2933 3390 
Q 3200 3197 3328 2828 
z
" transform="scale(0.015625)"/>
       <path id="DejaVuSans-70" d="M 1159 525 
L 1159 -1331 
L 581 -1331 
L 581 3500 
L 1159 3500 
L 1159 2969 
Q 1341 3281 1617 3432 
Q 1894 3584 2278 3584 
Q 2916 3584 3314 3078 
Q 3713 2572 3713 1747 
Q 3713 922 3314 415 
Q 2916 -91 2278 -91 
Q 1894 -91 1617 61 
Q 1341 213 1159 525 
z
M 3116 1747 
Q 3116 2381 2855 2742 
Q 2594 3103 2138 3103 
Q 1681 3103 1420 2742 
Q 1159 2381 1159 1747 
Q 1159 1113 1420 752 
Q 1681 391 2138 391 
Q 2594 391 2855 752 
Q 3116 1113 3116 1747 
z
" transform="scale(0.015625)"/>
       <path id="DejaVuSans-6c" d="M 603 4863 
L 1178 4863 
L 1178 0 
L 603 0 
L 603 4863 
z
" transform="scale(0.015625)"/>
       <path id="DejaVuSans-65" d="M 3597 1894 
L 3597 1613 
L 953 1613 
Q 991 1019 1311 708 
Q 1631 397 2203 397 
Q 2534 397 2845 478 
Q 3156 559 3463 722 
L 3463 178 
Q 3153 47 2828 -22 
Q 2503 -91 2169 -91 
Q 1331 -91 842 396 
Q 353 884 353 1716 
Q 353 2575 817 3079 
Q 1281 3584 2069 3584 
Q 2775 3584 3186 3129 
Q 3597 2675 3597 1894 
z
M 3022 2063 
Q 3016 2534 2758 2815 
Q 2500 3097 2075 3097 
Q 1594 3097 1305 2825 
Q 1016 2553 972 2059 
L 3022 2063 
z
" transform="scale(0.015625)"/>
       <path id="DejaVuSans-27" d="M 1147 4666 
L 1147 2931 
L 616 2931 
L 616 4666 
L 1147 4666 
z
" transform="scale(0.015625)"/>
       <path id="DejaVuSans-73" d="M 2834 3397 
L 2834 2853 
Q 2591 2978 2328 3040 
Q 2066 3103 1784 3103 
Q 1356 3103 1142 2972 
Q 928 2841 928 2578 
Q 928 2378 1081 2264 
Q 1234 2150 1697 2047 
L 1894 2003 
Q 2506 1872 2764 1633 
Q 3022 1394 3022 966 
Q 3022 478 2636 193 
Q 2250 -91 1575 -91 
Q 1294 -91 989 -36 
Q 684 19 347 128 
L 347 722 
Q 666 556 975 473 
Q 1284 391 1588 391 
Q 1994 391 2212 530 
Q 2431 669 2431 922 
Q 2431 1156 2273 1281 
Q 2116 1406 1581 1522 
L 1381 1569 
Q 847 1681 609 1914 
Q 372 2147 372 2553 
Q 372 3047 722 3315 
Q 1072 3584 1716 3584 
Q 2034 3584 2315 3537 
Q 2597 3491 2834 3397 
z
" transform="scale(0.015625)"/>
       <path id="DejaVuSans-20" transform="scale(0.015625)"/>
       <path id="DejaVuSans-4c" d="M 628 4666 
L 1259 4666 
L 1259 531 
L 3531 531 
L 3531 0 
L 628 0 
L 628 4666 
z
" transform="scale(0.015625)"/>
       <path id="DejaVuSans-6f" d="M 1959 3097 
Q 1497 3097 1228 2736 
Q 959 2375 959 1747 
Q 959 1119 1226 758 
Q 1494 397 1959 397 
Q 2419 397 2687 759 
Q 2956 1122 2956 1747 
Q 2956 2369 2687 2733 
Q 2419 3097 1959 3097 
z
M 1959 3584 
Q 2709 3584 3137 3096 
Q 3566 2609 3566 1747 
Q 3566 888 3137 398 
Q 2709 -91 1959 -91 
Q 1206 -91 779 398 
Q 353 888 353 1747 
Q 353 2609 779 3096 
Q 1206 3584 1959 3584 
z
" transform="scale(0.015625)"/>
       <path id="DejaVuSans-63" d="M 3122 3366 
L 3122 2828 
Q 2878 2963 2633 3030 
Q 2388 3097 2138 3097 
Q 1578 3097 1268 2742 
Q 959 2388 959 1747 
Q 959 1106 1268 751 
Q 1578 397 2138 397 
Q 2388 397 2633 464 
Q 2878 531 3122 666 
L 3122 134 
Q 2881 22 2623 -34 
Q 2366 -91 2075 -91 
Q 1284 -91 818 406 
Q 353 903 353 1747 
Q 353 2603 823 3093 
Q 1294 3584 2113 3584 
Q 2378 3584 2631 3529 
Q 2884 3475 3122 3366 
z
" transform="scale(0.015625)"/>
       <path id="DejaVuSans-74" d="M 1172 4494 
L 1172 3500 
L 2356 3500 
L 2356 3053 
L 1172 3053 
L 1172 1153 
Q 1172 725 1289 603 
Q 1406 481 1766 481 
L 2356 481 
L 2356 0 
L 1766 0 
Q 1100 0 847 248 
Q 594 497 594 1153 
L 594 3053 
L 172 3053 
L 172 3500 
L 594 3500 
L 594 4494 
L 1172 4494 
z
" transform="scale(0.015625)"/>
       <path id="DejaVuSans-69" d="M 603 3500 
L 1178 3500 
L 1178 0 
L 603 0 
L 603 3500 
z
M 603 4863 
L 1178 4863 
L 1178 4134 
L 603 4134 
L 603 4863 
z
" transform="scale(0.015625)"/>
       <path id="DejaVuSans-6e" d="M 3513 2113 
L 3513 0 
L 2938 0 
L 2938 2094 
Q 2938 2591 2744 2837 
Q 2550 3084 2163 3084 
Q 1697 3084 1428 2787 
Q 1159 2491 1159 1978 
L 1159 0 
L 581 0 
L 581 3500 
L 1159 3500 
L 1159 2956 
Q 1366 3272 1645 3428 
Q 1925 3584 2291 3584 
Q 2894 3584 3203 3211 
Q 3513 2838 3513 2113 
z
" transform="scale(0.015625)"/>
       <path id="DejaVuSans-41" d="M 2188 4044 
L 1331 1722 
L 3047 1722 
L 2188 4044 
z
M 1831 4666 
L 2547 4666 
L 4325 0 
L 3669 0 
L 3244 1197 
L 1141 1197 
L 716 0 
L 50 0 
L 1831 4666 
z
" transform="scale(0.015625)"/>
       <path id="DejaVuSans-67" d="M 2906 1791 
Q 2906 2416 2648 2759 
Q 2391 3103 1925 3103 
Q 1463 3103 1205 2759 
Q 947 2416 947 1791 
Q 947 1169 1205 825 
Q 1463 481 1925 481 
Q 2391 481 2648 825 
Q 2906 1169 2906 1791 
z
M 3481 434 
Q 3481 -459 3084 -895 
Q 2688 -1331 1869 -1331 
Q 1566 -1331 1297 -1286 
Q 1028 -1241 775 -1147 
L 775 -588 
Q 1028 -725 1275 -790 
Q 1522 -856 1778 -856 
Q 2344 -856 2625 -561 
Q 2906 -266 2906 331 
L 2906 616 
Q 2728 306 2450 153 
Q 2172 0 1784 0 
Q 1141 0 747 490 
Q 353 981 353 1791 
Q 353 2603 747 3093 
Q 1141 3584 1784 3584 
Q 2172 3584 2450 3431 
Q 2728 3278 2906 2969 
L 2906 3500 
L 3481 3500 
L 3481 434 
z
" transform="scale(0.015625)"/>
      </defs>
      <use xlink:href="#DejaVuSans-53"/>
      <use xlink:href="#DejaVuSans-61" x="63.476562"/>
      <use xlink:href="#DejaVuSans-6d" x="124.755859"/>
      <use xlink:href="#DejaVuSans-70" x="222.167969"/>
      <use xlink:href="#DejaVuSans-6c" x="285.644531"/>
      <use xlink:href="#DejaVuSans-65" x="313.427734"/>
      <use xlink:href="#DejaVuSans-27" x="374.951172"/>
      <use xlink:href="#DejaVuSans-73" x="402.441406"/>
      <use xlink:href="#DejaVuSans-20" x="454.541016"/>
      <use xlink:href="#DejaVuSans-4c" x="486.328125"/>
      <use xlink:href="#DejaVuSans-6f" x="540.291016"/>
      <use xlink:href="#DejaVuSans-63" x="601.472656"/>
      <use xlink:href="#DejaVuSans-61" x="656.453125"/>
      <use xlink:href="#DejaVuSans-74" x="717.732422"/>
      <use xlink:href="#DejaVuSans-69" x="756.941406"/>
      <use xlink:href="#DejaVuSans-6f" x="784.724609"/>
      <use xlink:href="#DejaVuSans-6e" x="845.90625"/>
      <use xlink:href="#DejaVuSans-20" x="909.285156"/>
      <use xlink:href="#DejaVuSans-41" x="941.072266"/>
      <use xlink:href="#DejaVuSans-6c" x="1009.480469"/>
      <use xlink:href="#DejaVuSans-6f" x="1037.263672"/>
      <use xlink:href="#DejaVuSans-6e" x="1098.445312"/>
      <use xlink:href="#DejaVuSans-67" x="1161.824219"/>
     </g>
     <!-- X-Dimension -->
     <g transform="translate(133.496798 210.920073) scale(0.1 -0.1)">
      <defs>
       <path id="DejaVuSans-58" d="M 403 4666 
L 1081 4666 
L 2241 2931 
L 3406 4666 
L 4084 4666 
L 2584 2425 
L 4184 0 
L 3506 0 
L 2194 1984 
L 872 0 
L 191 0 
L 1856 2491 
L 403 4666 
z
" transform="scale(0.015625)"/>
       <path id="DejaVuSans-2d" d="M 313 2009 
L 1997 2009 
L 1997 1497 
L 313 1497 
L 313 2009 
z
" transform="scale(0.015625)"/>
       <path id="DejaVuSans-44" d="M 1259 4147 
L 1259 519 
L 2022 519 
Q 2988 519 3436 956 
Q 3884 1394 3884 2338 
Q 3884 3275 3436 3711 
Q 2988 4147 2022 4147 
L 1259 4147 
z
M 628 4666 
L 1925 4666 
Q 3281 4666 3915 4102 
Q 4550 3538 4550 2338 
Q 4550 1131 3912 565 
Q 3275 0 1925 0 
L 628 0 
L 628 4666 
z
" transform="scale(0.015625)"/>
      </defs>
      <use xlink:href="#DejaVuSans-58"/>
      <use xlink:href="#DejaVuSans-2d" x="63.505859"/>
      <use xlink:href="#DejaVuSans-44" x="99.589844"/>
      <use xlink:href="#DejaVuSans-69" x="176.591797"/>
      <use xlink:href="#DejaVuSans-6d" x="204.375"/>
      <use xlink:href="#DejaVuSans-65" x="301.787109"/>
      <use xlink:href="#DejaVuSans-6e" x="363.310547"/>
      <use xlink:href="#DejaVuSans-73" x="426.689453"/>
      <use xlink:href="#DejaVuSans-69" x="478.789062"/>
      <use xlink:href="#DejaVuSans-6f" x="506.572266"/>
      <use xlink:href="#DejaVuSans-6e" x="567.753906"/>
     </g>
    </g>
   </g>
   <g id="matplotlib.axis_2">
    <g id="ytick_1">
     <g id="line2d_7">
      <defs>
       <path id="me88295bec0" d="M 0 0 
L -3.5 0 
" style="stroke: #000000; stroke-width: 0.8"/>
      </defs>
      <g>
       <use xlink:href="#me88295bec0" x="50.779303" y="163.789086" style="stroke: #000000; stroke-width: 0.8"/>
      </g>
     </g>
     <g id="text_8">
      <!-- 0.0 -->
      <g transform="translate(27.876178 167.588305) scale(0.1 -0.1)">
       <defs>
        <path id="DejaVuSans-2e" d="M 684 794 
L 1344 794 
L 1344 0 
L 684 0 
L 684 794 
z
" transform="scale(0.015625)"/>
       </defs>
       <use xlink:href="#DejaVuSans-30"/>
       <use xlink:href="#DejaVuSans-2e" x="63.623047"/>
       <use xlink:href="#DejaVuSans-30" x="95.410156"/>
      </g>
     </g>
    </g>
    <g id="ytick_2">
     <g id="line2d_8">
      <g>
       <use xlink:href="#me88295bec0" x="50.779303" y="133.162639" style="stroke: #000000; stroke-width: 0.8"/>
      </g>
     </g>
     <g id="text_9">
      <!-- 0.2 -->
      <g transform="translate(27.876178 136.961858) scale(0.1 -0.1)">
       <use xlink:href="#DejaVuSans-30"/>
       <use xlink:href="#DejaVuSans-2e" x="63.623047"/>
       <use xlink:href="#DejaVuSans-32" x="95.410156"/>
      </g>
     </g>
    </g>
    <g id="ytick_3">
     <g id="line2d_9">
      <g>
       <use xlink:href="#me88295bec0" x="50.779303" y="102.536192" style="stroke: #000000; stroke-width: 0.8"/>
      </g>
     </g>
     <g id="text_10">
      <!-- 0.4 -->
      <g transform="translate(27.876178 106.335411) scale(0.1 -0.1)">
       <use xlink:href="#DejaVuSans-30"/>
       <use xlink:href="#DejaVuSans-2e" x="63.623047"/>
       <use xlink:href="#DejaVuSans-34" x="95.410156"/>
      </g>
     </g>
    </g>
    <g id="ytick_4">
     <g id="line2d_10">
      <g>
       <use xlink:href="#me88295bec0" x="50.779303" y="71.909745" style="stroke: #000000; stroke-width: 0.8"/>
      </g>
     </g>
     <g id="text_11">
      <!-- 0.6 -->
      <g transform="translate(27.876178 75.708964) scale(0.1 -0.1)">
       <use xlink:href="#DejaVuSans-30"/>
       <use xlink:href="#DejaVuSans-2e" x="63.623047"/>
       <use xlink:href="#DejaVuSans-36" x="95.410156"/>
      </g>
     </g>
    </g>
    <g id="ytick_5">
     <g id="line2d_11">
      <g>
       <use xlink:href="#me88295bec0" x="50.779303" y="41.283299" style="stroke: #000000; stroke-width: 0.8"/>
      </g>
     </g>
     <g id="text_12">
      <!-- 0.8 -->
      <g transform="translate(27.876178 45.082517) scale(0.1 -0.1)">
       <use xlink:href="#DejaVuSans-30"/>
       <use xlink:href="#DejaVuSans-2e" x="63.623047"/>
       <use xlink:href="#DejaVuSans-38" x="95.410156"/>
      </g>
     </g>
    </g>
    <g id="ytick_6">
     <g id="line2d_12">
      <g>
       <use xlink:href="#me88295bec0" x="50.779303" y="10.656852" style="stroke: #000000; stroke-width: 0.8"/>
      </g>
     </g>
     <g id="text_13">
      <!-- 1.0 -->
      <g transform="translate(27.876178 14.45607) scale(0.1 -0.1)">
       <use xlink:href="#DejaVuSans-31"/>
       <use xlink:href="#DejaVuSans-2e" x="63.623047"/>
       <use xlink:href="#DejaVuSans-30" x="95.410156"/>
      </g>
     </g>
    </g>
    <g id="text_14">
     <!-- Fraction of Sequence From -->
     <g transform="translate(10.598678 153.819844) rotate(-90) scale(0.1 -0.1)">
      <defs>
       <path id="DejaVuSans-46" d="M 628 4666 
L 3309 4666 
L 3309 4134 
L 1259 4134 
L 1259 2759 
L 3109 2759 
L 3109 2228 
L 1259 2228 
L 1259 0 
L 628 0 
L 628 4666 
z
" transform="scale(0.015625)"/>
       <path id="DejaVuSans-72" d="M 2631 2963 
Q 2534 3019 2420 3045 
Q 2306 3072 2169 3072 
Q 1681 3072 1420 2755 
Q 1159 2438 1159 1844 
L 1159 0 
L 581 0 
L 581 3500 
L 1159 3500 
L 1159 2956 
Q 1341 3275 1631 3429 
Q 1922 3584 2338 3584 
Q 2397 3584 2469 3576 
Q 2541 3569 2628 3553 
L 2631 2963 
z
" transform="scale(0.015625)"/>
       <path id="DejaVuSans-66" d="M 2375 4863 
L 2375 4384 
L 1825 4384 
Q 1516 4384 1395 4259 
Q 1275 4134 1275 3809 
L 1275 3500 
L 2222 3500 
L 2222 3053 
L 1275 3053 
L 1275 0 
L 697 0 
L 697 3053 
L 147 3053 
L 147 3500 
L 697 3500 
L 697 3744 
Q 697 4328 969 4595 
Q 1241 4863 1831 4863 
L 2375 4863 
z
" transform="scale(0.015625)"/>
       <path id="DejaVuSans-71" d="M 947 1747 
Q 947 1113 1208 752 
Q 1469 391 1925 391 
Q 2381 391 2643 752 
Q 2906 1113 2906 1747 
Q 2906 2381 2643 2742 
Q 2381 3103 1925 3103 
Q 1469 3103 1208 2742 
Q 947 2381 947 1747 
z
M 2906 525 
Q 2725 213 2448 61 
Q 2172 -91 1784 -91 
Q 1150 -91 751 415 
Q 353 922 353 1747 
Q 353 2572 751 3078 
Q 1150 3584 1784 3584 
Q 2172 3584 2448 3432 
Q 2725 3281 2906 2969 
L 2906 3500 
L 3481 3500 
L 3481 -1331 
L 2906 -1331 
L 2906 525 
z
" transform="scale(0.015625)"/>
       <path id="DejaVuSans-75" d="M 544 1381 
L 544 3500 
L 1119 3500 
L 1119 1403 
Q 1119 906 1312 657 
Q 1506 409 1894 409 
Q 2359 409 2629 706 
Q 2900 1003 2900 1516 
L 2900 3500 
L 3475 3500 
L 3475 0 
L 2900 0 
L 2900 538 
Q 2691 219 2414 64 
Q 2138 -91 1772 -91 
Q 1169 -91 856 284 
Q 544 659 544 1381 
z
M 1991 3584 
L 1991 3584 
z
" transform="scale(0.015625)"/>
      </defs>
      <use xlink:href="#DejaVuSans-46"/>
      <use xlink:href="#DejaVuSans-72" x="50.269531"/>
      <use xlink:href="#DejaVuSans-61" x="91.382812"/>
      <use xlink:href="#DejaVuSans-63" x="152.662109"/>
      <use xlink:href="#DejaVuSans-74" x="207.642578"/>
      <use xlink:href="#DejaVuSans-69" x="246.851562"/>
      <use xlink:href="#DejaVuSans-6f" x="274.634766"/>
      <use xlink:href="#DejaVuSans-6e" x="335.816406"/>
      <use xlink:href="#DejaVuSans-20" x="399.195312"/>
      <use xlink:href="#DejaVuSans-6f" x="430.982422"/>
      <use xlink:href="#DejaVuSans-66" x="492.164062"/>
      <use xlink:href="#DejaVuSans-20" x="527.369141"/>
      <use xlink:href="#DejaVuSans-53" x="559.15625"/>
      <use xlink:href="#DejaVuSans-65" x="622.632812"/>
      <use xlink:href="#DejaVuSans-71" x="684.15625"/>
      <use xlink:href="#DejaVuSans-75" x="747.632812"/>
      <use xlink:href="#DejaVuSans-65" x="811.011719"/>
      <use xlink:href="#DejaVuSans-6e" x="872.535156"/>
      <use xlink:href="#DejaVuSans-63" x="935.914062"/>
      <use xlink:href="#DejaVuSans-65" x="990.894531"/>
      <use xlink:href="#DejaVuSans-20" x="1052.417969"/>
      <use xlink:href="#DejaVuSans-46" x="1084.205078"/>
      <use xlink:href="#DejaVuSans-72" x="1134.474609"/>
      <use xlink:href="#DejaVuSans-6f" x="1173.337891"/>
      <use xlink:href="#DejaVuSans-6d" x="1234.519531"/>
     </g>
     <!-- Orange Subpopulation -->
     <g transform="translate(21.79649 143.41125) rotate(-90) scale(0.1 -0.1)">
      <defs>
       <path id="DejaVuSans-4f" d="M 2522 4238 
Q 1834 4238 1429 3725 
Q 1025 3213 1025 2328 
Q 1025 1447 1429 934 
Q 1834 422 2522 422 
Q 3209 422 3611 934 
Q 4013 1447 4013 2328 
Q 4013 3213 3611 3725 
Q 3209 4238 2522 4238 
z
M 2522 4750 
Q 3503 4750 4090 4092 
Q 4678 3434 4678 2328 
Q 4678 1225 4090 567 
Q 3503 -91 2522 -91 
Q 1538 -91 948 565 
Q 359 1222 359 2328 
Q 359 3434 948 4092 
Q 1538 4750 2522 4750 
z
" transform="scale(0.015625)"/>
       <path id="DejaVuSans-62" d="M 3116 1747 
Q 3116 2381 2855 2742 
Q 2594 3103 2138 3103 
Q 1681 3103 1420 2742 
Q 1159 2381 1159 1747 
Q 1159 1113 1420 752 
Q 1681 391 2138 391 
Q 2594 391 2855 752 
Q 3116 1113 3116 1747 
z
M 1159 2969 
Q 1341 3281 1617 3432 
Q 1894 3584 2278 3584 
Q 2916 3584 3314 3078 
Q 3713 2572 3713 1747 
Q 3713 922 3314 415 
Q 2916 -91 2278 -91 
Q 1894 -91 1617 61 
Q 1341 213 1159 525 
L 1159 0 
L 581 0 
L 581 4863 
L 1159 4863 
L 1159 2969 
z
" transform="scale(0.015625)"/>
      </defs>
      <use xlink:href="#DejaVuSans-4f"/>
      <use xlink:href="#DejaVuSans-72" x="78.710938"/>
      <use xlink:href="#DejaVuSans-61" x="119.824219"/>
      <use xlink:href="#DejaVuSans-6e" x="181.103516"/>
      <use xlink:href="#DejaVuSans-67" x="244.482422"/>
      <use xlink:href="#DejaVuSans-65" x="307.958984"/>
      <use xlink:href="#DejaVuSans-20" x="369.482422"/>
      <use xlink:href="#DejaVuSans-53" x="401.269531"/>
      <use xlink:href="#DejaVuSans-75" x="464.746094"/>
      <use xlink:href="#DejaVuSans-62" x="528.125"/>
      <use xlink:href="#DejaVuSans-70" x="591.601562"/>
      <use xlink:href="#DejaVuSans-6f" x="655.078125"/>
      <use xlink:href="#DejaVuSans-70" x="716.259766"/>
      <use xlink:href="#DejaVuSans-75" x="779.736328"/>
      <use xlink:href="#DejaVuSans-6c" x="843.115234"/>
      <use xlink:href="#DejaVuSans-61" x="870.898438"/>
      <use xlink:href="#DejaVuSans-74" x="932.177734"/>
      <use xlink:href="#DejaVuSans-69" x="971.386719"/>
      <use xlink:href="#DejaVuSans-6f" x="999.169922"/>
      <use xlink:href="#DejaVuSans-6e" x="1060.351562"/>
     </g>
    </g>
   </g>
   <g id="line2d_13">
    <path d="M 114.269339 171.445697 
L 114.269339 3.00024 
" clip-path="url(#p71bef7c893)" style="fill: none; stroke: #1f77b4; stroke-width: 1.5; stroke-linecap: square"/>
   </g>
   <g id="line2d_14">
    <path d="M 221.726114 171.445697 
L 221.726114 3.00024 
" clip-path="url(#p71bef7c893)" style="fill: none; stroke: #ff7f0e; stroke-width: 1.5; stroke-linecap: square"/>
   </g>
   <g id="patch_3">
    <path d="M 50.779303 171.445697 
L 50.779303 3.00024 
" style="fill: none; stroke: #000000; stroke-width: 0.8; stroke-linejoin: miter; stroke-linecap: square"/>
   </g>
   <g id="patch_4">
    <path d="M 279.325231 171.445697 
L 279.325231 3.00024 
" style="fill: none; stroke: #000000; stroke-width: 0.8; stroke-linejoin: miter; stroke-linecap: square"/>
   </g>
   <g id="patch_5">
    <path d="M 50.779303 171.445697 
L 279.325231 171.445697 
" style="fill: none; stroke: #000000; stroke-width: 0.8; stroke-linejoin: miter; stroke-linecap: square"/>
   </g>
   <g id="patch_6">
    <path d="M 50.779303 3.00024 
L 279.325231 3.00024 
" style="fill: none; stroke: #000000; stroke-width: 0.8; stroke-linejoin: miter; stroke-linecap: square"/>
   </g>
  </g>
 </g>
 <defs>
  <clipPath id="p71bef7c893">
   <rect x="50.779303" y="3.00024" width="228.545928" height="168.445457"/>
  </clipPath>
 </defs>
</svg>
