<?xml version="1.0" encoding="utf-8" standalone="no"?>
<!DOCTYPE svg PUBLIC "-//W3C//DTD SVG 1.1//EN"
  "http://www.w3.org/Graphics/SVG/1.1/DTD/svg11.dtd">
<svg xmlns:xlink="http://www.w3.org/1999/xlink" width="432pt" height="360pt" viewBox="0 0 432 360" xmlns="http://www.w3.org/2000/svg" version="1.1">
 <metadata>
  <rdf:RDF xmlns:dc="http://purl.org/dc/elements/1.1/" xmlns:cc="http://creativecommons.org/ns#" xmlns:rdf="http://www.w3.org/1999/02/22-rdf-syntax-ns#">
   <cc:Work>
    <dc:type rdf:resource="http://purl.org/dc/dcmitype/StillImage"/>
    <dc:date>2024-07-01T16:30:36.050865</dc:date>
    <dc:format>image/svg+xml</dc:format>
    <dc:creator>
     <cc:Agent>
      <dc:title>Matplotlib v3.7.2, https://matplotlib.org/</dc:title>
     </cc:Agent>
    </dc:creator>
   </cc:Work>
  </rdf:RDF>
 </metadata>
 <defs>
  <style type="text/css">*{stroke-linejoin: round; stroke-linecap: butt}</style>
 </defs>
 <g id="figure_1">
  <g id="patch_1">
   <path d="M 0 360 
L 432 360 
L 432 0 
L 0 0 
z
" style="fill: #ffffff"/>
  </g>
  <g id="axes_1">
   <g id="patch_2">
    <path d="M 54 320.4 
L 388.8 320.4 
L 388.8 43.2 
L 54 43.2 
z
" style="fill: #ffffff"/>
   </g>
   <g id="PolyCollection_1">
    <path d="M 104.462992 307.8 
L 77.453891 307.8 
L 74.668839 305.254545 
L 72.335082 302.709091 
L 70.630328 300.163636 
L 69.608685 297.618182 
L 69.218182 295.072727 
L 69.344385 292.527273 
L 69.853686 289.981818 
L 70.619079 287.436364 
L 71.527797 284.890909 
L 72.481662 282.345455 
L 73.401159 279.8 
L 74.23584 277.254545 
L 74.974417 274.709091 
L 75.645018 272.163636 
L 76.301205 269.618182 
L 76.998402 267.072727 
L 77.771539 264.527273 
L 78.623917 261.981818 
L 79.530587 259.436364 
L 80.451862 256.890909 
L 81.348605 254.345455 
L 82.192135 251.8 
L 82.966187 249.254545 
L 83.663191 246.709091 
L 84.279683 244.163636 
L 84.814922 241.618182 
L 85.273494 239.072727 
L 85.669112 236.527273 
L 86.025209 233.981818 
L 86.369722 231.436364 
L 86.725464 228.890909 
L 87.10094 226.345455 
L 87.486909 223.8 
L 87.860869 221.254545 
L 88.197181 218.709091 
L 88.477598 216.163636 
L 88.697262 213.618182 
L 88.864108 211.072727 
L 88.993102 208.527273 
L 89.098944 205.981818 
L 89.190962 203.436364 
L 89.272261 200.890909 
L 89.342679 198.345455 
L 89.403104 195.8 
L 89.458255 193.254545 
L 89.516299 190.709091 
L 89.585819 188.163636 
L 89.672066 185.618182 
L 89.7745 183.072727 
L 89.886596 180.527273 
L 89.997713 177.981818 
L 90.096168 175.436364 
L 90.172534 172.890909 
L 90.222298 170.345455 
L 90.247157 167.8 
L 90.254553 165.254545 
L 90.255454 162.709091 
L 90.261003 160.163636 
L 90.279183 157.618182 
L 90.312776 155.072727 
L 90.359508 152.527273 
L 90.414192 149.981818 
L 90.471686 147.436364 
L 90.529036 144.890909 
L 90.585802 142.345455 
L 90.64275 139.8 
L 90.700073 137.254545 
L 90.756351 134.709091 
L 90.808774 132.163636 
L 90.854247 129.618182 
L 90.890599 127.072727 
L 90.917214 124.527273 
L 90.934919 121.981818 
L 90.945361 119.436364 
L 90.950271 116.890909 
L 90.950943 114.345455 
L 90.948054 111.8 
L 90.941838 109.254545 
L 90.932472 106.709091 
L 90.920494 104.163636 
L 90.907018 101.618182 
L 90.893615 99.072727 
L 90.881899 96.527273 
L 90.873085 93.981818 
L 90.867785 91.436364 
L 90.866153 88.890909 
L 90.868173 86.345455 
L 90.873766 83.8 
L 90.882596 81.254545 
L 90.893719 78.709091 
L 90.905448 76.163636 
L 90.915601 73.618182 
L 90.922106 71.072727 
L 90.923677 68.527273 
L 90.920305 65.981818 
L 90.913383 63.436364 
L 90.905385 60.890909 
L 90.899155 58.345455 
L 90.897004 55.8 
L 91.019879 55.8 
L 91.019879 55.8 
L 91.017728 58.345455 
L 91.011499 60.890909 
L 91.0035 63.436364 
L 90.996578 65.981818 
L 90.993207 68.527273 
L 90.994777 71.072727 
L 91.001282 73.618182 
L 91.011435 76.163636 
L 91.023164 78.709091 
L 91.034288 81.254545 
L 91.043117 83.8 
L 91.04871 86.345455 
L 91.05073 88.890909 
L 91.049098 91.436364 
L 91.043798 93.981818 
L 91.034984 96.527273 
L 91.023268 99.072727 
L 91.009865 101.618182 
L 90.996389 104.163636 
L 90.984411 106.709091 
L 90.975045 109.254545 
L 90.968829 111.8 
L 90.96594 114.345455 
L 90.966612 116.890909 
L 90.971522 119.436364 
L 90.981964 121.981818 
L 90.999669 124.527273 
L 91.026284 127.072727 
L 91.062636 129.618182 
L 91.10811 132.163636 
L 91.160532 134.709091 
L 91.216811 137.254545 
L 91.274133 139.8 
L 91.331081 142.345455 
L 91.387847 144.890909 
L 91.445197 147.436364 
L 91.502691 149.981818 
L 91.557375 152.527273 
L 91.604107 155.072727 
L 91.637701 157.618182 
L 91.65588 160.163636 
L 91.661429 162.709091 
L 91.66233 165.254545 
L 91.669726 167.8 
L 91.694585 170.345455 
L 91.744349 172.890909 
L 91.820715 175.436364 
L 91.91917 177.981818 
L 92.030287 180.527273 
L 92.142383 183.072727 
L 92.244817 185.618182 
L 92.331064 188.163636 
L 92.400584 190.709091 
L 92.458628 193.254545 
L 92.513779 195.8 
L 92.574205 198.345455 
L 92.644622 200.890909 
L 92.725921 203.436364 
L 92.817939 205.981818 
L 92.923781 208.527273 
L 93.052775 211.072727 
L 93.219621 213.618182 
L 93.439286 216.163636 
L 93.719702 218.709091 
L 94.056014 221.254545 
L 94.429974 223.8 
L 94.815943 226.345455 
L 95.191419 228.890909 
L 95.547161 231.436364 
L 95.891674 233.981818 
L 96.247771 236.527273 
L 96.643389 239.072727 
L 97.101961 241.618182 
L 97.6372 244.163636 
L 98.253692 246.709091 
L 98.950696 249.254545 
L 99.724748 251.8 
L 100.568278 254.345455 
L 101.465021 256.890909 
L 102.386296 259.436364 
L 103.292966 261.981818 
L 104.145344 264.527273 
L 104.918481 267.072727 
L 105.615678 269.618182 
L 106.271866 272.163636 
L 106.942466 274.709091 
L 107.681043 277.254545 
L 108.515724 279.8 
L 109.435221 282.345455 
L 110.389086 284.890909 
L 111.297804 287.436364 
L 112.063197 289.981818 
L 112.572498 292.527273 
L 112.698701 295.072727 
L 112.308199 297.618182 
L 111.286555 300.163636 
L 109.581801 302.709091 
L 107.248044 305.254545 
L 104.462992 307.8 
z
" clip-path="url(#pc17bf6a31d)" style="fill: #1f77b4; fill-opacity: 0.3"/>
   </g>
   <g id="PolyCollection_2">
    <path d="M 191.062854 307.8 
L 164.776107 307.8 
L 162.333469 305.786341 
L 160.186937 303.772681 
L 158.47034 301.759022 
L 157.246111 299.745363 
L 156.504638 297.731704 
L 156.180794 295.718044 
L 156.179221 293.704385 
L 156.39947 291.690726 
L 156.755252 289.677067 
L 157.185932 287.663407 
L 157.660746 285.649748 
L 158.176708 283.636089 
L 158.751007 281.62243 
L 159.409127 279.60877 
L 160.17135 277.595111 
L 161.041551 275.581452 
L 162.002106 273.567793 
L 163.016595 271.554133 
L 164.038861 269.540474 
L 165.024329 267.526815 
L 165.939088 265.513156 
L 166.763965 263.499496 
L 167.493662 261.485837 
L 168.133062 259.472178 
L 168.6931 257.458519 
L 169.18748 255.444859 
L 169.630075 253.4312 
L 170.032442 251.417541 
L 170.401452 249.403882 
L 170.737993 247.390222 
L 171.03794 245.376563 
L 171.295777 243.362904 
L 171.509772 241.349244 
L 171.686513 239.335585 
L 171.842531 237.321926 
L 172.001945 235.308267 
L 172.190762 233.294607 
L 172.429899 231.280948 
L 172.729455 229.267289 
L 173.086123 227.25363 
L 173.484398 225.23997 
L 173.900838 223.226311 
L 174.309819 221.212652 
L 174.688971 219.198993 
L 175.02291 217.185333 
L 175.304658 215.171674 
L 175.534921 213.158015 
L 175.719976 211.144356 
L 175.869112 209.130696 
L 175.992358 207.117037 
L 176.098897 205.103378 
L 176.196171 203.089719 
L 176.289538 201.076059 
L 176.38229 199.0624 
L 176.47592 197.048741 
L 176.570512 195.035082 
L 176.665144 193.021422 
L 176.758196 191.007763 
L 176.847546 188.994104 
L 176.930766 186.980445 
L 177.00549 184.966785 
L 177.069984 182.953126 
L 177.123775 180.939467 
L 177.168008 178.925808 
L 177.205253 176.912148 
L 177.23875 174.898489 
L 177.271387 172.88483 
L 177.304894 170.87117 
L 177.339659 168.857511 
L 177.375211 166.843852 
L 177.411065 164.830193 
L 177.447371 162.816533 
L 177.48499 160.802874 
L 177.524955 158.789215 
L 177.567684 156.775556 
L 177.612468 154.761896 
L 177.657549 152.748237 
L 177.700734 150.734578 
L 177.740157 148.720919 
L 177.774774 146.707259 
L 177.804375 144.6936 
L 177.829227 142.679941 
L 177.849622 140.666282 
L 177.865591 138.652622 
L 177.87689 136.638963 
L 177.883206 134.625304 
L 177.884442 132.611645 
L 177.880946 130.597985 
L 177.873608 128.584326 
L 177.863789 126.570667 
L 177.853089 124.557008 
L 177.843016 122.543348 
L 177.834698 120.529689 
L 177.828732 118.51603 
L 177.825259 116.502371 
L 177.824203 114.488711 
L 177.825517 112.475052 
L 177.829294 110.461393 
L 177.835658 108.447733 
L 178.003303 108.447733 
L 178.003303 108.447733 
L 178.009667 110.461393 
L 178.013444 112.475052 
L 178.014758 114.488711 
L 178.013702 116.502371 
L 178.010229 118.51603 
L 178.004263 120.529689 
L 177.995945 122.543348 
L 177.985872 124.557008 
L 177.975172 126.570667 
L 177.965353 128.584326 
L 177.958015 130.597985 
L 177.954519 132.611645 
L 177.955755 134.625304 
L 177.962071 136.638963 
L 177.97337 138.652622 
L 177.989339 140.666282 
L 178.009734 142.679941 
L 178.034586 144.6936 
L 178.064187 146.707259 
L 178.098804 148.720919 
L 178.138227 150.734578 
L 178.181412 152.748237 
L 178.226493 154.761896 
L 178.271277 156.775556 
L 178.314007 158.789215 
L 178.353971 160.802874 
L 178.39159 162.816533 
L 178.427896 164.830193 
L 178.46375 166.843852 
L 178.499303 168.857511 
L 178.534067 170.87117 
L 178.567575 172.88483 
L 178.600211 174.898489 
L 178.633708 176.912148 
L 178.670953 178.925808 
L 178.715186 180.939467 
L 178.768977 182.953126 
L 178.833472 184.966785 
L 178.908195 186.980445 
L 178.991415 188.994104 
L 179.080765 191.007763 
L 179.173817 193.021422 
L 179.268449 195.035082 
L 179.363041 197.048741 
L 179.456671 199.0624 
L 179.549423 201.076059 
L 179.64279 203.089719 
L 179.740064 205.103378 
L 179.846603 207.117037 
L 179.969849 209.130696 
L 180.118985 211.144356 
L 180.30404 213.158015 
L 180.534303 215.171674 
L 180.816052 217.185333 
L 181.149991 219.198993 
L 181.529142 221.212652 
L 181.938123 223.226311 
L 182.354563 225.23997 
L 182.752838 227.25363 
L 183.109506 229.267289 
L 183.409062 231.280948 
L 183.648199 233.294607 
L 183.837016 235.308267 
L 183.99643 237.321926 
L 184.152448 239.335585 
L 184.329189 241.349244 
L 184.543184 243.362904 
L 184.801021 245.376563 
L 185.100968 247.390222 
L 185.437509 249.403882 
L 185.806519 251.417541 
L 186.208886 253.4312 
L 186.651481 255.444859 
L 187.145861 257.458519 
L 187.705899 259.472178 
L 188.345299 261.485837 
L 189.074996 263.499496 
L 189.899873 265.513156 
L 190.814632 267.526815 
L 191.8001 269.540474 
L 192.822366 271.554133 
L 193.836855 273.567793 
L 194.79741 275.581452 
L 195.667611 277.595111 
L 196.429834 279.60877 
L 197.087954 281.62243 
L 197.662253 283.636089 
L 198.178215 285.649748 
L 198.653029 287.663407 
L 199.083709 289.677067 
L 199.439491 291.690726 
L 199.65974 293.704385 
L 199.658168 295.718044 
L 199.334323 297.731704 
L 198.59285 299.745363 
L 197.368621 301.759022 
L 195.652024 303.772681 
L 193.505492 305.786341 
L 191.062854 307.8 
z
" clip-path="url(#pc17bf6a31d)" style="fill: #1f77b4; fill-opacity: 0.3"/>
   </g>
   <g id="PolyCollection_3">
    <path d="M 278.289621 307.8 
L 251.471418 307.8 
L 249.885367 306.215812 
L 248.393322 304.631623 
L 247.041028 303.047435 
L 245.865819 301.463247 
L 244.894019 299.879058 
L 244.139546 298.29487 
L 243.603845 296.710682 
L 243.277068 295.126493 
L 243.14026 293.542305 
L 243.16819 291.958117 
L 243.332427 290.373928 
L 243.604259 288.78974 
L 243.957136 287.205552 
L 244.368412 285.621363 
L 244.8203 284.037175 
L 245.300044 282.452987 
L 245.799438 280.868798 
L 246.313861 279.28461 
L 246.841051 277.700422 
L 247.379823 276.116233 
L 247.928921 274.532045 
L 248.486142 272.947857 
L 249.047821 271.363668 
L 249.608695 269.77948 
L 250.16212 268.195292 
L 250.700581 266.611103 
L 251.216382 265.026915 
L 251.702416 263.442727 
L 252.152896 261.858538 
L 252.56396 260.27435 
L 252.934068 258.690162 
L 253.264147 257.105973 
L 253.557478 255.521785 
L 253.819316 253.937597 
L 254.056314 252.353408 
L 254.275795 250.76922 
L 254.484978 249.185032 
L 254.690231 247.600843 
L 254.896474 246.016655 
L 255.10678 244.432467 
L 255.322232 242.848278 
L 255.542041 241.26409 
L 255.763889 239.679902 
L 255.984423 238.095713 
L 256.199819 236.511525 
L 256.406322 234.927337 
L 256.600696 233.343148 
L 256.780531 231.75896 
L 256.944405 230.174772 
L 257.091911 228.590583 
L 257.223566 227.006395 
L 257.34067 225.422207 
L 257.445105 223.838018 
L 257.539132 222.25383 
L 257.625188 220.669642 
L 257.705705 219.085453 
L 257.782964 217.501265 
L 257.859014 215.917077 
L 257.935652 214.332888 
L 258.01448 212.7487 
L 258.097008 211.164512 
L 258.184783 209.580323 
L 258.279479 207.996135 
L 258.38292 206.411947 
L 258.496984 204.827758 
L 258.623414 203.24357 
L 258.763536 201.659382 
L 258.917976 200.075193 
L 259.086426 198.491005 
L 259.267543 196.906817 
L 259.459014 195.322628 
L 259.657787 193.73844 
L 259.860431 192.154252 
L 260.063545 190.570064 
L 260.26414 188.985875 
L 260.459906 187.401687 
L 260.649332 185.817499 
L 260.831669 184.23331 
L 261.00677 182.649122 
L 261.174862 181.064934 
L 261.33633 179.480745 
L 261.491565 177.896557 
L 261.640906 176.312369 
L 261.784678 174.72818 
L 261.923307 173.143992 
L 262.057447 171.559804 
L 262.188086 169.975615 
L 262.316583 168.391427 
L 262.4446 166.807239 
L 262.573954 165.22305 
L 262.706393 163.638862 
L 262.843346 162.054674 
L 262.985683 160.470485 
L 263.133544 158.886297 
L 263.286247 157.302109 
L 263.44231 155.71792 
L 263.599567 154.133732 
L 263.755368 152.549544 
L 263.906833 150.965355 
L 265.854206 150.965355 
L 265.854206 150.965355 
L 266.005671 152.549544 
L 266.161472 154.133732 
L 266.318729 155.71792 
L 266.474792 157.302109 
L 266.627495 158.886297 
L 266.775356 160.470485 
L 266.917693 162.054674 
L 267.054645 163.638862 
L 267.187085 165.22305 
L 267.316439 166.807239 
L 267.444456 168.391427 
L 267.572953 169.975615 
L 267.703592 171.559804 
L 267.837732 173.143992 
L 267.976361 174.72818 
L 268.120133 176.312369 
L 268.269474 177.896557 
L 268.424709 179.480745 
L 268.586177 181.064934 
L 268.754269 182.649122 
L 268.929369 184.23331 
L 269.111707 185.817499 
L 269.301133 187.401687 
L 269.496899 188.985875 
L 269.697494 190.570064 
L 269.900608 192.154252 
L 270.103252 193.73844 
L 270.302025 195.322628 
L 270.493496 196.906817 
L 270.674613 198.491005 
L 270.843063 200.075193 
L 270.997503 201.659382 
L 271.137625 203.24357 
L 271.264054 204.827758 
L 271.378119 206.411947 
L 271.481559 207.996135 
L 271.576256 209.580323 
L 271.664031 211.164512 
L 271.746559 212.7487 
L 271.825387 214.332888 
L 271.902025 215.917077 
L 271.978075 217.501265 
L 272.055334 219.085453 
L 272.135851 220.669642 
L 272.221907 222.25383 
L 272.315934 223.838018 
L 272.420369 225.422207 
L 272.537473 227.006395 
L 272.669128 228.590583 
L 272.816634 230.174772 
L 272.980508 231.75896 
L 273.160343 233.343148 
L 273.354717 234.927337 
L 273.56122 236.511525 
L 273.776616 238.095713 
L 273.99715 239.679902 
L 274.218998 241.26409 
L 274.438807 242.848278 
L 274.654259 244.432467 
L 274.864565 246.016655 
L 275.070808 247.600843 
L 275.276061 249.185032 
L 275.485244 250.76922 
L 275.704725 252.353408 
L 275.941723 253.937597 
L 276.203561 255.521785 
L 276.496892 257.105973 
L 276.826971 258.690162 
L 277.197079 260.27435 
L 277.608143 261.858538 
L 278.058623 263.442727 
L 278.544657 265.026915 
L 279.060458 266.611103 
L 279.598919 268.195292 
L 280.152344 269.77948 
L 280.713218 271.363668 
L 281.274897 272.947857 
L 281.832118 274.532045 
L 282.381216 276.116233 
L 282.919987 277.700422 
L 283.447178 279.28461 
L 283.961601 280.868798 
L 284.460995 282.452987 
L 284.940739 284.037175 
L 285.392627 285.621363 
L 285.803903 287.205552 
L 286.15678 288.78974 
L 286.428612 290.373928 
L 286.592849 291.958117 
L 286.620779 293.542305 
L 286.483971 295.126493 
L 286.157194 296.710682 
L 285.621493 298.29487 
L 284.86702 299.879058 
L 283.89522 301.463247 
L 282.720011 303.047435 
L 281.367716 304.631623 
L 279.875672 306.215812 
L 278.289621 307.8 
z
" clip-path="url(#pc17bf6a31d)" style="fill: #1f77b4; fill-opacity: 0.3"/>
   </g>
   <g id="PolyCollection_4">
    <path d="M 365.049017 307.8 
L 338.6341 307.8 
L 336.177297 305.353337 
L 334.04887 302.906673 
L 332.368284 300.46001 
L 331.176707 298.013347 
L 330.448234 295.566684 
L 330.116178 293.12002 
L 330.101299 290.673357 
L 330.332354 288.226694 
L 330.755808 285.780031 
L 331.336511 283.333367 
L 332.052749 280.886704 
L 332.888552 278.440041 
L 333.825539 275.993377 
L 334.836619 273.546714 
L 335.883966 271.100051 
L 336.922748 268.653388 
L 337.90987 266.206724 
L 338.814538 263.760061 
L 339.626077 261.313398 
L 340.355237 258.866735 
L 341.027991 256.420071 
L 341.674259 253.973408 
L 342.316239 251.526745 
L 342.960989 249.080082 
L 343.599641 246.633418 
L 344.212672 244.186755 
L 344.77842 241.740092 
L 345.281417 239.293428 
L 345.717771 236.846765 
L 346.096149 234.400102 
L 346.434376 231.953439 
L 346.753019 229.506775 
L 347.068357 227.060112 
L 347.38732 224.613449 
L 347.706213 222.166786 
L 348.013373 219.720122 
L 348.294375 217.273459 
L 348.537567 214.826796 
L 348.73804 212.380132 
L 348.899105 209.933469 
L 349.03137 207.486806 
L 349.150045 205.040143 
L 349.271232 202.593479 
L 349.407894 200.146816 
L 349.566294 197.700153 
L 349.74377 195.25349 
L 349.928652 192.806826 
L 350.102706 190.360163 
L 350.245826 187.9135 
L 350.341902 185.466836 
L 350.384233 183.020173 
L 350.378685 180.57351 
L 350.343278 178.126847 
L 350.303938 175.680183 
L 350.287492 173.23352 
L 350.314131 170.786857 
L 350.3919 168.340194 
L 350.515156 165.89353 
L 350.667438 163.446867 
L 350.827535 161.000204 
L 350.976353 158.553541 
L 351.102041 156.106877 
L 351.20179 153.660214 
L 351.280223 151.213551 
L 351.345651 148.766887 
L 351.406068 146.320224 
L 351.466387 143.873561 
L 351.527557 141.426898 
L 351.5873 138.980234 
L 351.64172 136.533571 
L 351.68702 134.086908 
L 351.720768 131.640245 
L 351.742491 129.193581 
L 351.753556 126.746918 
L 351.756523 124.300255 
L 351.754231 121.853591 
L 351.748998 119.406928 
L 351.742238 116.960265 
L 351.734606 114.513602 
L 351.72656 112.066938 
L 351.718936 109.620275 
L 351.713209 107.173612 
L 351.711231 104.726949 
L 351.714588 102.280285 
L 351.723918 99.833622 
L 351.738547 97.386959 
L 351.756615 94.940295 
L 351.775608 92.493632 
L 351.793031 90.046969 
L 351.806927 87.600306 
L 351.816118 85.153642 
L 351.820177 82.706979 
L 351.819292 80.260316 
L 351.814166 77.813653 
L 351.805994 75.366989 
L 351.796443 72.920326 
L 351.787507 70.473663 
L 351.78116 68.027 
L 351.778884 65.580336 
L 351.904233 65.580336 
L 351.904233 65.580336 
L 351.901957 68.027 
L 351.89561 70.473663 
L 351.886673 72.920326 
L 351.877123 75.366989 
L 351.86895 77.813653 
L 351.863825 80.260316 
L 351.86294 82.706979 
L 351.866999 85.153642 
L 351.87619 87.600306 
L 351.890086 90.046969 
L 351.907508 92.493632 
L 351.926502 94.940295 
L 351.94457 97.386959 
L 351.959199 99.833622 
L 351.968529 102.280285 
L 351.971886 104.726949 
L 351.969908 107.173612 
L 351.964181 109.620275 
L 351.956557 112.066938 
L 351.94851 114.513602 
L 351.940879 116.960265 
L 351.934118 119.406928 
L 351.928886 121.853591 
L 351.926594 124.300255 
L 351.929561 126.746918 
L 351.940626 129.193581 
L 351.962348 131.640245 
L 351.996097 134.086908 
L 352.041397 136.533571 
L 352.095817 138.980234 
L 352.15556 141.426898 
L 352.21673 143.873561 
L 352.277049 146.320224 
L 352.337466 148.766887 
L 352.402894 151.213551 
L 352.481326 153.660214 
L 352.581076 156.106877 
L 352.706764 158.553541 
L 352.855582 161.000204 
L 353.015679 163.446867 
L 353.167961 165.89353 
L 353.291217 168.340194 
L 353.368986 170.786857 
L 353.395625 173.23352 
L 353.379179 175.680183 
L 353.339838 178.126847 
L 353.304432 180.57351 
L 353.298884 183.020173 
L 353.341215 185.466836 
L 353.437291 187.9135 
L 353.580411 190.360163 
L 353.754465 192.806826 
L 353.939347 195.25349 
L 354.116823 197.700153 
L 354.275223 200.146816 
L 354.411885 202.593479 
L 354.533072 205.040143 
L 354.651747 207.486806 
L 354.784012 209.933469 
L 354.945077 212.380132 
L 355.14555 214.826796 
L 355.388742 217.273459 
L 355.669744 219.720122 
L 355.976904 222.166786 
L 356.295797 224.613449 
L 356.61476 227.060112 
L 356.930098 229.506775 
L 357.248741 231.953439 
L 357.586968 234.400102 
L 357.965346 236.846765 
L 358.4017 239.293428 
L 358.904697 241.740092 
L 359.470445 244.186755 
L 360.083476 246.633418 
L 360.722128 249.080082 
L 361.366878 251.526745 
L 362.008858 253.973408 
L 362.655126 256.420071 
L 363.32788 258.866735 
L 364.05704 261.313398 
L 364.868579 263.760061 
L 365.773247 266.206724 
L 366.760369 268.653388 
L 367.799151 271.100051 
L 368.846498 273.546714 
L 369.857578 275.993377 
L 370.794565 278.440041 
L 371.630368 280.886704 
L 372.346606 283.333367 
L 372.927309 285.780031 
L 373.350763 288.226694 
L 373.581818 290.673357 
L 373.566939 293.12002 
L 373.234883 295.566684 
L 372.50641 298.013347 
L 371.314833 300.46001 
L 369.634247 302.906673 
L 367.50582 305.353337 
L 365.049017 307.8 
z
" clip-path="url(#pc17bf6a31d)" style="fill: #1f77b4; fill-opacity: 0.3"/>
   </g>
   <g id="matplotlib.axis_1">
    <g id="xtick_1">
     <g id="line2d_1">
      <defs>
       <path id="me170555b74" d="M 0 0 
L 0 3.5 
" style="stroke: #000000; stroke-width: 0.8"/>
      </defs>
      <g>
       <use xlink:href="#me170555b74" x="90.958442" y="320.4" style="stroke: #000000; stroke-width: 0.8"/>
      </g>
     </g>
     <g id="text_1">
      <!-- W0 -->
      <g transform="translate(82.833442 334.998438) scale(0.1 -0.1)">
       <defs>
        <path id="DejaVuSans-57" d="M 213 4666 
L 850 4666 
L 1831 722 
L 2809 4666 
L 3519 4666 
L 4500 722 
L 5478 4666 
L 6119 4666 
L 4947 0 
L 4153 0 
L 3169 4050 
L 2175 0 
L 1381 0 
L 213 4666 
z
" transform="scale(0.015625)"/>
        <path id="DejaVuSans-30" d="M 2034 4250 
Q 1547 4250 1301 3770 
Q 1056 3291 1056 2328 
Q 1056 1369 1301 889 
Q 1547 409 2034 409 
Q 2525 409 2770 889 
Q 3016 1369 3016 2328 
Q 3016 3291 2770 3770 
Q 2525 4250 2034 4250 
z
M 2034 4750 
Q 2819 4750 3233 4129 
Q 3647 3509 3647 2328 
Q 3647 1150 3233 529 
Q 2819 -91 2034 -91 
Q 1250 -91 836 529 
Q 422 1150 422 2328 
Q 422 3509 836 4129 
Q 1250 4750 2034 4750 
z
" transform="scale(0.015625)"/>
       </defs>
       <use xlink:href="#DejaVuSans-57"/>
       <use xlink:href="#DejaVuSans-30" x="98.876953"/>
      </g>
     </g>
    </g>
    <g id="xtick_2">
     <g id="line2d_2">
      <g>
       <use xlink:href="#me170555b74" x="177.919481" y="320.4" style="stroke: #000000; stroke-width: 0.8"/>
      </g>
     </g>
     <g id="text_2">
      <!-- W100 -->
      <g transform="translate(163.431981 334.998438) scale(0.1 -0.1)">
       <defs>
        <path id="DejaVuSans-31" d="M 794 531 
L 1825 531 
L 1825 4091 
L 703 3866 
L 703 4441 
L 1819 4666 
L 2450 4666 
L 2450 531 
L 3481 531 
L 3481 0 
L 794 0 
L 794 531 
z
" transform="scale(0.015625)"/>
       </defs>
       <use xlink:href="#DejaVuSans-57"/>
       <use xlink:href="#DejaVuSans-31" x="98.876953"/>
       <use xlink:href="#DejaVuSans-30" x="162.5"/>
       <use xlink:href="#DejaVuSans-30" x="226.123047"/>
      </g>
     </g>
    </g>
    <g id="xtick_3">
     <g id="line2d_3">
      <g>
       <use xlink:href="#me170555b74" x="264.880519" y="320.4" style="stroke: #000000; stroke-width: 0.8"/>
      </g>
     </g>
     <g id="text_3">
      <!-- Chromosome -->
      <g transform="translate(231.677394 334.998438) scale(0.1 -0.1)">
       <defs>
        <path id="DejaVuSans-43" d="M 4122 4306 
L 4122 3641 
Q 3803 3938 3442 4084 
Q 3081 4231 2675 4231 
Q 1875 4231 1450 3742 
Q 1025 3253 1025 2328 
Q 1025 1406 1450 917 
Q 1875 428 2675 428 
Q 3081 428 3442 575 
Q 3803 722 4122 1019 
L 4122 359 
Q 3791 134 3420 21 
Q 3050 -91 2638 -91 
Q 1578 -91 968 557 
Q 359 1206 359 2328 
Q 359 3453 968 4101 
Q 1578 4750 2638 4750 
Q 3056 4750 3426 4639 
Q 3797 4528 4122 4306 
z
" transform="scale(0.015625)"/>
        <path id="DejaVuSans-68" d="M 3513 2113 
L 3513 0 
L 2938 0 
L 2938 2094 
Q 2938 2591 2744 2837 
Q 2550 3084 2163 3084 
Q 1697 3084 1428 2787 
Q 1159 2491 1159 1978 
L 1159 0 
L 581 0 
L 581 4863 
L 1159 4863 
L 1159 2956 
Q 1366 3272 1645 3428 
Q 1925 3584 2291 3584 
Q 2894 3584 3203 3211 
Q 3513 2838 3513 2113 
z
" transform="scale(0.015625)"/>
        <path id="DejaVuSans-72" d="M 2631 2963 
Q 2534 3019 2420 3045 
Q 2306 3072 2169 3072 
Q 1681 3072 1420 2755 
Q 1159 2438 1159 1844 
L 1159 0 
L 581 0 
L 581 3500 
L 1159 3500 
L 1159 2956 
Q 1341 3275 1631 3429 
Q 1922 3584 2338 3584 
Q 2397 3584 2469 3576 
Q 2541 3569 2628 3553 
L 2631 2963 
z
" transform="scale(0.015625)"/>
        <path id="DejaVuSans-6f" d="M 1959 3097 
Q 1497 3097 1228 2736 
Q 959 2375 959 1747 
Q 959 1119 1226 758 
Q 1494 397 1959 397 
Q 2419 397 2687 759 
Q 2956 1122 2956 1747 
Q 2956 2369 2687 2733 
Q 2419 3097 1959 3097 
z
M 1959 3584 
Q 2709 3584 3137 3096 
Q 3566 2609 3566 1747 
Q 3566 888 3137 398 
Q 2709 -91 1959 -91 
Q 1206 -91 779 398 
Q 353 888 353 1747 
Q 353 2609 779 3096 
Q 1206 3584 1959 3584 
z
" transform="scale(0.015625)"/>
        <path id="DejaVuSans-6d" d="M 3328 2828 
Q 3544 3216 3844 3400 
Q 4144 3584 4550 3584 
Q 5097 3584 5394 3201 
Q 5691 2819 5691 2113 
L 5691 0 
L 5113 0 
L 5113 2094 
Q 5113 2597 4934 2840 
Q 4756 3084 4391 3084 
Q 3944 3084 3684 2787 
Q 3425 2491 3425 1978 
L 3425 0 
L 2847 0 
L 2847 2094 
Q 2847 2600 2669 2842 
Q 2491 3084 2119 3084 
Q 1678 3084 1418 2786 
Q 1159 2488 1159 1978 
L 1159 0 
L 581 0 
L 581 3500 
L 1159 3500 
L 1159 2956 
Q 1356 3278 1631 3431 
Q 1906 3584 2284 3584 
Q 2666 3584 2933 3390 
Q 3200 3197 3328 2828 
z
" transform="scale(0.015625)"/>
        <path id="DejaVuSans-73" d="M 2834 3397 
L 2834 2853 
Q 2591 2978 2328 3040 
Q 2066 3103 1784 3103 
Q 1356 3103 1142 2972 
Q 928 2841 928 2578 
Q 928 2378 1081 2264 
Q 1234 2150 1697 2047 
L 1894 2003 
Q 2506 1872 2764 1633 
Q 3022 1394 3022 966 
Q 3022 478 2636 193 
Q 2250 -91 1575 -91 
Q 1294 -91 989 -36 
Q 684 19 347 128 
L 347 722 
Q 666 556 975 473 
Q 1284 391 1588 391 
Q 1994 391 2212 530 
Q 2431 669 2431 922 
Q 2431 1156 2273 1281 
Q 2116 1406 1581 1522 
L 1381 1569 
Q 847 1681 609 1914 
Q 372 2147 372 2553 
Q 372 3047 722 3315 
Q 1072 3584 1716 3584 
Q 2034 3584 2315 3537 
Q 2597 3491 2834 3397 
z
" transform="scale(0.015625)"/>
        <path id="DejaVuSans-65" d="M 3597 1894 
L 3597 1613 
L 953 1613 
Q 991 1019 1311 708 
Q 1631 397 2203 397 
Q 2534 397 2845 478 
Q 3156 559 3463 722 
L 3463 178 
Q 3153 47 2828 -22 
Q 2503 -91 2169 -91 
Q 1331 -91 842 396 
Q 353 884 353 1716 
Q 353 2575 817 3079 
Q 1281 3584 2069 3584 
Q 2775 3584 3186 3129 
Q 3597 2675 3597 1894 
z
M 3022 2063 
Q 3016 2534 2758 2815 
Q 2500 3097 2075 3097 
Q 1594 3097 1305 2825 
Q 1016 2553 972 2059 
L 3022 2063 
z
" transform="scale(0.015625)"/>
       </defs>
       <use xlink:href="#DejaVuSans-43"/>
       <use xlink:href="#DejaVuSans-68" x="69.824219"/>
       <use xlink:href="#DejaVuSans-72" x="133.203125"/>
       <use xlink:href="#DejaVuSans-6f" x="172.066406"/>
       <use xlink:href="#DejaVuSans-6d" x="233.248047"/>
       <use xlink:href="#DejaVuSans-6f" x="330.660156"/>
       <use xlink:href="#DejaVuSans-73" x="391.841797"/>
       <use xlink:href="#DejaVuSans-6f" x="443.941406"/>
       <use xlink:href="#DejaVuSans-6d" x="505.123047"/>
       <use xlink:href="#DejaVuSans-65" x="602.535156"/>
      </g>
     </g>
    </g>
    <g id="xtick_4">
     <g id="line2d_4">
      <g>
       <use xlink:href="#me170555b74" x="351.841558" y="320.4" style="stroke: #000000; stroke-width: 0.8"/>
      </g>
     </g>
     <g id="text_4">
      <!-- Averaging-Up -->
      <g transform="translate(318.015777 334.998438) scale(0.1 -0.1)">
       <defs>
        <path id="DejaVuSans-41" d="M 2188 4044 
L 1331 1722 
L 3047 1722 
L 2188 4044 
z
M 1831 4666 
L 2547 4666 
L 4325 0 
L 3669 0 
L 3244 1197 
L 1141 1197 
L 716 0 
L 50 0 
L 1831 4666 
z
" transform="scale(0.015625)"/>
        <path id="DejaVuSans-76" d="M 191 3500 
L 800 3500 
L 1894 563 
L 2988 3500 
L 3597 3500 
L 2284 0 
L 1503 0 
L 191 3500 
z
" transform="scale(0.015625)"/>
        <path id="DejaVuSans-61" d="M 2194 1759 
Q 1497 1759 1228 1600 
Q 959 1441 959 1056 
Q 959 750 1161 570 
Q 1363 391 1709 391 
Q 2188 391 2477 730 
Q 2766 1069 2766 1631 
L 2766 1759 
L 2194 1759 
z
M 3341 1997 
L 3341 0 
L 2766 0 
L 2766 531 
Q 2569 213 2275 61 
Q 1981 -91 1556 -91 
Q 1019 -91 701 211 
Q 384 513 384 1019 
Q 384 1609 779 1909 
Q 1175 2209 1959 2209 
L 2766 2209 
L 2766 2266 
Q 2766 2663 2505 2880 
Q 2244 3097 1772 3097 
Q 1472 3097 1187 3025 
Q 903 2953 641 2809 
L 641 3341 
Q 956 3463 1253 3523 
Q 1550 3584 1831 3584 
Q 2591 3584 2966 3190 
Q 3341 2797 3341 1997 
z
" transform="scale(0.015625)"/>
        <path id="DejaVuSans-67" d="M 2906 1791 
Q 2906 2416 2648 2759 
Q 2391 3103 1925 3103 
Q 1463 3103 1205 2759 
Q 947 2416 947 1791 
Q 947 1169 1205 825 
Q 1463 481 1925 481 
Q 2391 481 2648 825 
Q 2906 1169 2906 1791 
z
M 3481 434 
Q 3481 -459 3084 -895 
Q 2688 -1331 1869 -1331 
Q 1566 -1331 1297 -1286 
Q 1028 -1241 775 -1147 
L 775 -588 
Q 1028 -725 1275 -790 
Q 1522 -856 1778 -856 
Q 2344 -856 2625 -561 
Q 2906 -266 2906 331 
L 2906 616 
Q 2728 306 2450 153 
Q 2172 0 1784 0 
Q 1141 0 747 490 
Q 353 981 353 1791 
Q 353 2603 747 3093 
Q 1141 3584 1784 3584 
Q 2172 3584 2450 3431 
Q 2728 3278 2906 2969 
L 2906 3500 
L 3481 3500 
L 3481 434 
z
" transform="scale(0.015625)"/>
        <path id="DejaVuSans-69" d="M 603 3500 
L 1178 3500 
L 1178 0 
L 603 0 
L 603 3500 
z
M 603 4863 
L 1178 4863 
L 1178 4134 
L 603 4134 
L 603 4863 
z
" transform="scale(0.015625)"/>
        <path id="DejaVuSans-6e" d="M 3513 2113 
L 3513 0 
L 2938 0 
L 2938 2094 
Q 2938 2591 2744 2837 
Q 2550 3084 2163 3084 
Q 1697 3084 1428 2787 
Q 1159 2491 1159 1978 
L 1159 0 
L 581 0 
L 581 3500 
L 1159 3500 
L 1159 2956 
Q 1366 3272 1645 3428 
Q 1925 3584 2291 3584 
Q 2894 3584 3203 3211 
Q 3513 2838 3513 2113 
z
" transform="scale(0.015625)"/>
        <path id="DejaVuSans-2d" d="M 313 2009 
L 1997 2009 
L 1997 1497 
L 313 1497 
L 313 2009 
z
" transform="scale(0.015625)"/>
        <path id="DejaVuSans-55" d="M 556 4666 
L 1191 4666 
L 1191 1831 
Q 1191 1081 1462 751 
Q 1734 422 2344 422 
Q 2950 422 3222 751 
Q 3494 1081 3494 1831 
L 3494 4666 
L 4128 4666 
L 4128 1753 
Q 4128 841 3676 375 
Q 3225 -91 2344 -91 
Q 1459 -91 1007 375 
Q 556 841 556 1753 
L 556 4666 
z
" transform="scale(0.015625)"/>
        <path id="DejaVuSans-70" d="M 1159 525 
L 1159 -1331 
L 581 -1331 
L 581 3500 
L 1159 3500 
L 1159 2969 
Q 1341 3281 1617 3432 
Q 1894 3584 2278 3584 
Q 2916 3584 3314 3078 
Q 3713 2572 3713 1747 
Q 3713 922 3314 415 
Q 2916 -91 2278 -91 
Q 1894 -91 1617 61 
Q 1341 213 1159 525 
z
M 3116 1747 
Q 3116 2381 2855 2742 
Q 2594 3103 2138 3103 
Q 1681 3103 1420 2742 
Q 1159 2381 1159 1747 
Q 1159 1113 1420 752 
Q 1681 391 2138 391 
Q 2594 391 2855 752 
Q 3116 1113 3116 1747 
z
" transform="scale(0.015625)"/>
       </defs>
       <use xlink:href="#DejaVuSans-41"/>
       <use xlink:href="#DejaVuSans-76" x="62.533203"/>
       <use xlink:href="#DejaVuSans-65" x="121.712891"/>
       <use xlink:href="#DejaVuSans-72" x="183.236328"/>
       <use xlink:href="#DejaVuSans-61" x="224.349609"/>
       <use xlink:href="#DejaVuSans-67" x="285.628906"/>
       <use xlink:href="#DejaVuSans-69" x="349.105469"/>
       <use xlink:href="#DejaVuSans-6e" x="376.888672"/>
       <use xlink:href="#DejaVuSans-67" x="440.267578"/>
       <use xlink:href="#DejaVuSans-2d" x="503.744141"/>
       <use xlink:href="#DejaVuSans-55" x="539.828125"/>
       <use xlink:href="#DejaVuSans-70" x="613.021484"/>
      </g>
     </g>
    </g>
   </g>
   <g id="matplotlib.axis_2">
    <g id="ytick_1">
     <g id="line2d_5">
      <defs>
       <path id="m662dfd202c" d="M 0 0 
L -3.5 0 
" style="stroke: #000000; stroke-width: 0.8"/>
      </defs>
      <g>
       <use xlink:href="#m662dfd202c" x="54" y="307.8" style="stroke: #000000; stroke-width: 0.8"/>
      </g>
     </g>
     <g id="text_5">
      <!-- 0 -->
      <g transform="translate(40.6375 311.599219) scale(0.1 -0.1)">
       <use xlink:href="#DejaVuSans-30"/>
      </g>
     </g>
    </g>
    <g id="ytick_2">
     <g id="line2d_6">
      <g>
       <use xlink:href="#m662dfd202c" x="54" y="265.535933" style="stroke: #000000; stroke-width: 0.8"/>
      </g>
     </g>
     <g id="text_6">
      <!-- 10 -->
      <g transform="translate(34.275 269.335152) scale(0.1 -0.1)">
       <use xlink:href="#DejaVuSans-31"/>
       <use xlink:href="#DejaVuSans-30" x="63.623047"/>
      </g>
     </g>
    </g>
    <g id="ytick_3">
     <g id="line2d_7">
      <g>
       <use xlink:href="#m662dfd202c" x="54" y="223.271866" style="stroke: #000000; stroke-width: 0.8"/>
      </g>
     </g>
     <g id="text_7">
      <!-- 20 -->
      <g transform="translate(34.275 227.071085) scale(0.1 -0.1)">
       <defs>
        <path id="DejaVuSans-32" d="M 1228 531 
L 3431 531 
L 3431 0 
L 469 0 
L 469 531 
Q 828 903 1448 1529 
Q 2069 2156 2228 2338 
Q 2531 2678 2651 2914 
Q 2772 3150 2772 3378 
Q 2772 3750 2511 3984 
Q 2250 4219 1831 4219 
Q 1534 4219 1204 4116 
Q 875 4013 500 3803 
L 500 4441 
Q 881 4594 1212 4672 
Q 1544 4750 1819 4750 
Q 2544 4750 2975 4387 
Q 3406 4025 3406 3419 
Q 3406 3131 3298 2873 
Q 3191 2616 2906 2266 
Q 2828 2175 2409 1742 
Q 1991 1309 1228 531 
z
" transform="scale(0.015625)"/>
       </defs>
       <use xlink:href="#DejaVuSans-32"/>
       <use xlink:href="#DejaVuSans-30" x="63.623047"/>
      </g>
     </g>
    </g>
    <g id="ytick_4">
     <g id="line2d_8">
      <g>
       <use xlink:href="#m662dfd202c" x="54" y="181.007799" style="stroke: #000000; stroke-width: 0.8"/>
      </g>
     </g>
     <g id="text_8">
      <!-- 30 -->
      <g transform="translate(34.275 184.807018) scale(0.1 -0.1)">
       <defs>
        <path id="DejaVuSans-33" d="M 2597 2516 
Q 3050 2419 3304 2112 
Q 3559 1806 3559 1356 
Q 3559 666 3084 287 
Q 2609 -91 1734 -91 
Q 1441 -91 1130 -33 
Q 819 25 488 141 
L 488 750 
Q 750 597 1062 519 
Q 1375 441 1716 441 
Q 2309 441 2620 675 
Q 2931 909 2931 1356 
Q 2931 1769 2642 2001 
Q 2353 2234 1838 2234 
L 1294 2234 
L 1294 2753 
L 1863 2753 
Q 2328 2753 2575 2939 
Q 2822 3125 2822 3475 
Q 2822 3834 2567 4026 
Q 2313 4219 1838 4219 
Q 1578 4219 1281 4162 
Q 984 4106 628 3988 
L 628 4550 
Q 988 4650 1302 4700 
Q 1616 4750 1894 4750 
Q 2613 4750 3031 4423 
Q 3450 4097 3450 3541 
Q 3450 3153 3228 2886 
Q 3006 2619 2597 2516 
z
" transform="scale(0.015625)"/>
       </defs>
       <use xlink:href="#DejaVuSans-33"/>
       <use xlink:href="#DejaVuSans-30" x="63.623047"/>
      </g>
     </g>
    </g>
    <g id="ytick_5">
     <g id="line2d_9">
      <g>
       <use xlink:href="#m662dfd202c" x="54" y="138.743732" style="stroke: #000000; stroke-width: 0.8"/>
      </g>
     </g>
     <g id="text_9">
      <!-- 40 -->
      <g transform="translate(34.275 142.542951) scale(0.1 -0.1)">
       <defs>
        <path id="DejaVuSans-34" d="M 2419 4116 
L 825 1625 
L 2419 1625 
L 2419 4116 
z
M 2253 4666 
L 3047 4666 
L 3047 1625 
L 3713 1625 
L 3713 1100 
L 3047 1100 
L 3047 0 
L 2419 0 
L 2419 1100 
L 313 1100 
L 313 1709 
L 2253 4666 
z
" transform="scale(0.015625)"/>
       </defs>
       <use xlink:href="#DejaVuSans-34"/>
       <use xlink:href="#DejaVuSans-30" x="63.623047"/>
      </g>
     </g>
    </g>
    <g id="ytick_6">
     <g id="line2d_10">
      <g>
       <use xlink:href="#m662dfd202c" x="54" y="96.479665" style="stroke: #000000; stroke-width: 0.8"/>
      </g>
     </g>
     <g id="text_10">
      <!-- 50 -->
      <g transform="translate(34.275 100.278884) scale(0.1 -0.1)">
       <defs>
        <path id="DejaVuSans-35" d="M 691 4666 
L 3169 4666 
L 3169 4134 
L 1269 4134 
L 1269 2991 
Q 1406 3038 1543 3061 
Q 1681 3084 1819 3084 
Q 2600 3084 3056 2656 
Q 3513 2228 3513 1497 
Q 3513 744 3044 326 
Q 2575 -91 1722 -91 
Q 1428 -91 1123 -41 
Q 819 9 494 109 
L 494 744 
Q 775 591 1075 516 
Q 1375 441 1709 441 
Q 2250 441 2565 725 
Q 2881 1009 2881 1497 
Q 2881 1984 2565 2268 
Q 2250 2553 1709 2553 
Q 1456 2553 1204 2497 
Q 953 2441 691 2322 
L 691 4666 
z
" transform="scale(0.015625)"/>
       </defs>
       <use xlink:href="#DejaVuSans-35"/>
       <use xlink:href="#DejaVuSans-30" x="63.623047"/>
      </g>
     </g>
    </g>
    <g id="ytick_7">
     <g id="line2d_11">
      <g>
       <use xlink:href="#m662dfd202c" x="54" y="54.215598" style="stroke: #000000; stroke-width: 0.8"/>
      </g>
     </g>
     <g id="text_11">
      <!-- 60 -->
      <g transform="translate(34.275 58.014817) scale(0.1 -0.1)">
       <defs>
        <path id="DejaVuSans-36" d="M 2113 2584 
Q 1688 2584 1439 2293 
Q 1191 2003 1191 1497 
Q 1191 994 1439 701 
Q 1688 409 2113 409 
Q 2538 409 2786 701 
Q 3034 994 3034 1497 
Q 3034 2003 2786 2293 
Q 2538 2584 2113 2584 
z
M 3366 4563 
L 3366 3988 
Q 3128 4100 2886 4159 
Q 2644 4219 2406 4219 
Q 1781 4219 1451 3797 
Q 1122 3375 1075 2522 
Q 1259 2794 1537 2939 
Q 1816 3084 2150 3084 
Q 2853 3084 3261 2657 
Q 3669 2231 3669 1497 
Q 3669 778 3244 343 
Q 2819 -91 2113 -91 
Q 1303 -91 875 529 
Q 447 1150 447 2328 
Q 447 3434 972 4092 
Q 1497 4750 2381 4750 
Q 2619 4750 2861 4703 
Q 3103 4656 3366 4563 
z
" transform="scale(0.015625)"/>
       </defs>
       <use xlink:href="#DejaVuSans-36"/>
       <use xlink:href="#DejaVuSans-30" x="63.623047"/>
      </g>
     </g>
    </g>
    <g id="text_12">
     <!-- Absolute Error In Location Estimate -->
     <g transform="translate(28.195312 270.071094) rotate(-90) scale(0.1 -0.1)">
      <defs>
       <path id="DejaVuSans-62" d="M 3116 1747 
Q 3116 2381 2855 2742 
Q 2594 3103 2138 3103 
Q 1681 3103 1420 2742 
Q 1159 2381 1159 1747 
Q 1159 1113 1420 752 
Q 1681 391 2138 391 
Q 2594 391 2855 752 
Q 3116 1113 3116 1747 
z
M 1159 2969 
Q 1341 3281 1617 3432 
Q 1894 3584 2278 3584 
Q 2916 3584 3314 3078 
Q 3713 2572 3713 1747 
Q 3713 922 3314 415 
Q 2916 -91 2278 -91 
Q 1894 -91 1617 61 
Q 1341 213 1159 525 
L 1159 0 
L 581 0 
L 581 4863 
L 1159 4863 
L 1159 2969 
z
" transform="scale(0.015625)"/>
       <path id="DejaVuSans-6c" d="M 603 4863 
L 1178 4863 
L 1178 0 
L 603 0 
L 603 4863 
z
" transform="scale(0.015625)"/>
       <path id="DejaVuSans-75" d="M 544 1381 
L 544 3500 
L 1119 3500 
L 1119 1403 
Q 1119 906 1312 657 
Q 1506 409 1894 409 
Q 2359 409 2629 706 
Q 2900 1003 2900 1516 
L 2900 3500 
L 3475 3500 
L 3475 0 
L 2900 0 
L 2900 538 
Q 2691 219 2414 64 
Q 2138 -91 1772 -91 
Q 1169 -91 856 284 
Q 544 659 544 1381 
z
M 1991 3584 
L 1991 3584 
z
" transform="scale(0.015625)"/>
       <path id="DejaVuSans-74" d="M 1172 4494 
L 1172 3500 
L 2356 3500 
L 2356 3053 
L 1172 3053 
L 1172 1153 
Q 1172 725 1289 603 
Q 1406 481 1766 481 
L 2356 481 
L 2356 0 
L 1766 0 
Q 1100 0 847 248 
Q 594 497 594 1153 
L 594 3053 
L 172 3053 
L 172 3500 
L 594 3500 
L 594 4494 
L 1172 4494 
z
" transform="scale(0.015625)"/>
       <path id="DejaVuSans-20" transform="scale(0.015625)"/>
       <path id="DejaVuSans-45" d="M 628 4666 
L 3578 4666 
L 3578 4134 
L 1259 4134 
L 1259 2753 
L 3481 2753 
L 3481 2222 
L 1259 2222 
L 1259 531 
L 3634 531 
L 3634 0 
L 628 0 
L 628 4666 
z
" transform="scale(0.015625)"/>
       <path id="DejaVuSans-49" d="M 628 4666 
L 1259 4666 
L 1259 0 
L 628 0 
L 628 4666 
z
" transform="scale(0.015625)"/>
       <path id="DejaVuSans-4c" d="M 628 4666 
L 1259 4666 
L 1259 531 
L 3531 531 
L 3531 0 
L 628 0 
L 628 4666 
z
" transform="scale(0.015625)"/>
       <path id="DejaVuSans-63" d="M 3122 3366 
L 3122 2828 
Q 2878 2963 2633 3030 
Q 2388 3097 2138 3097 
Q 1578 3097 1268 2742 
Q 959 2388 959 1747 
Q 959 1106 1268 751 
Q 1578 397 2138 397 
Q 2388 397 2633 464 
Q 2878 531 3122 666 
L 3122 134 
Q 2881 22 2623 -34 
Q 2366 -91 2075 -91 
Q 1284 -91 818 406 
Q 353 903 353 1747 
Q 353 2603 823 3093 
Q 1294 3584 2113 3584 
Q 2378 3584 2631 3529 
Q 2884 3475 3122 3366 
z
" transform="scale(0.015625)"/>
      </defs>
      <use xlink:href="#DejaVuSans-41"/>
      <use xlink:href="#DejaVuSans-62" x="68.408203"/>
      <use xlink:href="#DejaVuSans-73" x="131.884766"/>
      <use xlink:href="#DejaVuSans-6f" x="183.984375"/>
      <use xlink:href="#DejaVuSans-6c" x="245.166016"/>
      <use xlink:href="#DejaVuSans-75" x="272.949219"/>
      <use xlink:href="#DejaVuSans-74" x="336.328125"/>
      <use xlink:href="#DejaVuSans-65" x="375.537109"/>
      <use xlink:href="#DejaVuSans-20" x="437.060547"/>
      <use xlink:href="#DejaVuSans-45" x="468.847656"/>
      <use xlink:href="#DejaVuSans-72" x="532.03125"/>
      <use xlink:href="#DejaVuSans-72" x="571.394531"/>
      <use xlink:href="#DejaVuSans-6f" x="610.257812"/>
      <use xlink:href="#DejaVuSans-72" x="671.439453"/>
      <use xlink:href="#DejaVuSans-20" x="712.552734"/>
      <use xlink:href="#DejaVuSans-49" x="744.339844"/>
      <use xlink:href="#DejaVuSans-6e" x="773.832031"/>
      <use xlink:href="#DejaVuSans-20" x="837.210938"/>
      <use xlink:href="#DejaVuSans-4c" x="868.998047"/>
      <use xlink:href="#DejaVuSans-6f" x="922.960938"/>
      <use xlink:href="#DejaVuSans-63" x="984.142578"/>
      <use xlink:href="#DejaVuSans-61" x="1039.123047"/>
      <use xlink:href="#DejaVuSans-74" x="1100.402344"/>
      <use xlink:href="#DejaVuSans-69" x="1139.611328"/>
      <use xlink:href="#DejaVuSans-6f" x="1167.394531"/>
      <use xlink:href="#DejaVuSans-6e" x="1228.576172"/>
      <use xlink:href="#DejaVuSans-20" x="1291.955078"/>
      <use xlink:href="#DejaVuSans-45" x="1323.742188"/>
      <use xlink:href="#DejaVuSans-73" x="1386.925781"/>
      <use xlink:href="#DejaVuSans-74" x="1439.025391"/>
      <use xlink:href="#DejaVuSans-69" x="1478.234375"/>
      <use xlink:href="#DejaVuSans-6d" x="1506.017578"/>
      <use xlink:href="#DejaVuSans-61" x="1603.429688"/>
      <use xlink:href="#DejaVuSans-74" x="1664.708984"/>
      <use xlink:href="#DejaVuSans-65" x="1703.917969"/>
     </g>
    </g>
   </g>
   <g id="LineCollection_1">
    <path d="M 80.088312 271.493705 
L 101.828571 271.493705 
" clip-path="url(#pc17bf6a31d)" style="fill: none; stroke: #1f77b4; stroke-width: 1.5"/>
    <path d="M 167.049351 272.591891 
L 188.78961 272.591891 
" clip-path="url(#pc17bf6a31d)" style="fill: none; stroke: #1f77b4; stroke-width: 1.5"/>
    <path d="M 254.01039 260.29489 
L 275.750649 260.29489 
" clip-path="url(#pc17bf6a31d)" style="fill: none; stroke: #1f77b4; stroke-width: 1.5"/>
    <path d="M 340.971429 268.67283 
L 362.711688 268.67283 
" clip-path="url(#pc17bf6a31d)" style="fill: none; stroke: #1f77b4; stroke-width: 1.5"/>
   </g>
   <g id="LineCollection_2">
    <path d="M 80.088312 55.8 
L 101.828571 55.8 
" clip-path="url(#pc17bf6a31d)" style="fill: none; stroke: #1f77b4; stroke-width: 1.5"/>
    <path d="M 167.049351 108.447733 
L 188.78961 108.447733 
" clip-path="url(#pc17bf6a31d)" style="fill: none; stroke: #1f77b4; stroke-width: 1.5"/>
    <path d="M 254.01039 150.965355 
L 275.750649 150.965355 
" clip-path="url(#pc17bf6a31d)" style="fill: none; stroke: #1f77b4; stroke-width: 1.5"/>
    <path d="M 340.971429 65.580336 
L 362.711688 65.580336 
" clip-path="url(#pc17bf6a31d)" style="fill: none; stroke: #1f77b4; stroke-width: 1.5"/>
   </g>
   <g id="LineCollection_3">
    <path d="M 80.088312 307.8 
L 101.828571 307.8 
" clip-path="url(#pc17bf6a31d)" style="fill: none; stroke: #1f77b4; stroke-width: 1.5"/>
    <path d="M 167.049351 307.8 
L 188.78961 307.8 
" clip-path="url(#pc17bf6a31d)" style="fill: none; stroke: #1f77b4; stroke-width: 1.5"/>
    <path d="M 254.01039 307.8 
L 275.750649 307.8 
" clip-path="url(#pc17bf6a31d)" style="fill: none; stroke: #1f77b4; stroke-width: 1.5"/>
    <path d="M 340.971429 307.8 
L 362.711688 307.8 
" clip-path="url(#pc17bf6a31d)" style="fill: none; stroke: #1f77b4; stroke-width: 1.5"/>
   </g>
   <g id="LineCollection_4">
    <path d="M 90.958442 307.8 
L 90.958442 55.8 
" clip-path="url(#pc17bf6a31d)" style="fill: none; stroke: #1f77b4; stroke-width: 1.5"/>
    <path d="M 177.919481 307.8 
L 177.919481 108.447733 
" clip-path="url(#pc17bf6a31d)" style="fill: none; stroke: #1f77b4; stroke-width: 1.5"/>
    <path d="M 264.880519 307.8 
L 264.880519 150.965355 
" clip-path="url(#pc17bf6a31d)" style="fill: none; stroke: #1f77b4; stroke-width: 1.5"/>
    <path d="M 351.841558 307.8 
L 351.841558 65.580336 
" clip-path="url(#pc17bf6a31d)" style="fill: none; stroke: #1f77b4; stroke-width: 1.5"/>
   </g>
   <g id="patch_3">
    <path d="M 54 320.4 
L 54 43.2 
" style="fill: none; stroke: #000000; stroke-width: 0.8; stroke-linejoin: miter; stroke-linecap: square"/>
   </g>
   <g id="patch_4">
    <path d="M 388.8 320.4 
L 388.8 43.2 
" style="fill: none; stroke: #000000; stroke-width: 0.8; stroke-linejoin: miter; stroke-linecap: square"/>
   </g>
   <g id="patch_5">
    <path d="M 54 320.4 
L 388.8 320.4 
" style="fill: none; stroke: #000000; stroke-width: 0.8; stroke-linejoin: miter; stroke-linecap: square"/>
   </g>
   <g id="patch_6">
    <path d="M 54 43.2 
L 388.8 43.2 
" style="fill: none; stroke: #000000; stroke-width: 0.8; stroke-linejoin: miter; stroke-linecap: square"/>
   </g>
  </g>
 </g>
 <defs>
  <clipPath id="pc17bf6a31d">
   <rect x="54" y="43.2" width="334.8" height="277.2"/>
  </clipPath>
 </defs>
</svg>
