<?xml version="1.0" encoding="utf-8" standalone="no"?>
<!DOCTYPE svg PUBLIC "-//W3C//DTD SVG 1.1//EN"
  "http://www.w3.org/Graphics/SVG/1.1/DTD/svg11.dtd">
<svg xmlns:xlink="http://www.w3.org/1999/xlink" width="460.8pt" height="345.6pt" viewBox="0 0 460.8 345.6" xmlns="http://www.w3.org/2000/svg" version="1.1">
 <metadata>
  <rdf:RDF xmlns:dc="http://purl.org/dc/elements/1.1/" xmlns:cc="http://creativecommons.org/ns#" xmlns:rdf="http://www.w3.org/1999/02/22-rdf-syntax-ns#">
   <cc:Work>
    <dc:type rdf:resource="http://purl.org/dc/dcmitype/StillImage"/>
    <dc:date>2024-12-04T09:55:08.528973</dc:date>
    <dc:format>image/svg+xml</dc:format>
    <dc:creator>
     <cc:Agent>
      <dc:title>Matplotlib v3.9.2, https://matplotlib.org/</dc:title>
     </cc:Agent>
    </dc:creator>
   </cc:Work>
  </rdf:RDF>
 </metadata>
 <defs>
  <style type="text/css">*{stroke-linejoin: round; stroke-linecap: butt}</style>
 </defs>
 <g id="figure_1">
  <g id="patch_1">
   <path d="M 0 345.6 
L 460.8 345.6 
L 460.8 0 
L 0 0 
z
" style="fill: #ffffff"/>
  </g>
  <g id="axes_1">
   <g id="patch_2">
    <path d="M 57.6 307.584 
L 414.72 307.584 
L 414.72 41.472 
L 57.6 41.472 
z
" style="fill: #ffffff"/>
   </g>
   <g id="matplotlib.axis_1">
    <g id="xtick_1">
     <g id="line2d_1">
      <defs>
       <path id="m5f68e79c34" d="M 0 0 
L 0 3.5 
" style="stroke: #000000; stroke-width: 0.8"/>
      </defs>
      <g>
       <use xlink:href="#m5f68e79c34" x="73.832727" y="307.584" style="stroke: #000000; stroke-width: 0.8"/>
      </g>
     </g>
     <g id="text_1">
      <!-- 0.0 -->
      <g transform="translate(65.881165 322.182437) scale(0.1 -0.1)">
       <defs>
        <path id="DejaVuSans-30" d="M 2034 4250 
Q 1547 4250 1301 3770 
Q 1056 3291 1056 2328 
Q 1056 1369 1301 889 
Q 1547 409 2034 409 
Q 2525 409 2770 889 
Q 3016 1369 3016 2328 
Q 3016 3291 2770 3770 
Q 2525 4250 2034 4250 
z
M 2034 4750 
Q 2819 4750 3233 4129 
Q 3647 3509 3647 2328 
Q 3647 1150 3233 529 
Q 2819 -91 2034 -91 
Q 1250 -91 836 529 
Q 422 1150 422 2328 
Q 422 3509 836 4129 
Q 1250 4750 2034 4750 
z
" transform="scale(0.015625)"/>
        <path id="DejaVuSans-2e" d="M 684 794 
L 1344 794 
L 1344 0 
L 684 0 
L 684 794 
z
" transform="scale(0.015625)"/>
       </defs>
       <use xlink:href="#DejaVuSans-30"/>
       <use xlink:href="#DejaVuSans-2e" x="63.623047"/>
       <use xlink:href="#DejaVuSans-30" x="95.410156"/>
      </g>
     </g>
    </g>
    <g id="xtick_2">
     <g id="line2d_2">
      <g>
       <use xlink:href="#m5f68e79c34" x="138.945286" y="307.584" style="stroke: #000000; stroke-width: 0.8"/>
      </g>
     </g>
     <g id="text_2">
      <!-- 0.2 -->
      <g transform="translate(130.993723 322.182437) scale(0.1 -0.1)">
       <defs>
        <path id="DejaVuSans-32" d="M 1228 531 
L 3431 531 
L 3431 0 
L 469 0 
L 469 531 
Q 828 903 1448 1529 
Q 2069 2156 2228 2338 
Q 2531 2678 2651 2914 
Q 2772 3150 2772 3378 
Q 2772 3750 2511 3984 
Q 2250 4219 1831 4219 
Q 1534 4219 1204 4116 
Q 875 4013 500 3803 
L 500 4441 
Q 881 4594 1212 4672 
Q 1544 4750 1819 4750 
Q 2544 4750 2975 4387 
Q 3406 4025 3406 3419 
Q 3406 3131 3298 2873 
Q 3191 2616 2906 2266 
Q 2828 2175 2409 1742 
Q 1991 1309 1228 531 
z
" transform="scale(0.015625)"/>
       </defs>
       <use xlink:href="#DejaVuSans-30"/>
       <use xlink:href="#DejaVuSans-2e" x="63.623047"/>
       <use xlink:href="#DejaVuSans-32" x="95.410156"/>
      </g>
     </g>
    </g>
    <g id="xtick_3">
     <g id="line2d_3">
      <g>
       <use xlink:href="#m5f68e79c34" x="204.057844" y="307.584" style="stroke: #000000; stroke-width: 0.8"/>
      </g>
     </g>
     <g id="text_3">
      <!-- 0.4 -->
      <g transform="translate(196.106282 322.182437) scale(0.1 -0.1)">
       <defs>
        <path id="DejaVuSans-34" d="M 2419 4116 
L 825 1625 
L 2419 1625 
L 2419 4116 
z
M 2253 4666 
L 3047 4666 
L 3047 1625 
L 3713 1625 
L 3713 1100 
L 3047 1100 
L 3047 0 
L 2419 0 
L 2419 1100 
L 313 1100 
L 313 1709 
L 2253 4666 
z
" transform="scale(0.015625)"/>
       </defs>
       <use xlink:href="#DejaVuSans-30"/>
       <use xlink:href="#DejaVuSans-2e" x="63.623047"/>
       <use xlink:href="#DejaVuSans-34" x="95.410156"/>
      </g>
     </g>
    </g>
    <g id="xtick_4">
     <g id="line2d_4">
      <g>
       <use xlink:href="#m5f68e79c34" x="269.170403" y="307.584" style="stroke: #000000; stroke-width: 0.8"/>
      </g>
     </g>
     <g id="text_4">
      <!-- 0.6 -->
      <g transform="translate(261.21884 322.182437) scale(0.1 -0.1)">
       <defs>
        <path id="DejaVuSans-36" d="M 2113 2584 
Q 1688 2584 1439 2293 
Q 1191 2003 1191 1497 
Q 1191 994 1439 701 
Q 1688 409 2113 409 
Q 2538 409 2786 701 
Q 3034 994 3034 1497 
Q 3034 2003 2786 2293 
Q 2538 2584 2113 2584 
z
M 3366 4563 
L 3366 3988 
Q 3128 4100 2886 4159 
Q 2644 4219 2406 4219 
Q 1781 4219 1451 3797 
Q 1122 3375 1075 2522 
Q 1259 2794 1537 2939 
Q 1816 3084 2150 3084 
Q 2853 3084 3261 2657 
Q 3669 2231 3669 1497 
Q 3669 778 3244 343 
Q 2819 -91 2113 -91 
Q 1303 -91 875 529 
Q 447 1150 447 2328 
Q 447 3434 972 4092 
Q 1497 4750 2381 4750 
Q 2619 4750 2861 4703 
Q 3103 4656 3366 4563 
z
" transform="scale(0.015625)"/>
       </defs>
       <use xlink:href="#DejaVuSans-30"/>
       <use xlink:href="#DejaVuSans-2e" x="63.623047"/>
       <use xlink:href="#DejaVuSans-36" x="95.410156"/>
      </g>
     </g>
    </g>
    <g id="xtick_5">
     <g id="line2d_5">
      <g>
       <use xlink:href="#m5f68e79c34" x="334.282961" y="307.584" style="stroke: #000000; stroke-width: 0.8"/>
      </g>
     </g>
     <g id="text_5">
      <!-- 0.8 -->
      <g transform="translate(326.331399 322.182437) scale(0.1 -0.1)">
       <defs>
        <path id="DejaVuSans-38" d="M 2034 2216 
Q 1584 2216 1326 1975 
Q 1069 1734 1069 1313 
Q 1069 891 1326 650 
Q 1584 409 2034 409 
Q 2484 409 2743 651 
Q 3003 894 3003 1313 
Q 3003 1734 2745 1975 
Q 2488 2216 2034 2216 
z
M 1403 2484 
Q 997 2584 770 2862 
Q 544 3141 544 3541 
Q 544 4100 942 4425 
Q 1341 4750 2034 4750 
Q 2731 4750 3128 4425 
Q 3525 4100 3525 3541 
Q 3525 3141 3298 2862 
Q 3072 2584 2669 2484 
Q 3125 2378 3379 2068 
Q 3634 1759 3634 1313 
Q 3634 634 3220 271 
Q 2806 -91 2034 -91 
Q 1263 -91 848 271 
Q 434 634 434 1313 
Q 434 1759 690 2068 
Q 947 2378 1403 2484 
z
M 1172 3481 
Q 1172 3119 1398 2916 
Q 1625 2713 2034 2713 
Q 2441 2713 2670 2916 
Q 2900 3119 2900 3481 
Q 2900 3844 2670 4047 
Q 2441 4250 2034 4250 
Q 1625 4250 1398 4047 
Q 1172 3844 1172 3481 
z
" transform="scale(0.015625)"/>
       </defs>
       <use xlink:href="#DejaVuSans-30"/>
       <use xlink:href="#DejaVuSans-2e" x="63.623047"/>
       <use xlink:href="#DejaVuSans-38" x="95.410156"/>
      </g>
     </g>
    </g>
    <g id="xtick_6">
     <g id="line2d_6">
      <g>
       <use xlink:href="#m5f68e79c34" x="399.395519" y="307.584" style="stroke: #000000; stroke-width: 0.8"/>
      </g>
     </g>
     <g id="text_6">
      <!-- 1.0 -->
      <g transform="translate(391.443957 322.182437) scale(0.1 -0.1)">
       <defs>
        <path id="DejaVuSans-31" d="M 794 531 
L 1825 531 
L 1825 4091 
L 703 3866 
L 703 4441 
L 1819 4666 
L 2450 4666 
L 2450 531 
L 3481 531 
L 3481 0 
L 794 0 
L 794 531 
z
" transform="scale(0.015625)"/>
       </defs>
       <use xlink:href="#DejaVuSans-31"/>
       <use xlink:href="#DejaVuSans-2e" x="63.623047"/>
       <use xlink:href="#DejaVuSans-30" x="95.410156"/>
      </g>
     </g>
    </g>
    <g id="text_7">
     <!-- Expected -->
     <g transform="translate(212.830312 335.860562) scale(0.1 -0.1)">
      <defs>
       <path id="DejaVuSans-45" d="M 628 4666 
L 3578 4666 
L 3578 4134 
L 1259 4134 
L 1259 2753 
L 3481 2753 
L 3481 2222 
L 1259 2222 
L 1259 531 
L 3634 531 
L 3634 0 
L 628 0 
L 628 4666 
z
" transform="scale(0.015625)"/>
       <path id="DejaVuSans-78" d="M 3513 3500 
L 2247 1797 
L 3578 0 
L 2900 0 
L 1881 1375 
L 863 0 
L 184 0 
L 1544 1831 
L 300 3500 
L 978 3500 
L 1906 2253 
L 2834 3500 
L 3513 3500 
z
" transform="scale(0.015625)"/>
       <path id="DejaVuSans-70" d="M 1159 525 
L 1159 -1331 
L 581 -1331 
L 581 3500 
L 1159 3500 
L 1159 2969 
Q 1341 3281 1617 3432 
Q 1894 3584 2278 3584 
Q 2916 3584 3314 3078 
Q 3713 2572 3713 1747 
Q 3713 922 3314 415 
Q 2916 -91 2278 -91 
Q 1894 -91 1617 61 
Q 1341 213 1159 525 
z
M 3116 1747 
Q 3116 2381 2855 2742 
Q 2594 3103 2138 3103 
Q 1681 3103 1420 2742 
Q 1159 2381 1159 1747 
Q 1159 1113 1420 752 
Q 1681 391 2138 391 
Q 2594 391 2855 752 
Q 3116 1113 3116 1747 
z
" transform="scale(0.015625)"/>
       <path id="DejaVuSans-65" d="M 3597 1894 
L 3597 1613 
L 953 1613 
Q 991 1019 1311 708 
Q 1631 397 2203 397 
Q 2534 397 2845 478 
Q 3156 559 3463 722 
L 3463 178 
Q 3153 47 2828 -22 
Q 2503 -91 2169 -91 
Q 1331 -91 842 396 
Q 353 884 353 1716 
Q 353 2575 817 3079 
Q 1281 3584 2069 3584 
Q 2775 3584 3186 3129 
Q 3597 2675 3597 1894 
z
M 3022 2063 
Q 3016 2534 2758 2815 
Q 2500 3097 2075 3097 
Q 1594 3097 1305 2825 
Q 1016 2553 972 2059 
L 3022 2063 
z
" transform="scale(0.015625)"/>
       <path id="DejaVuSans-63" d="M 3122 3366 
L 3122 2828 
Q 2878 2963 2633 3030 
Q 2388 3097 2138 3097 
Q 1578 3097 1268 2742 
Q 959 2388 959 1747 
Q 959 1106 1268 751 
Q 1578 397 2138 397 
Q 2388 397 2633 464 
Q 2878 531 3122 666 
L 3122 134 
Q 2881 22 2623 -34 
Q 2366 -91 2075 -91 
Q 1284 -91 818 406 
Q 353 903 353 1747 
Q 353 2603 823 3093 
Q 1294 3584 2113 3584 
Q 2378 3584 2631 3529 
Q 2884 3475 3122 3366 
z
" transform="scale(0.015625)"/>
       <path id="DejaVuSans-74" d="M 1172 4494 
L 1172 3500 
L 2356 3500 
L 2356 3053 
L 1172 3053 
L 1172 1153 
Q 1172 725 1289 603 
Q 1406 481 1766 481 
L 2356 481 
L 2356 0 
L 1766 0 
Q 1100 0 847 248 
Q 594 497 594 1153 
L 594 3053 
L 172 3053 
L 172 3500 
L 594 3500 
L 594 4494 
L 1172 4494 
z
" transform="scale(0.015625)"/>
       <path id="DejaVuSans-64" d="M 2906 2969 
L 2906 4863 
L 3481 4863 
L 3481 0 
L 2906 0 
L 2906 525 
Q 2725 213 2448 61 
Q 2172 -91 1784 -91 
Q 1150 -91 751 415 
Q 353 922 353 1747 
Q 353 2572 751 3078 
Q 1150 3584 1784 3584 
Q 2172 3584 2448 3432 
Q 2725 3281 2906 2969 
z
M 947 1747 
Q 947 1113 1208 752 
Q 1469 391 1925 391 
Q 2381 391 2643 752 
Q 2906 1113 2906 1747 
Q 2906 2381 2643 2742 
Q 2381 3103 1925 3103 
Q 1469 3103 1208 2742 
Q 947 2381 947 1747 
z
" transform="scale(0.015625)"/>
      </defs>
      <use xlink:href="#DejaVuSans-45"/>
      <use xlink:href="#DejaVuSans-78" x="63.183594"/>
      <use xlink:href="#DejaVuSans-70" x="122.363281"/>
      <use xlink:href="#DejaVuSans-65" x="185.839844"/>
      <use xlink:href="#DejaVuSans-63" x="247.363281"/>
      <use xlink:href="#DejaVuSans-74" x="302.34375"/>
      <use xlink:href="#DejaVuSans-65" x="341.552734"/>
      <use xlink:href="#DejaVuSans-64" x="403.076172"/>
     </g>
    </g>
   </g>
   <g id="matplotlib.axis_2">
    <g id="ytick_1">
     <g id="line2d_7">
      <defs>
       <path id="m91c5bd8437" d="M 0 0 
L -3.5 0 
" style="stroke: #000000; stroke-width: 0.8"/>
      </defs>
      <g>
       <use xlink:href="#m91c5bd8437" x="57.6" y="295.488" style="stroke: #000000; stroke-width: 0.8"/>
      </g>
     </g>
     <g id="text_8">
      <!-- 0.0 -->
      <g transform="translate(34.696875 299.287219) scale(0.1 -0.1)">
       <use xlink:href="#DejaVuSans-30"/>
       <use xlink:href="#DejaVuSans-2e" x="63.623047"/>
       <use xlink:href="#DejaVuSans-30" x="95.410156"/>
      </g>
     </g>
    </g>
    <g id="ytick_2">
     <g id="line2d_8">
      <g>
       <use xlink:href="#m91c5bd8437" x="57.6" y="247.055568" style="stroke: #000000; stroke-width: 0.8"/>
      </g>
     </g>
     <g id="text_9">
      <!-- 0.2 -->
      <g transform="translate(34.696875 250.854786) scale(0.1 -0.1)">
       <use xlink:href="#DejaVuSans-30"/>
       <use xlink:href="#DejaVuSans-2e" x="63.623047"/>
       <use xlink:href="#DejaVuSans-32" x="95.410156"/>
      </g>
     </g>
    </g>
    <g id="ytick_3">
     <g id="line2d_9">
      <g>
       <use xlink:href="#m91c5bd8437" x="57.6" y="198.623135" style="stroke: #000000; stroke-width: 0.8"/>
      </g>
     </g>
     <g id="text_10">
      <!-- 0.4 -->
      <g transform="translate(34.696875 202.422354) scale(0.1 -0.1)">
       <use xlink:href="#DejaVuSans-30"/>
       <use xlink:href="#DejaVuSans-2e" x="63.623047"/>
       <use xlink:href="#DejaVuSans-34" x="95.410156"/>
      </g>
     </g>
    </g>
    <g id="ytick_4">
     <g id="line2d_10">
      <g>
       <use xlink:href="#m91c5bd8437" x="57.6" y="150.190703" style="stroke: #000000; stroke-width: 0.8"/>
      </g>
     </g>
     <g id="text_11">
      <!-- 0.6 -->
      <g transform="translate(34.696875 153.989921) scale(0.1 -0.1)">
       <use xlink:href="#DejaVuSans-30"/>
       <use xlink:href="#DejaVuSans-2e" x="63.623047"/>
       <use xlink:href="#DejaVuSans-36" x="95.410156"/>
      </g>
     </g>
    </g>
    <g id="ytick_5">
     <g id="line2d_11">
      <g>
       <use xlink:href="#m91c5bd8437" x="57.6" y="101.75827" style="stroke: #000000; stroke-width: 0.8"/>
      </g>
     </g>
     <g id="text_12">
      <!-- 0.8 -->
      <g transform="translate(34.696875 105.557489) scale(0.1 -0.1)">
       <use xlink:href="#DejaVuSans-30"/>
       <use xlink:href="#DejaVuSans-2e" x="63.623047"/>
       <use xlink:href="#DejaVuSans-38" x="95.410156"/>
      </g>
     </g>
    </g>
    <g id="ytick_6">
     <g id="line2d_12">
      <g>
       <use xlink:href="#m91c5bd8437" x="57.6" y="53.325838" style="stroke: #000000; stroke-width: 0.8"/>
      </g>
     </g>
     <g id="text_13">
      <!-- 1.0 -->
      <g transform="translate(34.696875 57.125057) scale(0.1 -0.1)">
       <use xlink:href="#DejaVuSans-31"/>
       <use xlink:href="#DejaVuSans-2e" x="63.623047"/>
       <use xlink:href="#DejaVuSans-30" x="95.410156"/>
      </g>
     </g>
    </g>
    <g id="text_14">
     <!-- Observed -->
     <g transform="translate(28.617187 198.585031) rotate(-90) scale(0.1 -0.1)">
      <defs>
       <path id="DejaVuSans-4f" d="M 2522 4238 
Q 1834 4238 1429 3725 
Q 1025 3213 1025 2328 
Q 1025 1447 1429 934 
Q 1834 422 2522 422 
Q 3209 422 3611 934 
Q 4013 1447 4013 2328 
Q 4013 3213 3611 3725 
Q 3209 4238 2522 4238 
z
M 2522 4750 
Q 3503 4750 4090 4092 
Q 4678 3434 4678 2328 
Q 4678 1225 4090 567 
Q 3503 -91 2522 -91 
Q 1538 -91 948 565 
Q 359 1222 359 2328 
Q 359 3434 948 4092 
Q 1538 4750 2522 4750 
z
" transform="scale(0.015625)"/>
       <path id="DejaVuSans-62" d="M 3116 1747 
Q 3116 2381 2855 2742 
Q 2594 3103 2138 3103 
Q 1681 3103 1420 2742 
Q 1159 2381 1159 1747 
Q 1159 1113 1420 752 
Q 1681 391 2138 391 
Q 2594 391 2855 752 
Q 3116 1113 3116 1747 
z
M 1159 2969 
Q 1341 3281 1617 3432 
Q 1894 3584 2278 3584 
Q 2916 3584 3314 3078 
Q 3713 2572 3713 1747 
Q 3713 922 3314 415 
Q 2916 -91 2278 -91 
Q 1894 -91 1617 61 
Q 1341 213 1159 525 
L 1159 0 
L 581 0 
L 581 4863 
L 1159 4863 
L 1159 2969 
z
" transform="scale(0.015625)"/>
       <path id="DejaVuSans-73" d="M 2834 3397 
L 2834 2853 
Q 2591 2978 2328 3040 
Q 2066 3103 1784 3103 
Q 1356 3103 1142 2972 
Q 928 2841 928 2578 
Q 928 2378 1081 2264 
Q 1234 2150 1697 2047 
L 1894 2003 
Q 2506 1872 2764 1633 
Q 3022 1394 3022 966 
Q 3022 478 2636 193 
Q 2250 -91 1575 -91 
Q 1294 -91 989 -36 
Q 684 19 347 128 
L 347 722 
Q 666 556 975 473 
Q 1284 391 1588 391 
Q 1994 391 2212 530 
Q 2431 669 2431 922 
Q 2431 1156 2273 1281 
Q 2116 1406 1581 1522 
L 1381 1569 
Q 847 1681 609 1914 
Q 372 2147 372 2553 
Q 372 3047 722 3315 
Q 1072 3584 1716 3584 
Q 2034 3584 2315 3537 
Q 2597 3491 2834 3397 
z
" transform="scale(0.015625)"/>
       <path id="DejaVuSans-72" d="M 2631 2963 
Q 2534 3019 2420 3045 
Q 2306 3072 2169 3072 
Q 1681 3072 1420 2755 
Q 1159 2438 1159 1844 
L 1159 0 
L 581 0 
L 581 3500 
L 1159 3500 
L 1159 2956 
Q 1341 3275 1631 3429 
Q 1922 3584 2338 3584 
Q 2397 3584 2469 3576 
Q 2541 3569 2628 3553 
L 2631 2963 
z
" transform="scale(0.015625)"/>
       <path id="DejaVuSans-76" d="M 191 3500 
L 800 3500 
L 1894 563 
L 2988 3500 
L 3597 3500 
L 2284 0 
L 1503 0 
L 191 3500 
z
" transform="scale(0.015625)"/>
      </defs>
      <use xlink:href="#DejaVuSans-4f"/>
      <use xlink:href="#DejaVuSans-62" x="78.710938"/>
      <use xlink:href="#DejaVuSans-73" x="142.1875"/>
      <use xlink:href="#DejaVuSans-65" x="194.287109"/>
      <use xlink:href="#DejaVuSans-72" x="255.810547"/>
      <use xlink:href="#DejaVuSans-76" x="296.923828"/>
      <use xlink:href="#DejaVuSans-65" x="356.103516"/>
      <use xlink:href="#DejaVuSans-64" x="417.626953"/>
     </g>
    </g>
   </g>
   <g id="line2d_13">
    <path d="M 73.832727 295.488 
L 398.487273 54.001416 
L 398.487273 54.001416 
" clip-path="url(#p488792e457)" style="fill: none; stroke-dasharray: 5.55,2.4; stroke-dashoffset: 0; stroke: #808080; stroke-width: 1.5"/>
   </g>
   <g id="line2d_14">
    <path d="M 73.832727 295.488 
L 79.027611 293.066378 
L 84.220418 290.160432 
L 89.409072 288.223135 
L 92.001195 287.496649 
L 94.591504 286.528 
L 97.179742 284.106378 
L 99.765651 282.411243 
L 102.348976 281.684757 
L 104.92946 280.231784 
L 107.50685 278.536649 
L 110.080892 278.052324 
L 112.651332 276.115027 
L 115.21792 274.419892 
L 117.780404 273.935568 
L 120.338536 272.482595 
L 122.892067 271.271784 
L 125.440752 270.545297 
L 127.984344 269.092324 
L 130.5226 268.123676 
L 133.055279 266.186378 
L 135.582139 265.944216 
L 138.102941 265.459892 
L 140.61745 264.733405 
L 143.125429 263.522595 
L 145.626647 262.553946 
L 148.12087 260.616649 
L 150.607871 259.648 
L 153.087422 258.921514 
L 155.559299 257.226378 
L 158.023278 256.015568 
L 160.479139 255.046919 
L 162.926665 253.351784 
L 167.79585 250.930162 
L 175.0318 246.571243 
L 177.424871 245.844757 
L 179.808152 244.876108 
L 182.181444 242.938811 
L 184.544552 241.970162 
L 186.897286 240.759351 
L 189.239456 240.032865 
L 191.570878 239.548541 
L 193.891367 238.095568 
L 198.498834 236.15827 
L 200.785462 234.463135 
L 205.323655 233.010162 
L 207.574888 232.525838 
L 209.813998 230.588541 
L 212.040827 229.619892 
L 214.25522 229.135568 
L 216.457028 226.956108 
L 218.646101 225.503135 
L 220.822298 224.534486 
L 222.985476 223.323676 
L 225.1355 221.870703 
L 227.272234 219.933405 
L 229.39555 219.206919 
L 231.50532 218.722595 
L 233.601421 217.269622 
L 235.683733 216.543135 
L 237.752141 215.574486 
L 239.806531 214.848 
L 241.846795 211.699892 
L 243.872827 210.731243 
L 245.884525 209.036108 
L 247.881792 208.067459 
L 249.864531 206.614486 
L 251.832652 205.403676 
L 253.786068 203.708541 
L 255.724694 202.982054 
L 257.64845 201.286919 
L 259.55726 200.076108 
L 261.451049 199.591784 
L 263.329749 198.380973 
L 265.193293 197.412324 
L 267.041618 195.717189 
L 268.874666 195.232865 
L 270.692381 194.990703 
L 272.49471 193.779892 
L 274.281607 192.811243 
L 276.053025 192.084757 
L 277.808923 190.631784 
L 279.549263 188.452324 
L 281.27401 187.725838 
L 282.983134 187.241514 
L 284.676605 186.515027 
L 286.354401 186.515027 
L 288.016499 184.819892 
L 289.662883 182.640432 
L 291.293536 181.913946 
L 292.908449 179.250162 
L 294.507614 178.281514 
L 296.091025 177.797189 
L 297.65868 176.344216 
L 299.210583 174.406919 
L 302.267148 171.016649 
L 305.260796 169.563676 
L 306.734063 167.868541 
L 308.191649 166.899892 
L 309.633578 165.204757 
L 311.059876 163.751784 
L 312.470571 162.540973 
L 315.245278 160.603676 
L 316.609361 158.908541 
L 317.957982 158.424216 
L 320.609008 155.51827 
L 321.911505 154.549622 
L 324.470713 152.128 
L 325.727531 151.643676 
L 328.195879 149.706378 
L 329.40753 149.706378 
L 330.604249 149.222054 
L 331.786102 148.253405 
L 332.953157 147.042595 
L 334.105485 145.589622 
L 335.243157 144.863135 
L 336.366247 143.652324 
L 337.474832 143.652324 
L 338.568989 143.168 
L 339.648799 142.925838 
L 341.765702 141.957189 
L 342.802964 140.988541 
L 343.826215 139.77773 
L 344.835543 138.324757 
L 345.831039 137.59827 
L 346.812793 136.145297 
L 347.780898 135.660973 
L 348.735448 133.723676 
L 349.67654 132.997189 
L 350.604271 131.786378 
L 351.518737 131.302054 
L 352.42004 130.333405 
L 354.183558 128.880432 
L 356.732656 125.490162 
L 357.557127 124.521514 
L 358.369161 123.310703 
L 359.956349 121.85773 
L 362.246569 118.467459 
L 362.986268 118.467459 
L 364.430774 115.803676 
L 365.135806 115.803676 
L 365.829508 115.561514 
L 366.511995 114.835027 
L 367.183381 113.624216 
L 367.84378 113.382054 
L 369.132076 112.413405 
L 369.760204 111.686919 
L 370.377807 110.71827 
L 370.984998 110.233946 
L 371.581895 109.265297 
L 372.168614 108.538811 
L 372.745269 108.054486 
L 373.311978 107.812324 
L 373.868855 106.843676 
L 374.416017 106.601514 
L 374.95358 106.117189 
L 376.000369 104.664216 
L 376.509827 103.211243 
L 377.010146 102.726919 
L 377.501442 101.75827 
L 377.983829 101.273946 
L 378.457421 100.305297 
L 378.922332 100.063135 
L 379.378676 98.852324 
L 380.266114 97.399351 
L 381.120634 95.704216 
L 381.535829 94.97773 
L 381.943128 94.735568 
L 383.495563 92.79827 
L 384.227244 91.587459 
L 384.582327 91.103135 
L 385.933392 87.228541 
L 386.254363 87.228541 
L 386.876867 85.533405 
L 387.178602 85.533405 
L 387.763538 83.83827 
L 388.324416 82.627459 
L 388.596076 82.143135 
L 389.122316 81.658811 
L 389.377083 81.174486 
L 389.626407 80.448 
L 389.870379 80.448 
L 390.109089 80.205838 
L 390.342629 79.479351 
L 390.571087 79.237189 
L 391.01311 78.026378 
L 392.595114 74.636108 
L 392.773287 74.393946 
L 393.283595 73.183135 
L 393.604381 73.183135 
L 394.201972 70.761514 
L 394.479905 70.277189 
L 394.613893 69.792865 
L 394.744653 69.792865 
L 394.996741 68.824216 
L 395.352248 68.339892 
L 395.464962 68.339892 
L 395.786576 66.886919 
L 395.888462 66.644757 
L 396.360501 63.980973 
L 396.775007 62.770162 
L 396.998656 62.043676 
L 397.069308 62.043676 
L 397.205029 61.801514 
L 397.33359 61.801514 
L 397.679542 60.348541 
L 397.832048 59.13773 
L 397.88009 59.13773 
L 398.100837 58.411243 
L 398.218842 58.411243 
L 398.487273 56.95827 
L 398.487273 56.95827 
" clip-path="url(#p488792e457)" style="fill: none; stroke: #1f77b4; stroke-width: 1.5; stroke-linecap: square"/>
   </g>
   <g id="line2d_15">
    <path d="M 73.832727 295.488 
L 76.430299 293.308541 
L 79.027611 291.371243 
L 84.220418 285.559351 
L 86.815394 282.169081 
L 89.409072 279.747459 
L 92.001195 277.568 
L 94.591504 274.419892 
L 97.179742 272.482595 
L 99.765651 271.513946 
L 102.348976 268.850162 
L 104.92946 267.881514 
L 107.50685 265.459892 
L 110.080892 263.280432 
L 112.651332 261.343135 
L 115.21792 260.132324 
L 117.780404 257.468541 
L 120.338536 256.015568 
L 122.892067 254.804757 
L 125.440752 251.172324 
L 127.984344 248.750703 
L 133.055279 242.938811 
L 135.582139 241.485838 
L 138.102941 237.126919 
L 140.61745 234.947459 
L 143.125429 233.010162 
L 145.626647 231.315027 
L 148.12087 230.104216 
L 150.607871 227.682595 
L 153.087422 225.018811 
L 155.559299 222.597189 
L 158.023278 221.144216 
L 160.479139 218.964757 
L 162.926665 215.574486 
L 165.36564 212.426378 
L 167.79585 210.731243 
L 170.217085 208.309622 
L 172.629136 205.645838 
L 177.424871 202.255568 
L 179.808152 199.591784 
L 182.181444 197.896649 
L 184.544552 195.232865 
L 191.570878 190.147459 
L 193.891367 187.968 
L 196.200745 187.483676 
L 198.498834 185.546378 
L 200.785462 183.366919 
L 203.060458 182.156108 
L 205.323655 180.218811 
L 207.574888 178.765838 
L 209.813998 176.586378 
L 212.040827 175.375568 
L 214.25522 173.43827 
L 216.457028 170.774486 
L 218.646101 169.321514 
L 220.822298 168.352865 
L 222.985476 166.899892 
L 225.1355 164.962595 
L 227.272234 162.056649 
L 229.39555 160.119351 
L 231.50532 157.939892 
L 233.601421 155.033946 
L 235.683733 153.580973 
L 237.752141 151.401514 
L 239.806531 150.190703 
L 241.846795 149.222054 
L 243.872827 148.495568 
L 245.884525 146.55827 
L 247.881792 145.105297 
L 249.864531 144.136649 
L 251.832652 142.441514 
L 253.786068 140.504216 
L 255.724694 138.082595 
L 257.64845 136.387459 
L 259.55726 134.934486 
L 261.451049 132.512865 
L 265.193293 130.091243 
L 267.041618 128.63827 
L 268.874666 127.427459 
L 270.692381 125.490162 
L 272.49471 125.005838 
L 274.281607 123.552865 
L 277.808923 119.67827 
L 279.549263 119.193946 
L 281.27401 118.467459 
L 282.983134 117.014486 
L 284.676605 114.835027 
L 286.354401 114.350703 
L 288.016499 112.655568 
L 289.662883 110.71827 
L 291.293536 109.265297 
L 292.908449 109.023135 
L 296.091025 108.054486 
L 297.65868 106.117189 
L 300.746736 105.148541 
L 303.771831 102.726919 
L 305.260796 102.726919 
L 306.734063 102.484757 
L 308.191649 101.75827 
L 309.633578 100.305297 
L 311.059876 99.094486 
L 312.470571 97.641514 
L 315.245278 95.219892 
L 316.609361 94.251243 
L 317.957982 93.766919 
L 319.291183 92.556108 
L 321.911505 91.103135 
L 323.198723 91.103135 
L 324.470713 90.376649 
L 325.727531 90.134486 
L 326.969234 88.439351 
L 328.195879 87.712865 
L 329.40753 87.228541 
L 330.604249 86.986378 
L 331.786102 86.502054 
L 332.953157 85.533405 
L 335.243157 85.049081 
L 337.474832 84.080432 
L 338.568989 83.83827 
L 339.648799 82.385297 
L 340.714342 81.658811 
L 341.765702 81.174486 
L 342.802964 80.205838 
L 343.826215 79.479351 
L 344.835543 79.479351 
L 345.831039 79.237189 
L 346.812793 78.752865 
L 347.780898 78.026378 
L 349.67654 76.089081 
L 350.604271 75.604757 
L 351.518737 75.362595 
L 352.42004 74.151784 
L 353.30828 73.909622 
L 354.183558 73.425297 
L 355.895642 72.940973 
L 356.732656 72.940973 
L 357.557127 72.698811 
L 358.369161 72.214486 
L 359.168866 71.488 
L 359.956349 71.245838 
L 361.495091 69.792865 
L 362.986268 69.792865 
L 363.714299 69.550703 
L 364.430774 69.066378 
L 365.135806 68.824216 
L 365.829508 68.09773 
L 366.511995 67.613405 
L 367.84378 67.129081 
L 368.493306 67.129081 
L 369.132076 66.402595 
L 369.760204 66.160432 
L 370.377807 66.160432 
L 370.984998 65.191784 
L 371.581895 64.949622 
L 372.168614 64.465297 
L 374.416017 63.496649 
L 374.95358 63.012324 
L 375.481659 62.285838 
L 376.000369 62.285838 
L 377.010146 61.801514 
L 377.501442 61.317189 
L 379.378676 61.317189 
L 380.266114 60.348541 
L 381.120634 59.864216 
L 381.943128 59.864216 
L 382.734479 59.379892 
L 383.865025 59.379892 
L 384.227244 59.13773 
L 385.933392 59.13773 
L 386.254363 58.411243 
L 386.876867 58.411243 
L 387.178602 57.926919 
L 387.474126 57.926919 
L 387.763538 57.684757 
L 388.046936 57.684757 
L 388.862011 56.95827 
L 390.342629 56.95827 
L 391.435853 55.747459 
L 392.773287 55.747459 
L 392.947374 55.505297 
L 393.604381 55.505297 
L 393.759169 55.263135 
L 394.201972 55.263135 
L 394.34262 55.020973 
L 394.744653 55.020973 
L 395.23668 54.294486 
L 397.455319 54.294486 
L 397.625796 54.052324 
L 398.180641 54.052324 
L 398.326983 53.810162 
L 398.487273 53.810162 
L 398.487273 53.810162 
" clip-path="url(#p488792e457)" style="fill: none; stroke: #ff7f0e; stroke-width: 1.5; stroke-linecap: square"/>
   </g>
   <g id="line2d_16">
    <path d="M 73.832727 295.488 
L 76.430299 292.582054 
L 79.027611 290.402595 
L 81.624404 286.043676 
L 84.220418 282.169081 
L 89.409072 278.778811 
L 92.001195 276.599351 
L 94.591504 273.935568 
L 97.179742 271.513946 
L 99.765651 268.850162 
L 104.92946 263.03827 
L 107.50685 260.616649 
L 110.080892 257.226378 
L 112.651332 255.531243 
L 117.780404 251.172324 
L 120.338536 247.055568 
L 122.892067 243.907459 
L 127.984344 238.579892 
L 130.5226 237.126919 
L 133.055279 234.705297 
L 135.582139 232.525838 
L 138.102941 230.830703 
L 140.61745 227.924757 
L 143.125429 225.503135 
L 148.12087 221.144216 
L 150.607871 218.722595 
L 153.087422 217.511784 
L 158.023278 214.121514 
L 160.479139 211.699892 
L 162.926665 209.762595 
L 165.36564 207.583135 
L 167.79585 205.645838 
L 170.217085 204.192865 
L 172.629136 202.982054 
L 175.0318 201.529081 
L 177.424871 200.31827 
L 179.808152 198.138811 
L 184.544552 192.811243 
L 186.897286 190.389622 
L 189.239456 186.999351 
L 191.570878 185.062054 
L 193.891367 182.882595 
L 196.200745 181.671784 
L 198.498834 180.945297 
L 200.785462 179.250162 
L 203.060458 177.070703 
L 207.574888 174.164757 
L 212.040827 170.774486 
L 214.25522 168.352865 
L 216.457028 166.415568 
L 218.646101 164.236108 
L 220.822298 162.540973 
L 222.985476 160.361514 
L 225.1355 158.424216 
L 227.272234 157.213405 
L 229.39555 156.729081 
L 231.50532 153.096649 
L 233.601421 151.159351 
L 235.683733 149.948541 
L 237.752141 147.769081 
L 241.846795 144.378811 
L 243.872827 143.168 
L 245.884525 142.683676 
L 247.881792 140.262054 
L 249.864531 138.566919 
L 251.832652 137.356108 
L 257.64845 132.997189 
L 259.55726 131.302054 
L 261.451049 130.575568 
L 263.329749 129.606919 
L 265.193293 128.153946 
L 267.041618 126.943135 
L 270.692381 123.552865 
L 272.49471 121.615568 
L 274.281607 119.193946 
L 276.053025 117.983135 
L 277.808923 117.498811 
L 279.549263 116.045838 
L 281.27401 114.835027 
L 284.676605 112.89773 
L 286.354401 111.686919 
L 288.016499 109.991784 
L 289.662883 109.507459 
L 292.908449 107.570162 
L 294.507614 106.843676 
L 296.091025 105.390703 
L 297.65868 103.695568 
L 299.210583 102.969081 
L 300.746736 101.273946 
L 302.267148 100.789622 
L 303.771831 99.578811 
L 305.260796 99.094486 
L 308.191649 97.641514 
L 309.633578 95.704216 
L 312.470571 94.735568 
L 313.865694 93.524757 
L 315.245278 92.79827 
L 316.609361 91.829622 
L 317.957982 91.345297 
L 319.291183 89.892324 
L 320.609008 88.681514 
L 323.198723 88.197189 
L 324.470713 87.470703 
L 325.727531 85.775568 
L 326.969234 85.533405 
L 328.195879 84.564757 
L 329.40753 83.83827 
L 330.604249 83.596108 
L 331.786102 82.385297 
L 332.953157 81.658811 
L 334.105485 80.448 
L 335.243157 79.479351 
L 337.474832 78.995027 
L 338.568989 77.784216 
L 339.648799 77.299892 
L 340.714342 77.05773 
L 341.765702 76.331243 
L 342.802964 76.089081 
L 344.835543 75.120432 
L 346.812793 74.636108 
L 347.780898 73.909622 
L 348.735448 73.425297 
L 349.67654 72.698811 
L 350.604271 72.698811 
L 352.42004 72.214486 
L 354.183558 71.245838 
L 355.045977 70.519351 
L 355.895642 70.277189 
L 356.732656 69.550703 
L 357.557127 69.550703 
L 358.369161 69.066378 
L 359.168866 68.339892 
L 359.956349 67.855568 
L 362.246569 67.129081 
L 362.986268 67.129081 
L 363.714299 66.644757 
L 364.430774 66.644757 
L 365.135806 65.91827 
L 365.829508 65.676108 
L 367.183381 65.676108 
L 367.84378 65.191784 
L 369.132076 65.191784 
L 372.168614 63.980973 
L 372.745269 63.496649 
L 373.311978 62.528 
L 374.416017 62.528 
L 374.95358 62.043676 
L 375.481659 62.043676 
L 376.000369 61.559351 
L 377.501442 61.559351 
L 377.983829 61.075027 
L 379.378676 60.348541 
L 379.826566 60.348541 
L 380.266114 60.106378 
L 380.697433 59.622054 
L 381.120634 59.379892 
L 381.943128 59.379892 
L 382.342641 59.13773 
L 383.11875 59.13773 
L 383.495563 58.895568 
L 384.930378 58.895568 
L 385.271503 58.411243 
L 385.605806 58.169081 
L 386.568821 58.169081 
L 386.876867 57.926919 
L 387.178602 57.442595 
L 388.596076 57.442595 
L 388.862011 57.200432 
L 389.377083 57.200432 
L 389.870379 56.716108 
L 390.109089 56.716108 
L 390.571087 56.231784 
L 390.794552 56.231784 
L 391.01311 55.747459 
L 391.226849 55.747459 
L 391.435853 55.263135 
L 391.640207 55.263135 
L 391.839994 55.020973 
L 394.744653 55.020973 
L 394.996741 54.778811 
L 395.987783 54.778811 
L 396.178949 54.536649 
L 396.2709 54.536649 
L 396.447802 54.294486 
L 396.532853 54.294486 
L 396.775007 53.810162 
L 396.926085 53.810162 
L 397.069308 53.568 
L 398.487273 53.568 
L 398.487273 53.568 
" clip-path="url(#p488792e457)" style="fill: none; stroke: #2ca02c; stroke-width: 1.5; stroke-linecap: square"/>
   </g>
   <g id="patch_3">
    <path d="M 57.6 307.584 
L 57.6 41.472 
" style="fill: none; stroke: #000000; stroke-width: 0.8; stroke-linejoin: miter; stroke-linecap: square"/>
   </g>
   <g id="patch_4">
    <path d="M 414.72 307.584 
L 414.72 41.472 
" style="fill: none; stroke: #000000; stroke-width: 0.8; stroke-linejoin: miter; stroke-linecap: square"/>
   </g>
   <g id="patch_5">
    <path d="M 57.6 307.584 
L 414.72 307.584 
" style="fill: none; stroke: #000000; stroke-width: 0.8; stroke-linejoin: miter; stroke-linecap: square"/>
   </g>
   <g id="patch_6">
    <path d="M 57.6 41.472 
L 414.72 41.472 
" style="fill: none; stroke: #000000; stroke-width: 0.8; stroke-linejoin: miter; stroke-linecap: square"/>
   </g>
   <g id="legend_1">
    <g id="patch_7">
     <path d="M 64.6 93.506375 
L 163.00625 93.506375 
Q 165.00625 93.506375 165.00625 91.506375 
L 165.00625 48.472 
Q 165.00625 46.472 163.00625 46.472 
L 64.6 46.472 
Q 62.6 46.472 62.6 48.472 
L 62.6 91.506375 
Q 62.6 93.506375 64.6 93.506375 
z
" style="fill: #ffffff; opacity: 0.8; stroke: #cccccc; stroke-linejoin: miter"/>
    </g>
    <g id="line2d_17">
     <path d="M 66.6 54.570438 
L 76.6 54.570438 
L 86.6 54.570438 
" style="fill: none; stroke: #1f77b4; stroke-width: 1.5; stroke-linecap: square"/>
    </g>
    <g id="text_15">
     <!-- Chromosome -->
     <g transform="translate(94.6 58.070438) scale(0.1 -0.1)">
      <defs>
       <path id="DejaVuSans-43" d="M 4122 4306 
L 4122 3641 
Q 3803 3938 3442 4084 
Q 3081 4231 2675 4231 
Q 1875 4231 1450 3742 
Q 1025 3253 1025 2328 
Q 1025 1406 1450 917 
Q 1875 428 2675 428 
Q 3081 428 3442 575 
Q 3803 722 4122 1019 
L 4122 359 
Q 3791 134 3420 21 
Q 3050 -91 2638 -91 
Q 1578 -91 968 557 
Q 359 1206 359 2328 
Q 359 3453 968 4101 
Q 1578 4750 2638 4750 
Q 3056 4750 3426 4639 
Q 3797 4528 4122 4306 
z
" transform="scale(0.015625)"/>
       <path id="DejaVuSans-68" d="M 3513 2113 
L 3513 0 
L 2938 0 
L 2938 2094 
Q 2938 2591 2744 2837 
Q 2550 3084 2163 3084 
Q 1697 3084 1428 2787 
Q 1159 2491 1159 1978 
L 1159 0 
L 581 0 
L 581 4863 
L 1159 4863 
L 1159 2956 
Q 1366 3272 1645 3428 
Q 1925 3584 2291 3584 
Q 2894 3584 3203 3211 
Q 3513 2838 3513 2113 
z
" transform="scale(0.015625)"/>
       <path id="DejaVuSans-6f" d="M 1959 3097 
Q 1497 3097 1228 2736 
Q 959 2375 959 1747 
Q 959 1119 1226 758 
Q 1494 397 1959 397 
Q 2419 397 2687 759 
Q 2956 1122 2956 1747 
Q 2956 2369 2687 2733 
Q 2419 3097 1959 3097 
z
M 1959 3584 
Q 2709 3584 3137 3096 
Q 3566 2609 3566 1747 
Q 3566 888 3137 398 
Q 2709 -91 1959 -91 
Q 1206 -91 779 398 
Q 353 888 353 1747 
Q 353 2609 779 3096 
Q 1206 3584 1959 3584 
z
" transform="scale(0.015625)"/>
       <path id="DejaVuSans-6d" d="M 3328 2828 
Q 3544 3216 3844 3400 
Q 4144 3584 4550 3584 
Q 5097 3584 5394 3201 
Q 5691 2819 5691 2113 
L 5691 0 
L 5113 0 
L 5113 2094 
Q 5113 2597 4934 2840 
Q 4756 3084 4391 3084 
Q 3944 3084 3684 2787 
Q 3425 2491 3425 1978 
L 3425 0 
L 2847 0 
L 2847 2094 
Q 2847 2600 2669 2842 
Q 2491 3084 2119 3084 
Q 1678 3084 1418 2786 
Q 1159 2488 1159 1978 
L 1159 0 
L 581 0 
L 581 3500 
L 1159 3500 
L 1159 2956 
Q 1356 3278 1631 3431 
Q 1906 3584 2284 3584 
Q 2666 3584 2933 3390 
Q 3200 3197 3328 2828 
z
" transform="scale(0.015625)"/>
      </defs>
      <use xlink:href="#DejaVuSans-43"/>
      <use xlink:href="#DejaVuSans-68" x="69.824219"/>
      <use xlink:href="#DejaVuSans-72" x="133.203125"/>
      <use xlink:href="#DejaVuSans-6f" x="172.066406"/>
      <use xlink:href="#DejaVuSans-6d" x="233.248047"/>
      <use xlink:href="#DejaVuSans-6f" x="330.660156"/>
      <use xlink:href="#DejaVuSans-73" x="391.841797"/>
      <use xlink:href="#DejaVuSans-6f" x="443.941406"/>
      <use xlink:href="#DejaVuSans-6d" x="505.123047"/>
      <use xlink:href="#DejaVuSans-65" x="602.535156"/>
     </g>
    </g>
    <g id="line2d_18">
     <path d="M 66.6 69.248563 
L 76.6 69.248563 
L 86.6 69.248563 
" style="fill: none; stroke: #ff7f0e; stroke-width: 1.5; stroke-linecap: square"/>
    </g>
    <g id="text_16">
     <!-- Window 100 -->
     <g transform="translate(94.6 72.748563) scale(0.1 -0.1)">
      <defs>
       <path id="DejaVuSans-57" d="M 213 4666 
L 850 4666 
L 1831 722 
L 2809 4666 
L 3519 4666 
L 4500 722 
L 5478 4666 
L 6119 4666 
L 4947 0 
L 4153 0 
L 3169 4050 
L 2175 0 
L 1381 0 
L 213 4666 
z
" transform="scale(0.015625)"/>
       <path id="DejaVuSans-69" d="M 603 3500 
L 1178 3500 
L 1178 0 
L 603 0 
L 603 3500 
z
M 603 4863 
L 1178 4863 
L 1178 4134 
L 603 4134 
L 603 4863 
z
" transform="scale(0.015625)"/>
       <path id="DejaVuSans-6e" d="M 3513 2113 
L 3513 0 
L 2938 0 
L 2938 2094 
Q 2938 2591 2744 2837 
Q 2550 3084 2163 3084 
Q 1697 3084 1428 2787 
Q 1159 2491 1159 1978 
L 1159 0 
L 581 0 
L 581 3500 
L 1159 3500 
L 1159 2956 
Q 1366 3272 1645 3428 
Q 1925 3584 2291 3584 
Q 2894 3584 3203 3211 
Q 3513 2838 3513 2113 
z
" transform="scale(0.015625)"/>
       <path id="DejaVuSans-77" d="M 269 3500 
L 844 3500 
L 1563 769 
L 2278 3500 
L 2956 3500 
L 3675 769 
L 4391 3500 
L 4966 3500 
L 4050 0 
L 3372 0 
L 2619 2869 
L 1863 0 
L 1184 0 
L 269 3500 
z
" transform="scale(0.015625)"/>
       <path id="DejaVuSans-20" transform="scale(0.015625)"/>
      </defs>
      <use xlink:href="#DejaVuSans-57"/>
      <use xlink:href="#DejaVuSans-69" x="96.626953"/>
      <use xlink:href="#DejaVuSans-6e" x="124.410156"/>
      <use xlink:href="#DejaVuSans-64" x="187.789062"/>
      <use xlink:href="#DejaVuSans-6f" x="251.265625"/>
      <use xlink:href="#DejaVuSans-77" x="312.447266"/>
      <use xlink:href="#DejaVuSans-20" x="394.234375"/>
      <use xlink:href="#DejaVuSans-31" x="426.021484"/>
      <use xlink:href="#DejaVuSans-30" x="489.644531"/>
      <use xlink:href="#DejaVuSans-30" x="553.267578"/>
     </g>
    </g>
    <g id="line2d_19">
     <path d="M 66.6 83.926688 
L 76.6 83.926688 
L 86.6 83.926688 
" style="fill: none; stroke: #2ca02c; stroke-width: 1.5; stroke-linecap: square"/>
    </g>
    <g id="text_17">
     <!-- Tree -->
     <g transform="translate(94.6 87.426688) scale(0.1 -0.1)">
      <defs>
       <path id="DejaVuSans-54" d="M -19 4666 
L 3928 4666 
L 3928 4134 
L 2272 4134 
L 2272 0 
L 1638 0 
L 1638 4134 
L -19 4134 
L -19 4666 
z
" transform="scale(0.015625)"/>
      </defs>
      <use xlink:href="#DejaVuSans-54"/>
      <use xlink:href="#DejaVuSans-72" x="46.333984"/>
      <use xlink:href="#DejaVuSans-65" x="85.197266"/>
      <use xlink:href="#DejaVuSans-65" x="146.720703"/>
     </g>
    </g>
   </g>
  </g>
 </g>
 <defs>
  <clipPath id="p488792e457">
   <rect x="57.6" y="41.472" width="357.12" height="266.112"/>
  </clipPath>
 </defs>
</svg>
