<svg id="Layer_1" data-name="Layer 1" xmlns="http://www.w3.org/2000/svg" viewBox="0 0 5020.1 4662.25"><defs><style>.cls-1,.cls-10,.cls-11,.cls-12,.cls-13,.cls-15,.cls-17,.cls-7,.cls-8,.cls-9{fill:none;stroke-miterlimit:10;}.cls-1,.cls-2{stroke:#231f20;}.cls-1,.cls-13,.cls-15,.cls-17{stroke-width:50px;}.cls-14,.cls-16,.cls-18,.cls-2{fill:#fff;stroke-linejoin:round;}.cls-10,.cls-11,.cls-12,.cls-14,.cls-16,.cls-18,.cls-2,.cls-7,.cls-8,.cls-9{stroke-width:25px;}.cls-3,.cls-4,.cls-5,.cls-6{isolation:isolate;}.cls-4,.cls-5,.cls-6{font-size:89.49px;fill:#010101;font-family:Helvetica;}.cls-4{letter-spacing:-0.05em;}.cls-6{letter-spacing:-0.04em;}.cls-17,.cls-18,.cls-7,.cls-8{stroke:#00aeef;}.cls-10,.cls-12,.cls-8{stroke-dasharray:51.48 51.48;}.cls-10,.cls-15,.cls-16,.cls-9{stroke:#be1e2d;}.cls-11,.cls-12,.cls-13,.cls-14{stroke:#2e3192;}.cls-19,.cls-25,.cls-31{font-size:100px;}.cls-19{fill:#2e3192;}.cls-19,.cls-25,.cls-31,.cls-34{font-family:MyriadPro-Regular, Myriad Pro;}.cls-20{letter-spacing:0em;}.cls-21{letter-spacing:-0.04em;}.cls-22{letter-spacing:-0.02em;}.cls-23{letter-spacing:0em;}.cls-24{letter-spacing:0em;}.cls-25{fill:#be1e2d;}.cls-26{letter-spacing:0.01em;}.cls-27{letter-spacing:0em;}.cls-28{letter-spacing:0em;}.cls-29{letter-spacing:-0.01em;}.cls-30{letter-spacing:0em;}.cls-31{fill:#00aeef;}.cls-32{letter-spacing:-0.04em;}.cls-33{letter-spacing:-0.01em;}.cls-34{font-size:150px;fill:#231f20;}.cls-35{letter-spacing:-0.01em;}.cls-36{letter-spacing:-0.01em;}.cls-37{letter-spacing:0em;}.cls-38{letter-spacing:0em;}.cls-39{letter-spacing:-0.01em;}.cls-40{letter-spacing:0em;}.cls-41{letter-spacing:-0.01em;}.cls-42{letter-spacing:-0.01em;}.cls-43{letter-spacing:0em;}.cls-44{letter-spacing:0em;}.cls-45{letter-spacing:0em;}.cls-46{letter-spacing:-0.01em;}.cls-47{letter-spacing:-0.01em;}</style></defs><path class="cls-1" d="M936.63,4004.17V3705.88h149.15" transform="translate(-489.95 -670.88)"/><path class="cls-1" d="M1234.92,4004.17V3705.88H1085.78" transform="translate(-489.95 -670.88)"/><path class="cls-1" d="M1085.78,3705.88V3407.59H1309.5" transform="translate(-489.95 -670.88)"/><path class="cls-1" d="M1533.21,4004.17V3407.59H1309.5" transform="translate(-489.95 -670.88)"/><path class="cls-1" d="M1309.5,3407.59V3109.3" transform="translate(-489.95 -670.88)"/><path class="cls-1" d="M1309.5,3109.3H1085.78V2214.43h447.43" transform="translate(-489.95 -670.88)"/><path class="cls-1" d="M1309.5,3109.3h223.71V2811h149.15" transform="translate(-489.95 -670.88)"/><path class="cls-1" d="M1682.36,2811V2512.72H1831.5" transform="translate(-489.95 -670.88)"/><path class="cls-1" d="M1831.5,2512.72V2214.43H1533.21" transform="translate(-489.95 -670.88)"/><path class="cls-1" d="M1831.5,4004.17V3407.59h149.15" transform="translate(-489.95 -670.88)"/><path class="cls-1" d="M2129.79,4004.17V3407.59H1980.65" transform="translate(-489.95 -670.88)"/><path class="cls-1" d="M1980.65,3407.59V3109.3" transform="translate(-489.95 -670.88)"/><path class="cls-1" d="M1980.65,3109.3H1831.5V2811H1682.36" transform="translate(-489.95 -670.88)"/><path class="cls-1" d="M1980.65,3109.3h149.14V2512.72H1831.5" transform="translate(-489.95 -670.88)"/><circle class="cls-2" cx="446.69" cy="3333.29" r="74.57"/><circle class="cls-2" cx="744.98" cy="3333.29" r="74.57"/><circle class="cls-2" cx="1043.27" cy="3333.29" r="74.57"/><circle class="cls-2" cx="1341.56" cy="3333.29" r="74.57"/><circle class="cls-2" cx="1639.85" cy="3333.29" r="74.57"/><circle class="cls-2" cx="595.83" cy="3035" r="74.57"/><circle class="cls-2" cx="819.55" cy="2736.71" r="74.57"/><circle class="cls-2" cx="1490.7" cy="2736.71" r="74.57"/><circle class="cls-2" cx="819.55" cy="2438.42" r="74.57"/><circle class="cls-2" cx="1490.7" cy="2438.42" r="74.57"/><circle class="cls-2" cx="1192.41" cy="2140.13" r="74.57"/><circle class="cls-2" cx="1341.56" cy="1841.84" r="74.57"/><circle class="cls-2" cx="1043.27" cy="1543.55" r="74.57"/><g class="cls-3"><text class="cls-4" transform="translate(419.29 3361.26)">A</text></g><g class="cls-3"><text class="cls-5" transform="translate(715.13 3361.26)">B</text></g><g class="cls-3"><text class="cls-5" transform="translate(1010.95 3361.26)">C</text></g><g class="cls-3"><text class="cls-5" transform="translate(1309.24 3361.26)">D</text></g><g class="cls-3"><text class="cls-5" transform="translate(1610 3361.26)">E</text></g><g class="cls-3"><text class="cls-5" transform="translate(568.5 3062.97)">F</text></g><g class="cls-3"><text class="cls-5" transform="translate(784.75 2764.69)">G</text></g><g class="cls-3"><text class="cls-5" transform="translate(1458.39 2764.69)">H</text></g><g class="cls-3"><text class="cls-5" transform="translate(807.12 2466.4)">I</text></g><g class="cls-3"><text class="cls-5" transform="translate(1468.33 2466.4)">J</text></g><g class="cls-3"><text class="cls-5" transform="translate(1162.57 2168.11)">K</text></g><g class="cls-3"><text class="cls-6" transform="translate(1318.31 1869.82)">L</text></g><g class="cls-3"><text class="cls-5" transform="translate(1005.99 1571.53)">M</text></g><line class="cls-7" x1="169.88" y1="2587.57" x2="194.88" y2="2587.57"/><line class="cls-8" x1="246.36" y1="2587.57" x2="1867.94" y2="2587.57"/><line class="cls-7" x1="1893.68" y1="2587.57" x2="1918.68" y2="2587.57"/><line class="cls-9" x1="169.88" y1="2289.28" x2="194.88" y2="2289.28"/><line class="cls-10" x1="246.36" y1="2289.28" x2="1867.94" y2="2289.28"/><line class="cls-9" x1="1893.68" y1="2289.28" x2="1918.68" y2="2289.28"/><line class="cls-11" x1="169.88" y1="1692.7" x2="194.88" y2="1692.7"/><line class="cls-12" x1="246.36" y1="1692.7" x2="1867.94" y2="1692.7"/><line class="cls-11" x1="1893.68" y1="1692.7" x2="1918.68" y2="1692.7"/><path class="cls-13" d="M3277.25,2324V2025.68h149.14" transform="translate(-489.95 -670.88)"/><path class="cls-13" d="M3575.54,2324V2025.68H3426.39" transform="translate(-489.95 -670.88)"/><path class="cls-13" d="M3426.39,2025.68V1727.39h223.72" transform="translate(-489.95 -670.88)"/><path class="cls-13" d="M3873.83,2324V1727.39H3650.11" transform="translate(-489.95 -670.88)"/><path class="cls-13" d="M3650.11,1727.39V1429.1" transform="translate(-489.95 -670.88)"/><path class="cls-13" d="M3650.11,1429.1H3426.39V683.38" transform="translate(-489.95 -670.88)"/><path class="cls-13" d="M3650.11,1429.1h223.72V1130.81H4023" transform="translate(-489.95 -670.88)"/><path class="cls-13" d="M4023,1130.81V832.52h149.15" transform="translate(-489.95 -670.88)"/><path class="cls-13" d="M4172.12,832.52V679.37" transform="translate(-489.95 -670.88)"/><path class="cls-13" d="M4172.12,2324V1727.39h149.14" transform="translate(-489.95 -670.88)"/><path class="cls-13" d="M4470.41,2324V1727.39H4321.26" transform="translate(-489.95 -670.88)"/><path class="cls-13" d="M4321.26,1727.39V1429.1" transform="translate(-489.95 -670.88)"/><path class="cls-13" d="M4321.26,1429.1H4172.12V1130.81H4023" transform="translate(-489.95 -670.88)"/><path class="cls-13" d="M4321.26,1429.1h149.15V832.52H4172.12" transform="translate(-489.95 -670.88)"/><circle class="cls-14" cx="2787.3" cy="1653.09" r="74.57"/><circle class="cls-14" cx="3085.59" cy="1653.09" r="74.57"/><circle class="cls-14" cx="3383.88" cy="1653.09" r="74.57"/><circle class="cls-14" cx="3682.17" cy="1653.09" r="74.57"/><circle class="cls-14" cx="3980.46" cy="1653.09" r="74.57"/><circle class="cls-14" cx="2936.44" cy="1354.8" r="74.57"/><circle class="cls-14" cx="3160.16" cy="1056.51" r="74.57"/><circle class="cls-14" cx="3831.31" cy="1056.51" r="74.57"/><circle class="cls-14" cx="3160.16" cy="758.22" r="74.57"/><circle class="cls-14" cx="3831.31" cy="758.22" r="74.57"/><circle class="cls-14" cx="3533.02" cy="459.93" r="74.57"/><circle class="cls-14" cx="3682.17" cy="161.65" r="74.57"/><g class="cls-3"><text class="cls-4" transform="translate(2759.9 1681.07)">A</text></g><g class="cls-3"><text class="cls-5" transform="translate(3055.75 1681.07)">B</text></g><g class="cls-3"><text class="cls-5" transform="translate(3351.57 1681.07)">C</text></g><g class="cls-3"><text class="cls-5" transform="translate(3649.86 1681.07)">D</text></g><g class="cls-3"><text class="cls-5" transform="translate(3950.61 1681.07)">E</text></g><g class="cls-3"><text class="cls-5" transform="translate(2909.11 1382.78)">F</text></g><g class="cls-3"><text class="cls-5" transform="translate(3125.36 1084.49)">G</text></g><g class="cls-3"><text class="cls-5" transform="translate(3799 1084.49)">H</text></g><g class="cls-3"><text class="cls-5" transform="translate(3147.73 786.2)">I</text></g><g class="cls-3"><text class="cls-5" transform="translate(3808.94 786.2)">J</text></g><g class="cls-3"><text class="cls-5" transform="translate(3503.18 487.91)">K</text></g><g class="cls-3"><text class="cls-6" transform="translate(3658.92 189.62)">L</text></g><line class="cls-11" x1="2510.49" y1="12.5" x2="2535.49" y2="12.5"/><line class="cls-12" x1="2586.97" y1="12.5" x2="4208.56" y2="12.5"/><line class="cls-11" x1="4234.3" y1="12.5" x2="4259.3" y2="12.5"/><path class="cls-15" d="M3277.25,3869.59V3571.3h149.14" transform="translate(-489.95 -670.88)"/><path class="cls-15" d="M3575.54,3869.59V3571.3H3426.39" transform="translate(-489.95 -670.88)"/><path class="cls-15" d="M3426.39,3571.3V3273h223.72" transform="translate(-489.95 -670.88)"/><path class="cls-15" d="M3873.83,3869.59V3273H3650.11" transform="translate(-489.95 -670.88)"/><path class="cls-15" d="M3650.11,3273V2974.72" transform="translate(-489.95 -670.88)"/><path class="cls-15" d="M3650.11,2974.72H3426.39V2825.57" transform="translate(-489.95 -670.88)"/><path class="cls-15" d="M3650.11,2974.72h223.72V2825.57" transform="translate(-489.95 -670.88)"/><path class="cls-15" d="M4172.12,3869.59V3273h149.14" transform="translate(-489.95 -670.88)"/><path class="cls-15" d="M4470.41,3869.59V3273H4321.26" transform="translate(-489.95 -670.88)"/><path class="cls-15" d="M4321.26,3273V2974.72" transform="translate(-489.95 -670.88)"/><path class="cls-15" d="M4321.26,2974.72H4172.12V2825.57" transform="translate(-489.95 -670.88)"/><path class="cls-15" d="M4321.26,2974.72h149.15V2825.57" transform="translate(-489.95 -670.88)"/><circle class="cls-16" cx="2787.3" cy="3198.71" r="74.57"/><circle class="cls-16" cx="3085.59" cy="3198.71" r="74.57"/><circle class="cls-16" cx="3383.88" cy="3198.71" r="74.57"/><circle class="cls-16" cx="3682.17" cy="3198.71" r="74.57"/><circle class="cls-16" cx="3980.46" cy="3198.71" r="74.57"/><circle class="cls-16" cx="2936.44" cy="2900.42" r="74.57"/><circle class="cls-16" cx="3160.16" cy="2602.13" r="74.57"/><circle class="cls-16" cx="3831.31" cy="2602.13" r="74.57"/><circle class="cls-16" cx="3160.16" cy="2303.84" r="74.57"/><circle class="cls-16" cx="3831.31" cy="2303.84" r="74.57"/><g class="cls-3"><text class="cls-4" transform="translate(2759.9 3226.68)">A</text></g><g class="cls-3"><text class="cls-5" transform="translate(3055.74 3226.68)">B</text></g><g class="cls-3"><text class="cls-5" transform="translate(3351.57 3226.68)">C</text></g><g class="cls-3"><text class="cls-5" transform="translate(3649.86 3226.68)">D</text></g><g class="cls-3"><text class="cls-5" transform="translate(3950.61 3226.68)">E</text></g><g class="cls-3"><text class="cls-5" transform="translate(2909.11 2928.39)">F</text></g><g class="cls-3"><text class="cls-5" transform="translate(3125.36 2630.1)">G</text></g><g class="cls-3"><text class="cls-5" transform="translate(3799 2630.1)">H</text></g><g class="cls-3"><text class="cls-5" transform="translate(3147.73 2331.81)">I</text></g><g class="cls-3"><text class="cls-5" transform="translate(3808.94 2331.81)">J</text></g><line class="cls-9" x1="2510.49" y1="2154.7" x2="2535.49" y2="2154.7"/><line class="cls-10" x1="2586.97" y1="2154.7" x2="4208.56" y2="2154.7"/><line class="cls-9" x1="4234.3" y1="2154.7" x2="4259.3" y2="2154.7"/><path class="cls-17" d="M3277.25,5246.06V4947.77h149.14" transform="translate(-489.95 -670.88)"/><path class="cls-17" d="M3575.54,5246.06V4947.77H3426.39" transform="translate(-489.95 -670.88)"/><path class="cls-17" d="M3426.39,4947.77V4649.48h223.72" transform="translate(-489.95 -670.88)"/><path class="cls-17" d="M3873.83,5246.06V4649.48H3650.11" transform="translate(-489.95 -670.88)"/><path class="cls-17" d="M3650.11,4649.48V4500.33" transform="translate(-489.95 -670.88)"/><path class="cls-17" d="M4172.12,5246.06V4649.48h149.14" transform="translate(-489.95 -670.88)"/><path class="cls-17" d="M4470.41,5246.06V4649.48H4321.26" transform="translate(-489.95 -670.88)"/><path class="cls-17" d="M4321.26,4649.48V4500.33" transform="translate(-489.95 -670.88)"/><circle class="cls-18" cx="2787.3" cy="4575.18" r="74.57"/><circle class="cls-18" cx="3085.59" cy="4575.18" r="74.57"/><circle class="cls-18" cx="3383.88" cy="4575.18" r="74.57"/><circle class="cls-18" cx="3682.17" cy="4575.18" r="74.57"/><circle class="cls-18" cx="3980.46" cy="4575.18" r="74.57"/><circle class="cls-18" cx="2936.44" cy="4276.89" r="74.57"/><circle class="cls-18" cx="3160.16" cy="3978.6" r="74.57"/><circle class="cls-18" cx="3831.31" cy="3978.6" r="74.57"/><g class="cls-3"><text class="cls-4" transform="translate(2759.9 4603.15)">A</text></g><g class="cls-3"><text class="cls-5" transform="translate(3055.74 4603.15)">B</text></g><g class="cls-3"><text class="cls-5" transform="translate(3351.57 4603.15)">C</text></g><g class="cls-3"><text class="cls-5" transform="translate(3649.86 4603.15)">D</text></g><g class="cls-3"><text class="cls-5" transform="translate(3950.61 4603.15)">E</text></g><g class="cls-3"><text class="cls-5" transform="translate(2909.11 4304.86)">F</text></g><g class="cls-3"><text class="cls-5" transform="translate(3125.36 4006.57)">G</text></g><g class="cls-3"><text class="cls-5" transform="translate(3799 4006.57)">H</text></g><line class="cls-7" x1="2510.49" y1="3829.46" x2="2535.49" y2="3829.46"/><line class="cls-8" x1="2586.97" y1="3829.46" x2="4208.56" y2="3829.46"/><line class="cls-7" x1="4234.3" y1="3829.46" x2="4259.3" y2="3829.46"/><text class="cls-19" transform="translate(4271.11 837.43)">Single G<tspan class="cls-20" x="343.59" y="0">r</tspan><tspan x="375.79" y="0">aph</tspan><tspan class="cls-21" x="536.39" y="0"> </tspan><tspan class="cls-22" x="553.99" y="0">W</tspan><tspan x="636.99" y="0">ith</tspan><tspan class="cls-23" x="72.3" y="120">M</tspan><tspan x="153" y="120">ultiple </tspan><tspan class="cls-24" x="439.99" y="120">R</tspan><tspan x="494.19" y="120">oots</tspan></text><text class="cls-25" transform="translate(4461.76 2683.34)"><tspan class="cls-26">S<tspan class="cls-27" x="49.9" y="0">epa</tspan><tspan class="cls-20" x="205.1" y="0">r</tspan><tspan class="cls-28" x="237.3" y="0">a</tspan><tspan class="cls-29" x="285.1" y="0">t</tspan><tspan class="cls-27" x="317.6" y="0">e</tspan></tspan><tspan x="35.35" y="120">G</tspan><tspan class="cls-20" x="99.95" y="120">r</tspan><tspan class="cls-30" x="132.15" y="120">aphs</tspan></text><text class="cls-31" transform="translate(4461.76 4208.96)"><tspan class="cls-26">S<tspan class="cls-27" x="49.9" y="0">epa</tspan><tspan class="cls-20" x="205.1" y="0">r</tspan><tspan class="cls-28" x="237.3" y="0">a</tspan><tspan class="cls-29" x="285.1" y="0">t</tspan><tspan class="cls-27" x="317.6" y="0">e</tspan></tspan><tspan class="cls-32" x="75.5" y="120">T</tspan><tspan class="cls-33" x="120.7" y="120">r</tspan><tspan x="152.4" y="120">ees</tspan></text><text class="cls-34" transform="translate(0 310.79)">Unlike a t<tspan class="cls-35" x="581.84" y="0">r</tspan><tspan x="629.39" y="0">e</tspan><tspan class="cls-36" x="704.54" y="0">e</tspan><tspan x="777.89" y="0">, chopping an A</tspan><tspan class="cls-23" x="1757.37" y="0">R</tspan><tspan x="1838.52" y="0">G </tspan><tspan class="cls-37" x="1967.21" y="0">a</tspan><tspan class="cls-38" x="2038.91" y="0">t</tspan><tspan x="73.57" y="180">di</tspan><tspan class="cls-39" x="193.27" y="180">ff</tspan><tspan class="cls-40" x="278.77" y="180">e</tspan><tspan class="cls-41" x="353.92" y="180">r</tspan><tspan x="401.47" y="180">e</tspan><tspan class="cls-37" x="476.62" y="180">n</tspan><tspan x="559.26" y="180">t times does not al</tspan><tspan class="cls-37" x="1704.95" y="180">w</tspan><tspan class="cls-42" x="1814.75" y="180">a</tspan><tspan class="cls-29" x="1885.85" y="180">y</tspan><tspan x="1955.6" y="180">s</tspan><tspan class="cls-41" x="268.64" y="360">r</tspan><tspan class="cls-40" x="316.19" y="360">etu</tspan><tspan class="cls-43" x="523.64" y="360">r</tspan><tspan x="573.29" y="360">n sepa</tspan><tspan class="cls-44" x="980.53" y="360">r</tspan><tspan class="cls-45" x="1028.83" y="360">a</tspan><tspan class="cls-46" x="1100.53" y="360">t</tspan><tspan class="cls-40" x="1149.28" y="360">e subt</tspan><tspan class="cls-41" x="1533.27" y="360">r</tspan><tspan class="cls-40" x="1580.82" y="360">ee</tspan><tspan class="cls-47" x="1731.12" y="360">s</tspan><tspan class="cls-38" x="1788.87" y="360">.</tspan></text></svg>